<svg id="Layer_1" data-name="Layer 1" xmlns="http://www.w3.org/2000/svg" viewBox="0 0 322.2324 226.77"><defs><style>.cls-1{fill:#231f20;}.cls-1,.cls-2,.cls-3,.cls-6,.cls-8{fill-rule:evenodd;}.cls-2,.cls-4{fill:#3e479d;}.cls-3{fill:#ec5e24;}.cls-4,.cls-5,.cls-7,.cls-9{font-size:22px;font-family:SwankyandMooMoo, Swanky and Moo Moo;}.cls-5{fill:#f26522;}.cls-6,.cls-7{fill:#65bc46;}.cls-8,.cls-9{fill:#771214;}</style></defs><title>routing-nested</title><path class="cls-1" d="M309.2783,212.92c-.31,2.5673-.1072-12.1195-.1532-18.4591-.1475-3.195-.09-13.0292-.1742-18.4311.0151-8.7463-.05-19.9489.11-24.29-.215-10.7627-.108-23.45-.2037-36.6442-.0763-6.1648-.1409-11.381-.227-18.3314-.04-6.9925-.0777-13.6-.1217-21.3167-.14-16.511-.3124-38.235-.3766-60.5447l.7094.7094c-18.83.0542-38.1006.0372-55-.1265-8.64.02-12.6961.22-21.3156.2392-70.2462-.3066-110.5906-.4165-182.58-.2392-15.3918-.16-23.6747.14-33.4843-.2408l-3.07.013.3552-.3552c.1051,26.1779.0633,52.4214-.1326,76.054.206,9.9051.3872,19.3773.48,30.4223.2261,26.936-.1314,49.101,0,82.173-.0039-.9781-.1914,1.5847-.12,3.033.07,1.4235.12,3.5524.1544,6.26l-.7374-.7374c9.5687-.13,25.772-.0548,36.2805-.0815l84.9-.3038c16.3546.126,34.7311.1756,54.6711.1764,37.6559.3139,81.4775.2789,118.9275.7041,2.9337.2728-7.7225.1738-8.798.3419-2.7233.1615,17.4808.0449,6.2591.1692,3.1131.3117-15.9276.1748-18.194.1009-10.4417.0485-17.1-.0212-24.4434-.0743-29.5233.1181-65.2984-.0537-97.5573-.1688-18.0406-.0515-25.1679.1938-39.5766.0052-23.196.3121-61.24.4617-94.343.7243l-18.1259-.07-.7873-.003.001-.7833c.0282-22.0616-.1511-35.2429.1686-54.95-.5234-37.9231-.4936-74.0358-.48-127.8124l.059-15.18.004-1.04,1.0347.0013,146.1.1817c11.3568.1919,33.2636-.0318,39.5666.36,14.83-.2636,40.0735-.0108,54.7828.12,7.0561-.2661,8.1372-.106,15.2009-.2408,14.1631.0682,27.0172.0918,39.799.07l.5471-.0009.0009.549c.0276,16.4105.1295,32.726.2925,51.6641.0635,32.8092-.11,42.47.1424,64.2365-.0151,12.826-.2233,16.9521-.0612,27.4967-.0332,5.1957.1484,8.0166-.0225,9.1521-.1169,13.2274.0361,16.9648-.2405,21.2351C309.4547,197.8694,309.5429,212.4965,309.2783,212.92Z"/><path class="cls-2" d="M95.4329,207.649c-.3085,1.2243-.1123-6.5113-.1606-9.9122-.1445-1.7674-.091-6.983-.172-9.8962.0128-4.6541-.0488-10.6476.0993-12.8979-.2006-5.8175-.1017-12.5344-.19-19.5984-.0693-3.3093-.128-6.1142-.2061-9.8457-.0365-3.7394-.071-7.27-.1113-11.3957-.2323-16.3144-.6045-42.0155-.2667-61.5521-.0217-4.596-.2191-6.7878-.2413-11.3657.1037-15.99.1884-29.0608.2675-41.26l.5434.5434c-17.5456-.0693-33.95-.0617-55.8563.04-8.1985-.16-12.61.14-17.8356-.2407l-1.635.013.3552-.3552c.1051,13.9438.0633,27.9225-.1326,40.51.206,5.276.3872,10.3214.48,16.2046.2261,14.3476-.1313,26.1539,0,43.77-.0039-.521-.1914.8441-.12,1.6156.3316,3.5874.2026,15.5861.2393,22.699.08,10.0816.2268,28.5573.36,45.3808-.07,5.3378-.11,11.0823-.1241,17.3l-1.0584-1.0584,11.757.0028c19.8849.3088,43.023.3494,63.1.8132,1.6887.2735-4.0288.1721-4.5317.3445-1.3857.1671,9.3466.0374,3.4131.1692,1.8064.311-8.4458.1964-9.68.1178-5.5661.06-9.1507-.0095-13.0846-.0649-15.4334.1453-34.1192-.0445-50.9743-.1785l-.1467-.0012.001-.1445.0079-1.0865c.0566-9.5971-.2007-13.435,0-21.073-.3227-12.4-.4585-32.6483-.7192-50.2511.2192-18.1015-.16-25.79.2393-38.9041-.5235-20.2-.4937-39.4355-.48-68.08.02-2.7493.04-5.4811.059-8.0859l.0076-1.0411,1.0312.0023,75.3269.17.8726.002-.004.8666c-.0036.7821-.0076,1.6408-.0116,2.5018-.1916,6.0617.0291,17.7815-.3619,21.1129.261,7.9443.0033,21.4016-.1266,29.2145.2582,3.8232.1017,4.3655.23,8.1688-.1634,17.1769-.0887,30.7585.1683,48.8594.0507,17.5073-.1053,22.5917.1331,34.2907-.007,6.8349-.1977,8.9543-.04,14.6424-.0273,2.7584.146,4.3368-.0136,4.874-.1,7.01.0515,9.07-.211,11.23C95.5947,199.6983,95.697,207.5465,95.4329,207.649Z"/><path class="cls-3" d="M103.69,21.276c.39-8.7628.4122,17.9242.4158,36.84.0159,22.8109.0264,37.928.041,58.8446.0541,14.0279.1346,27.056.1149,44.8484-.0281,8.8058.0849,10.9506.12,16.8036-.0266,5.0239-.0312,5.91-.0592,11.195.08,3.7009.0933,10.4737.0992,17.598l-.2187-.2187c9.9368-.0083,20.552-.0021,24.4021-.1411,11.3035.1807,21.05.0256,39.1953.06,33.7045.0935,58.2053.0586,89.6173-.18l48.0758.0585-.4212.4212c-.02-5.4864-.0393-10.9671-.0584-16.3271.0293-9.5817.1212-39.6639.18-58.81-.1414-18.8556-.2981-39.7536-.42-56.0021.0435-11.976.17-20.0783.3-28.0084q-.026-14.7183-.05-28.333l.47.47c-21.3366.0082-41.1845-.0739-61.2329-.2949l-100.501.3061c-18.7447-.03-35.3336.0905-39.3444-.269a23.05,23.05,0,0,0,2.759-.041c-2.75-.1694,14.7292-.0246,16.6658-.1258L143.4,19.9248l39.1249-.1593,30.7562-.1781,78.54.2774c5.6217-.0277,9.6062-.09,13.6711-.1515l.2084-.0031.0032.2148c.0709,4.7132.14,9.5307.1486,17.1329-.0952,12.2212-.1527,19.6005-.24,30.7978.0383,10.4489.2652,13.74.12,25.2044.0749,5.8278.1164,9.0614.18,14.0042-.0827,22.4832.0325,42.1047-.18,61.6131.1116,11.0116.0877,24.7.0308,38.7281l-.0011.272-.27-.0012-34.0814-.1506c-17.3775.1877-44.7682.1606-67.21.24-33.63-.1476-62.5141-.0915-99.999-.0371l-.3228,0,0-.3236c-.0106-8.7647-.0222-18.46-.0348-28.8541-.0572-16.6453-.1447-42.1121-.2026-58.9836.0432-33.47.0588-45.5607.0978-75.771-.0174-3.7123-.0487-10.3942-.0661-14.1072C103.6791,26.8841,103.6845,24.0716,103.69,21.276Z"/><text class="cls-4" transform="translate(26.4609 109.7847)">Outlet<tspan x="-0.6445" y="26.3999">“menu”</tspan></text><text class="cls-5" transform="translate(128.2588 38.1313)">Outlet “content”</text><path class="cls-6" d="M299.6334,53.7349c-.0539,2.0011-.0429,8.0979-.1577,6.4657.0145,8.253-.14,6.1554-.15,13.09-.0026,12.8234-.0324,26.7894.0418,37.4959-.1842,14.9714-.0718,27.36-.1758,48.2264.0323,15.7228.065,25.6956.002,41.7756.0124.6963.0251,1.4127.0387,2.1767l.82-.82c-8.0739.1236-18.4914.0565-28.8446.0682-10.6528.0132-22.2875.0811-33.0757-.0171-16.791.0459-30.9831.1719-50.913.1206-8.925.1211-16.1914.2119-26.6353.1181-8.5662.0508-24.4367.2041-31.03.1079-6.7113-.0606-4.4538.1538-11.1621.0938-.82.123-5.8318-.1026-6.7637.1045l-.3114-.01.2348.2348c.1258-4.8645.0863-4.4755.0806-12.8076-.2344-12.8369-.0562-24.4541-.2012-42.1915.019-31.3546.04-65.67.0617-101.9659l-.1758.1758,172.9381.2122c.3936-.1317,16.0685.067,13.5243-.1242,6.901-.0378-6.1847-.0453-4.0208-.1335-4.4766-.0176-4.0564-.1229-6.0984-.1856-11.2958-.1278-17.8275-.3566-32.0314-.4633l-59.4755-.2051c-4.3076-.0319-4.5082.0618-6.815.0915-4.3-.1451-19.034-.0611-24.06-.191-6.2891.0482-11.5716.0337-17.6518-.0517-3.1256.1836-9.974.0316-15.4461-.0426a55.465,55.465,0,0,1-6.7878.1027l-14.0759-.0307-.8454-.0018,0,.8474c-.0033,17.2772-.0056,28.9386-.0105,54.3128.0508,5.1178.0073,13.3161.0786,17.7609-.1389,1.4521-.0522,12.3017-.1016,17.514.0172,18.5073.0333,35.8156.0513,55.2253.026,3.7225.0538,7.7189.0848,12.152l.0052.7457.7377-.0027,61.0724-.2243c9.2212.1653,15.6592-.002,22.0846-.0083l13.1108.0908,11.1585-.0937,19.8746-.0137,26.5588-.0581c1.6694-.0078,1.7164-.05,2.278-.0547.9569-.0076,2.0276.01,2.8635.0295l1.4548.0408c8.1249-.0112,14.8621-.0683,22.0822-.0083l6.1978-.0353.4088-.0023-.0011-.4053c-.0322-11.5465-.0656-23.528-.1065-38.1623.0865-21.0805-.1292-34.781-.0259-50.8311-.0252-4.6357-.123-6.4231-.0871-13.3266-.1191-5.3217.0836-4.0276.0655-10.9769-.097-4.3912-.0469-14.8643-.1218-19.98.0067-8.598-.0127-16.1418-.1064-19.9558a13.4085,13.4085,0,0,1-.0816-2.2835C299.8843,41.96,299.8165,55.27,299.6334,53.7349Zm.7023,119.8788c-.0327,1.0991-.0718-1.6848-.0545-2.2761C300.3142,170.2379,300.3532,173.0221,300.3357,173.6138Z"/><text class="cls-7" transform="translate(118.0901 65.0284)">Lorem ipsum</text><path class="cls-8" d="M294.6314,198.4348c-.3105,1.284-.1055-6.7589-.1507-10.29-.1486-1.8243-.09-7.2449-.175-10.26.0157-4.8345-.051-11.0447.1127-13.4084-.22-6.0031-.11-12.9944-.2082-20.3042-.0779-3.4119-.144-6.3033-.2318-10.1506-.04-3.8634-.0782-7.5111-.1226-11.7741-.0739-5.5425-.162-12.1608-.2575-19.3234l.5958.5958c-14.39.1521-30.8651.2267-44.5335-.0128-4.7755.02-7.0175.22-11.7817.2393-38.8271-.3066-61.1266-.4165-100.9173-.2393-8.5075-.16-13.0857.14-18.5078-.2407l-1.6966.013.3552-.3552c.1051,14.4693.0633,28.9748-.1326,42.0372.206,5.4748.3872,10.71.48,16.8153.1861,12.2547-.0231,22.7227-.03,36.4226l-.6728-.6728,8.9711-.0293c-.5392.0039.8808.1913,1.6768.12,3.6981-.3311,16.1088-.199,23.4621-.2313l46.7942-.2938c9.0416.1251,19.19.1741,30.1863.1743,20.8563.3091,45.008.2687,65.8678.691,1.743.2727-4.1894.174-4.712.3416-1.4372.1611,9.6879.0455,3.5353.1692,1.8608.3118-8.7421.1732-10.0245.1-5.7593.0477-9.472-.0222-13.5533-.0751-16.2943.1156-36.1448-.0552-54.002-.1684-9.9834-.0508-13.8784.1912-21.88.0053-12.7705.3082-33.8005.4574-52.1048.7226-10.4992-.118-17.62-.0546-24.2167-.043l-.8084.0014-.0014-.8112c-.0091-5.2739.0148-10.2025.192-16.2388-.5235-20.9612-.4937-40.9217-.48-70.6457.02-2.8529.04-5.6876.059-8.3906l.0073-1.0411,1.0314.0023,80.7537.1817c6.2773.1919,18.3858-.0317,21.87.36,8.1972-.2636,22.15-.0107,30.28.12,3.9-.2662,4.4977-.106,8.402-.2408,12.9594.113,23.9362.1034,36.1315-.0326l.6412-.0072.0092.6576c.0638,4.5652.13,9.326.2014,14.425.073,18.2072-.1042,23.5445.1548,35.6708-.016,7.1273-.2294,9.3692-.0656,15.2662a50.5214,50.5214,0,0,1-.0249,5.08c-.1221,7.3132.0314,9.442-.25,11.7164C294.8129,190.1595,294.8962,198.3181,294.6314,198.4348Z"/><text class="cls-9" transform="translate(123.7423 121.9682)">Lorem ipsum</text><text class="cls-7" transform="translate(124.2125 95.4573)">Sub-Outlet</text></svg>