<svg xmlns="http://www.w3.org/2000/svg" xmlns:xlink="http://www.w3.org/1999/xlink" viewBox="0 0 658.4196 321.2462"><defs><style>.cls-1{filter:url(#dropshadow);}.cls-2,.cls-3,.cls-6{fill:#ec5e24;}.cls-2,.cls-5,.cls-7{fill-rule:evenodd;}.cls-3,.cls-4,.cls-8{font-size:22px;font-family:SwankyandMooMoo, Swanky and Moo Moo;}.cls-4,.cls-5{fill:#65bc46;}.cls-7{fill:#231f20;}.cls-8,.cls-9{fill:#3e479d;}.cls-10{fill:none;stroke:#ec5e24;stroke-miterlimit:10;}.cls-11{fill:#fff;}</style><filter id="dropshadow" name="dropshadow"><feGaussianBlur stdDeviation="1" in="SourceAlpha"/><feOffset result="offsetblur" dx="1" dy="1"/><feComponentTransfer><feFuncA type="linear" slope="0.2"/></feComponentTransfer><feMerge><feMergeNode/><feMergeNode in="SourceGraphic"/></feMerge></filter></defs><title>x</title><g id="Layer_2" data-name="Layer 2"><g class="cls-1"><path class="cls-2" d="M33.52,119.7145c-.7634-.8065-.499-11.8812-1.0427-16.6054q-.0056-9.6107-.011-19.2287a16.1193,16.1193,0,0,1,.0307-2.1072l.0108-.0973.0786.008c1.1418.116.989.422,1.0952.69a23.0953,23.0953,0,0,1,7.9971-.24,108.8142,108.8142,0,0,1,11.1909.24c4.31-.5537,15.419-.0859,22.3838-.24,18.2441-.6969,43.1528-.6734,64.34-.736l.3748-.0012.0009.3769c.0293,10.1768.0769,19.37.2241,26.793-.2685,4.648.05,7.5022-.3986,12.0818l-.0218.2216-.1794-.02-.7087-.0809c-4.68-.0645-4.9329.5418-9.6336.478-4.3352-.1476-12.7922.2948-14.41-.2442-7.2253.4506-22.6694.9-30.6443.4171-2.5942.7615-5.947-.0386-9.8735.4l-14.51-.0732c-8.459.0732-19.6008.7842-27.7146.1815-2.1894-.3293,2.2134-.996,8.8626-.8308,3.5949-.278,10.7514-.1024,14.7146-.3509,10.8061-.5122,19.7937-.175,29.0881-.65,9.4246.025,19.91-.3252,30.3254-.5118,7.7535-.1366,15.659-.2622,24.5042-.27L138.26,120.648c.0037-1.6318.0085-3.64.0134-5.6861.27-4.5964.0489-12.4691.4805-15.9917-.6377-2.3518-.19-5.9587-.24-9.5922-.063-2.2067-.1307-4.5851-.2166-7.6048l1.2964,1.2965c-2.6856.0461-5.9138.0216-9.9793-.2165-14.0124.2383-27.1513.7051-38.3737.24-9.1026.9648-17.5882.5488-31.9759.72l-26.6777-.4024,1.6375-1.6376c-.076,2.7938-.1853,6.2039-.3426,9.8372.0982,4.5227.365,9.8367.3762,14.8135A92.0032,92.0032,0,0,1,33.52,119.7145Z"/><text class="cls-3" transform="translate(40.6833 106.0889)">Feature A</text><path class="cls-2" d="M368.8615,59.6659c-.7895,2.4343-.8137-6.9439-.822-13.5348-.0371-7.9962-.1875-13.2775-.0886-20.5363-.0442-1.7288-.0874-3.4149-.1324-5.1648l.0127.0126c-3.1269.0768-6.4255.1348-10.4174.1074-3.0616-.0576-3.8011.1709-5.835.24-1.7478.0151-2.0554-.147-3.8938-.12-3.0772.3814-12.2993.003-14.5955.48-3.9272-.3613-7.3134-.0512-13.6179-.12-11.71-.187-20.2229-.1172-31.1367.3594-4.6924-.0456-10.7-.1728-16.7034-.117l.8423-.8424c.0178,1.9063.054,3.8107.117,5.6726-.2032,3.3264-.2061,13.7812-.3594,20.4329.16,4.1823.33,8.6474.4878,12.7693l-1.0877-1.0878c2.3723-.1,4.6033-.2125,6.6157-.35,4.1187.0892,6.9273.3441,9.6976.605,11.2292-.1821,20.9477-.1065,31.103.5,12.5049-.1,23.0137-.2612,34.4087-.5991,6.4953.05,11.9721-.2094,13.95.5078-.84-.0182-.8806.0309-.8862.0829,1.2265.3371-5.06.0525-5.5789.2523-3.438-.0751-3.622.1332-6.7295.0892-3.8794.145-8.2461.2609-13.4282.3029q-4.8542.2-10.5625.3359c-9.97-.0628-18.7534-.2877-27.5486-.5223-4.1931.1164-5.6745.5562-10.6176.5948-4.2862-.0713-6.89-.3528-10.7962-.4717-3.6274.0767-4.7666.5307-8.7715.24l-.8562.04-.49.023-.03-.5432c-.0852-1.536-.23-2.5611-.32-4.0122.1656-7.8116-.0649-14.6289.36-21.4069-.2231-3.8259-.1753-8.5817-.0615-13.4557l.0129-.5551.5288.0135,11.8411.3013c6.0376-.3755,15.5544-.3213,23.3516-.48,14.5788.3682,26.5908.1025,44.7546,0,4.5207-.2268,10.9263-.2207,16.2524-.3428l1.04-.0238.0234,1.0869c.0337,1.5516.0757,2.9808.1336,4.2743-.1316,11.84.0068,16.2249-.222,26.8741.0806,1.3756.04,3.7284.1092,5.1123C368.8972,57.6827,368.8793,58.6773,368.8615,59.6659Z"/><text class="cls-3" transform="translate(304.8295 43.347)">App</text><path class="cls-2" d="M584.6821,119.3774c3.5495.91-6.6231,1.5585-13.87,1.57-8.727.0891-14.52.0094-22.5158-.4-5.3648-.1028-10.3531-.2054-17.1641-.5887-3.37-.2244-4.1953-.0318-6.4385-.0718-1.9255-.08-2.2573-.2476-4.2837-.3072-3.4028.1937-13.5525-.453-16.0883.0148-4.3211-.4035-8.0533-.108-14.9878.0194-2.6128.0721-5.0806.178-7.4485.282l-6.8343.532-.5644.044.0068-.56c.0823-6.6253-.0056-12.84-.3869-19.9772-.0193-4.9015-.0633-11.1145-.2754-17.397l-.0283-.8382.8464-.02c2.4326-.0587,4.8811-.1424,7.2661-.258,3.6731.1386,15.2075-.0087,22.5469.12,7.2265-.3145,15.2424-.4781,21.4714-.8238,4.5921.1138,7.6963.4038,10.7329.6968,12.4944-.0387,23.3789.2377,34.33,1.1964l15.7542.331.5378.0113.0012.5561c.0166,7.7218-.5525,15.1016-.9074,22.9166-.681,7.1587-.4522,13.52-1.4549,14.8986.0423-.9079-.0249-1.0074-.0967-1.0717-.2392.49-.2531-.9226-.176-2.5546a32.5967,32.5967,0,0,0,.0886-3.8774c.336-3.7081.1077-4.1279.4432-7.4967.18-4.41.5419-9.2915.8654-14.9964.0474-2.4272.0872-4.977.0567-7.834l.5971.6286-3.9458-.0434L552.747,82.6333c-4.6562.0334-6.3882.4386-11.8088.3986-4.6814-.1469-7.5022-.4525-11.7923-.6115-4.0044.0486-5.2668.49-9.6574.1876-2.2351.061-3.4712.2422-5.365.3514-8.6126-.1655-16.126.1114-23.6031-.2195-4.4795.2886-10.1189.3121-15.8432.2943l.5085-.5336c.0093,4.1087.0188,8.2638.0276,12.0551.5352,6.5539.522,16.8595.5032,25.3774l-.781-.7221.3913-.0379c8.05-.5568,15.3929-.779,23.231-.8617,7.8379-.0706,16.1726.0776,26.1863.4969,6.3689.0008,16.0864.6228,22.5278.6134,6.3818.3354,10.7266.4387,14.9141.4916,2.0942.0464,4.1479.0344,6.3979.0389,2.2508.0253,4.6951-.009,7.5713-.0393,1.4021-.1253,3.9338-.2139,5.33-.4036Z"/><text class="cls-3" transform="translate(483.5668 107.479)">Feature B</text><text class="cls-4" transform="translate(46.6555 234.1042)">Service A</text><path class="cls-5" d="M137.5951,210.0771c-.8032.5272-3.8037.5618-7.1989.5706l-5.1656.0513c-1.67.0442-3.2126.1285-4.4.2634-6.0642-.0677-12.1335-.0108-18.2019.1053-3.2376.1694-2.8992-.2908-3.0488-.6656a20.8555,20.8555,0,0,1-7.5843.4056,94.432,94.432,0,0,1-10.6213-.0208c-4.08.6328-14.6243.274-21.2249.26a207.3063,207.3063,0,0,1-23.3056-.8345l.2012-.1837c.1672,6.1224.2522,12.4868.2089,18.8163-.0415,6.3294-.19,12.62-.32,18.6019l-.366-.3839c9.7837.19,18.626.2477,25.7491.1436,4.65.3082,7.4084-.0572,12.1352.5069,4.4427.0438,4.6585-.5492,9.1-.5246,4.1194.13,12.0335-.4379,13.6553.0777,6.7844-.5434,21.1-1.4159,28.7964-1.2145,2.09-.9166,5.6125-.1743,9.0764-.8244l2.3679-.0951-1.2634,1.3338-.1345-11.2815c-.2058-7.9323-1.4024-17.6988-.7879-25.7892.4163-2.3673,1.4278,1.1316,1.2906,7.5729.4165,3.1631.2861,10.0715.6421,13.6475.414,5.594.4978,10.8138.6023,15.8311l.0058.2824-.2871.0143c-3.9148.1952-7.7.3923-11.4622.7468-8.989.2746-18.8754.8836-28.823,1.2151-9.1.3043-18.468.524-28.85.4463-4.365-.2815-11.8442-.1088-15.1846-.59-2.2412.614-5.6614.1165-9.112.1058-2.1709-.0024-4.5169.0856-7.554.0711l-1.2839-.0062.0119-1.3279c.0223-2.46.1294-5.4319.4385-9.1315.06-10.0343-.262-19.5667-.345-28.2189l-.0163-1.6795,1.6865.1536c2.7915.2541,5.4705.6268,8.0579.8846,8.63-.3776,16.5942.3,30.2155.0189,10.02.1319,21.0091-.3093,34.9034.089,4.4265-.1746,9.7788-.4946,14.7827-.554,2.5022.01,4.9155.0383,7.0737.2169A31.2346,31.2346,0,0,1,137.5951,210.0771Z"/><path class="cls-5" d="M480.0029,242.9687c-1.1148-1.5288-.8045-11.9079-1.4046-16.6372q.02-9.0672.0391-18.1413c-.0149-.4624-.0186-.8515-.0125-1.1624l.0027-.1344.13,0c1.9775-.0064,1.7478.3779,1.8755.6992a20.6808,20.6808,0,0,1,7.5569-.3873,97.3468,97.3468,0,0,1,10.5859.0342c4.064-.6329,14.5772-.37,21.1594-.6521,12.6209-.7559,28.6275-1.1916,44.2442-1.55l11.581-.258a7.2758,7.2758,0,0,1,2.939.374,3.0415,3.0415,0,0,1,1.2532.953,3.9605,3.9605,0,0,1,.6574,1.3785,18.6608,18.6608,0,0,1,.399,2.7846q.1329,1.3608.2629,2.6968c.6472,7.1284.9038,13.7166.99,19.266-.26,3.8344-.126,6.3871-.5308,9.8569l-.0412.3531-.3062-.0309c-.6648-.0672-1.4241-.1568-2.2424-.2764-4.4236-.1769-4.657.4233-9.0806.2463-4.0994-.2575-12.0022.0057-13.5972-.574-6.778.28-21.0634.573-28.7155.1044-2.1123.8356-5.5928-.02-9.06.5241q-6.7878.0691-13.574.2812c-7.8921.3543-17.5078,1.9539-25.5366,1.9805-2.377-.2326,1.0053-1.536,7.417-1.7913,3.1184-.6085,9.9965-.7934,13.5471-1.22,9.87-1.0094,18.5976-.7005,27.2075-1.2141,8.9629.0445,18.832-.1576,28.7471-.104,7.8711.039,15.9363.1374,24.9294.37l-1.365,1.2656c.0484-1.075.1087-2.4142.17-3.771.45-4.3135.169-11.7171.439-15.0444-.717-2.1856-.4487-5.591-.779-8.9991-.0906-.9892-.2271-2.011-.37-3.1129a23.215,23.215,0,0,0-.5659-3.3133,1.6723,1.6723,0,0,0-.6795-.9387,3.4029,3.4029,0,0,0-1.5705-.38c-.6939-.0415-1.5947-.0237-2.49-.0485l-2.8659-.09c-13.2444.4961-25.6585,1.2046-36.2786.9465-8.5876,1.1321-16.6191.8723-30.2195,1.308-7.6916-.0191-15.9389.1322-26.0583.0842l1.5854-1.6133c-.0893,2.4721-.2,5.5188-.3154,8.72C480.2839,224.5624,481.4,237.0128,480.0029,242.9687Z"/><text class="cls-4" transform="translate(488.5366 229.1865)">Service B</text><polygon class="cls-6" points="529.321 119.359 529.321 194.63 523.537 194.63 530.114 206.022 536.691 194.63 530.908 194.63 530.908 119.359 529.321 119.359"/><text class="cls-3" transform="translate(540.5212 163.2764)">providers</text><polygon class="cls-6" points="86.331 121.811 86.331 197.719 80.547 197.719 87.124 209.111 93.701 197.719 87.918 197.719 87.918 121.811 86.331 121.811"/><text class="cls-3" transform="translate(96.8696 166.0089)">providers</text><path class="cls-7" d="M632.506,265.8177c7.2137,1.6237-13.812,1.7805-28.738,1.8-17.9917.1011-29.9158.3266-46.4128.18-11.052.18-21.3235.4241-35.3768.36-6.9562-.0864-8.6359.2563-13.2573.36-3.9709.0227-4.67-.2205-8.8469-.18-6.9917.572-27.9438.0044-33.1609.72-8.9228-.542-16.6164-.0769-30.94-.1794-26.606-.2806-45.9468-.1758-70.7432.539-14.0427-.09-33.2727-.3926-50.8391,0-7.5576-.3046-31.311-.3091-46.4241-.539-14.8847.4079-31.39.6833-44.2075,1.26-9.4538-.13-15.85-.509-22.11-.9-25.7256.2835-48.1326.2359-70.7354-.72-28.613.1926-52.7619.48-79.5849,1.26-14.8145-.0358-28.0549.6109-30.9426-.9,1.88.0329,2.0832-.0711,2.2128-.181-2.0419-.7053,11.6563-.13,13.2574-.539,7.674.1443,8.5-.2681,15.4724-.18,9.0825-.2805,19.1594-.4805,30.9509-.54q11.28-.3417,24.312-.5406c22.4153.1561,42.0679.5355,61.9019.9,9.5891-.1794,13.1428-.85,24.3142-.9,9.6514.1143,15.47.5406,24.3115.72,8.2483-.115,10.8462-.7955,19.896-.36,4.6052-.1054,7.1516-.3794,11.0549-.54,17.7481.2483,33.2371-.0974,48.6368.54,15.8735-.6115,38.7932.1333,57.4753.36,13.7178-.5633,35.34-.482,53.0552-.72,33.1233.5524,60.415.1539,101.6833,0,13.0948-.4335,33.1507-.3,46.4239-.72,26.362.1582,35.8862-.145,59.6806,0,2.9036-.1831,8.1477-.1765,11.052-.36Z"/><text class="cls-3" transform="translate(135.0375 292.7062)">ngModules</text><text class="cls-4" transform="translate(297.3088 292.7686)">Services</text><text class="cls-8" transform="translate(452.1435 292.2149)">Intention</text><text class="cls-3" transform="translate(143.7331 56.9792)">imports</text><path class="cls-6" d="M271.1288,36.4449a115.225,115.225,0,0,1-14.259,9.8262c-4.9963,2.92-10.1765,5.529-15.439,7.9675C230.8862,59.0757,220.0317,63.3049,209.28,67.76L149.42,92.282,147.2272,86.93l-8.049,10.4046,13.0354,1.7677L150.0212,93.75l59.86-24.5222c10.75-4.4547,21.5974-8.68,32.2144-13.5489,5.2959-2.4541,10.5222-5.086,15.5762-8.0392a116.8376,116.8376,0,0,0,14.4621-9.9676Z"/><path class="cls-9" d="M367.548,42.138a321.3053,321.3053,0,0,1,53.1429,24.2682q12.7027,7.25,24.7336,15.6018c4.0139,2.7679,7.9473,5.6517,11.8328,8.5966,1.9226,1.4988,3.88,2.9534,5.7744,4.4883l2.3935,1.9355-3.6426,4.4932c4.3023.6069,8.54,1.4074,12.8838,2.195-1.47-4.0991-2.9445-8.3074-4.6-12.4132l-3.6418,4.4927-2.4051-1.9446c-1.9031-1.5421-3.87-3.0037-5.8012-4.51-3.9039-2.9587-7.8558-5.8561-11.889-8.6372q-12.0743-8.3777-24.852-15.6765A322.8848,322.8848,0,0,0,368.071,40.64Z"/><text class="cls-8" transform="translate(415.4091 54.917)">loads lazy</text><polygon class="cls-6" points="318.434 137.268 318.434 197.719 312.65 197.719 319.227 209.111 325.804 197.719 320.021 197.719 320.021 137.268 318.434 137.268"/><text class="cls-3" transform="translate(325.8238 168.4732)">providers</text><path class="cls-9" d="M136.62,232.3117q27.7983-2.45,55.7368-2.5466,13.9527-.0484,27.8994.4913c4.6475.1773,9.2928.4154,13.9356.6868l6.9617.4537,2.9494.2232-.4343,5.7678c3.9148-1.9211,7.8611-3.7579,11.8469-5.6147-3.5808-2.5091-7.1975-5.0453-10.8589-7.5022l-.4345,5.7671-2.9566-.2237-6.9785-.4547c-4.6541-.2721-9.31-.5108-13.9692-.6885q-13.9761-.5411-27.9663-.4925-27.9728.0971-55.8714,2.5528Z"/><text class="cls-8" transform="translate(156.1352 247.8361)">can use</text><polygon class="cls-9" points="479.028 228.318 403.421 228.318 403.421 222.534 392.028 229.111 403.421 235.688 403.421 229.905 479.028 229.905 479.028 228.318"/><text class="cls-8" transform="translate(400.9401 245.9664)">can use</text><path class="cls-10" d="M288.1654,135.9128l63.9958,1.5379c-1.0928-10.2284-1.6779-20.59-1.7485-30.9607a446.3253,446.3253,0,0,0-61.7965-3.1351l-.1741,31.6634"/><text class="cls-3" transform="translate(299.8716 124.7086)">Core</text><text class="cls-3" transform="translate(181.0373 105.451)">imports</text><path class="cls-6" d="M138.4111,107.17c24.1452,3.0556,48.0722,7.7534,72.2163,11.2448,12.07,1.7448,24.2,3.1894,36.3918,3.9486l4.5713.2866,4.5794.1473,4.5795.1431c1.5271.0245,3.0555-.0044,4.5833-.0041l4.5832-.02c1.5279-.0079,3.0542-.1178,4.5811-.1718l3.7422-.1647.3281,5.7749c1.89-1.1442,3.75-2.4529,5.58-3.7048l5.4007-3.7754-5.948-2.7788c-1.9541-.9378-3.8709-1.8233-5.7791-2.8739l.3279,5.7742-3.7158.1634c-1.5169.0536-3.0315.1631-4.55.1708l-4.5545.0195c-1.5183,0-3.0363.0287-4.5544.0043l-4.5542-.1425-4.5537-.1463-4.5488-.2853c-12.1319-.7554-24.2195-2.1943-36.2635-3.9354-24.0915-3.4829-48.0273-8.1831-72.2451-11.2486Z"/><path class="cls-6" d="M474.0866,108.3636q-28.7325,5.043-57.7927,7.8891-14.5163,1.4215-29.0794,2.2909-7.28.44-14.5671.73l-7.2883.2612-3.07.0832-.155-5.7821c-3.7044,2.311-7.4429,4.5424-11.2137,6.8046,3.8228,2.1222,7.679,4.2744,11.5662,6.3447l-.155-5.7814,3.0766-.0834,7.3033-.2617q7.3014-.3025,14.5974-.7319,14.59-.8706,29.14-2.2956,29.093-2.8494,57.9129-7.9055Z"/><text class="cls-3" transform="translate(376.235 109.4513)">imports</text><path class="cls-6" d="M317.8554,59.7894q.3274,8.5481.5024,17.101l.1348,8.5532.0547,7.6408-5.7842.0178q3.3062,5.6461,6.5435,11.372,3.3394-5.6662,6.6106-11.4125l-5.7835.0178-.0549-7.6537-.1348-8.5676q-.1739-8.5669-.5034-17.13Z"/><text class="cls-3" transform="translate(325.7841 82.5565)">imports</text><path class="cls-5" d="M260.4694,250.6437c-1.1128-1.861-.79-14.4943-1.384-20.2508l.0437-15.6909,0-.1182.1179-.0017,6.39-.0961c3.9283-.17,3.5132.29,3.6914.6652a30.5311,30.5311,0,0,1,9.2007-.3786c4.8863-.0716,10.5071-.2488,12.8843.0465,4.9517-.6283,17.7451-.3528,25.759-.6277,15.3672-.7414,34.8531-1.1585,53.8633-1.4989l14.1-.2429a10.3606,10.3606,0,0,1,3.5329.4223,3.7161,3.7161,0,0,1,1.5628,1.032,4.0145,4.0145,0,0,1,.8342,1.65c.282,1.17.3459,2.2547.5139,3.3615q.19,1.6541.377,3.2781a182.2147,182.2147,0,0,1,.9257,23.4668c-.1406,1.5105-.2443,2.8555-.3366,4.1177l-.0342.4641-.4565-.0136a104.9776,104.9776,0,0,1-10.5972-.5715c-5.3858-.1724-5.6629.4286-11.0486.2614-4.9917-.2493-14.6072.0384-16.5557-.5336-8.2448.3063-25.6359.6472-34.956.2029-2.5706.8379-6.81.009-11.0335.5483q-8.2675.0931-16.5359.3045c-9.612.354-21.3732,1.9512-31.16,1.9377-2.884-.2478,1.2862-1.5253,9.0926-1.7646,3.8127-.6,12.187-.7626,16.5149-1.2018,12.0241-1.0076,22.6406-.7216,33.1191-1.2635,10.9075.0155,22.9153-.2214,34.9817-.2027,11.0388.0143,22.3938.11,34.969.4168.9646.0684,2.0549.1229,3.2427.17l-1.2351,1.1343c.4763-5.1334.4314-11.7489.6652-15.0517-.705-2.6692-.4516-6.8011-.9-10.94-.1287-1.2-.2939-2.4417-.4959-3.7769-.103-.6672-.21-1.3588-.321-2.0815a12.6427,12.6427,0,0,0-.4048-2.0343,1.9086,1.9086,0,0,0-.948-1.17,5.5589,5.5589,0,0,0-2.1672-.4814c-.8858-.06-1.9417-.0415-3.0437-.0668L379.75,213.97c-16.1245.4809-31.24,1.1751-44.1634.9046-10.4621,1.1222-20.2348.8532-36.7919,1.2731-11.438-.0342-23.8887.1851-39.5242-.03l1.3938-1.411c-.0278.76-.065,1.778-.1026,2.8088C260.7731,228.24,261.8735,243.3945,260.4694,250.6437Z"/><path class="cls-11" d="M253.54,245.9659c42.6137-3.0375,90.1179-1.717,132.9156-.8941a164.4031,164.4031,0,0,0-1.1423-32.9113,4.1511,4.1511,0,0,0-1.59-3.2269c-1.2107-.7975-3.0032-.8169-4.6261-.7925L253.64,210.028l-.1,35.9379"/><path class="cls-5" d="M254.86,245.97c-1.113-1.8611-.79-14.4943-1.3842-20.2509l.0437-15.6909.0005-.1181.1181-.0018,6.3894-.0961c3.9282-.17,3.5132.29,3.6914.6653a30.5243,30.5243,0,0,1,9.2007-.3786c4.8865-.0716,10.5071-.2489,12.8843.0464,4.9516-.6282,17.7451-.3528,25.759-.6277,15.3675-.7414,34.853-1.1585,53.8633-1.4989l14.1-.2429a10.3592,10.3592,0,0,1,3.533.4224,3.714,3.714,0,0,1,1.5627,1.0319,4.0133,4.0133,0,0,1,.8343,1.65c.282,1.17.3459,2.2546.5139,3.3614q.19,1.6541.3769,3.2781a182.2171,182.2171,0,0,1,.9258,23.4669c-.1406,1.51-.2444,2.8554-.3366,4.1176l-.034.4641-.4568-.0136a105.0044,105.0044,0,0,1-10.5971-.5714c-5.3858-.1725-5.6629.4285-11.0486.2613-4.9917-.2493-14.6072.0384-16.5557-.5335-8.2449.3062-25.636.6471-34.956.2028-2.5706.8379-6.81.0091-11.0332.5483q-8.268.0933-16.5362.3045c-9.612.354-21.3733,1.9512-31.16,1.9377-2.8838-.2477,1.2862-1.5253,9.0926-1.7646,3.8127-.6,12.187-.7626,16.5148-1.2018,12.0242-1.0076,22.6407-.7216,33.1192-1.2635,10.9075.0155,22.9153-.2214,34.9817-.2027,11.039.0143,22.3938.11,34.969.4168.9646.0684,2.0549.1229,3.2426.17l-1.2351,1.1343c.4764-5.1334.4314-11.7489.6653-15.0517-.7051-2.6692-.4516-6.801-.9-10.9405-.1287-1.2-.294-2.4416-.4959-3.7769-.103-.6671-.2094-1.3588-.321-2.0814a12.6672,12.6672,0,0,0-.4046-2.0344,1.9085,1.9085,0,0,0-.9482-1.17,5.5607,5.5607,0,0,0-2.1672-.4814c-.8858-.06-1.9417-.0415-3.0437-.0668l-3.4873-.0933c-16.1246.4809-31.24,1.1751-44.1634.9046-10.4621,1.1223-20.2348.8532-36.792,1.2731-11.438-.0342-23.8884.1851-39.5241-.03l1.3938-1.4109c-.0279.76-.065,1.7779-.1026,2.8087C255.1635,223.5656,256.2638,238.72,254.86,245.97Z"/><text class="cls-4" transform="translate(263.3793 232.1865)">Core Service</text></g></g></svg>