<svg xmlns="http://www.w3.org/2000/svg" xmlns:xlink="http://www.w3.org/1999/xlink" viewBox="0 0 658.4196 317.1109"><defs><style>.cls-1{filter:url(#dropshadow);}.cls-2,.cls-3,.cls-6{fill:#ec5e24;}.cls-2,.cls-5,.cls-7{fill-rule:evenodd;}.cls-3,.cls-4,.cls-8{font-size:22px;font-family:SwankyandMooMoo, Swanky and Moo Moo;}.cls-4,.cls-5{fill:#65bc46;}.cls-7{fill:#231f20;}.cls-8,.cls-9{fill:#3e479d;}.cls-10{fill:none;stroke:#ec5e24;stroke-miterlimit:10;}</style><filter id="dropshadow" name="dropshadow"><feGaussianBlur stdDeviation="1" in="SourceAlpha"/><feOffset result="offsetblur" dx="1" dy="1"/><feComponentTransfer><feFuncA type="linear" slope="0.2"/></feComponentTransfer><feMerge><feMergeNode/><feMergeNode in="SourceGraphic"/></feMerge></filter></defs><title>ngmodules</title><g id="Layer_2" data-name="Layer 2"><g class="cls-1"><path class="cls-2" d="M34.9059,120.1853c-.7634-.8065-.4991-11.8812-1.0427-16.6054q-.0054-9.61-.011-19.2287a16.1123,16.1123,0,0,1,.0308-2.1071l.0107-.0974.0787.008c1.1419.1161.9888.4221,1.095.69a23.0962,23.0962,0,0,1,7.9972-.24,108.8193,108.8193,0,0,1,11.1911.24c4.31-.5537,15.4188-.0859,22.3836-.24,18.2442-.6968,43.1529-.6733,64.34-.736l.3748-.0011.0011.3769c.0291,10.1767.0768,19.37.2239,26.793-.2685,4.6479.05,7.5021-.3986,12.0818l-.0217.2215-.1795-.02-.7087-.0809c-4.68-.0645-4.9329.5419-9.6334.478-4.3353-.1475-12.7924.2948-14.41-.2442-7.2253.4506-22.6692.9-30.644.4171-2.5944.7615-5.9473-.0385-9.8737.4l-14.51-.0731c-8.459.0731-19.6007.7841-27.7146.1814-2.19-.3293,2.2132-.996,8.8625-.8308,3.595-.2779,10.7514-.1024,14.7145-.3509,10.8064-.5122,19.7938-.175,29.0884-.65,9.4245.025,19.91-.3252,30.3253-.5118,7.7535-.1366,15.6588-.2622,24.5041-.27l-1.3336,1.3337c.0039-1.6319.0086-3.64.0135-5.6861.2706-4.5965.0488-12.4692.48-15.9918-.6377-2.3518-.1893-5.9587-.24-9.5922-.0628-2.2066-.1305-4.5851-.2164-7.6047l1.2963,1.2964c-2.6855.0461-5.9138.0216-9.9791-.2165-14.0127.2383-27.1513.7051-38.3739.24-9.1025.9648-17.5881.5488-31.9758.72l-26.6777-.4024L35.61,82.2441c-.0761,2.7938-.1855,6.2039-.3426,9.8371.0981,4.5227.3648,9.8367.3762,14.8135A92.001,92.001,0,0,1,34.9059,120.1853Z"/><text class="cls-3" transform="translate(42.07 106.5597)">Feature A</text><path class="cls-2" d="M370.2472,60.1367c-.79,2.4343-.8136-6.9439-.8221-13.5348-.0369-7.9961-.1872-13.2774-.0885-20.5363-.0443-1.7288-.0874-3.4149-.1322-5.1648l.0126.0126c-3.1271.0769-6.4255.1349-10.4173.1074-3.0618-.0576-3.8012.1709-5.8351.24-1.7478.0151-2.0555-.147-3.8938-.12-3.0773.3814-12.2992.003-14.5955.48-3.9272-.3613-7.3135-.0512-13.618-.12-11.71-.187-20.2229-.1172-31.1367.3594-4.6923-.0456-10.7-.1728-16.7034-.1169l.8424-.8425c.0178,1.9063.0539,3.8107.1169,5.6727-.2031,3.3263-.206,13.7811-.3593,20.4329.16,4.1823.33,8.6473.4877,12.7692l-1.0877-1.0877c2.3723-.1,4.6033-.2125,6.6158-.35,4.1186.0892,6.9273.3441,9.6975.605,11.2292-.1821,20.9478-.1064,31.1031.5,12.5048-.1,23.0136-.2611,34.4085-.5991,6.4954.05,11.9723-.2094,13.9506.5079-.84-.0182-.8806.0308-.8862.0828,1.2264.3372-5.06.0525-5.5789.2523-3.438-.0751-3.6222.1332-6.73.0892-3.8793.145-8.2461.2609-13.4282.3029q-4.8542.2-10.5625.336c-9.97-.0629-18.7533-.2878-27.5485-.5224-4.1932.1164-5.6746.5562-10.6178.5948-4.2861-.0712-6.89-.3528-10.7961-.4717-3.6275.0767-4.7666.5307-8.7715.24l-.8562.04-.49.0231-.03-.5433c-.0851-1.536-.2294-2.561-.32-4.0122.1655-7.8116-.0649-14.6289.36-21.4069-.2233-3.8259-.1753-8.5817-.0615-13.4557l.0129-.5551.5287.0135,11.8412.3013c6.0377-.3755,15.5543-.3213,23.3514-.48,14.5789.3682,26.591.1025,44.7548,0,4.5207-.2267,10.9264-.2207,16.2524-.3427l1.0394-.0239.0236,1.0869c.0336,1.5516.0756,2.9808.1335,4.2743-.1315,11.84.0069,16.2249-.2219,26.8741.0807,1.3757.04,3.7284.109,5.1123C370.2828,58.1536,370.265,59.1481,370.2472,60.1367Z"/><text class="cls-3" transform="translate(306.2162 43.8177)">App</text><path class="cls-2" d="M586.0678,119.8482c3.5495.91-6.6231,1.5586-13.87,1.57-8.7271.0891-14.52.0094-22.5159-.4-5.3646-.1028-10.353-.2054-17.1638-.5886-3.37-.2245-4.1953-.0319-6.4386-.0719-1.9255-.08-2.2573-.2475-4.2837-.3072-3.4029.1937-13.5525-.453-16.0884.0148-4.321-.4034-8.0532-.1079-14.9878.0194-2.6128.0722-5.08.1781-7.4484.282l-6.8342.532-.5646.044.0069-.56c.0823-6.6252-.0057-12.84-.387-19.9771-.0192-4.9016-.0632-11.1146-.2755-17.397l-.0283-.8382.8464-.02c2.4328-.0587,4.8813-.1424,7.2662-.2579,3.6732.1385,15.2075-.0087,22.547.12,7.2264-.3145,15.2424-.4781,21.4713-.8237,4.592.1137,7.6963.4037,10.733.6967,12.4943-.0387,23.3788.2377,34.33,1.1964l15.7541.331.538.0113.0011.5561c.0166,7.7218-.5525,15.1016-.9074,22.9166-.681,7.1587-.4521,13.52-1.4548,14.8986.0422-.9079-.0249-1.0073-.0968-1.0717-.2391.49-.2532-.9226-.176-2.5546a32.5743,32.5743,0,0,0,.0886-3.8774c.3359-3.7081.1078-4.1279.4432-7.4967.18-4.41.542-9.2915.8654-14.9964.0475-2.4272.0873-4.977.0566-7.834l.5972.6286-3.9457-.0434-30.013-1.4455c-4.6563.0333-6.3882.4385-11.8088.3985-4.6815-.1469-7.5022-.4525-11.7923-.6115-4.0043.0486-5.2669.49-9.6575.1877-2.2351.0609-3.4711.2421-5.365.3513-8.6124-.1655-16.1258.1115-23.603-.2194-4.4795.2885-10.1189.312-15.8433.2943l.5086-.5337c.0094,4.1087.0189,8.2638.0277,12.0551.535,6.5539.522,16.8595.503,25.3774l-.7808-.7221.3913-.0379c8.05-.5568,15.3928-.779,23.231-.8617,7.8379-.0706,16.1725.0777,26.1863.4969,6.3687.0009,16.0864.6228,22.5277.6134,6.3819.3355,10.7265.4387,14.914.4917,2.0943.0464,4.148.0343,6.3981.0388,2.2507.0253,4.6951-.009,7.5712-.0393,1.4022-.1252,3.9339-.2139,5.33-.4036Z"/><text class="cls-3" transform="translate(484.9536 107.9498)">Feature B</text><text class="cls-4" transform="translate(48.042 234.5749)">Service A</text><path class="cls-5" d="M138.981,210.5479c-.8035.5272-3.8037.5619-7.1991.5706l-5.1654.0514c-1.67.0441-3.2127.1284-4.4.2634-6.0644-.0678-12.1336-.0109-18.202.1052-3.2374.1694-2.899-.2908-3.0489-.6656a20.854,20.854,0,0,1-7.584.4056,94.4666,94.4666,0,0,1-10.6216-.0207c-4.08.6327-14.6242.2739-21.2247.2594a207.3261,207.3261,0,0,1-23.3056-.8344l.2011-.1838c.1672,6.1224.2522,12.4869.2089,18.8163-.0415,6.3294-.19,12.62-.32,18.6019l-.3659-.3839c9.7838.19,18.6258.2478,25.7491.1436,4.65.3083,7.4084-.0571,12.1353.507,4.4426.0438,4.6584-.5493,9.0994-.5247,4.1194.13,12.0334-.4379,13.6552.0776,6.7847-.5433,21.1-1.4158,28.7964-1.2143,2.0906-.9167,5.6127-.1744,9.0766-.8245l2.3678-.0951-1.2635,1.3338-.1344-11.2815c-.2058-7.9322-1.4024-17.6988-.7879-25.7891.4163-2.3674,1.4278,1.1315,1.2906,7.5728.4166,3.1631.286,10.0715.6422,13.6475.4139,5.594.4977,10.8138.6022,15.8311l.0058.2825-.287.0143c-3.9149.1951-7.7005.3922-11.4622.7467-8.9891.2746-18.8754.8836-28.823,1.2151-9.1.3044-18.4679.5241-28.85.4463-4.365-.2815-11.8442-.1088-15.1844-.59-2.2414.614-5.6615.1165-9.1122.1059-2.1711-.0025-4.5169.0856-7.554.071l-1.2839-.0061.0119-1.3279c.0224-2.46.1293-5.432.4385-9.1316.06-10.0343-.2618-19.5667-.3451-28.2188l-.0161-1.68,1.6864.1536c2.7915.2541,5.4706.6268,8.058.8847,8.63-.3777,16.5942.3,30.2156.0188,10.02.132,21.0089-.3093,34.9032.089,4.4266-.1745,9.7788-.4946,14.7826-.554,2.5024.01,4.9155.0383,7.0739.2169A31.239,31.239,0,0,1,138.981,210.5479Z"/><path class="cls-5" d="M481.3887,243.44c-1.1149-1.5288-.8045-11.9079-1.4047-16.6372q.02-9.0672.0391-18.1413c-.0149-.4624-.0184-.8515-.0125-1.1623l.0027-.1345.13,0c1.9774-.0063,1.7479.3779,1.8756.6993a20.68,20.68,0,0,1,7.5568-.3874,97.3487,97.3487,0,0,1,10.586.0342c4.064-.6329,14.5771-.37,21.1595-.652,12.6207-.756,28.6273-1.1916,44.244-1.55l11.5812-.258a7.2766,7.2766,0,0,1,2.9388.374,3.0415,3.0415,0,0,1,1.2532.953,3.9558,3.9558,0,0,1,.6573,1.3785,18.6763,18.6763,0,0,1,.3992,2.7847q.1326,1.3606.2629,2.6967c.6471,7.1284.9037,13.7166.99,19.266-.26,3.8345-.1259,6.3871-.5308,9.857l-.0411.353-.3063-.0309c-.6647-.0672-1.4242-.1568-2.2423-.2764-4.4237-.1769-4.657.4233-9.0808.2463-4.0991-.2575-12.002.0057-13.5972-.5739-6.7779.28-21.0633.5729-28.7154.1043-2.1123.8356-5.5927-.02-9.06.5241q-6.7881.0692-13.574.2812c-7.8921.3543-17.5079,1.9539-25.5367,1.9805-2.3771-.2326,1.0055-1.536,7.4168-1.7913,3.1186-.6085,9.9969-.7934,13.5472-1.22,9.87-1.0093,18.5979-.7,27.2076-1.2141,8.9629.0445,18.832-.1576,28.7471-.104,7.8712.039,15.9364.1374,24.93.3705l-1.3652,1.2655c.0485-1.075.1089-2.4142.17-3.7709.4494-4.3136.1689-11.7172.439-15.0445-.7171-2.1856-.4488-5.591-.7791-8.9991-.0907-.9892-.227-2.011-.37-3.1129a23.2174,23.2174,0,0,0-.5659-3.3133,1.6738,1.6738,0,0,0-.6793-.9387,3.4038,3.4038,0,0,0-1.5706-.38c-.694-.0415-1.5947-.0237-2.49-.0485l-2.8659-.09c-13.2445.4962-25.6584,1.2047-36.2786.9465-8.5877,1.1321-16.6191.8724-30.22,1.308-7.6914-.0191-15.9388.1322-26.0583.0842l1.5857-1.6133c-.0895,2.4721-.2,5.5188-.3157,8.72C481.67,225.0332,482.7853,237.4836,481.3887,243.44Z"/><text class="cls-4" transform="translate(489.9232 229.6572)">Service B</text><polygon class="cls-6" points="530.707 119.83 530.707 195.101 524.923 195.101 531.5 206.493 538.077 195.101 532.293 195.101 532.293 119.83 530.707 119.83"/><text class="cls-3" transform="translate(541.9073 163.7472)">providers</text><polygon class="cls-6" points="87.717 122.281 87.717 198.19 81.933 198.19 88.51 209.582 95.087 198.19 89.303 198.19 89.303 122.281 87.717 122.281"/><text class="cls-3" transform="translate(98.2555 166.4796)">providers</text><path class="cls-7" d="M633.8917,266.2885c7.2136,1.6238-13.812,1.7805-28.7379,1.8-17.9917.1011-29.9158.3266-46.4129.18-11.052.18-21.3235.4241-35.3768.36-6.9562-.0864-8.636.2563-13.2572.36-3.9711.0227-4.67-.2205-8.8468-.18-6.9917.572-27.9441.0044-33.1611.72-8.9229-.542-16.6164-.0769-30.94-.1794-26.6059-.2806-45.9467-.1758-70.743.539-14.0429-.09-33.2726-.3925-50.8392,0-7.5577-.3046-31.3111-.3091-46.424-.539-14.8849.4079-31.39.6833-44.2075,1.26-9.4537-.13-15.85-.509-22.11-.9-25.7256.2834-48.1326.2358-70.7354-.72-28.6131.1926-52.7621.4805-79.5849,1.26-14.8145-.0359-28.0551.6109-30.9427-.9,1.88.0329,2.0832-.0711,2.213-.181-2.0421-.7053,11.6562-.13,13.2572-.539,7.6741.1443,8.5-.2681,15.4725-.18,9.0826-.2805,19.1593-.4805,30.9509-.54q11.28-.3417,24.312-.54c22.4153.156,42.0679.5354,61.9019.9,9.5891-.1794,13.1429-.85,24.3142-.9,9.6512.1143,15.47.54,24.3115.72,8.2482-.115,10.8462-.7955,19.896-.36,4.6051-.1054,7.1515-.3794,11.0548-.54,17.748.2482,33.2372-.0975,48.6368.54,15.8736-.6115,38.7931.1333,57.4754.36,13.7178-.5633,35.34-.482,53.055-.72,33.1233.5523,60.4151.1538,101.6835,0,13.0947-.4336,33.15-.3,46.4238-.72,26.362.1581,35.8861-.1451,59.6806,0,2.9037-.1832,8.1478-.1766,11.0521-.36Z"/><text class="cls-3" transform="translate(136.4239 293.1769)">ngModules</text><text class="cls-4" transform="translate(298.6953 293.2394)">Services</text><text class="cls-8" transform="translate(453.5301 292.6857)">Intention</text><text class="cls-3" transform="translate(145.119 57.4499)">imports</text><path class="cls-6" d="M272.5146,36.9158a115.2363,115.2363,0,0,1-14.2591,9.8261c-4.9964,2.9195-10.1766,5.529-15.4389,7.9675-10.5447,4.8371-21.3992,9.0663-32.1506,13.5212l-59.86,24.5222L148.6129,87.4l-8.049,10.4047,13.0354,1.7676-2.1923-5.3518,59.86-24.5222c10.75-4.4547,21.5974-8.6795,32.2144-13.5489,5.2959-2.4541,10.5221-5.086,15.576-8.0392A116.8139,116.8139,0,0,0,273.52,38.1429Z"/><path class="cls-6" d="M368.9338,42.6088A321.3043,321.3043,0,0,1,422.0766,66.877q12.7026,7.25,24.7337,15.6018c4.014,2.768,7.9472,5.6517,11.8327,8.5966,1.9226,1.4988,3.88,2.9534,5.7743,4.4884l2.3936,1.9354-3.6425,4.4933c4.3022.6068,8.54,1.4073,12.8837,2.195-1.47-4.0992-2.9446-8.3075-4.6-12.4133L467.81,96.2669l-2.4049-1.9445c-1.9031-1.5421-3.87-3.0038-5.8014-4.51-3.9038-2.9588-7.8557-5.8562-11.8888-8.6373q-12.0743-8.3776-24.852-15.6765a322.8919,322.8919,0,0,0-53.406-24.388Z"/><text class="cls-3" transform="translate(420.9557 55.3877)">imports</text><path class="cls-5" d="M256.2457,246.44c-1.113-1.8611-.79-14.4943-1.3842-20.2509l.0439-15.6909,0-.1181.1182-.0018,6.3895-.0961c3.9281-.17,3.5132.29,3.6913.6653a30.5255,30.5255,0,0,1,9.2009-.3786c4.8862-.0716,10.507-.2489,12.884.0464,4.9518-.6282,17.7453-.3528,25.7591-.6276,15.3674-.7415,34.853-1.1586,53.8635-1.4989l14.1-.243a10.3606,10.3606,0,0,1,3.5331.4224,3.7156,3.7156,0,0,1,1.5627,1.0319,4.0157,4.0157,0,0,1,.8343,1.65c.2819,1.17.3459,2.2546.5139,3.3614q.19,1.6542.3769,3.2782a182.2156,182.2156,0,0,1,.9258,23.4668c-.1406,1.51-.2444,2.8554-.3368,4.1176l-.0339.4641-.4566-.0136a104.9807,104.9807,0,0,1-10.5974-.5714c-5.3856-.1725-5.6627.4285-11.0484.2613-4.9917-.2492-14.6073.0384-16.5557-.5335-8.2449.3063-25.6361.6471-34.9562.2028-2.57.838-6.81.0091-11.0332.5483q-8.2677.0933-16.536.3045c-9.6122.354-21.3733,1.9512-31.16,1.9378-2.8839-.2478,1.2861-1.5254,9.0925-1.7647,3.8128-.6,12.187-.7626,16.5148-1.2017,12.0243-1.0076,22.6409-.7217,33.1193-1.2636,10.9074.0155,22.9153-.2214,34.9817-.2027,11.0389.0144,22.3938.11,34.969.4169.9644.0683,2.0549.1228,3.2426.17l-1.2351,1.1344c.4763-5.1335.4314-11.749.6652-15.0517-.705-2.6693-.4517-6.8011-.9-10.9406-.1288-1.2-.294-2.4416-.4959-3.7768-.1029-.6672-.21-1.3588-.321-2.0815a12.6775,12.6775,0,0,0-.4047-2.0344,1.909,1.909,0,0,0-.9481-1.17,5.56,5.56,0,0,0-2.1674-.4813c-.8857-.06-1.9415-.0416-3.0436-.0669l-3.4874-.0932c-16.1244.4808-31.24,1.175-44.1632.9045-10.4622,1.1223-20.2349.8532-36.7921,1.2732-11.438-.0343-23.8884.185-39.5241-.0306l1.3937-1.4109c-.0277.76-.0649,1.7779-.1025,2.8088C256.5493,224.0365,257.65,239.1911,256.2457,246.44Z"/><text class="cls-4" transform="translate(264.766 232.6572)">Core Service</text><polygon class="cls-6" points="319.82 137.739 319.82 198.19 314.036 198.19 320.613 209.582 327.19 198.19 321.406 198.19 321.406 137.739 319.82 137.739"/><text class="cls-3" transform="translate(327.2093 168.944)">providers</text><path class="cls-9" d="M138.0056,232.7825q27.7982-2.45,55.7368-2.5466,13.9527-.0484,27.8993.4913c4.6477.1773,9.2927.4155,13.9357.6868l6.9616.4537,2.95.2232-.4345,5.7679c3.915-1.9212,7.8611-3.758,11.8471-5.6148-3.5808-2.5091-7.1976-5.0452-10.859-7.5022l-.4345,5.7672-2.9565-.2238-6.9785-.4547c-4.6542-.272-9.31-.5107-13.9693-.6885q-13.976-.5411-27.9664-.4925-27.9726.0971-55.8712,2.5528Z"/><text class="cls-8" transform="translate(157.5211 248.3068)">can use</text><polygon class="cls-9" points="480.414 225.275 398.757 225.275 398.757 219.491 387.365 226.068 398.757 232.645 398.757 226.861 480.414 226.861 480.414 225.275"/><text class="cls-8" transform="translate(402.3269 246.4371)">can use</text><path class="cls-10" d="M289.5511,136.3836l63.9958,1.538c-1.0927-10.2285-1.6779-20.59-1.7484-30.9608a446.3275,446.3275,0,0,0-61.7966-3.1351l-.1741,31.6634"/><text class="cls-3" transform="translate(301.257 125.1793)">Core</text><text class="cls-3" transform="translate(182.4232 105.9217)">imports</text><path class="cls-6" d="M139.7968,107.6405c24.1454,3.0557,48.0723,7.7535,72.2162,11.2448,12.07,1.7449,24.2006,3.1895,36.3919,3.9486l4.5713.2866,4.5794.1473,4.58.1431c1.5271.0246,3.0554-.0044,4.5832-.004l4.5834-.02c1.5278-.0079,3.054-.1178,4.581-.1717l3.7422-.1648.3281,5.7749c1.89-1.1442,3.75-2.4529,5.58-3.7048l5.4006-3.7754-5.948-2.7788c-1.9543-.9377-3.871-1.8232-5.7792-2.8739l.3281,5.7742-3.7161.1634c-1.5167.0536-3.0315.1631-4.55.1709l-4.5546.0195c-1.5182,0-3.0364.0286-4.5545.0042l-4.5539-.1425-4.554-.1463-4.5488-.2853c-12.1316-.7554-24.2194-2.1942-36.2633-3.9354-24.0915-3.4829-48.0275-8.183-72.2451-11.2486Z"/><path class="cls-6" d="M475.4723,108.8344q-28.7323,5.043-57.7928,7.8891-14.516,1.4217-29.0793,2.2909-7.2795.44-14.5671.73l-7.2883.2612-3.07.0832-.1551-5.7821c-3.7042,2.311-7.4428,4.5425-11.2136,6.8047,3.8228,2.1221,7.679,4.2743,11.5662,6.3446l-.155-5.7814,3.0765-.0834,7.3033-.2617q7.3016-.3025,14.5974-.7318,14.59-.8708,29.14-2.2957,29.0927-2.8493,57.9128-7.9055Z"/><text class="cls-3" transform="translate(377.6217 109.9221)">imports</text></g></g></svg>