<svg xmlns="http://www.w3.org/2000/svg" xmlns:xlink="http://www.w3.org/1999/xlink" viewBox="0 0 658.4315 317.1118"><defs><style>.cls-1{filter:url(#dropshadow);}.cls-2,.cls-3,.cls-6{fill:#ec5e24;}.cls-2,.cls-5,.cls-7{fill-rule:evenodd;}.cls-3,.cls-4,.cls-8{font-size:22px;font-family:SwankyandMooMoo, Swanky and Moo Moo;}.cls-4,.cls-5{fill:#65bc46;}.cls-7{fill:#231f20;}.cls-8,.cls-9{fill:#3e479d;}.cls-10{fill:none;stroke:#ec5e24;stroke-miterlimit:10;}.cls-11{fill:#fff;}</style><filter id="dropshadow" name="dropshadow"><feGaussianBlur stdDeviation="1" in="SourceAlpha"/><feOffset result="offsetblur" dx="1" dy="1"/><feComponentTransfer><feFuncA type="linear" slope="0.2"/></feComponentTransfer><feMerge><feMergeNode/><feMergeNode in="SourceGraphic"/></feMerge></filter></defs><title>x</title><g id="Layer_2" data-name="Layer 2"><g class="cls-1"><path class="cls-2" d="M34.9053,120.1854c-.7633-.8064-.4991-11.8812-1.0428-16.6053q-.0054-9.6107-.0108-19.2288a16.0808,16.0808,0,0,1,.0307-2.1071l.0107-.0974.0787.008c1.142.1161.9889.4221,1.0951.69a23.0939,23.0939,0,0,1,7.9972-.24,108.8244,108.8244,0,0,1,11.191.24c4.31-.5536,15.4188-.0858,22.3836-.24,18.2441-.6969,43.1529-.6734,64.34-.7361l.3747-.0011.0011.3769c.0291,10.1767.0768,19.37.2239,26.793-.2684,4.648.05,7.5022-.3985,12.0818l-.0218.2216-.1794-.0206-.7088-.0808c-4.68-.0644-4.9328.5419-9.6334.4781-4.3353-.1476-12.7923.2948-14.41-.2443-7.2254.4507-22.6693.9-30.6441.4171-2.5945.7616-5.9472-.0386-9.8736.4l-14.51-.0731c-8.4591.0731-19.6008.7842-27.7146.1814-2.19-.3292,2.2133-.996,8.8626-.8308,3.5948-.278,10.7513-.1023,14.7144-.3508,10.8063-.5123,19.7939-.175,29.0884-.65,9.4245.0249,19.91-.3253,30.3252-.5119,7.7536-.1365,15.6589-.2621,24.5043-.27l-1.3336,1.3336c.0038-1.6318.0085-3.64.0134-5.686.27-4.5966.0488-12.4693.4805-15.9919-.6377-2.3518-.19-5.9587-.24-9.5921-.0628-2.2067-.1305-4.5851-.2165-7.6048l1.2965,1.2964c-2.6857.0461-5.914.0216-9.9793-.2165-14.0125.2384-27.1513.7052-38.3737.24-9.1026.9649-17.5882.5489-31.9759.72l-26.6777-.4025,1.6376-1.6375c-.0762,2.7937-.1856,6.2039-.3427,9.8371.0982,4.5228.3649,9.8366.3761,14.8136A91.9866,91.9866,0,0,1,34.9053,120.1854Z"/><text class="cls-3" transform="translate(42.0695 106.5598)">Feature A</text><path class="cls-2" d="M370.2466,60.1368c-.79,2.4343-.8136-6.9439-.822-13.5348-.037-7.9961-.1873-13.2774-.0885-20.5363-.0444-1.7288-.0875-3.4148-.1323-5.1647l.0126.0126c-3.1271.0767-6.4255.1348-10.4173.1074-3.0618-.0576-3.8012.1709-5.8351.24-1.7478.0152-2.0554-.1469-3.8938-.12-3.0773.3814-12.2992.0029-14.5955.48-3.9272-.3613-7.3135-.0513-13.618-.12-11.71-.1871-20.2229-.1172-31.1367.3593-4.6923-.0456-10.7-.1728-16.7034-.1169l.8424-.8424c.0178,1.9062.054,3.8107.1169,5.6726-.2031,3.3264-.206,13.7811-.3593,20.4329.16,4.1823.33,8.6473.4878,12.7692l-1.0878-1.0877c2.3723-.1,4.6033-.2126,6.6158-.35,4.1186.0893,6.9273.3442,9.6975.605,11.2292-.1821,20.9478-.1064,31.1031.5,12.5049-.1,23.0136-.2611,34.4085-.5991,6.4954.05,11.9723-.2093,13.9506.5078-.84-.0182-.8806.0309-.8862.0829,1.2264.3372-5.06.0525-5.5789.2523-3.4378-.075-3.6222.1333-6.73.0893-3.8793.145-8.2461.2608-13.4282.3028q-4.8541.2-10.5625.336c-9.97-.0629-18.7533-.2878-27.5485-.5224-4.1932.1165-5.6745.5563-10.6178.5949-4.2861-.0713-6.89-.3529-10.7961-.4718-3.6275.0767-4.7666.5307-8.7715.24l-.8562.04-.49.023-.03-.5433c-.0851-1.536-.2293-2.561-.32-4.0122.1656-7.8116-.0649-14.6289.36-21.407-.2233-3.8258-.1753-8.5816-.0615-13.4555l.0129-.5552.5287.0136c4.0189.1021,8.1237.2066,11.8412.3012,6.0377-.3755,15.5543-.3213,23.3514-.48,14.5789.3682,26.591.1026,44.7548,0,4.5207-.2268,10.9264-.2207,16.2524-.3427l1.0395-.0238.0235,1.0869c.0336,1.5515.0756,2.9807.1336,4.2742-.1316,11.84.0068,16.2249-.222,26.8742.0807,1.3756.04,3.7283.109,5.1122C370.2822,58.1537,370.2644,59.1483,370.2466,60.1368Z"/><text class="cls-3" transform="translate(306.2156 43.8179)">App</text><path class="cls-2" d="M586.0673,119.8484c3.5494.91-6.6232,1.5584-13.87,1.57-8.727.0891-14.52.0094-22.5159-.4-5.3646-.1028-10.353-.2055-17.1638-.5887-3.37-.2245-4.1953-.0319-6.4386-.0719-1.9255-.08-2.2573-.2475-4.2837-.3072-3.4029.1937-13.5525-.4529-16.0884.0149-4.321-.4035-8.0532-.1079-14.9877.0194-2.6128.072-5.0805.178-7.4485.282l-6.8341.532-.5647.0439.0069-.56c.0823-6.6252-.0057-12.84-.3869-19.977-.0193-4.9017-.0633-11.1147-.2756-17.3971l-.0283-.8382.8465-.02c2.4327-.0587,4.8812-.1424,7.2662-.2579,3.6731.1386,15.2074-.0087,22.5469.12,7.2264-.3144,15.2424-.478,21.4713-.8237,4.592.1138,7.6963.4037,10.733.6968,12.4943-.0387,23.3788.2376,34.33,1.1963l15.754.331.538.0113.0011.5562c.0166,7.7217-.5525,15.1016-.9074,22.9165-.681,7.1587-.4521,13.52-1.4548,14.8986.0423-.9078-.0249-1.0073-.0968-1.0717-.2391.49-.2532-.9226-.176-2.5547a32.5721,32.5721,0,0,0,.0886-3.8773c.3359-3.7081.1078-4.1278.4432-7.4967.18-4.41.542-9.2915.8654-14.9964.0475-2.4272.0873-4.977.0566-7.8339l.5972.6285-3.9457-.0433-30.013-1.4457c-4.6563.0335-6.3882.4386-11.8087.3986-4.6816-.1469-7.5022-.4524-11.7924-.6115-4.0043.0486-5.2668.49-9.6575.1877-2.2351.061-3.471.2421-5.365.3513-8.6124-.1655-16.1258.1114-23.603-.2194-4.48.2886-10.1189.312-15.8433.2943l.5086-.5337c.0094,4.1088.0189,8.2638.0277,12.0552.535,6.5538.522,16.8594.5031,25.3773l-.7809-.722.3913-.038c8.05-.5567,15.3929-.7789,23.231-.8617,7.8379-.0705,16.1725.0777,26.1863.4969,6.3687.0009,16.0864.6229,22.5277.6135,6.3819.3354,10.7265.4386,14.914.4916,2.0943.0463,4.148.0344,6.3981.0388,2.2507.0254,4.6951-.0089,7.5712-.0392,1.4022-.1254,3.9339-.214,5.33-.4037Z"/><text class="cls-3" transform="translate(484.953 107.9499)">Feature B</text><text class="cls-4" transform="translate(48.0414 234.5751)">Service A</text><path class="cls-5" d="M138.98,210.5481c-.8033.5272-3.8037.5619-7.1991.57l-5.1654.0514c-1.67.0441-3.2126.1284-4.4.2633-6.0643-.0676-12.1336-.0107-18.202.1054-3.2373.1693-2.899-.2909-3.0489-.6657a20.8522,20.8522,0,0,1-7.5841.4055,94.419,94.419,0,0,1-10.6214-.0206c-4.08.6327-14.6243.2739-21.2249.2594a207.3,207.3,0,0,1-23.3055-.8343l.2011-.1839c.1672,6.1225.2522,12.4868.209,18.8163-.0416,6.3295-.19,12.62-.32,18.6019l-.3661-.3839c9.784.19,18.626.2478,25.7492.1436,4.6505.3083,7.4085-.0571,12.1352.5071,4.4428.0437,4.6585-.5494,9.0995-.5247,4.1194.13,12.0335-.438,13.6553.0776,6.7845-.5433,21.1-1.4159,28.7964-1.2144,2.09-.9167,5.6125-.1744,9.0766-.8245l2.3678-.0951-1.2635,1.3339-.1344-11.2815c-.206-7.9323-1.4025-17.6989-.7879-25.7892.4163-2.3674,1.4276,1.1315,1.2906,7.5729.4166,3.1631.286,10.0715.642,13.6474.414,5.594.4979,10.8139.6023,15.8311l.0059.2825-.287.0142c-3.915.1952-7.7005.3924-11.4624.7469-8.989.2745-18.8754.8835-28.823,1.2151-9.1.3043-18.4679.524-28.85.4462-4.365-.2815-11.8443-.1087-15.1845-.59-2.2412.614-5.6615.1164-9.112.1058-2.1711-.0025-4.5169.0856-7.5541.071l-1.284-.0061.0121-1.328c.0222-2.46.1293-5.4319.4385-9.1314.06-10.0343-.262-19.5668-.3451-28.2189l-.0162-1.68,1.6864.1536c2.7915.2541,5.4706.6269,8.058.8846,8.63-.3775,16.5942.3,30.2157.0189,10.02.132,21.0087-.3093,34.903.089,4.4267-.1745,9.779-.4946,14.7827-.554,2.5025.01,4.9156.0384,7.0739.2169A31.2353,31.2353,0,0,1,138.98,210.5481Z"/><path class="cls-5" d="M481.3882,243.44c-1.115-1.5288-.8046-11.908-1.4048-16.6372q.02-9.0672.0391-18.1414c-.0149-.4624-.0185-.8514-.0124-1.1623l.0026-.1344.13,0c1.9774-.0064,1.7478.3779,1.8755.6993a20.6775,20.6775,0,0,1,7.5567-.3873,97.3245,97.3245,0,0,1,10.5861.0342c4.064-.633,14.5772-.37,21.1594-.6521,12.6208-.756,28.6273-1.1916,44.2442-1.55l11.581-.258a7.2754,7.2754,0,0,1,2.9389.3741,3.0391,3.0391,0,0,1,1.2531.9529,3.9572,3.9572,0,0,1,.6575,1.3785,18.6627,18.6627,0,0,1,.3991,2.7847q.1328,1.3607.2629,2.6968c.6471,7.1284.9038,13.7165.99,19.2659-.26,3.8346-.1259,6.3872-.5307,9.857l-.0412.353-.3063-.0308c-.6647-.0673-1.4241-.1569-2.2423-.2765-4.4236-.1769-4.657.4233-9.0807.2463-4.0993-.2574-12.0021.0057-13.5972-.574-6.7781.28-21.0633.573-28.7154.1044-2.1125.8356-5.5928-.02-9.06.5241q-6.7881.0693-13.5741.2812c-7.8921.3544-17.5078,1.9539-25.5368,1.9805-2.3769-.2326,1.0055-1.536,7.417-1.7912,3.1186-.6086,9.9967-.7934,13.5472-1.22,9.87-1.0094,18.5977-.7006,27.2076-1.2141,8.9629.0444,18.832-.1576,28.7471-.104,7.8711.0389,15.9362.1373,24.9294.37l-1.3651,1.2657c.0485-1.075.1089-2.4142.17-3.771.4494-4.3136.1689-11.7171.439-15.0445-.7172-2.1856-.4489-5.5909-.7792-8.9991-.0905-.9892-.2268-2.0109-.37-3.1128a23.2192,23.2192,0,0,0-.5658-3.3134,1.6735,1.6735,0,0,0-.68-.9387,3.4035,3.4035,0,0,0-1.57-.38c-.6941-.0415-1.5949-.0237-2.49-.0484-.9043-.0285-1.8575-.0584-2.8659-.09-13.2445.4961-25.6584,1.2046-36.2785.9464-8.5879,1.1321-16.6191.8723-30.22,1.308-7.6915-.019-15.939.1322-26.0583.0842l1.5855-1.6133c-.0895,2.4721-.2,5.5188-.3155,8.72C481.6689,225.0333,482.7847,237.4837,481.3882,243.44Z"/><text class="cls-4" transform="translate(489.9226 229.6573)">Service B</text><polygon class="cls-6" points="530.706 119.83 530.706 195.101 524.922 195.101 531.499 206.493 538.076 195.101 532.293 195.101 532.293 119.83 530.706 119.83"/><text class="cls-3" transform="translate(541.9067 163.7473)">providers</text><polygon class="cls-6" points="87.717 122.282 87.717 198.19 81.932 198.19 88.509 209.582 95.086 198.19 89.303 198.19 89.303 122.282 87.717 122.282"/><text class="cls-3" transform="translate(98.2549 166.4797)">providers</text><path class="cls-7" d="M633.8911,266.2887c7.2136,1.6236-13.812,1.7805-28.7379,1.7995-17.9917.1011-29.9158.3266-46.4129.18-11.052.18-21.3234.4242-35.3768.3605-6.9562-.0865-8.636.2563-13.2572.36-3.9711.0227-4.67-.2206-8.8468-.18-6.9917.572-27.9441.0044-33.1611.72-8.9229-.5419-16.6164-.0768-30.94-.1794-26.606-.2806-45.9468-.1757-70.7431.5391-14.0428-.09-33.2726-.3926-50.8392,0-7.5576-.3047-31.3111-.3091-46.424-.5391-14.8849.408-31.39.6834-44.2075,1.26-9.4537-.13-15.85-.5091-22.11-.9-25.7256.2836-48.1326.236-70.7354-.72-28.6131.1925-52.762.48-79.5849,1.26-14.8145-.0358-28.0551.6109-30.9427-.9,1.88.033,2.0832-.0711,2.2131-.181-2.0422-.7053,11.6561-.13,13.2572-.5389,7.674.1443,8.5-.2681,15.4724-.18,9.0826-.2807,19.1593-.4806,30.9509-.54q11.28-.3417,24.312-.5406c22.4153.1561,42.0679.5356,61.9019.9,9.5891-.1793,13.1429-.85,24.3142-.9,9.6512.1144,15.47.5406,24.3115.72,8.2482-.115,10.8462-.7955,19.896-.36,4.6051-.1055,7.1515-.3795,11.0548-.54,17.7481.2482,33.2372-.0974,48.6368.54,15.8736-.6116,38.7931.1332,57.4754.36,13.7178-.5633,35.34-.482,53.055-.72,33.1233.5524,60.4151.1539,101.6835,0,13.0947-.4334,33.1505-.3,46.4238-.72,26.362.1582,35.8862-.1451,59.6806,0,2.9037-.1832,8.1478-.1766,11.0521-.36Z"/><text class="cls-3" transform="translate(136.4233 293.177)">ngModules</text><text class="cls-4" transform="translate(298.6947 293.2395)">Services</text><text class="cls-8" transform="translate(453.5295 292.6858)">Intention</text><text class="cls-3" transform="translate(145.1184 57.4501)">imports</text><path class="cls-6" d="M272.514,36.9159a115.2363,115.2363,0,0,1-14.2591,9.8261c-4.9964,2.9195-10.1765,5.529-15.4389,7.9676-10.5446,4.837-21.3991,9.0663-32.1506,13.5211l-59.86,24.5222-2.1926-5.3524-8.049,10.4045,13.0354,1.7677-2.1923-5.3518,59.86-24.5222c10.75-4.4547,21.5974-8.6794,32.2144-13.5488,5.2959-2.4541,10.5221-5.0861,15.576-8.0393a116.8139,116.8139,0,0,0,14.4623-9.9676Z"/><path class="cls-6" d="M368.9332,42.6089A321.3005,321.3005,0,0,1,422.076,66.8771q12.7026,7.25,24.7337,15.6019c4.014,2.7679,7.9473,5.6516,11.8327,8.5965,1.9227,1.4988,3.88,2.9534,5.7743,4.4883l2.3936,1.9356-3.6425,4.4931c4.3022.6068,8.54,1.4075,12.8837,2.1951-1.47-4.0991-2.9446-8.3075-4.6-12.4133l-3.6421,4.4926-2.4049-1.9444c-1.9031-1.5421-3.87-3.0038-5.8014-4.51-3.9038-2.9588-7.8557-5.8561-11.8888-8.6372q-12.0743-8.3777-24.852-15.6766a322.8881,322.8881,0,0,0-53.406-24.388Z"/><text class="cls-3" transform="translate(420.9551 55.3878)">imports</text><polygon class="cls-6" points="319.819 137.739 319.819 198.19 314.035 198.19 320.612 209.582 327.189 198.19 321.406 198.19 321.406 137.739 319.819 137.739"/><text class="cls-3" transform="translate(327.2087 168.9441)">providers</text><path class="cls-9" d="M138.005,232.7827q27.7982-2.45,55.7368-2.5466,13.9527-.0486,27.8993.4913c4.6477.1772,9.2927.4154,13.9357.6868l6.9616.4536,2.95.2232-.4344,5.7679c3.9149-1.9212,7.861-3.758,11.847-5.6148-3.5808-2.5091-7.1976-5.0453-10.859-7.5022l-.4345,5.7672-2.9565-.2237-6.9785-.4549c-4.6542-.2719-9.31-.5106-13.9692-.6883q-13.9761-.5411-27.9665-.4926-27.9726.0971-55.8712,2.5528Z"/><text class="cls-8" transform="translate(157.5205 248.3069)">can use</text><polygon class="cls-9" points="480.413 225.275 406.041 225.275 406.041 219.491 394.648 226.068 406.041 232.645 406.041 226.862 480.413 226.862 480.413 225.275"/><text class="cls-8" transform="translate(402.3263 246.4372)">can use</text><path class="cls-10" d="M289.5505,136.3837l63.9958,1.538c-1.0927-10.2284-1.6779-20.59-1.7484-30.9608a446.3579,446.3579,0,0,0-61.7965-3.1351l-.1741,31.6635"/><text class="cls-3" transform="translate(301.2565 125.1794)">Core</text><text class="cls-3" transform="translate(182.4226 105.9219)">imports</text><path class="cls-6" d="M139.7963,107.6406c24.1453,3.0557,48.0722,7.7535,72.2161,11.2448,12.07,1.745,24.2006,3.1895,36.3919,3.9487l4.5713.2865,4.5794.1473,4.58.1431c1.5271.0246,3.0555-.0044,4.5832-.004l4.5835-.02c1.5277-.0079,3.0539-.1178,4.5809-.1718l3.7422-.1648.3281,5.7749c1.89-1.1441,3.75-2.4528,5.5805-3.7048l5.4-3.7754-5.948-2.7788c-1.9543-.9377-3.871-1.8232-5.7792-2.8739l.3281,5.7742-3.716.1634c-1.5168.0536-3.0315.1631-4.55.1709l-4.5546.0194c-1.5182,0-3.0364.0287-4.5544.0043l-4.554-.1424-4.5539-.1463-4.5489-.2854c-12.1316-.7554-24.2193-2.1942-36.2633-3.9353-24.0915-3.4829-48.0274-8.1831-72.2451-11.2486Z"/><path class="cls-6" d="M475.4717,108.8346q-28.7323,5.0429-57.7928,7.889-14.5159,1.4217-29.0793,2.2909-7.2795.44-14.5671.73l-7.2882.2611-3.07.0832-.155-5.7821c-3.7043,2.311-7.4429,4.5425-11.2137,6.8047,3.8228,2.1222,7.679,4.2743,11.5662,6.3446l-.155-5.7814,3.0765-.0833,7.3034-.2618q7.3014-.3025,14.5974-.7318,14.59-.8706,29.14-2.2956,29.0928-2.8494,57.9129-7.9055Z"/><text class="cls-3" transform="translate(377.6211 109.9222)">imports</text><path class="cls-6" d="M320.7674,60.26q.3272,8.5482.5024,17.1011l.1346,8.5531.055,7.6409-5.7842.0178q3.306,5.646,6.5432,11.3719,3.34-5.6661,6.6107-11.4124l-5.7834.0178-.055-7.6537-.1348-8.5676q-.174-8.5669-.5033-17.13Z"/><text class="cls-3" transform="translate(328.696 83.0274)">imports</text><path class="cls-5" d="M262.6989,250.9134c-1.113-1.8611-.79-14.4944-1.384-20.251l.0437-15.6908,0-.1182.1181-.0018,6.39-.0961c3.9281-.17,3.5132.29,3.6913.6653a30.5309,30.5309,0,0,1,9.2008-.3787c4.8862-.0715,10.5071-.2487,12.884.0466,4.9518-.6283,17.7453-.3528,25.7592-.6277,15.3673-.7415,34.8529-1.1586,53.8634-1.4989,4.7538-.0819,9.4777-.1632,14.1-.243a10.3628,10.3628,0,0,1,3.533.4224,3.7153,3.7153,0,0,1,1.5627,1.0319,4.0157,4.0157,0,0,1,.8344,1.65c.2818,1.1695.3459,2.2546.5139,3.3614q.19,1.654.3768,3.2781a182.1976,182.1976,0,0,1,.9258,23.4668c-.14,1.5105-.2444,2.8554-.3367,4.1177l-.034.4641-.4566-.0136a104.9824,104.9824,0,0,1-10.5973-.5715c-5.3857-.1725-5.6628.4286-11.0484.2613-4.9917-.2492-14.6073.0385-16.5558-.5335-8.2449.3062-25.636.6472-34.9561.2028-2.5705.8381-6.81.0091-11.0333.5484q-8.2676.0931-16.536.3044c-9.6121.354-21.3733,1.9512-31.16,1.9378-2.8839-.2478,1.2863-1.5253,9.0925-1.7647,3.8128-.6,12.1871-.7625,16.5149-1.2018,12.0242-1.0075,22.6408-.7215,33.1192-1.2635,10.9076.0156,22.9154-.2213,34.9818-.2026,11.0388.0142,22.3937.11,34.969.4168.9645.0684,2.0548.1228,3.2425.17l-1.235,1.1343c.4764-5.1334.4314-11.7489.6651-15.0518-.7048-2.6691-.4516-6.801-.9-10.9405-.1287-1.2-.2939-2.4415-.4959-3.7769-.1029-.6671-.21-1.3587-.321-2.0814a12.6762,12.6762,0,0,0-.4047-2.0343,1.9088,1.9088,0,0,0-.948-1.17,5.561,5.561,0,0,0-2.1674-.4813c-.8857-.06-1.9415-.0415-3.0437-.0668L381.98,214.24c-16.1243.4808-31.24,1.1749-44.1632.9045-10.4621,1.1222-20.235.8531-36.7921,1.2731-11.438-.0342-23.8885.185-39.5242-.0305l1.3938-1.4109c-.0278.76-.0649,1.7779-.1026,2.8087C263.0026,228.5094,264.1028,243.6641,262.6989,250.9134Z"/><path class="cls-11" d="M255.769,246.2355c42.6137-3.0375,90.1179-1.717,132.9156-.8941a164.3957,164.3957,0,0,0-1.1423-32.9113,4.1513,4.1513,0,0,0-1.59-3.227c-1.2106-.7975-3.0032-.8168-4.6261-.7924l-125.4572,1.8869-.1,35.9379"/><path class="cls-5" d="M257.0894,246.2392c-1.113-1.8611-.79-14.4944-1.3842-20.2509l.0437-15.6909,0-.1182.1182-.0018,6.3895-.0961c3.9281-.17,3.5132.29,3.6913.6653a30.5287,30.5287,0,0,1,9.2008-.3785c4.8863-.0717,10.5071-.2489,12.8842.0464,4.9517-.6283,17.7451-.3528,25.759-.6277,15.3674-.7415,34.853-1.1585,53.8634-1.4989l14.1-.2429a10.36,10.36,0,0,1,3.533.4223,3.7155,3.7155,0,0,1,1.5628,1.032,4.0139,4.0139,0,0,1,.8343,1.65c.2818,1.1695.3459,2.2546.5139,3.3614q.19,1.654.3768,3.2781a182.1976,182.1976,0,0,1,.9258,23.4668c-.14,1.5105-.2443,2.8555-.3367,4.1177l-.0339.4641-.4567-.0136a104.9824,104.9824,0,0,1-10.5973-.5715c-5.3857-.1725-5.6627.4286-11.0484.2613-4.9917-.2492-14.6073.0385-16.5557-.5334-8.2449.3063-25.6361.6471-34.9562.2028-2.5705.838-6.81.009-11.0333.5483q-8.2676.0932-16.5359.3044c-9.6122.354-21.3733,1.9513-31.1605,1.9378-2.8839-.2477,1.2862-1.5253,9.0925-1.7647,3.8128-.6,12.187-.7625,16.5149-1.2016,12.0243-1.0077,22.6408-.7217,33.1192-1.2637,10.9075.0156,22.9154-.2213,34.9818-.2026,11.0389.0144,22.3938.11,34.969.4168.9644.0684,2.0549.1228,3.2426.17l-1.2351,1.1343c.4763-5.1334.4314-11.7489.6652-15.0516-.705-2.6693-.4517-6.8012-.9-10.9406-.1286-1.2-.2938-2.4416-.4958-3.777-.1029-.6671-.2095-1.3587-.3209-2.0814a12.6559,12.6559,0,0,0-.4048-2.0343,1.9084,1.9084,0,0,0-.948-1.17,5.561,5.561,0,0,0-2.1674-.4813c-.8857-.06-1.9415-.0415-3.0437-.0668l-3.4873-.0932c-16.1244.4808-31.24,1.1749-44.1632.9045-10.4621,1.1222-20.235.8532-36.7921,1.2731-11.438-.0342-23.8884.185-39.524-.03l1.3936-1.4109c-.0277.76-.0649,1.7779-.1025,2.8087C257.393,223.8352,258.4932,238.99,257.0894,246.2392Z"/><text class="cls-4" transform="translate(265.6088 232.456)">Core Service</text></g></g></svg>