<svg xmlns="http://www.w3.org/2000/svg" xmlns:xlink="http://www.w3.org/1999/xlink" viewBox="0 0 658.4196 321.2462"><defs><style>.cls-1{filter:url(#dropshadow);}.cls-2,.cls-3,.cls-6{fill:#ec5e24;}.cls-2,.cls-5,.cls-7{fill-rule:evenodd;}.cls-3,.cls-4,.cls-8{font-size:22px;font-family:SwankyandMooMoo, Swanky and Moo Moo;}.cls-4,.cls-5{fill:#65bc46;}.cls-7{fill:#231f20;}.cls-8,.cls-9{fill:#3e479d;}.cls-10{fill:none;stroke:#ec5e24;stroke-miterlimit:10;}</style><filter id="dropshadow" name="dropshadow"><feGaussianBlur stdDeviation="1" in="SourceAlpha"/><feOffset result="offsetblur" dx="1" dy="1"/><feComponentTransfer><feFuncA type="linear" slope="0.2"/></feComponentTransfer><feMerge><feMergeNode/><feMergeNode in="SourceGraphic"/></feMerge></filter></defs><title>ngmodules-core-lazy</title><g id="Layer_2" data-name="Layer 2"><g class="cls-1"><path class="cls-2" d="M33.52,119.7145c-.7633-.8065-.499-11.8812-1.0427-16.6054q-.0055-9.6106-.0109-19.2287a16.0741,16.0741,0,0,1,.0308-2.1071l.0106-.0974.0787.008c1.142.1161.9889.4221,1.0951.69a23.0952,23.0952,0,0,1,7.9972-.24,108.8205,108.8205,0,0,1,11.191.24c4.3094-.5537,15.4188-.0859,22.3835-.24,18.2441-.6969,43.153-.6733,64.34-.736l.3748-.0012.0011.377c.0291,10.1767.0768,19.37.2239,26.793-.2684,4.648.05,7.5022-.3986,12.0818l-.0217.2216-.1794-.0205-.7087-.0809c-4.68-.0645-4.9329.5419-9.6334.4781-4.3353-.1476-12.7924.2947-14.41-.2443-7.2253.4506-22.6693.9-30.644.4171-2.5945.7615-5.9473-.0386-9.8737.4l-14.51-.0732c-8.4591.0732-19.6008.7842-27.7146.1815-2.19-.3293,2.2133-.996,8.8625-.8308,3.5948-.278,10.7513-.1024,14.7145-.3509,10.8063-.5122,19.7938-.1749,29.0884-.65,9.4244.025,19.91-.3253,30.3252-.5119,7.7535-.1365,15.6589-.2621,24.5043-.27L138.26,120.648c.0038-1.6318.0085-3.64.0134-5.686.2705-4.5966.0488-12.4692.48-15.9918-.6377-2.3517-.1895-5.9587-.24-9.5922-.0629-2.2067-.13-4.5851-.2166-7.6047l1.2965,1.2964c-2.6857.046-5.9139.0216-9.9792-.2166-14.0126.2383-27.1514.7051-38.3738.24-9.1025.9648-17.5881.5488-31.9758.72l-26.6777-.4024,1.6376-1.6376c-.0762,2.7938-.1855,6.2039-.3427,9.8372.0981,4.5228.3649,9.8367.3761,14.8135A91.9847,91.9847,0,0,1,33.52,119.7145Z"/><text class="cls-3" transform="translate(40.6843 106.0889)">Feature A</text><path class="cls-2" d="M368.8614,59.6659c-.79,2.4343-.8137-6.944-.822-13.5349-.0371-7.9961-.1873-13.2774-.0886-20.5363-.0442-1.7288-.0874-3.4149-.1321-5.1647l.0125.0126c-3.127.0768-6.4255.1348-10.4172.1074-3.0618-.0576-3.8011.1709-5.8351.24-1.7478.0151-2.0554-.147-3.8938-.12-3.0773.3813-12.2992.0029-14.5955.48-3.9272-.3613-7.3135-.0513-13.618-.12-11.71-.187-20.2229-.1172-31.1367.3594-4.6923-.0456-10.7-.1728-16.7034-.1169l.8424-.8425c.0178,1.9063.054,3.8107.1169,5.6726-.2031,3.3264-.2061,13.7811-.3594,20.4329.16,4.1823.33,8.6473.4878,12.7692l-1.0878-1.0877c2.3723-.1,4.6033-.2125,6.6158-.35,4.1185.0892,6.9272.3441,9.6975.605,11.2291-.1821,20.9478-.1064,31.103.5,12.5049-.1,23.0137-.2611,34.4086-.5991,6.4954.05,11.9722-.2094,13.9507.5078-.84-.0182-.8809.0309-.8865.0829,1.2266.3372-5.06.0525-5.5789.2523-3.4379-.0751-3.6221.1332-6.7295.0892-3.8793.145-8.2461.2609-13.4282.3029q-4.8541.2-10.5625.3359c-9.97-.0629-18.7533-.2877-27.5485-.5223-4.1932.1164-5.6746.5562-10.6178.5948-4.2861-.0712-6.89-.3528-10.7961-.4717-3.6274.0768-4.7666.5307-8.7715.24l-.8562.04-.49.023-.03-.5433c-.0851-1.536-.2294-2.561-.32-4.0122.1655-7.8116-.0649-14.6289.36-21.4069-.2233-3.8259-.1753-8.5817-.0615-13.4556l.0129-.5551.5287.0135,11.8412.3013c6.0377-.3755,15.5543-.3213,23.3514-.48,14.5789.3682,26.5909.1025,44.7548,0,4.5208-.2267,10.9264-.2206,16.2523-.3427l1.04-.0239.0237,1.0869c.0334,1.5516.0754,2.9808.1335,4.2742-.1318,11.84.0066,16.225-.2219,26.8741.0806,1.3757.04,3.7284.1089,5.1123C368.8971,57.6828,368.8793,58.6773,368.8614,59.6659Z"/><text class="cls-3" transform="translate(304.8304 43.3469)">App</text><path class="cls-2" d="M584.6822,119.3774c3.5493.91-6.6233,1.5585-13.87,1.57-8.7271.0892-14.52.0094-22.5159-.4-5.3647-.1028-10.353-.2054-17.1638-.5886-3.37-.2245-4.1953-.0319-6.4385-.0719-1.9255-.08-2.2573-.2475-4.2839-.3072-3.4028.1937-13.5522-.453-16.0884.0148-4.321-.4034-8.053-.108-14.9875.0194-2.613.0721-5.0806.178-7.4485.282l-6.8342.532-.5647.0439.0071-.56c.0823-6.6252-.0059-12.84-.387-19.9771-.02-4.9016-.0635-11.1146-.2756-17.397l-.0283-.8382.8464-.02c2.4326-.0587,4.8811-.1424,7.2661-.2579,3.6733.1385,15.2075-.0087,22.5469.12,7.2266-.3145,15.2424-.478,21.4714-.8237,4.592.1138,7.6963.4037,10.7332.6968,12.4941-.0387,23.3787.2377,34.3293,1.1964l15.7542.331.5378.0113.0012.5562c.0166,7.7218-.5525,15.1016-.9072,22.9166-.6812,7.1587-.4521,13.52-1.4548,14.8986.042-.9079-.0251-1.0073-.0969-1.0717-.239.49-.2532-.9226-.176-2.5546a32.5566,32.5566,0,0,0,.0886-3.8774c.3359-3.7081.1077-4.1278.4434-7.4966.1794-4.41.5417-9.2915.8652-14.9965.0476-2.4272.0872-4.9769.0566-7.834l.5972.6286-3.9456-.0433-30.0132-1.4456c-4.6562.0334-6.3882.4385-11.8088.3986-4.6814-.1469-7.502-.4525-11.7922-.6115-4.0042.0486-5.2668.49-9.6575.1877-2.2351.061-3.4709.2421-5.365.3513-8.6125-.1655-16.1257.1115-23.603-.2194-4.4795.2886-10.1189.312-15.8433.2943l.5085-.5337c.01,4.1088.019,8.2639.0276,12.0551.5352,6.5539.5222,16.8595.5032,25.3774l-.7808-.7221.3914-.0379c8.05-.5568,15.3928-.779,23.2307-.8617,7.8381-.0706,16.1726.0776,26.1865.4968,6.3687.0009,16.0864.6229,22.5276.6135,6.3821.3354,10.7266.4387,14.9141.4916,2.0942.0464,4.1479.0344,6.3979.0388,2.251.0253,4.6953-.009,7.5713-.0392,1.4021-.1253,3.9338-.2139,5.33-.4036Z"/><text class="cls-3" transform="translate(483.5678 107.479)">Feature B</text><text class="cls-4" transform="translate(46.6562 234.1041)">Service A</text><path class="cls-5" d="M137.5952,210.0771c-.8033.5272-3.8037.5619-7.1991.5706l-5.1654.0513c-1.67.0441-3.2126.1284-4.4.2634-6.0643-.0677-12.1335-.0108-18.202.1053-3.2373.1694-2.8989-.2908-3.0488-.6656a20.8543,20.8543,0,0,1-7.5841.4055,94.4433,94.4433,0,0,1-10.6215-.0207c-4.08.6328-14.6243.274-21.2249.2595a207.3133,207.3133,0,0,1-23.3055-.8345l.2012-.1837c.1671,6.1224.2522,12.4868.209,18.8163-.0416,6.3294-.19,12.62-.32,18.6019l-.3661-.3839c9.7839.19,18.626.2477,25.7491.1436,4.6505.3083,7.4086-.0571,12.1353.507,4.4427.0438,4.6584-.5492,9.0995-.5246,4.1194.13,12.0334-.4379,13.6553.0776,6.7845-.5433,21.1-1.4158,28.7964-1.2144,2.09-.9167,5.6125-.1743,9.0767-.8245l2.3678-.0951-1.2635,1.3338-.1344-11.2815c-.2059-7.9323-1.4025-17.6988-.7878-25.7892.4163-2.3674,1.4276,1.1315,1.2905,7.5729.4166,3.1631.286,10.0715.6421,13.6475.4139,5.5941.4978,10.8138.6023,15.8311l.0059.2825-.287.0143c-3.915.1952-7.7006.3923-11.4624.7468-8.989.2746-18.8754.8836-28.823,1.2151-9.1.3044-18.4679.524-28.85.4464-4.365-.2816-11.8442-.1088-15.1844-.59-2.2412.614-5.6615.1165-9.1121.1058-2.171-.0024-4.5168.0856-7.5541.0711l-1.2839-.0062.0121-1.3279c.0222-2.46.1293-5.4319.4385-9.1315.06-10.0343-.262-19.5667-.3451-28.2189l-.0162-1.68,1.6864.1536c2.7915.2542,5.4706.6268,8.058.8846,8.63-.3776,16.5942.3,30.2157.0189,10.02.1319,21.0088-.3094,34.9031.089,4.4266-.1746,9.7789-.4947,14.7827-.5541,2.5024.01,4.9155.0384,7.0739.2169A31.2421,31.2421,0,0,1,137.5952,210.0771Z"/><path class="cls-5" d="M480.003,242.9687c-1.115-1.5288-.8044-11.9079-1.4048-16.6372q.02-9.0672.0391-18.1414c-.0149-.4624-.0183-.8514-.0125-1.1623l.0027-.1345.13,0c1.9775-.0063,1.748.3779,1.8757.6993a20.6784,20.6784,0,0,1,7.5566-.3873,97.3525,97.3525,0,0,1,10.5862.0342c4.064-.6329,14.5769-.37,21.1594-.652,12.6206-.756,28.6272-1.1916,44.2439-1.55l11.5813-.258a7.275,7.275,0,0,1,2.9387.3741,3.04,3.04,0,0,1,1.2532.9529,3.9539,3.9539,0,0,1,.6575,1.3786,18.6909,18.6909,0,0,1,.3992,2.7846q.1326,1.3607.2629,2.6968c.647,7.1284.9036,13.7166.99,19.2659-.26,3.8345-.1257,6.3871-.5308,9.857l-.041.3531-.3064-.0309c-.6646-.0672-1.4241-.1568-2.2424-.2764-4.4236-.1769-4.657.4233-9.0806.2463-4.0991-.2575-12.002.0057-13.5972-.574-6.7781.28-21.0635.5729-28.7156.1044-2.1123.8356-5.5928-.02-9.06.524q-6.7881.0693-13.574.2813c-7.8921.3543-17.5081,1.9539-25.5369,1.98-2.377-.2325,1.0056-1.536,7.417-1.7912,3.1184-.6086,9.9968-.7935,13.5471-1.22,9.87-1.0094,18.5979-.7005,27.2075-1.2141,8.9629.0445,18.832-.1576,28.7471-.104,7.8713.039,15.9365.1374,24.9294.37l-1.365,1.2656c.0483-1.075.1089-2.4142.17-3.7709.4495-4.3136.1689-11.7171.4392-15.0445-.7173-2.1856-.449-5.5909-.7793-8.9991-.0906-.9892-.2268-2.0109-.37-3.1129a23.1737,23.1737,0,0,0-.5659-3.3134,1.673,1.673,0,0,0-.6794-.9387,3.4016,3.4016,0,0,0-1.57-.38c-.6941-.0416-1.5947-.0237-2.49-.0485l-2.8657-.09c-13.2446.4961-25.6584,1.2046-36.2786.9464-8.5879,1.1321-16.6191.8724-30.22,1.308-7.6914-.0191-15.939.1322-26.0583.0842l1.5857-1.6133c-.09,2.472-.2,5.5187-.3157,8.72C480.2838,224.5624,481.4,237.0128,480.003,242.9687Z"/><text class="cls-4" transform="translate(488.5374 229.1864)">Service B</text><polygon class="cls-6" points="529.321 119.359 529.321 194.63 523.537 194.63 530.114 206.022 536.691 194.63 530.908 194.63 530.908 119.359 529.321 119.359"/><text class="cls-3" transform="translate(540.5216 163.2764)">providers</text><polygon class="cls-6" points="86.331 121.811 86.331 197.719 80.547 197.719 87.124 209.111 93.701 197.719 87.918 197.719 87.918 121.811 86.331 121.811"/><text class="cls-3" transform="translate(96.8697 166.0088)">providers</text><path class="cls-7" d="M632.506,265.8177c7.2136,1.6237-13.812,1.7805-28.738,1.8-17.9915.1011-29.9158.3266-46.4126.18-11.0522.18-21.3237.4241-35.377.36-6.9563-.0864-8.636.2563-13.2573.36-3.9709.0227-4.67-.2205-8.8467-.18-6.9917.572-27.9441.0044-33.1611.72-8.9229-.5419-16.6165-.0768-30.94-.1794-26.606-.2806-45.9468-.1758-70.7432.539-14.0427-.09-33.2725-.3925-50.8391,0-7.5576-.3046-31.311-.309-46.424-.539-14.8849.408-31.39.6833-44.2075,1.26-9.4537-.13-15.85-.509-22.11-.9-25.7256.2835-48.1326.2359-70.7354-.72-28.6132.1926-52.7621.48-79.585,1.26-14.8145-.0358-28.0551.6109-30.9426-.9,1.88.033,2.0831-.0711,2.213-.181-2.0421-.7053,11.6561-.13,13.2572-.539,7.6741.1443,8.5-.2681,15.4724-.18,9.0826-.2806,19.1593-.4805,30.9509-.54q11.28-.3417,24.312-.5405c22.4153.156,42.0679.5355,61.9019.9,9.5891-.1794,13.1429-.85,24.3142-.9,9.6512.1143,15.47.5405,24.3115.72,8.2482-.115,10.8462-.7955,19.896-.36,4.6051-.1055,7.1515-.3795,11.0548-.54,17.748.2482,33.2372-.0974,48.6368.54,15.8735-.6116,38.7931.1332,57.4753.36,13.7177-.5633,35.34-.482,53.0551-.72,33.1233.5523,60.415.1538,101.6833,0,13.0947-.4336,33.1506-.3,46.4241-.72,26.3618.1581,35.886-.1451,59.68,0,2.9036-.1832,8.1479-.1766,11.052-.36Z"/><text class="cls-3" transform="translate(135.0382 292.7061)">ngModules</text><text class="cls-4" transform="translate(297.3095 292.7686)">Services</text><text class="cls-8" transform="translate(452.1444 292.2149)">Intention</text><text class="cls-3" transform="translate(143.7332 56.9791)">imports</text><path class="cls-6" d="M271.1289,36.445A115.24,115.24,0,0,1,256.87,46.2711c-4.9963,2.9195-10.1765,5.529-15.4388,7.9675-10.5447,4.837-21.3992,9.0663-32.1506,13.5212L149.42,92.282,147.2272,86.93l-8.049,10.4046,13.0354,1.7676L150.0212,93.75l59.86-24.5222c10.75-4.4547,21.5974-8.68,32.2144-13.5489,5.2959-2.4541,10.5221-5.086,15.576-8.0392a116.8148,116.8148,0,0,0,14.4623-9.9675Z"/><path class="cls-9" d="M367.5481,42.138a321.3062,321.3062,0,0,1,53.1428,24.2682q12.7026,7.25,24.7336,15.6019c4.014,2.7679,7.9473,5.6517,11.8328,8.5966,1.9226,1.4988,3.88,2.9534,5.7743,4.4883l2.3936,1.9355-3.6425,4.4932c4.3021.6068,8.54,1.4074,12.8837,2.195-1.47-4.0991-2.9446-8.3074-4.6-12.4133l-3.6421,4.4927-2.4049-1.9445c-1.903-1.5421-3.87-3.0038-5.8014-4.51-3.9038-2.9588-7.8557-5.8561-11.8887-8.6373q-12.0745-8.3776-24.8522-15.6765A322.8905,322.8905,0,0,0,368.071,40.64Z"/><text class="cls-8" transform="translate(415.4088 54.9169)">loads lazy</text><path class="cls-5" d="M254.86,245.97c-1.113-1.861-.79-14.4943-1.3842-20.2509l.0438-15.6909,0-.1181.1182-.0018,6.39-.0961c3.9281-.17,3.5132.29,3.6913.6653a30.53,30.53,0,0,1,9.2009-.3786c4.8862-.0716,10.507-.2488,12.884.0464,4.9518-.6282,17.7452-.3528,25.759-.6277,15.3674-.7414,34.853-1.1585,53.8635-1.4989l14.1-.2429a10.3572,10.3572,0,0,1,3.533.4224,3.7136,3.7136,0,0,1,1.5627,1.0319,4.0141,4.0141,0,0,1,.8345,1.65c.2817,1.17.3459,2.2546.5139,3.3615q.19,1.6542.3767,3.2781a182.1763,182.1763,0,0,1,.9258,23.4669c-.14,1.51-.2444,2.8554-.3367,4.1176l-.0339.4642-.4565-.0136a105.0046,105.0046,0,0,1-10.5974-.5715c-5.3857-.1725-5.6628.4285-11.0483.2614-4.9917-.2493-14.6074.0384-16.5558-.5335-8.2449.3063-25.6361.6471-34.9562.2028-2.5706.838-6.81.0091-11.0332.5484q-8.2678.0932-16.536.3044c-9.6122.354-21.3733,1.9512-31.16,1.9377-2.8839-.2477,1.2861-1.5253,9.0925-1.7646,3.8127-.6,12.187-.7626,16.5148-1.2017,12.0243-1.0076,22.6409-.7216,33.1193-1.2636,10.9075.0156,22.9153-.2214,34.9817-.2026,11.0389.0143,22.3937.11,34.9691.4169.9644.0684,2.0547.1228,3.2424.17l-1.2349,1.1343c.4763-5.1335.4314-11.749.665-15.0517-.7048-2.6693-.4517-6.8011-.9-10.9406-.1287-1.2-.2937-2.4417-.4958-3.7769-.1028-.6672-.2095-1.3588-.321-2.0815a12.6714,12.6714,0,0,0-.4045-2.0344,1.9086,1.9086,0,0,0-.948-1.17,5.5614,5.5614,0,0,0-2.1675-.4813c-.8857-.06-1.9417-.0415-3.0437-.0668l-3.4873-.0933c-16.1244.4808-31.24,1.175-44.1632.9045-10.4622,1.1223-20.2349.8532-36.7921,1.2731-11.438-.0342-23.8884.1851-39.524-.0306l1.3937-1.4109c-.0277.76-.0649,1.778-.1025,2.8088C255.1636,223.5657,256.2639,238.72,254.86,245.97Z"/><text class="cls-4" transform="translate(263.3802 232.1864)">Core Service</text><polygon class="cls-6" points="318.434 137.268 318.434 197.719 312.65 197.719 319.227 209.111 325.804 197.719 320.021 197.719 320.021 137.268 318.434 137.268"/><text class="cls-3" transform="translate(325.8236 168.4732)">providers</text><path class="cls-9" d="M136.62,232.3117q27.7982-2.45,55.7368-2.5466,13.9526-.0484,27.8993.4913c4.6477.1772,9.2927.4154,13.9357.6868l6.9617.4537,2.9495.2232-.4344,5.7678c3.9149-1.9211,7.8611-3.7579,11.847-5.6147-3.5808-2.5092-7.1976-5.0453-10.859-7.5022l-.4344,5.7672-2.9565-.2238-6.9785-.4548c-4.6542-.272-9.31-.5107-13.9692-.6884q-13.9761-.5411-27.9664-.4925-27.9727.097-55.8712,2.5527Z"/><text class="cls-8" transform="translate(156.1353 247.8359)">can use</text><polygon class="cls-9" points="479.028 224.804 397.372 224.804 397.372 219.02 385.979 225.597 397.372 232.174 397.372 226.391 479.028 226.391 479.028 224.804"/><text class="cls-8" transform="translate(400.9411 245.9663)">can use</text><path class="cls-10" d="M288.1654,135.9128l63.9958,1.5379c-1.0928-10.2284-1.6779-20.59-1.7485-30.9608a446.3351,446.3351,0,0,0-61.7965-3.1351l-.1741,31.6634"/><text class="cls-3" transform="translate(299.8713 124.7084)">Core</text><text class="cls-3" transform="translate(181.0374 105.4509)">imports</text><path class="cls-6" d="M138.4111,107.17c24.1454,3.0557,48.0723,7.7535,72.2162,11.2448,12.07,1.7449,24.2006,3.19,36.3918,3.9487l4.5713.2866,4.5795.1473,4.58.1431c1.5271.0246,3.0554-.0044,4.5831-.004l4.5835-.02c1.5277-.0079,3.054-.1178,4.5809-.1718l3.7422-.1647.3281,5.7748c1.89-1.1442,3.75-2.4529,5.58-3.7048l5.4005-3.7755-5.948-2.7787c-1.9542-.9377-3.871-1.8232-5.7792-2.8739l.3281,5.7742-3.7161.1635c-1.5167.0536-3.0315.1631-4.55.1708l-4.5546.0195c-1.5182,0-3.0364.0287-4.5544.0042l-4.554-.1425-4.554-.1462-4.5488-.2854c-12.1316-.7554-24.2194-2.1942-36.2633-3.9353-24.0916-3.483-48.0275-8.1831-72.2451-11.2487Z"/><path class="cls-6" d="M474.0865,108.3636q-28.7325,5.043-57.7927,7.889-14.5162,1.4217-29.0793,2.2909-7.28.44-14.5671.73l-7.2881.2612-3.07.0833-.155-5.7821c-3.7041,2.311-7.4427,4.5424-11.2135,6.8046,3.8228,2.1222,7.679,4.2744,11.566,6.3447l-.155-5.7814,3.0767-.0834,7.3032-.2617q7.3019-.3026,14.5974-.7318,14.59-.8707,29.14-2.2957,29.0925-2.8493,57.9126-7.9055Z"/><text class="cls-3" transform="translate(376.2359 109.4512)">imports</text></g></g></svg>