<svg xmlns="http://www.w3.org/2000/svg" xmlns:xlink="http://www.w3.org/1999/xlink" viewBox="0 0 646.6365 311.9092"><defs><style>.cls-1{filter:url(#dropshadow);}.cls-2,.cls-3,.cls-6{fill:#ec5e24;}.cls-2,.cls-5,.cls-7{fill-rule:evenodd;}.cls-11,.cls-3,.cls-4,.cls-8{font-size:22px;font-family:SwankyandMooMoo, Swanky and Moo Moo;}.cls-4,.cls-5{fill:#65bc46;}.cls-7{fill:#231f20;}.cls-8,.cls-9{fill:#3e479d;}.cls-10,.cls-11{fill:#771214;}.cls-12{fill:none;stroke:#ec5e24;stroke-miterlimit:10;}</style><filter id="dropshadow" name="dropshadow"><feGaussianBlur stdDeviation="1" in="SourceAlpha"/><feOffset result="offsetblur" dx="1" dy="1"/><feComponentTransfer><feFuncA type="linear" slope="0.2"/></feComponentTransfer><feMerge><feMergeNode/><feMergeNode in="SourceGraphic"/></feMerge></filter></defs><title>ngmodules</title><g id="Layer_2" data-name="Layer 2"><g class="cls-1"><path class="cls-2" d="M28.9242,117.5214c-.7634-.8065-.499-11.8812-1.0427-16.6054q-.0055-9.6106-.011-19.2287a16.1171,16.1171,0,0,1,.0307-2.1071l.0108-.0974.0786.008c1.1418.116.989.422,1.0952.69a23.0953,23.0953,0,0,1,7.9971-.24,108.8151,108.8151,0,0,1,11.1909.24c4.31-.5537,15.419-.0859,22.3838-.24,18.2441-.6969,43.1528-.6733,64.34-.736l.3748-.0012.0009.377c.0293,10.1767.0769,19.37.2241,26.7929-.2685,4.648.05,7.5022-.3986,12.0818l-.0218.2216-.1794-.02-.7087-.0809c-4.68-.0645-4.9329.5418-9.6336.478-4.3352-.1475-12.7922.2948-14.41-.2442-7.2253.4506-22.6694.9-30.6443.4171-2.5942.7615-5.947-.0386-9.8735.4l-14.51-.0732c-8.459.0732-19.6008.7842-27.7146.1815-2.1894-.3293,2.2134-.996,8.8626-.8308,3.5949-.278,10.7514-.1024,14.7146-.3509,10.8061-.5122,19.7937-.175,29.0881-.65,9.4246.025,19.91-.3252,30.3254-.5118,7.7535-.1366,15.659-.2622,24.5042-.27l-1.3335,1.3336c.0037-1.6318.0085-3.64.0132-5.686.2707-4.5965.0491-12.4692.4807-15.9918-.6377-2.3518-.19-5.9587-.24-9.5922-.063-2.2067-.1307-4.5851-.2166-7.6047l1.2964,1.2964c-2.6856.0461-5.9138.0216-9.9793-.2165-14.0124.2383-27.1513.7051-38.3737.24-9.1026.9648-17.5882.5488-31.9759.72l-26.6777-.4024L29.6281,79.58c-.076,2.7937-.1853,6.2038-.3426,9.8371.0982,4.5227.365,9.8367.3762,14.8135A92.0032,92.0032,0,0,1,28.9242,117.5214Z"/><text class="cls-3" transform="translate(36.0883 103.8958)">Feature A</text><path class="cls-2" d="M364.2655,57.4728c-.7895,2.4343-.8137-6.9439-.822-13.5348-.0371-7.9962-.1875-13.2774-.0886-20.5363-.0442-1.7288-.0874-3.4149-.1324-5.1648l.0127.0126c-3.1269.0768-6.4255.1348-10.4174.1074-3.0616-.0576-3.8011.1709-5.835.24-1.7478.0151-2.0554-.147-3.8938-.12-3.0772.3814-12.2993.003-14.5955.48-3.9272-.3613-7.3134-.0512-13.6179-.12-11.71-.187-20.2229-.1172-31.1367.3594-4.6924-.0456-10.7-.1728-16.7034-.1169l.8423-.8425c.0178,1.9063.054,3.8107.117,5.6726-.2032,3.3264-.2061,13.7812-.3594,20.4329.16,4.1823.33,8.6474.4878,12.7693l-1.0877-1.0878c2.3723-.1,4.6031-.2125,6.6157-.35,4.1187.0892,6.9273.3441,9.6976.605,11.2292-.1821,20.9477-.1065,31.103.5,12.5049-.1,23.0137-.2611,34.4087-.5991,6.4953.05,11.9721-.2094,13.95.5078-.84-.0182-.8806.0309-.8862.0829,1.2265.3371-5.06.0525-5.5789.2523-3.438-.0751-3.622.1332-6.7295.0892-3.8794.145-8.2461.2609-13.4284.3029q-4.8539.2-10.5623.3359c-9.97-.0628-18.7534-.2877-27.5486-.5223-4.1931.1164-5.6745.5562-10.6176.5948-4.2862-.0713-6.89-.3528-10.7962-.4717-3.6274.0767-4.7666.5307-8.7715.24l-.8562.04-.49.023-.03-.5432c-.0852-1.536-.23-2.5611-.32-4.0122.1656-7.8116-.0649-14.6289.36-21.4069-.2231-3.8259-.1753-8.5817-.0615-13.4557l.0129-.5551.5288.0135,11.8411.3013c6.0376-.3755,15.5544-.3213,23.3516-.48,14.5788.3682,26.5908.1025,44.7546,0,4.5207-.2268,10.9263-.2207,16.2524-.3428l1.04-.0238.0234,1.0869c.0337,1.5516.0757,2.9808.1336,4.2743-.1316,11.84.0068,16.2249-.222,26.8741.0806,1.3756.04,3.7284.1092,5.1123C364.3011,55.49,364.2831,56.4842,364.2655,57.4728Z"/><text class="cls-3" transform="translate(300.2343 41.1539)">App</text><path class="cls-2" d="M580.0861,117.1843c3.5495.91-6.6231,1.5585-13.87,1.57-8.727.0891-14.52.0094-22.5158-.4-5.3648-.1028-10.3531-.2054-17.1641-.5886-3.37-.2245-4.1953-.0319-6.4385-.0719-1.9255-.08-2.2573-.2475-4.2837-.3072-3.4028.1937-13.5525-.453-16.0883.0148-4.3211-.4034-8.0533-.1079-14.9878.0194-2.6128.0721-5.0806.178-7.4485.282l-6.8343.532-.5644.044.0068-.56c.0823-6.6253-.0056-12.84-.3869-19.9771-.0193-4.9016-.0633-11.1146-.2757-17.3971l-.0283-.8382.8467-.02c2.4326-.0587,4.8811-.1424,7.2661-.258,3.6731.1386,15.2075-.0087,22.5469.12,7.2265-.3145,15.2424-.4781,21.4714-.8238,4.5921.1138,7.6963.4038,10.7329.6968,12.4944-.0387,23.3789.2377,34.33,1.1964l15.7542.331.5378.0113.0012.5561c.0166,7.7218-.5525,15.1016-.9074,22.9166-.681,7.1587-.4522,13.52-1.4549,14.8986.0423-.9079-.0249-1.0073-.0967-1.0717-.2392.49-.2531-.9226-.176-2.5546a32.5967,32.5967,0,0,0,.0886-3.8774c.336-3.7081.1077-4.1279.4432-7.4967.18-4.41.5419-9.2915.8654-14.9964.0474-2.4272.0872-4.977.0567-7.834l.5971.6286-3.9458-.0434L548.151,80.44c-4.6562.0334-6.3882.4386-11.8088.3986-4.6814-.1469-7.5022-.4525-11.7923-.6115-4.0044.0486-5.2668.49-9.6574.1876-2.2351.061-3.4712.2422-5.365.3514-8.6126-.1655-16.126.1114-23.6031-.2195-4.4795.2886-10.1189.3121-15.8432.2944l.5085-.5337c.0093,4.1087.0188,8.2638.0276,12.0551.5352,6.5539.522,16.8595.5032,25.3774l-.781-.7221.3913-.0379c8.05-.5568,15.3929-.779,23.231-.8617,7.8379-.0706,16.1726.0777,26.1863.4969,6.3689.0008,16.0864.6228,22.5278.6134,6.3818.3354,10.7266.4387,14.9141.4917,2.0942.0463,4.1479.0343,6.3979.0388,2.2507.0253,4.6951-.009,7.5713-.0393,1.4021-.1253,3.9338-.2139,5.33-.4036Z"/><text class="cls-3" transform="translate(478.9719 105.2859)">Feature B</text><text class="cls-4" transform="translate(42.0606 231.911)">Service A</text><path class="cls-5" d="M132.9991,207.884c-.8032.5272-3.8037.5619-7.1989.5706l-5.1656.0513c-1.67.0442-3.2126.1285-4.4.2634-6.0645-.0677-12.1335-.0108-18.2019.1053-3.2376.1694-2.8992-.2908-3.0488-.6656a20.8555,20.8555,0,0,1-7.5843.4056,94.4606,94.4606,0,0,1-10.6213-.0207c-4.08.6327-14.6243.2739-21.2249.2594a207.3284,207.3284,0,0,1-23.3056-.8344l.2012-.1838c.1672,6.1224.2522,12.4868.2089,18.8163-.0415,6.3294-.19,12.62-.32,18.6019l-.366-.3839c9.7837.19,18.626.2477,25.7491.1436,4.65.3083,7.4084-.0571,12.1352.507,4.4427.0437,4.6585-.5493,9.1-.5247,4.1194.13,12.0335-.4379,13.6553.0777,6.7844-.5434,21.1-1.4159,28.7964-1.2144,2.09-.9167,5.6125-.1744,9.0764-.8245l2.3679-.0951-1.2634,1.3338-.1345-11.2814c-.2058-7.9324-1.4024-17.6989-.7879-25.7893.4163-2.3673,1.4278,1.1316,1.2906,7.5729.4165,3.1631.2861,10.0715.6421,13.6475.414,5.594.4978,10.8138.6023,15.8311l.0058.2824-.2871.0143c-3.9148.1952-7.7.3923-11.4622.7468-8.989.2746-18.8754.8836-28.823,1.2151-9.1.3043-18.468.524-28.85.4463-4.365-.2815-11.8442-.1088-15.1846-.59-2.2412.614-5.6614.1165-9.112.1058-2.1709-.0024-4.5169.0856-7.554.0711l-1.2839-.0062.0119-1.3279c.0223-2.46.1294-5.4319.4385-9.1315.06-10.0343-.262-19.5667-.345-28.2188l-.0163-1.68,1.6865.1536c2.7915.2541,5.4705.6268,8.0579.8846,8.63-.3776,16.5942.3,30.2155.0189,10.02.132,21.0091-.3093,34.9034.089,4.4265-.1746,9.7788-.4946,14.7827-.554,2.5022.01,4.9155.0383,7.0737.2169A31.2346,31.2346,0,0,1,132.9991,207.884Z"/><path class="cls-5" d="M475.4069,240.7757c-1.1148-1.5289-.8045-11.908-1.4046-16.6373q.02-9.0672.0391-18.1413c-.0149-.4624-.0186-.8515-.0125-1.1624l.0027-.1344.13,0c1.9775-.0064,1.7478.3779,1.8755.6992a20.683,20.683,0,0,1,7.5569-.3873,97.3468,97.3468,0,0,1,10.5859.0342c4.064-.6329,14.5772-.37,21.1594-.6521,12.6209-.7559,28.6275-1.1915,44.2442-1.55l11.581-.258a7.2758,7.2758,0,0,1,2.939.374,3.0415,3.0415,0,0,1,1.2532.953,3.9605,3.9605,0,0,1,.6574,1.3785,18.6608,18.6608,0,0,1,.399,2.7846q.1329,1.3608.2629,2.6968c.6472,7.1284.9038,13.7166.99,19.266-.26,3.8345-.126,6.3871-.5308,9.857l-.0412.353-.3062-.0309c-.6648-.0672-1.4241-.1568-2.2424-.2764-4.4236-.1769-4.657.4233-9.0806.2463-4.0994-.2575-12.0022.0057-13.5972-.574-6.778.28-21.0634.573-28.7155.1044-2.1123.8356-5.5928-.02-9.06.5241q-6.7878.0692-13.574.2812c-7.8921.3543-17.5078,1.9539-25.5366,1.9805-2.377-.2326,1.0053-1.536,7.417-1.7913,3.1184-.6085,9.9965-.7934,13.5471-1.22,9.87-1.0094,18.5976-.7005,27.2075-1.2141,8.9629.0445,18.832-.1576,28.7471-.104,7.8711.039,15.9363.1374,24.9294.37l-1.365,1.2656c.0484-1.075.1087-2.4142.17-3.7709.45-4.3136.169-11.7172.439-15.0445-.717-2.1856-.4487-5.591-.779-8.9991-.0906-.9892-.2271-2.011-.37-3.1129a23.215,23.215,0,0,0-.5659-3.3133,1.6727,1.6727,0,0,0-.6795-.9387,3.4029,3.4029,0,0,0-1.5705-.38c-.6939-.0415-1.5947-.0237-2.49-.0485l-2.8659-.09c-13.2444.4961-25.6585,1.2046-36.2786.9465-8.5876,1.1321-16.6191.8723-30.2195,1.308-7.6916-.0191-15.9389.1322-26.0583.0842l1.5854-1.6133c-.0893,2.4721-.2,5.5188-.3154,8.72C475.6879,222.3693,476.8036,234.82,475.4069,240.7757Z"/><text class="cls-4" transform="translate(483.9414 226.9933)">Service B</text><polygon class="cls-6" points="524.725 117.166 524.725 192.437 518.941 192.437 525.518 203.829 532.095 192.437 526.312 192.437 526.312 117.166 524.725 117.166"/><text class="cls-3" transform="translate(535.9258 161.0833)">providers</text><polygon class="cls-6" points="81.735 119.618 81.735 195.526 75.951 195.526 82.528 206.918 89.105 195.526 83.322 195.526 83.322 119.618 81.735 119.618"/><text class="cls-3" transform="translate(92.2739 163.8158)">providers</text><path class="cls-7" d="M627.91,263.6246c7.2137,1.6237-13.812,1.7805-28.738,1.8-17.9917.1011-29.9158.3266-46.4128.18-11.052.18-21.3235.4241-35.3768.36-6.9563-.0864-8.6359.2563-13.2573.36-3.9709.0227-4.67-.2205-8.8469-.18-6.9917.572-27.9438.0044-33.1609.72-8.9228-.542-16.6164-.0769-30.94-.1794-26.606-.2806-45.9468-.1758-70.7432.539-14.0427-.09-33.2727-.3925-50.8393,0-7.5574-.3046-31.3108-.3091-46.4239-.539-14.8847.4079-31.39.6833-44.2075,1.26-9.4538-.13-15.85-.509-22.11-.9-25.7256.2835-48.1326.2359-70.7354-.72-28.613.1926-52.7619.48-79.5849,1.26-14.8145-.0358-28.0549.6109-30.9426-.9,1.88.0329,2.0832-.0711,2.2128-.181-2.0419-.7053,11.6563-.13,13.2574-.539,7.674.1443,8.5-.2681,15.4724-.18,9.0825-.28,19.1594-.4805,30.9509-.54q11.28-.3417,24.312-.5406c22.4153.1561,42.0679.5355,61.9019.9,9.5891-.1794,13.1428-.85,24.3142-.9,9.6514.1143,15.47.5406,24.3115.72,8.2483-.115,10.8462-.7955,19.896-.36,4.6052-.1054,7.1516-.3794,11.0549-.54,17.7481.2483,33.2371-.0974,48.6368.54,15.8735-.6115,38.7932.1333,57.4753.36,13.7178-.5633,35.34-.482,53.0552-.72,33.1233.5524,60.415.1539,101.6833,0,13.0948-.4335,33.1507-.2995,46.4239-.72,26.362.1582,35.8862-.145,59.6806,0,2.9036-.1831,8.1477-.1765,11.052-.36Z"/><text class="cls-3" transform="translate(49.4425 290.513)">ngModules</text><text class="cls-4" transform="translate(201.714 290.5755)">Services</text><text class="cls-8" transform="translate(347.5487 290.0218)">Intention</text><text class="cls-3" transform="translate(139.1375 54.7861)">imports</text><path class="cls-6" d="M266.3192,38.9474c-9.19,6.5257-19.956,10.4215-30.7019,13.965-5.3982,1.7511-10.8,3.6288-16.1245,5.6359q-7.9782,3.0532-15.8452,6.3676c-10.4942,4.4032-20.8562,9.0817-31.2783,13.6-5.2122,2.2547-10.4319,4.4893-15.6934,6.6123-2.6248,1.0776-5.2659,2.1108-7.9143,3.1235l-1.9849.7639-.9589.35-.3357.1226L143.47,84.0657c-1.3675,1.6587-2.7452,3.3546-4.1556,5.0022L135.01,94.0084l6.48,1.2662c2.1785.4063,4.3518.7542,6.5559,1.1235l-2.0119-5.4222.3371-.1232.9639-.3523,1.9929-.767c2.66-1.0171,5.3113-2.0543,7.9441-3.1351,5.279-2.13,10.5093-4.3693,15.7285-6.6272,10.4343-4.5236,20.7932-9.2006,31.2617-13.5928q7.8409-3.3213,15.7923-6.3464c5.3115-2.0016,10.6472-3.8569,16.0608-5.6133,10.7683-3.5547,21.6933-7.4865,31.1247-14.1794Z"/><path class="cls-6" d="M362.952,39.9449a321.3053,321.3053,0,0,1,53.1429,24.2682q12.7027,7.25,24.7336,15.6018c4.0139,2.7679,7.9473,5.6517,11.8328,8.5966,1.9226,1.4988,3.88,2.9534,5.7744,4.4883l2.3935,1.9355-3.6426,4.4932c4.3023.6069,8.54,1.4074,12.8838,2.195-1.47-4.0991-2.9445-8.3074-4.6-12.4132l-3.6419,4.4927-2.405-1.9445c-1.9031-1.5421-3.87-3.0038-5.8012-4.51-3.9039-2.9587-7.8558-5.8561-11.889-8.6372q-12.0743-8.3777-24.852-15.6765a322.893,322.893,0,0,0-53.406-24.3881Z"/><text class="cls-3" transform="translate(414.9739 52.7238)">imports</text><path class="cls-5" d="M250.264,243.7765c-1.113-1.8611-.79-14.4943-1.3842-20.2509l.0437-15.6909.0005-.1181.1181-.0018,6.3894-.0961c3.9282-.17,3.5132.29,3.6914.6653a30.5243,30.5243,0,0,1,9.2007-.3786c4.8865-.0716,10.5071-.2489,12.8843.0464,4.9516-.6282,17.7451-.3528,25.759-.6277,15.3675-.7414,34.853-1.1585,53.8633-1.4989l14.1-.2429a10.36,10.36,0,0,1,3.533.4224,3.714,3.714,0,0,1,1.5627,1.0319,4.0133,4.0133,0,0,1,.8343,1.65c.282,1.17.3459,2.2546.5139,3.3614q.19,1.6542.3769,3.2781a182.2171,182.2171,0,0,1,.9258,23.4669c-.1406,1.51-.2444,2.8554-.3366,4.1176l-.034.4641-.4568-.0136a105.0044,105.0044,0,0,1-10.5971-.5714c-5.3858-.1725-5.6629.4285-11.0486.2613-4.9917-.2493-14.6072.0384-16.5557-.5335-8.2449.3062-25.636.6471-34.956.2028-2.5706.838-6.81.0091-11.0332.5483q-8.268.0933-16.5362.3045c-9.612.354-21.3733,1.9512-31.16,1.9377-2.8838-.2477,1.2862-1.5253,9.0926-1.7646,3.8127-.6,12.187-.7626,16.5148-1.2018,12.0242-1.0076,22.6407-.7216,33.1192-1.2635,10.9075.0155,22.9153-.2214,34.9817-.2027,11.039.0143,22.3938.11,34.969.4169.9646.0683,2.0549.1228,3.2426.17l-1.2351,1.1344c.4764-5.1335.4314-11.749.6653-15.0518-.7051-2.6692-.4516-6.801-.9-10.94-.1287-1.2-.294-2.4416-.4959-3.7769-.103-.6671-.2094-1.3587-.321-2.0814a12.6672,12.6672,0,0,0-.4046-2.0344,1.9085,1.9085,0,0,0-.9482-1.17,5.559,5.559,0,0,0-2.1672-.4813c-.8858-.06-1.9417-.0416-3.0437-.0669l-3.4873-.0932c-16.1246.4808-31.24,1.175-44.1634.9045-10.4621,1.1223-20.2348.8532-36.792,1.2731-11.438-.0342-23.8884.1851-39.5241-.03l1.3938-1.4109c-.0279.76-.065,1.7779-.1026,2.8088C250.5675,221.3726,251.6678,236.5272,250.264,243.7765Z"/><text class="cls-4" transform="translate(258.7844 229.9933)">Core Service</text><polygon class="cls-6" points="313.838 135.075 313.838 195.526 308.054 195.526 314.631 206.918 321.208 195.526 315.425 195.526 315.425 135.075 313.838 135.075"/><text class="cls-3" transform="translate(321.2278 166.2801)">providers</text><path class="cls-9" d="M132.0238,230.1186q27.7983-2.45,55.7368-2.5466,13.9527-.0485,27.8994.4913c4.6475.1773,9.2928.4154,13.9356.6868l6.9617.4537,2.9494.2232-.4343,5.7678c3.9148-1.9211,7.8611-3.7579,11.8469-5.6147-3.5808-2.5091-7.1975-5.0453-10.8589-7.5022l-.4345,5.7671-2.9566-.2237-6.9785-.4547c-4.6541-.2721-9.31-.5108-13.9692-.6885q-13.9761-.5411-27.9663-.4925-27.9728.097-55.8714,2.5528Z"/><text class="cls-8" transform="translate(151.5396 245.6429)">can use</text><polygon class="cls-10" points="474.432 222.611 392.776 222.611 392.776 216.827 381.383 223.404 392.776 229.981 392.776 224.198 474.432 224.198 474.432 222.611"/><text class="cls-11" transform="translate(396.3451 243.7732)">can use</text><path class="cls-12" d="M283.5694,133.72l63.9958,1.5379c-1.0928-10.2284-1.6779-20.59-1.7485-30.9607a446.3253,446.3253,0,0,0-61.7965-3.1351l-.1741,31.6634"/><text class="cls-3" transform="translate(295.2753 122.5154)">Core</text><text class="cls-3" transform="translate(176.4417 103.2579)">imports</text><path class="cls-6" d="M133.8151,104.9766c24.1452,3.0557,48.0722,7.7535,72.2163,11.2448,12.07,1.7449,24.2,3.1894,36.3918,3.9486l4.5713.2866,4.5794.1473,4.5795.1431c1.5271.0246,3.0555-.0044,4.5833-.0041l4.5832-.02c1.5279-.0079,3.0542-.1178,4.5811-.1718l3.7422-.1647.3281,5.7749c1.89-1.1442,3.75-2.4529,5.58-3.7048l5.4007-3.7754-5.948-2.7788c-1.9541-.9378-3.8709-1.8232-5.7791-2.8739l.3279,5.7742-3.7158.1634c-1.5169.0536-3.0315.1631-4.55.1708l-4.5545.0195c-1.5183,0-3.0363.0287-4.5544.0043l-4.5542-.1425-4.5537-.1463-4.5488-.2853c-12.1319-.7554-24.2195-2.1943-36.2635-3.9354-24.0915-3.4829-48.0273-8.1831-72.2451-11.2486Z"/><text class="cls-11" transform="translate(478.6588 290.576)">No Intention</text></g></g></svg>