<svg id="Layer_1" data-name="Layer 1" xmlns="http://www.w3.org/2000/svg" xmlns:xlink="http://www.w3.org/1999/xlink" viewBox="0 0 523.1626 242.0623"><defs><style>.cls-1{filter:url(#dropshadow);}.cls-2,.cls-3,.cls-4{fill:#ec5e24;}.cls-3,.cls-5,.cls-7{fill-rule:evenodd;}.cls-4,.cls-6{font-size:22px;font-family:SwankyandMooMoo, Swanky and Moo Moo;}.cls-5,.cls-6{fill:#65bc46;}.cls-7{fill:#231f20;}</style><filter id="dropshadow" name="dropshadow"><feGaussianBlur stdDeviation="1" in="SourceAlpha"/><feOffset result="offsetblur" dx="1" dy="1"/><feComponentTransfer><feFuncA type="linear" slope="0.2"/></feComponentTransfer><feMerge><feMergeNode/><feMergeNode in="SourceGraphic"/></feMerge></filter></defs><title>ngmodules</title><g class="cls-1"><polygon class="cls-2" points="94.341 54.505 94.341 130.414 88.557 130.414 95.133 141.806 101.711 130.414 95.927 130.414 95.927 54.505 94.341 54.505"/><polygon class="cls-2" points="387.331 53.419 387.331 127.324 381.546 127.324 388.123 138.717 394.7 127.324 388.917 127.324 388.917 53.419 387.331 53.419"/><path class="cls-3" d="M50.7175,53.5715c-.7658-.6878-.5046-10.9592-1.0413-15.2994q-.006-8.8988-.012-17.8044c-.1118-3.1654.3422-2.8421.72-2.9924a11.7278,11.7278,0,0,1-.3357-1.8451l-.2644.2644a20.6726,20.6726,0,0,1,5.5388.0959,93.3161,93.3161,0,0,1,10.362.24c3.99-.5537,14.2767-.0859,20.7255-.24,16.8927-.6969,39.9562-.6733,59.5735-.7361l.3746-.0011.0012.3769c.0291,9.4229.0768,17.9351.2239,24.8082-.2832,4.5394.0869,7.231-.4795,11.8427-.0137.9244.0031,1.6614.0373,2.2239l.0091.1488-.1666.0088a60.5382,60.5382,0,0,1-6.6874.4414c-4.0168-.1476-11.8479.2966-13.35-.2438-6.6866.4521-21.0085.9052-28.3909.42-2.42.7655-5.51-.0387-9.1607.4019L74.946,55.6075c-7.8406.0732-18.2217.7828-25.7077.1771-2.0057-.33,2.1237-.9959,8.2709-.83,3.3473-.2782,9.9657-.102,13.6484-.3513,10.0278-.5142,18.335-.1758,26.9491-.6527,8.7222.0252,18.4289-.3264,28.0624-.5122,6.2687-.1189,12.6443-.229,19.8147-.2587l-1.3257,1.3256c.0016-2.3667.0035-5.2141.0054-8.1446.2706-4.256.0489-11.5455.4805-14.8072-.6376-2.1775-.1894-5.5172-.24-8.8815-.0628-2.0431-.13-4.2456-.2165-7.0415l1.2965,1.2965c-2.4867.0461-5.4758.0217-9.24-.2165-12.9745.2383-25.14.7051-35.5311.24-8.4283.9648-16.2852.5488-29.6071.72L49.784,17.332,51.4857,15.63c-.0815,3.4506-.2116,7.5026-.4194,11.9125.0934,4.18.3535,9.0827.3686,13.6864A80.09,80.09,0,0,1,50.7175,53.5715Z"/><text class="cls-4" transform="translate(62.3825 39.9459)">Common</text><path class="cls-3" d="M435.9248,13.3679c3.1813,1.2563-6.28.798-12.9914.8276-8.0947.0545-13.445.4441-20.8564.6836-4.9568.3544-9.5549.7937-15.8643,1.0981-3.1254.1082-3.867.3794-5.9386.555-1.7832.0975-2.1048-.05-3.9795.0633-1.5607.2769-4.703.374-7.7437.4938a61.4622,61.4622,0,0,0-7.159.4028c-2.0114-.1886-3.8806-.1908-6.0559-.1906-2.1742-.06-4.6584.0194-7.88-.2167-3.7949-.2211-7.2474-.5905-10.5137-.8827l.5573-.5092c.1023,7.1942.2765,13.6662.4956,21.2937-.1043,4.5556-.3578,10.3159-.4681,16.1409l-.8162-.8561c2.2456.0315,4.5064.0434,6.7094.0125,3.39.27,14.06.4242,20.8488.5992,6.6884-.2336,14.1019-.4345,19.8544-.8689,4.2456.06,7.12.2651,9.9358.4928,11.5525-.3616,21.6093-.581,31.7811-.2959,4.1067-.1834,8.0074-.3847,11.774-.6019l-.4894.5166c-.2453-8.1048-1.19-15.6787-2.16-23.8434-.5115-6.6453-1.1006-12.6528-.0928-13.97-.005.8487.0662.9391.1406.9962.4258-.928.2358,5.2458.5753,5.9515.1007,3.4515.4048,3.8038.5737,6.9328.4867,4.0568,1.0249,8.5547,1.4126,13.8474.34,3.1015.6258,6.4381.76,10.0713l.0244.6613-.6937.0453-.8592.0559c-10.0751.3114-18.9154.3377-27.8334.3081-4.3058.2249-5.8944.6975-10.9164.8219-4.3405-.0024-6.96-.2591-10.9354-.3327-3.7065.101-4.872.5781-8.9424.2982-2.07.0762-3.2145.2693-4.97.3728-7.98-.1582-14.9478.0223-21.866-.4959-4.1517.1864-9.3707.0223-14.6628-.22l-.533-.0244.0251-.5084c.1882-3.8039.4058-7.6481.5383-11.1607-.2314-6.17-.1182-15.8748-.4021-23.83.0076-.8235.0151-1.6389.022-2.3923l.007-.7569.7277.0856c13.74,1.6168,25.6922,1.3895,43.1548.4142,5.8574-.5838,14.8573-1.0314,20.8109-1.6048l7.6944-.3069c2.2371-.1,4.2226-.1579,6.1723-.213,1.9488-.0714,3.8636-.1063,5.9631-.11l3.3133-.0076,3.7543.093c.6569-.0467,1.5778-.066,2.4989-.0686.9212.0127,1.8427.0254,2.5016-.0055Z"/><text class="cls-4" transform="translate(348.6707 39.6676)">Feature</text><path class="cls-5" d="M168.2157,181.6662c-.63,1.5485-.8836-.8045-1.0487-4.5529-.1574-3.7562-.1816-8.951-.175-13.2621-.0457-8.2307-.2048-14.2412-.1948-21.092l0-.1314-.1328-.0011-5.6466-.0478c-6.3312.18-12.2153.4242-20.2658.3605a74.9479,74.9479,0,0,0-7.5945.36c-2.2748.0227-2.6752-.2205-5.0679-.18-4.0053.5721-16.0079.0045-18.9966.72-5.1114-.542-9.5187-.0769-17.7243-.1795-15.2414-.2806-26.3209-.1758-40.5256.5391-6.1072-.0684-13.9269-.2592-21.74-.1754l1.2638-1.2638c.0266,2.4812.0808,4.96.1753,7.3833-.3046,4.3293-.309,17.9366-.539,26.5942.0626,1.3947.1262,2.8138.1914,4.2658l-1.0915-1.0915c7.2546-.3147,14.8-.5838,20.8153-1.0545,5.3643.1371,9.0444.5187,12.6776.9077,14.587-.2647,27.2323-.1478,40.53.7467,16.2577-.1479,29.91-.3851,44.6663-.8956,8.4555.0707,15.52-.3244,18.2364.7507-1.0966-.0269-1.1393.0467-1.1364.1247,1.662.5051-6.5734.08-7.2106.3787-4.4876-.1118-4.69.1989-8.7421.1332-5.0237.2158-10.69.3869-17.43.4483q-6.288.2949-13.7015.4951c-12.9922-.0942-24.4577-.4243-35.9347-.7711-5.4433.1723-7.3192.8241-13.7517.8834-5.5893-.104-9.0112-.5219-14.1083-.6986-4.7132.1146-6.1509.7936-11.3946.361-2.64.1059-4.0918.38-6.3371.5407-2.4659-.059-4.853-.0842-7.1784-.0971l-1.1682-.0065.0064-1.1553c.0408-7.3045-.0421-14.0321.4418-20.73-.3349-4.98-.2631-11.1695-.0924-17.5132l.0225-.8355.79.0232,15.4118.4519c7.8583-.5632,20.2445-.4819,30.3929-.72,18.9749.5523,34.6091.1539,58.25,0,7.5014-.4335,18.99-.3,26.5942-.72l6.9127.0467,1.7562.0118-.0025,1.7418c-.0158,10.969.0864,16.97-.2355,28.2432.12,1.8175.0427,4.9167.1385,6.75C168.286,179.0571,168.2508,180.3656,168.2157,181.6662Z"/><text class="cls-6" transform="translate(40.4547 166.7986)">Component A</text><path class="cls-5" d="M318.222,175.6643c-1.1124-1.963-.7846-15.2885-1.3769-21.3606l.0435-14.5815,0-.1182.1182-.0016,8.7088-.1225c4.1436-.1695,3.7052.2908,3.8923.6661a33.9428,33.9428,0,0,1,9.7056-.3767c5.1541-.07,11.0831-.2466,13.59.0491,5.2242-.6272,18.718-.349,27.1713-.6222,16.2106-.7382,36.7644-1.1512,56.8169-1.4876l14.8735-.2392a11.4586,11.4586,0,0,1,3.717.4344,3.9248,3.9248,0,0,1,1.6568,1.0561,4.0785,4.0785,0,0,1,.8871,1.7324c.4594,2.415.7017,4.694.97,6.9934a167.1047,167.1047,0,0,1,.8352,24.7572c-.0848.8594-.1646,1.6677-.2329,2.3593l-.049.4968-.4721-.02c-4.6608-.1952-7.9951-.0546-13.1592-.6364-5.6811-.1712-5.9718.4316-11.6529.2652-5.2657-.2465-15.4076.0468-17.464-.5245-8.6956.3128-27.0407.6626-36.8724.2243-2.7113.85-7.1835.0066-11.639.5573q-8.722.0932-17.445.3089c-10.14.3524-22.5578,1.9466-32.8838,1.9254-3.04-.2512,1.37-1.5229,9.6042-1.7587,4.0252-.5976,12.8587-.7558,17.4251-1.1977,12.6856-1.0072,23.8824-.7263,34.9347-1.2746l36.8967-.2241c11.6433.0073,23.62.0972,36.8856.4024,1.554.104,3.418.1755,5.4005.2357l-1.2022,1.1006c.4384-5.0421.4531-10.83.6842-13.9021-.6889-2.819-.44-7.173-.9221-11.5367-.1353-1.2656-.3174-2.5733-.5345-3.98-.1122-.7028-.2284-1.4313-.35-2.1926a15.553,15.553,0,0,0-.4318-2.1717,1.9959,1.9959,0,0,0-1.0329-1.2394,6.3016,6.3016,0,0,0-2.345-.5063c-.945-.0651-2.0509-.0471-3.2149-.0721l-3.6782-.094c-17.0086.4774-32.9531,1.1685-46.5842.8953-11.0373,1.12-21.345.8489-38.81,1.2653-12.5885-.0382-26.34.1994-43.6591-.0727l1.3344-1.3493-.0362.9938C318.5336,152.0328,319.6285,168.0179,318.222,175.6643Z"/><text class="cls-6" transform="translate(330.6582 161.8809)">Component B</text><text class="cls-4" transform="translate(398.531 95.9709)">declarations</text><text class="cls-4" transform="translate(105.8791 95.7033)">declarations</text><path class="cls-7" d="M505.9455,198.5122c5.83,1.6237-11.1631,1.78-23.2265,1.7995-14.5411.1012-24.1784.3267-37.5116.18-8.9325.18-17.2341.4241-28.5922.36-5.6221-.0865-6.98.2563-10.7148.36-3.2094.0227-3.7743-.2205-7.15-.18-5.6508.5721-22.5849.0045-26.8014.72-7.2116-.542-13.43-.0769-25.0066-.1794-21.5034-.2806-37.135-.1759-57.1758.539-11.35-.09-26.8916-.3926-41.0893,0-6.1081-.3046-25.306-.3091-37.5206-.539-12.03.4079-25.37.6833-35.7293,1.26-7.6407-.13-12.81-.5089-17.8694-.9-20.7919.2835-38.9016.2359-57.17-.72-23.1256.1926-42.6432.48-64.322,1.26-11.9733-.0358-22.6746.6109-25.0083-.9,1.52.0329,1.6836-.0711,1.7885-.181-1.6505-.7053,9.4207-.13,10.7147-.539,6.2024.1442,6.87-.2681,12.5051-.18,7.3407-.28,15.485-.4805,25.0151-.54q9.1165-.3417,19.6494-.54c18.1165.156,34,.5354,50.03.9,7.75-.1794,10.6224-.85,19.6512-.9,7.8.1142,12.5033.54,19.649.72,6.6664-.115,8.7661-.7954,16.08-.36,3.7219-.1055,5.78-.3794,8.9347-.54,14.3443.2483,26.8628-.0974,39.3091.54,12.8293-.6116,31.3533.1333,46.4526.36,11.0869-.5632,28.5622-.4819,42.88-.72,26.7709.5523,48.8285.1538,82.1824,0,10.5834-.4336,26.7929-.3,37.5207-.72,21.3061.1582,29.0037-.145,48.2348,0,2.3468-.1831,6.5853-.1765,8.9325-.36Z"/><text class="cls-4" transform="translate(57.0476 225.4006)">ngModules</text><text class="cls-6" transform="translate(215.8296 225.4631)">Components</text></g></svg>