<svg id="Layer_1" data-name="Layer 1" xmlns="http://www.w3.org/2000/svg" xmlns:xlink="http://www.w3.org/1999/xlink" viewBox="0 0 523.1626 242.0623"><defs><style>.cls-1{filter:url(#dropshadow);}.cls-2,.cls-8{fill:#3e479d;}.cls-3,.cls-4,.cls-5{fill:#ec5e24;}.cls-4,.cls-6,.cls-9{fill-rule:evenodd;}.cls-5,.cls-7,.cls-8{font-size:22px;font-family:SwankyandMooMoo, Swanky and Moo Moo;}.cls-6,.cls-7{fill:#65bc46;}.cls-9{fill:#231f20;}</style><filter id="dropshadow" name="dropshadow"><feGaussianBlur stdDeviation="1" in="SourceAlpha"/><feOffset result="offsetblur" dx="1" dy="1"/><feComponentTransfer><feFuncA type="linear" slope="0.2"/></feComponentTransfer><feMerge><feMergeNode/><feMergeNode in="SourceGraphic"/></feMerge></filter></defs><title>ngmodules</title><g class="cls-1"><path class="cls-2" d="M316.8883,160.5857c-23.5651.414-47.1166,1.1242-70.6676,1.361-11.7753.1191-23.55.1174-35.3216-.0745-5.8855-.0978-11.7706-.2285-17.653-.4315-2.9419-.084-5.8826-.2-8.8226-.3291l-3.6184-.1512.2622-5.7783c-3.8674,2.0225-7.7578,3.9949-11.6758,5.9928,3.6673,2.38,7.36,4.7878,11.0795,7.1478l.2622-5.7775,3.6242.1514c2.9449.13,5.89.2455,8.8367.33,5.8917.2034,11.7856.3343,17.6794.4322,11.788.1922,23.5775.1938,35.3632.0746,23.5724-.2371,47.1274-.9474,70.68-1.3611Z"/><path class="cls-3" d="M336.7562,36.0143c-30.9216-2.4745-61.954-1.901-92.8811-.9458-15.47.48-30.9326,1.0623-46.3955,1.432-7.7313.1824-15.4628.3223-23.1935.3557-3.8658.0516-7.73,0-11.5951-.0162l-4.6118-.0343.0808-5.7836-11.4815,6.3294,11.2978,6.8233.0808-5.7829,4.6209.0345c3.8722.0161,7.7449.0678,11.6162.0162,7.7436-.0335,15.4848-.1736,23.2234-.3561,15.4774-.37,30.9432-.9524,46.4066-1.4323,30.9131-.9553,61.888-1.5252,92.7049.9414Z"/><polygon class="cls-3" points="94.341 54.505 94.341 130.414 88.557 130.414 95.134 141.806 101.711 130.414 95.928 130.414 95.928 54.505 94.341 54.505"/><polygon class="cls-3" points="387.331 53.419 387.331 127.325 381.547 127.325 388.124 138.717 394.701 127.325 388.918 127.325 388.918 53.419 387.331 53.419"/><path class="cls-4" d="M50.7182,53.5718c-.7658-.6877-.5046-10.9591-1.0413-15.2993q-.006-8.8987-.012-17.8045c-.1118-3.1654.3422-2.8421.72-2.9924a11.7417,11.7417,0,0,1-.3356-1.845l-.2644.2643a20.6726,20.6726,0,0,1,5.5388.0959,93.3161,93.3161,0,0,1,10.362.24c3.99-.5537,14.2767-.0859,20.7255-.24,16.8926-.6968,39.9562-.6733,59.5735-.736l.3746-.0012.0012.377c.0291,9.4228.0768,17.935.2239,24.8082-.2832,4.5394.0869,7.2309-.48,11.8426-.0138.9244.003,1.6614.0373,2.224l.0091.1487-.1666.0088a60.5592,60.5592,0,0,1-6.6874.4415c-4.0168-.1476-11.8479.2965-13.35-.2439-6.6866.4521-21.0085.9052-28.391.42-2.42.7654-5.51-.0387-9.1606.4018l-13.4491-.0745c-7.8406.0733-18.2217.7828-25.7078.1771-2.0056-.33,2.1237-.9958,8.271-.83,3.3473-.2782,9.9657-.1019,13.6484-.3512,10.0278-.5143,18.335-.1759,26.949-.6527,8.7222.0251,18.429-.3265,28.0625-.5123,6.2687-.1189,12.6443-.229,19.8147-.2587l-1.3257,1.3257c.0016-2.3668.0035-5.2142.0054-8.1447.2706-4.256.0489-11.5454.4805-14.8071-.6377-2.1776-.1894-5.5173-.24-8.8816-.0628-2.0431-.1306-4.2456-.2165-7.0414l1.2965,1.2965c-2.4867.046-5.4759.0216-9.24-.2166-12.9745.2383-25.14.7051-35.5312.24-8.4282.9648-16.2851.5488-29.607.72l-21.8216-.3382,1.7017-1.7017c-.0815,3.4505-.2116,7.5025-.4194,11.9124.0933,4.18.3534,9.0827.3686,13.6864A80.1022,80.1022,0,0,1,50.7182,53.5718Z"/><text class="cls-5" transform="translate(62.3832 39.9462)">Common</text><path class="cls-4" d="M435.9255,13.3682c3.1813,1.2563-6.28.798-12.9915.8277-8.0947.0544-13.4449.4441-20.8564.6836-4.9567.3543-9.5548.7936-15.8642,1.098-3.1254.1083-3.8671.38-5.9387.5551-1.7831.0974-2.1047-.05-3.9794.0632-1.5607.277-4.703.374-7.7437.4938a61.4828,61.4828,0,0,0-7.1591.4029c-2.0114-.1887-3.88-.1909-6.0558-.1907-2.1742-.06-4.6584.0194-7.88-.2167-3.7949-.221-7.2475-.59-10.5138-.8827l.5574-.5092c.1023,7.1942.2765,13.6662.4955,21.2937-.1043,4.5557-.3577,10.3159-.468,16.141l-.8162-.8562c2.2456.0315,4.5063.0435,6.7094.0125,3.39.27,14.06.4242,20.8487.5993,6.6885-.2337,14.102-.4346,19.8545-.8689,4.2456.0595,7.12.265,9.9358.4928,11.5524-.3617,21.6093-.5811,31.7811-.2959,4.1067-.1835,8.0074-.3847,11.774-.602l-.49.5166c-.2452-8.1048-1.19-15.6787-2.16-23.8434-.5114-6.6452-1.1006-12.6528-.0928-13.97-.0049.8486.0662.939.1406.9961.4259-.928.2359,5.2458.5753,5.9516.1008,3.4515.4048,3.8037.5737,6.9327.4868,4.0569,1.025,8.5548,1.4127,13.8474.34,3.1015.6258,6.4382.76,10.0713l.0244.6614-.6938.0452-.8591.056c-10.0751.3113-18.9154.3376-27.8334.308-4.3058.2249-5.8944.6976-10.9165.822-4.34-.0024-6.96-.2592-10.9353-.3328-3.7065.1011-4.8721.5782-8.9424.2982-2.07.0762-3.2145.2693-4.97.3729-7.98-.1582-14.9478.0222-21.866-.4959-4.1517.1863-9.3707.0222-14.6628-.22l-.5331-.0245.0251-.5084c.1883-3.8039.4059-7.6481.5384-11.1607-.2314-6.17-.1183-15.8748-.4021-23.83.0076-.8236.015-1.6389.022-2.3923l.0069-.757.7278.0857c13.74,1.6167,25.6922,1.3894,43.1548.4141,5.8574-.5837,14.8573-1.0314,20.8109-1.6048l7.6944-.3069c2.2371-.1,4.2226-.1579,6.1723-.213,1.9487-.0714,3.8636-.1063,5.9631-.11l3.3133-.0075,3.7543.093c.6569-.0468,1.5778-.066,2.4989-.0687.9212.0127,1.8426.0255,2.5016-.0054Z"/><text class="cls-5" transform="translate(348.6713 39.6679)">Feature</text><path class="cls-6" d="M168.2164,181.6665c-.63,1.5485-.8836-.8045-1.0487-4.5529-.1574-3.7561-.1817-8.951-.1751-13.2621-.0456-8.2307-.2047-14.2412-.1947-21.0919l0-.1315-.1328-.0011-5.6466-.0477c-6.3312.18-12.2153.4241-20.2658.36a74.9775,74.9775,0,0,0-7.5945.36c-2.2748.0227-2.6752-.22-5.068-.18-4.0052.572-16.0079.0044-18.9965.72-5.1115-.542-9.5187-.0769-17.7243-.1794-15.2414-.2806-26.3209-.1758-40.5257.539-6.1071-.0684-13.9269-.2592-21.74-.1754l1.2637-1.2637c.0266,2.4811.0809,4.96.1754,7.3832-.3046,4.3294-.3091,17.9366-.539,26.5942.0625,1.3947.1262,2.8138.1914,4.2658l-1.0915-1.0915c7.2546-.3146,14.8-.5838,20.8153-1.0545,5.3643.1371,9.0444.5188,12.6775.9078,14.5871-.2648,27.2324-.1478,40.53.7467,16.2576-.148,29.91-.3852,44.6663-.8957,8.4555.0707,15.52-.3244,18.2364.7508-1.0967-.0269-1.1394.0466-1.1364.1246,1.662.5051-6.5734.08-7.2106.3787-4.4876-.1118-4.69.1989-8.7421.1332-5.0237.2158-10.69.3869-17.43.4484q-6.288.2949-13.7015.495c-12.9921-.0941-24.4576-.4243-35.9346-.771-5.4433.1723-7.3192.8241-13.7517.8833-5.5894-.104-9.0112-.5219-14.1083-.6986-4.7132.1146-6.151.7936-11.3946.3611-2.64.1058-4.0919.38-6.3371.5407-2.466-.0591-4.853-.0843-7.1784-.0972l-1.1683-.0065.0065-1.1553c.0407-7.3044-.0421-14.032.4417-20.73-.3349-4.9795-.263-11.1694-.0923-17.5131l.0225-.8356.79.0232,15.4118.4519c7.8582-.5632,20.2445-.4819,30.3928-.72,18.975.5523,34.6091.1539,58.25,0,7.5014-.4335,18.99-.2995,26.5942-.72l6.9127.0467,1.7562.0119-.0025,1.7418c-.0158,10.9689.0864,16.97-.2355,28.2431.12,1.8175.0427,4.9168.1384,6.7495C168.2867,179.0575,168.2514,180.3659,168.2164,181.6665Z"/><text class="cls-7" transform="translate(40.4553 166.7989)">Component A</text><path class="cls-6" d="M318.2226,175.6646c-1.1123-1.963-.7845-15.2885-1.3768-21.36l.0434-14.5815,0-.1182.1182-.0017,8.7088-.1224c4.1436-.17,3.7051.2907,3.8923.666a33.942,33.942,0,0,1,9.7055-.3767c5.1541-.0705,11.0832-.2466,13.59.0492,5.2243-.6272,18.718-.3491,27.1714-.6222,16.2106-.7383,36.7644-1.1513,56.8169-1.4877l14.8734-.2392a11.4616,11.4616,0,0,1,3.7171.4344A3.9249,3.9249,0,0,1,457.14,138.96a4.08,4.08,0,0,1,.8872,1.7324c.4594,2.4151.7016,4.694.9705,6.9934a167.1184,167.1184,0,0,1,.8352,24.7572c-.0848.8594-.1646,1.6678-.2329,2.3593l-.049.4969-.4722-.02c-4.6607-.1952-7.995-.0546-13.1591-.6364-5.6811-.1712-5.9718.4316-11.653.2652-5.2656-.2465-15.4075.0468-17.464-.5245-8.6955.3128-27.0406.6627-36.8724.2244-2.7113.85-7.1835.0065-11.639.5572q-8.7219.0931-17.4449.3089c-10.14.3524-22.5578,1.9466-32.8838,1.9254-3.04-.2512,1.37-1.5229,9.6042-1.7587,4.0251-.5976,12.8587-.7557,17.4251-1.1977,12.6855-1.0072,23.8823-.7263,34.9347-1.2745l36.8966-.2242c11.6434.0074,23.62.0973,36.8857.4024,1.554.104,3.4179.1755,5.4005.2357l-1.2022,1.1006c.4384-5.042.4531-10.83.6842-13.9021-.6889-2.819-.44-7.173-.9222-11.5367-.1352-1.2656-.3173-2.5733-.5344-3.98-.1122-.7028-.2284-1.4313-.35-2.1926a15.5538,15.5538,0,0,0-.4317-2.1717,1.9959,1.9959,0,0,0-1.033-1.2393,6.299,6.299,0,0,0-2.345-.5064c-.9449-.065-2.0509-.047-3.2148-.0721l-3.6782-.094c-17.0086.4774-32.9531,1.1685-46.5842.8953-11.0373,1.12-21.345.8489-38.81,1.2654-12.5884-.0382-26.34.1993-43.6591-.0727l1.3345-1.3493-.0362.9937C318.5343,152.0332,319.6291,168.0182,318.2226,175.6646Z"/><text class="cls-7" transform="translate(330.6589 161.8812)">Component B</text><text class="cls-5" transform="translate(209.4984 24.468)">imports</text><text class="cls-5" transform="translate(398.5317 95.9712)">declarations</text><text class="cls-5" transform="translate(105.8798 76.7036)">declarations<tspan x="0" y="18" xml:space="preserve"> +</tspan><tspan x="0" y="36">exports</tspan></text><text class="cls-8" transform="translate(207.5329 177.0927)">can use</text><path class="cls-9" d="M505.9462,198.5125c5.83,1.6238-11.1631,1.7805-23.2265,1.8-14.5412.1011-24.1784.3266-37.5116.18-8.9325.18-17.2341.4241-28.5923.36-5.6221-.0864-6.98.2563-10.7147.36-3.2094.0227-3.7744-.22-7.15-.18-5.6509.572-22.585.0044-26.8014.72-7.2116-.542-13.43-.0769-25.0066-.1794-21.5035-.2806-37.135-.1758-57.1759.539-11.35-.09-26.8915-.3925-41.0892,0-6.1081-.3046-25.3061-.3091-37.5206-.539-12.03.4079-25.37.6833-35.7293,1.26-7.6407-.13-12.81-.509-17.8694-.9-20.7919.2835-38.9016.2359-57.17-.72-23.1257.1926-42.6433.4805-64.322,1.2605-11.9733-.0359-22.6746.6108-25.0084-.9,1.5195.0329,1.6837-.0711,1.7886-.181-1.6505-.7053,9.4207-.13,10.7147-.539,6.2023.1443,6.87-.2681,12.5051-.18,7.3407-.2805,15.4849-.4805,25.0151-.54q9.1164-.3417,19.6494-.5405c18.1164.156,34,.5354,50.03.9,7.75-.1794,10.6223-.85,19.6512-.9,7.8.1142,12.5033.5405,19.649.72,6.6663-.115,8.7661-.7955,16.08-.36,3.722-.1054,5.78-.3794,8.9347-.54,14.3443.2483,26.8629-.0974,39.3092.54,12.8293-.6115,31.3532.1333,46.4526.36,11.0869-.5633,28.5621-.482,42.88-.72,26.7709.5523,48.8285.1538,82.1824,0,10.5834-.4336,26.7929-.3,37.5206-.72,21.3062.1581,29.0038-.1451,48.2349,0,2.3468-.1832,6.5853-.1766,8.9324-.36Z"/><text class="cls-5" transform="translate(57.0483 225.4009)">ngModules</text><text class="cls-7" transform="translate(215.8303 225.4634)">Components</text><text class="cls-8" transform="translate(390.1545 224.9097)">Intention</text></g></svg>