<svg id="Layer_1" data-name="Layer 1" xmlns="http://www.w3.org/2000/svg" xmlns:xlink="http://www.w3.org/1999/xlink" viewBox="0 0 523.1626 242.0623"><defs><style>.cls-1{filter:url(#dropshadow);}.cls-2,.cls-8{fill:#3e479d;}.cls-3,.cls-4,.cls-5{fill:#ec5e24;}.cls-4,.cls-6,.cls-9{fill-rule:evenodd;}.cls-5,.cls-7,.cls-8{font-size:22px;font-family:SwankyandMooMoo, Swanky and Moo Moo;}.cls-6,.cls-7{fill:#65bc46;}.cls-9{fill:#231f20;}</style><filter id="dropshadow" name="dropshadow"><feGaussianBlur stdDeviation="1" in="SourceAlpha"/><feOffset result="offsetblur" dx="1" dy="1"/><feComponentTransfer><feFuncA type="linear" slope="0.2"/></feComponentTransfer><feMerge><feMergeNode/><feMergeNode in="SourceGraphic"/></feMerge></filter></defs><g class="cls-1"><path class="cls-2" d="M316.8933,160.5858c-23.5651.414-47.1166,1.1241-70.6677,1.3609-11.7752.1191-23.55.1175-35.3215-.0744-5.8855-.0978-11.7706-.2285-17.653-.4316-2.9419-.0839-5.8825-.2-8.8226-.329L180.81,160.96l.2622-5.7782c-3.8674,2.0225-7.7578,3.9949-11.6758,5.9928,3.6673,2.38,7.36,4.7877,11.0795,7.1477l.2622-5.7775,3.6242.1515c2.9449.13,5.89.2455,8.8367.33,5.8917.2033,11.7856.3343,17.6794.4322,11.788.1922,23.5775.1937,35.3632.0745,23.5724-.237,47.1274-.9473,70.68-1.361Z"/><polygon class="cls-3" points="94.346 54.506 94.346 130.414 88.562 130.414 95.139 141.806 101.716 130.414 95.933 130.414 95.933 54.506 94.346 54.506"/><polygon class="cls-3" points="387.336 53.419 387.336 127.325 381.552 127.325 388.129 138.717 394.706 127.325 388.923 127.325 388.923 53.419 387.336 53.419"/><path class="cls-4" d="M50.7232,53.5719c-.7658-.6878-.5046-10.9592-1.0413-15.2994q-.006-8.8987-.012-17.8044c-.1118-3.1654.3422-2.8422.72-2.9924a11.7533,11.7533,0,0,1-.3357-1.8451l-.2643.2644a20.6685,20.6685,0,0,1,5.5388.0959,93.3161,93.3161,0,0,1,10.362.24c3.99-.5537,14.2767-.0859,20.7255-.24,16.8926-.6969,39.9561-.6734,59.5734-.7361l.3747-.0012.0011.377c.0292,9.4228.0769,17.9351.224,24.8082-.2832,4.5394.0869,7.231-.48,11.8427-.0137.9244.003,1.6613.0373,2.224l.0091.1487-.1667.0088a60.58,60.58,0,0,1-6.6873.4415c-4.0168-.1477-11.8479.2965-13.35-.2439-6.6867.4521-21.0085.9052-28.391.42-2.42.7654-5.51-.0387-9.1606.4018l-13.4491-.0744c-7.8406.0733-18.2217.7828-25.7078.177-2.0056-.33,2.1237-.9958,8.271-.83,3.3473-.2782,9.9657-.102,13.6484-.3513,10.0278-.5142,18.335-.1758,26.949-.6527,8.7222.0252,18.429-.3264,28.0625-.5123,6.2687-.1188,12.6443-.2289,19.8146-.2586l-1.3256,1.3257c.0016-2.3669.0035-5.2143.0054-8.1448.2706-4.2559.0489-11.5454.4805-14.8071-.6377-2.1775-.1894-5.5173-.24-8.8816-.0628-2.0431-.1305-4.2455-.2165-7.0414l1.2964,1.2965c-2.4866.0461-5.4758.0217-9.24-.2165-12.9746.2383-25.14.7051-35.5312.24-8.4282.9648-16.2851.5488-29.607.72L49.79,17.3324l1.7017-1.7018c-.0815,3.4505-.2116,7.5025-.4194,11.9125.0933,4.18.3534,9.0827.3686,13.6864A80.1038,80.1038,0,0,1,50.7232,53.5719Z"/><text class="cls-5" transform="translate(62.3882 39.9463)">Common</text><path class="cls-4" d="M435.9305,13.3683c3.1813,1.2562-6.28.7979-12.9914.8276-8.0947.0545-13.445.4441-20.8564.6836-4.9568.3544-9.5549.7937-15.8643,1.0981-3.1254.1082-3.867.3794-5.9386.555-1.7832.0974-2.1048-.05-3.98.0633-1.5608.2769-4.703.374-7.7437.4938a61.4606,61.4606,0,0,0-7.159.4028c-2.0115-.1886-3.8806-.1908-6.056-.1907-2.1741-.0595-4.6583.02-7.88-.2166-3.7949-.2211-7.2475-.59-10.5138-.8827l.5574-.5092c.1023,7.1942.2765,13.6662.4955,21.2937-.1043,4.5556-.3577,10.3159-.468,16.141l-.8163-.8562c2.2457.0315,4.5065.0434,6.7095.0125,3.39.27,14.06.4242,20.8488.5992,6.6884-.2336,14.1019-.4346,19.8544-.8689,4.2456.0595,7.12.265,9.9358.4928,11.5525-.3616,21.6093-.581,31.7811-.2958,4.1067-.1836,8.0073-.3848,11.774-.6021l-.49.5167c-.2452-8.1048-1.19-15.6787-2.16-23.8435-.5115-6.6452-1.1006-12.6527-.0928-13.97-.005.8487.0663.9391.1407.9962.4258-.928.2358,5.2457.5752,5.9515.1008,3.4515.4049,3.8038.5738,6.9328.4867,4.0568,1.0249,8.5547,1.4126,13.8473.34,3.1016.6258,6.4382.76,10.0714l.0245.6613-.6938.0452-.8592.0561c-10.075.3113-18.9154.3375-27.8333.3079-4.3058.225-5.8944.6976-10.9164.822-4.3405-.0023-6.96-.2592-10.9354-.3327-3.7065.1011-4.872.5781-8.9424.2982-2.07.0762-3.2146.2692-4.97.3728-7.98-.1581-14.9478.0222-21.866-.4959-4.1517.1863-9.3707.0223-14.6628-.22l-.5331-.0244.0252-.5084c.1881-3.804.4058-7.6481.5383-11.1608-.2314-6.17-.1182-15.8747-.4021-23.83.0076-.8235.0151-1.6389.022-2.3923l.0069-.7569.7278.0856c13.74,1.6168,25.6922,1.39,43.1547.4142,5.8575-.5838,14.8574-1.0314,20.811-1.6049l7.6944-.3069c2.2371-.1,4.2225-.1578,6.1723-.213,1.9487-.0713,3.8635-.1062,5.9631-.11l3.3133-.0076,3.7543.093c.6569-.0467,1.5778-.066,2.4989-.0686.9212.0126,1.8426.0254,2.5016-.0055Z"/><text class="cls-5" transform="translate(348.6763 39.668)">Feature</text><path class="cls-6" d="M168.2214,181.6666c-.63,1.5485-.8837-.8046-1.0488-4.5529-.1573-3.7561-.1815-8.951-.1749-13.2622-.0457-8.2306-.2048-14.2411-.1948-21.0919l0-.1315-.1328-.0011-5.6466-.0476c-6.3312.18-12.2153.424-20.2658.36a75.0071,75.0071,0,0,0-7.5945.36c-2.2748.0227-2.6752-.22-5.068-.18-4.0052.572-16.0079.0045-18.9965.72-5.1115-.542-9.5188-.0769-17.7244-.1794-15.2413-.28-26.3208-.1758-40.5256.5391-6.1071-.0685-13.9269-.2593-21.74-.1754l1.2637-1.2638c.0266,2.4812.0809,4.96.1754,7.3832-.3046,4.3295-.3091,17.9367-.539,26.5942.0625,1.3947.1262,2.8139.1914,4.2659l-1.0915-1.0915c7.2546-.3147,14.8-.5839,20.8153-1.0546,5.3643.1372,9.0444.5188,12.6775.9079,14.5871-.2649,27.2324-.1479,40.53.7466,16.2576-.1479,29.91-.3852,44.6663-.8956,8.4555.0707,15.52-.3245,18.2364.7507-1.0966-.0269-1.1394.0467-1.1364.1247,1.662.5051-6.5734.08-7.2106.3787-4.4876-.1118-4.69.1989-8.7421.1332-5.0237.2158-10.69.3869-17.43.4483q-6.288.2949-13.7015.4951c-12.9921-.0942-24.4576-.4243-35.9346-.7711-5.4433.1723-7.3192.8241-13.7517.8834-5.5894-.104-9.0113-.5219-14.1083-.6986-4.7132.1145-6.151.7936-11.3946.361-2.64.1059-4.0919.38-6.3371.5408-2.466-.0592-4.853-.0843-7.1784-.0972l-1.1683-.0065.0065-1.1553c.0407-7.3045-.0421-14.032.4417-20.73-.3349-4.9795-.263-11.1694-.0923-17.5131l.0225-.8355.79.0231,15.4118.452c7.8582-.5632,20.2445-.4819,30.3928-.72,18.9749.5523,34.6092.1538,58.25,0,7.5014-.4336,18.99-.2995,26.5942-.72l6.9127.0466,1.7562.0119-.0025,1.7419c-.0158,10.9688.0864,16.97-.2355,28.2431.12,1.8175.0427,4.9167.1384,6.7495Z"/><text class="cls-7" transform="translate(40.4603 166.799)">Component A</text><path class="cls-6" d="M318.2276,175.6647c-1.1123-1.9631-.7845-15.2885-1.3768-21.36l.0435-14.5816,0-.1182.1182-.0017,8.7088-.1224c4.1435-.1695,3.7051.2908,3.8923.6661a33.9382,33.9382,0,0,1,9.7055-.3767c5.1541-.0706,11.0832-.2467,13.59.0492,5.2242-.6273,18.7179-.3491,27.1713-.6223,16.2106-.7382,36.7644-1.1512,56.8169-1.4876l14.8735-.2392a11.458,11.458,0,0,1,3.7169.4344,3.9236,3.9236,0,0,1,1.6568,1.0561,4.0781,4.0781,0,0,1,.8872,1.7324c.4594,2.415.7017,4.694.9705,6.9934a167.118,167.118,0,0,1,.8352,24.7572c-.0848.8593-.1647,1.6677-.2329,2.3593l-.0491.4968-.472-.02c-4.6608-.1952-7.9951-.0545-13.1592-.6363-5.6811-.1712-5.9718.4316-11.6529.2652-5.2657-.2465-15.4076.0468-17.464-.5245-8.6957.3128-27.0407.6626-36.8725.2243-2.7113.85-7.1835.0065-11.639.5573q-8.7219.0931-17.445.3089c-10.14.3524-22.5578,1.9465-32.8837,1.9254-3.04-.2512,1.37-1.5229,9.6042-1.7587,4.0252-.5977,12.8586-.7557,17.4251-1.1978,12.6855-1.0072,23.8823-.7263,34.9347-1.2745l36.8966-.2242c11.6434.0075,23.62.0974,36.8856.4024,1.5541.1041,3.4181.1756,5.4.2358l-1.2022,1.1005c.4385-5.042.4532-10.83.6842-13.9021-.6888-2.8189-.44-7.1729-.922-11.5366-.1353-1.2657-.3175-2.5733-.5346-3.98-.1121-.7027-.2284-1.4312-.35-2.1925a15.5646,15.5646,0,0,0-.4318-2.1717,1.9958,1.9958,0,0,0-1.033-1.2394,6.3009,6.3009,0,0,0-2.345-.5064c-.9449-.065-2.0509-.047-3.2148-.072l-3.6782-.094c-17.0086.4774-32.9531,1.1684-46.5842.8952-11.0374,1.12-21.345.849-38.81,1.2655-12.5885-.0382-26.34.1993-43.6592-.0727l1.3345-1.3494-.0362.9937C318.5392,152.0332,319.6341,168.0183,318.2276,175.6647Z"/><text class="cls-7" transform="translate(330.6639 161.8813)">Component B</text><text class="cls-5" transform="translate(398.5367 95.9713)">declarations</text><text class="cls-5" transform="translate(105.8848 95.7037)">declarations</text><text class="cls-8" transform="translate(207.5379 177.0927)">can use</text><path class="cls-9" d="M505.9512,198.5126c5.83,1.6237-11.1631,1.7805-23.2265,1.7995-14.5411.1011-24.1785.3267-37.5117.18-8.9324.18-17.234.4241-28.5922.36-5.622-.0863-6.98.2564-10.7147.36-3.2094.0228-3.7744-.22-7.15-.18-5.6509.572-22.5849.0044-26.8014.72-7.2116-.5419-13.43-.0768-25.0066-.1793-21.5034-.2806-37.135-.1759-57.1759.539-11.35-.09-26.8915-.3926-41.0892,0-6.1081-.3047-25.306-.3091-37.5206-.539-12.03.4079-25.37.6832-35.7293,1.26-7.6407-.13-12.81-.5091-17.8694-.9-20.7919.2835-38.9016.2359-57.17-.72-23.1257.1927-42.6433.4805-64.322,1.2605-11.9733-.0358-22.6746.6109-25.0084-.9,1.52.0329,1.6837-.0711,1.7886-.181-1.65-.7053,9.4207-.13,10.7147-.5391,6.2023.1444,6.87-.268,12.5051-.18,7.3407-.2806,15.4849-.4805,25.0151-.54q9.1164-.3417,19.6494-.5406c18.1164.156,34,.5354,50.03.9,7.75-.1794,10.6223-.85,19.6512-.9,7.8.1143,12.5032.5406,19.6489.72,6.6664-.1149,8.7661-.7954,16.0805-.36,3.7219-.1054,5.78-.3794,8.9346-.54,14.3443.2483,26.8629-.0974,39.3092.54,12.8292-.6115,31.3533.1333,46.4526.36,11.0869-.5632,28.5622-.4819,42.88-.72,26.7709.5523,48.8285.1538,82.1824,0,10.5834-.4336,26.7929-.2995,37.5206-.72,21.3062.1582,29.0038-.1451,48.2349,0,2.3468-.1831,6.5853-.1766,8.9325-.36Z"/><text class="cls-5" transform="translate(57.0533 225.401)">ngModules</text><text class="cls-7" transform="translate(215.8353 225.4635)">Components</text><text class="cls-8" transform="translate(390.1594 224.9098)">Intention</text></g></svg>