<svg id="Layer_1" data-name="Layer 1" xmlns="http://www.w3.org/2000/svg" xmlns:xlink="http://www.w3.org/1999/xlink" viewBox="0 0 495.5425 301.9836"><defs><style>.cls-1{filter:url(#dropshadow);}.cls-2,.cls-8{fill:#771214;}.cls-3,.cls-4,.cls-5{fill:#ec5e24;}.cls-4,.cls-7,.cls-9{fill-rule:evenodd;}.cls-5,.cls-6,.cls-8{font-size:22px;font-family:SwankyandMooMoo, Swanky and Moo Moo;}.cls-6,.cls-7{fill:#65bc46;}.cls-9{fill:#231f20;}</style><filter id="dropshadow" name="dropshadow"><feGaussianBlur stdDeviation="1" in="SourceAlpha"/><feOffset result="offsetblur" dx="1" dy="1"/><feComponentTransfer><feFuncA type="linear" slope="0.2"/></feComponentTransfer><feMerge><feMergeNode/><feMergeNode in="SourceGraphic"/></feMerge></filter></defs><title>ngmodules-shared-providers</title><g class="cls-1"><path class="cls-2" d="M334.1345,217.3024l-92.4373.441q-23.1079.0545-46.2145-.0383l-23.1061-.1533-16.15-.1667.0692-5.7838-11.47,6.4286,11.3127,6.7245.0692-5.7831,16.155.1668,23.1129.1533q23.113.1045,46.2252.0383l92.4406-.441Z"/><path class="cls-3" d="M217.0382,48.8047c-5.687,2.2591-10.4943,6.0136-15.0773,9.7671-2.297,1.8866-4.5575,3.7975-6.8771,5.6107-2.3159,1.8121-4.7261,3.4949-7.2015,5.0978-4.9545,3.1913-10.11,6.1451-15.19,9.2025l-13.2258,7.8815-2.961-4.9688-6.42,11.4817,13.1534-.1819-2.9606-4.9682,13.2257-7.8814c5.0812-3.0585,10.2223-6.0023,15.2408-9.2342,2.5022-1.62,4.9594-3.3353,7.3145-5.1781,2.3529-1.84,4.6223-3.7584,6.9078-5.6354,4.5565-3.7378,9.2555-7.3782,14.6487-9.5159Z"/><path class="cls-3" d="M253.1328,49.6275a260.9284,260.9284,0,0,1,34.43,18.4562c5.5494,3.4366,11.0353,6.9843,16.5336,10.5223l8.2651,5.2862,6.0369,3.7884-3.0435,4.9188,6.626.194,6.5973.084-3.2061-5.7193-3.0959-5.7447-3.0431,4.9181-6.0223-3.7793-8.2561-5.28c-5.4962-3.5368-10.99-7.0894-16.5559-10.5365a262.4751,262.4751,0,0,0-34.6428-18.5668Z"/><polygon class="cls-3" points="91.787 110.971 91.787 186.88 86.003 186.88 92.579 198.272 99.157 186.88 93.373 186.88 93.373 110.971 91.787 110.971"/><polygon class="cls-3" points="384.777 108.52 384.777 183.791 378.992 183.791 385.569 195.183 392.146 183.791 386.363 183.791 386.363 108.52 384.777 108.52"/><path class="cls-4" d="M42.76,110.0378c-.7634-.8065-.4991-11.8812-1.0428-16.6054q-.0054-9.6106-.0109-19.2287a16.0861,16.0861,0,0,1,.0308-2.1071l.0107-.0974.0787.008c1.1419.116.9889.4221,1.095.69a23.0968,23.0968,0,0,1,7.9972-.24,108.8271,108.8271,0,0,1,11.191.24c4.31-.5537,15.4188-.0859,22.3836-.24,18.2441-.6969,43.1529-.6733,64.34-.736l.3747-.0011.0011.3769c.0291,10.1767.0768,19.37.2239,26.793-.2685,4.648.05,7.5022-.3986,12.0818l-.0217.2216-.1794-.02-.7087-.0808c-4.68-.0645-4.9329.5418-9.6335.478-4.3353-.1476-12.7924.2947-14.41-.2442-7.2253.4506-22.6693.9-30.644.4171-2.5944.7615-5.9472-.0385-9.8736.4l-14.51-.0732c-8.459.0732-19.6008.7841-27.7146.1814-2.19-.3293,2.2133-.996,8.8626-.8308,3.5948-.2779,10.7513-.1024,14.7144-.3509,10.8064-.5122,19.7938-.175,29.0884-.65,9.4245.025,19.91-.3253,30.3253-.5119,7.7535-.1365,15.6589-.2621,24.5043-.27l-1.3337,1.3336c.0038-1.6318.0086-3.64.0134-5.6861.2706-4.5965.0489-12.4692.48-15.9918-.6377-2.3517-.1894-5.9587-.24-9.5922-.0628-2.2067-.1306-4.5851-.2166-7.6048l1.2965,1.2965c-2.6857.046-5.9139.0216-9.9792-.2165-14.0126.2383-27.1514.7051-38.3738.24-9.1025.9648-17.5881.5488-31.9758.72l-26.6777-.4024,1.6375-1.6375c-.0762,2.7938-.1855,6.2039-.3426,9.8371.0981,4.5227.3649,9.8367.3761,14.8135A91.995,91.995,0,0,1,42.76,110.0378Z"/><text class="cls-5" transform="translate(49.9242 96.4122)">Feature A</text><path class="cls-4" d="M283.3167,48.8267c-.79,2.4343-.8136-6.9439-.822-13.5348-.037-7.9961-.1873-13.2774-.0885-20.5363-.0443-1.7288-.0874-3.4149-.1322-5.1648l.0126.0126c-3.1271.0769-6.4255.1349-10.4174.1075-3.0618-.0576-3.801.1709-5.8351.24-1.7478.0152-2.0554-.147-3.8938-.12-3.0773.3813-12.2992.0029-14.5955.48-3.9272-.3613-7.3135-.0512-13.618-.12-11.71-.187-20.2229-.1172-31.1367.3594-4.6923-.0456-10.7-.1728-16.7034-.1169l.8424-.8425c.0178,1.9063.054,3.8107.1169,5.6727-.2031,3.3264-.2061,13.7811-.3594,20.4329.16,4.1823.33,8.6473.4878,12.7693l-1.0878-1.0878c2.3723-.1,4.6033-.2125,6.6158-.35,4.1185.0892,6.9272.3441,9.6975.605,11.2291-.1821,20.9478-.1064,31.103.5,12.5049-.1,23.0137-.2611,34.4086-.5991,6.4954.05,11.9723-.2094,13.9506.5079-.84-.0182-.8806.0308-.8862.0829,1.2264.3371-5.06.0525-5.5789.2523-3.4379-.0752-3.6221.1332-6.7295.0891-3.8794.145-8.2462.2609-13.4283.3029q-4.8541.2-10.5625.336c-9.97-.0629-18.7533-.2877-27.5485-.5224-4.1931.1164-5.6746.5562-10.6178.5948-4.286-.0712-6.89-.3528-10.7961-.4717-3.6274.0767-4.7666.5307-8.7715.24l-.8562.04-.49.023-.03-.5432c-.0851-1.536-.2294-2.5611-.32-4.0122.1655-7.8116-.0649-14.6289.36-21.4069-.2233-3.8259-.1753-8.5817-.0615-13.4557l.0129-.5551.5287.0135,11.8412.3013c6.0377-.3755,15.5543-.3213,23.3516-.48,14.5787.3682,26.5909.1026,44.7546,0,4.5208-.2267,10.9264-.2206,16.2524-.3427l1.04-.0238.0234,1.0869c.0336,1.5516.0756,2.9808.1335,4.2743-.1316,11.84.0068,16.225-.2219,26.8741.0807,1.3756.04,3.7284.109,5.1123C283.3524,46.8435,283.3346,47.8381,283.3167,48.8267Z"/><text class="cls-5" transform="translate(219.2858 32.5077)">App</text><path class="cls-4" d="M438.5943,108.0323c3.5494.91-6.6232,1.5585-13.87,1.57-8.7271.0891-14.52.0094-22.5159-.4-5.3646-.1028-10.353-.2054-17.1638-.5886-3.37-.2245-4.1953-.0319-6.4385-.0719-1.9255-.08-2.2573-.2476-4.2838-.3073-3.4028.1938-13.5524-.4529-16.0884.0148-4.321-.4034-8.0531-.1079-14.9877.0194-2.6129.0721-5.0806.178-7.4485.282l-6.8342.532-.5646.044.007-.56c.0823-6.6253-.0057-12.84-.387-19.9772-.0194-4.9016-.0634-11.1145-.2756-17.397l-.0283-.8382.8464-.02c2.4327-.0586,4.8812-.1424,7.2662-.2579,3.6732.1385,15.2075-.0087,22.5469.12,7.2266-.3145,15.2424-.4781,21.4714-.8237,4.5919.1137,7.6962.4037,10.733.6967,12.4943-.0387,23.3788.2377,34.3295,1.1964l15.754.331.538.0113.0012.5562c.0166,7.7217-.5525,15.1016-.9073,22.9166-.681,7.1587-.4521,13.52-1.4548,14.8986.0421-.9079-.025-1.0073-.0968-1.0717-.2391.49-.2532-.9226-.176-2.5546a32.5846,32.5846,0,0,0,.0886-3.8774c.3358-3.7081.1077-4.1278.4432-7.4967.18-4.41.5419-9.2915.8654-14.9964.0475-2.4272.0872-4.9769.0566-7.834l.5972.6286-3.9457-.0434-30.0131-1.4456c-4.6562.0334-6.3882.4385-11.8088.3985-4.6814-.1469-7.5022-.4524-11.7924-.6115-4.0042.0486-5.2667.49-9.6573.1877-2.2351.0609-3.4711.2421-5.365.3513-8.6125-.1655-16.1259.1115-23.603-.2194-4.4795.2886-10.119.312-15.8434.2943l.5085-.5337c.01,4.1087.019,8.2639.0277,12.0551.5352,6.5539.5221,16.8595.5032,25.3774l-.7809-.7221.3914-.0379c8.05-.5568,15.3928-.779,23.2308-.8617,7.838-.0706,16.1726.0777,26.1864.4969,6.3688.0009,16.0864.6229,22.5276.6135,6.3821.3354,10.7267.4387,14.9142.4916,2.0942.0464,4.1479.0343,6.3979.0388,2.2509.0254,4.6952-.0089,7.5713-.0392,1.4021-.1252,3.9338-.2139,5.33-.4036Z"/><text class="cls-5" transform="translate(337.48 96.1338)">Feature B</text><text class="cls-6" transform="translate(54.1116 223.2649)">Service A</text><path class="cls-7" d="M145.0505,199.2379c-.8033.5272-3.8036.5618-7.199.5706l-5.1655.0513c-1.67.0441-3.2126.1284-4.4.2634-6.0645-.0677-12.1337-.0108-18.2021.1053-3.2374.1694-2.899-.2909-3.0489-.6656a20.8539,20.8539,0,0,1-7.584.4055,94.4421,94.4421,0,0,1-10.6215-.0207c-4.08.6328-14.6243.274-21.2248.2595a207.3279,207.3279,0,0,1-23.3056-.8345l.2011-.1837c.1672,6.1224.2523,12.4868.209,18.8163-.0416,6.3294-.19,12.62-.32,18.6019l-.366-.3839c9.7838.19,18.6259.2477,25.7491.1436,4.65.3083,7.4084-.0571,12.1352.507,4.4427.0438,4.6584-.5492,9.0995-.5246,4.1194.13,12.0334-.4379,13.6553.0776,6.7846-.5433,21.1-1.4158,28.7964-1.2144,2.0905-.9167,5.6126-.1743,9.0766-.8245l2.3679-.0951-1.2635,1.3338-.1345-11.2815c-.2058-7.9323-1.4023-17.6988-.7878-25.7892.4162-2.3674,1.4277,1.1315,1.2905,7.5728.4166,3.1631.286,10.0715.6421,13.6475.414,5.594.4978,10.8138.6022,15.8311l.0059.2825-.287.0143c-3.9149.1952-7.7006.3922-11.4623.7467-8.989.2746-18.8753.8836-28.823,1.2151-9.1.3044-18.4678.5241-28.85.4464-4.3649-.2816-11.8442-.1088-15.1844-.59-2.2412.614-5.6614.1165-9.1121.1059-2.171-.0024-4.5169.0856-7.5541.0711l-1.2839-.0062.012-1.3279c.0223-2.46.1293-5.4319.4385-9.1315.06-10.0343-.2619-19.5667-.3451-28.2189l-.0162-1.68,1.6864.1536c2.7915.2542,5.4705.6269,8.0579.8847,8.63-.3777,16.5942.3,30.2156.0189,10.02.1319,21.0089-.3094,34.9032.089,4.4266-.1746,9.7788-.4947,14.7827-.554,2.5024.0095,4.9155.0384,7.0739.2169A31.2383,31.2383,0,0,1,145.0505,199.2379Z"/><path class="cls-7" d="M335.4583,232.13c-1.115-1.5288-.8044-11.9079-1.4047-16.6373q.0194-9.0671.0391-18.1413c-.015-.4624-.0186-.8514-.0125-1.1623l.0026-.1344.13,0c1.9774-.0063,1.7478.3779,1.8755.6992a20.68,20.68,0,0,1,7.5569-.3873,97.3388,97.3388,0,0,1,10.5859.0342c4.064-.6329,14.5771-.37,21.1594-.6521,12.6207-.756,28.6273-1.1916,44.2441-1.55l11.5811-.258a7.2745,7.2745,0,0,1,2.9388.374,3.0393,3.0393,0,0,1,1.2532.9529,3.9578,3.9578,0,0,1,.6575,1.3786,18.6589,18.6589,0,0,1,.399,2.7846q.1328,1.3607.2629,2.6968c.6471,7.1284.9038,13.7166.99,19.2659-.26,3.8345-.1259,6.3871-.5306,9.857l-.0413.3531-.3063-.0309c-.6647-.0672-1.4241-.1568-2.2423-.2764-4.4236-.1769-4.657.4233-9.0807.2463-4.0991-.2575-12.0021.0057-13.5972-.5739-6.7781.28-21.0634.5729-28.7155.1043-2.1124.8356-5.5928-.02-9.06.5241q-6.7881.0692-13.5741.2813c-7.8921.3543-17.5078,1.9539-25.5367,1.98-2.377-.2326,1.0055-1.536,7.417-1.7913,3.1185-.6085,9.9967-.7934,13.5471-1.22,9.87-1.0094,18.5978-.7,27.2076-1.2141,8.9629.0445,18.832-.1576,28.7471-.104,7.8711.039,15.9363.1374,24.9294.37l-1.3651,1.2655c.0485-1.075.1089-2.4142.17-3.7709.4493-4.3136.1689-11.7171.439-15.0445-.717-2.1856-.4489-5.591-.7791-8.9991-.0907-.9892-.2269-2.011-.37-3.1129a23.208,23.208,0,0,0-.5658-3.3133,1.6733,1.6733,0,0,0-.6794-.9387,3.4034,3.4034,0,0,0-1.57-.38c-.6941-.0415-1.5947-.0237-2.49-.0485l-2.866-.09c-13.2445.4961-25.6583,1.2046-36.2784.9464-8.5879,1.1321-16.6191.8724-30.22,1.308-7.6914-.0191-15.939.1322-26.0583.0842l1.5856-1.6133c-.0895,2.4721-.2,5.5188-.3156,8.72C335.7391,213.7232,336.8548,226.1736,335.4583,232.13Z"/><text class="cls-6" transform="translate(343.9928 218.3472)">Service B</text><text class="cls-5" transform="translate(206.9437 80.9339)">imports</text><text class="cls-5" transform="translate(395.977 152.4372)">providers</text><text class="cls-5" transform="translate(102.3251 155.1696)">providers</text><text class="cls-8" transform="translate(204.9782 210.5586)">can use</text><path class="cls-9" d="M486.3589,254.9785c5.63,1.6237-10.7789,1.78-22.4272,1.8-14.0406.1011-23.3462.3266-36.2206.18-8.625.18-16.6409.4241-27.608.36-5.4287-.0864-6.74.2563-10.3459.36-3.099.0227-3.6445-.2205-6.9042-.18-5.4563.572-21.8076.0044-25.8789.72-6.9634-.542-12.9674-.0769-24.1459-.1794-20.7634-.2806-35.8569-.1758-55.2081.539-10.959-.09-25.9659-.3925-39.6749,0-5.8979-.3046-24.4352-.3091-36.2292-.539-11.6162.4079-24.4966.6833-34.5,1.26-7.3777-.13-12.3691-.509-17.2544-.9-20.0762.2835-37.5627.2359-55.202-.72-22.33.1926-41.1755.48-62.1082,1.26-11.5612-.0359-21.8942.6109-24.1476-.9,1.4672.0329,1.6257-.0711,1.727-.181-1.5937-.7053,9.0965-.13,10.3459-.539,5.9888.1443,6.6335-.2681,12.0747-.18,7.0881-.2805,14.952-.48,24.1541-.54q8.8027-.3417,18.9731-.5405c17.4929.156,32.83.5354,48.3082.9,7.4834-.1794,10.2568-.85,18.9749-.9,7.5319.1143,12.0729.5405,18.9727.72,6.437-.115,8.4644-.7955,15.5269-.36,3.5939-.1054,5.5811-.3794,8.6272-.54,13.8506.2483,25.9382-.0974,37.9563.54,12.3877-.6115,30.274.1333,44.8538.36,10.7053-.5633,27.5791-.482,41.4042-.72,25.8495.5523,47.1479.1538,79.354,0,10.219-.4336,25.8707-.3,36.2292-.72,20.5728.1582,28.0055-.1451,46.5747,0,2.266-.1831,6.3586-.1765,8.625-.36Z"/><text class="cls-5" transform="translate(49.4936 281.8669)">ngModules</text><text class="cls-6" transform="translate(211.7649 281.9294)">Services</text><text class="cls-8" transform="translate(351.9045 281.3757)">No Intention</text><text class="cls-8" transform="translate(218.169 238.9965)">fail ?</text></g></svg>