<svg xmlns="http://www.w3.org/2000/svg" xmlns:xlink="http://www.w3.org/1999/xlink" viewBox="0 0 646.6365 311.9092"><defs><style>.cls-1{filter:url(#dropshadow);}.cls-2,.cls-3,.cls-6{fill:#ec5e24;}.cls-2,.cls-5,.cls-7{fill-rule:evenodd;}.cls-11,.cls-3,.cls-4,.cls-8{font-size:22px;font-family:SwankyandMooMoo, Swanky and Moo Moo;}.cls-4,.cls-5{fill:#65bc46;}.cls-7{fill:#231f20;}.cls-8,.cls-9{fill:#3e479d;}.cls-10,.cls-11{fill:#771214;}.cls-12{fill:none;stroke:#ec5e24;stroke-miterlimit:10;}</style><filter id="dropshadow" name="dropshadow"><feGaussianBlur stdDeviation="1" in="SourceAlpha"/><feOffset result="offsetblur" dx="1" dy="1"/><feComponentTransfer><feFuncA type="linear" slope="0.2"/></feComponentTransfer><feMerge><feMergeNode/><feMergeNode in="SourceGraphic"/></feMerge></filter></defs><title>ngmodules-core-fail</title><g id="Layer_2" data-name="Layer 2"><g class="cls-1"><path class="cls-2" d="M28.9242,117.5214c-.7634-.8065-.499-11.8813-1.0427-16.6054q-.0055-9.6106-.011-19.2287a16.1191,16.1191,0,0,1,.0308-2.1071l.0107-.0974.0786.008c1.1418.1161.989.4221,1.0952.69a23.0951,23.0951,0,0,1,7.9971-.24,108.823,108.823,0,0,1,11.1909.24c4.31-.5537,15.4189-.0859,22.3838-.24,18.2441-.6969,43.1528-.6733,64.34-.736l.3748-.0011.001.3769c.0293,10.1767.0769,19.37.2241,26.793-.2686,4.648.05,7.5022-.3987,12.0818l-.0217.2216-.1794-.02-.7087-.0809c-4.68-.0645-4.9329.5418-9.6335.4781-4.3352-.1476-12.7922.2947-14.41-.2442-7.2253.4506-22.6694.9-30.6443.4171-2.5942.7615-5.947-.0385-9.8735.4l-14.51-.0732c-8.459.0732-19.6008.7841-27.7146.1814-2.1895-.3293,2.2134-.996,8.8625-.8308,3.595-.2779,10.7515-.1024,14.7146-.3509,10.8062-.5122,19.7937-.175,29.0881-.65,9.4246.025,19.91-.3253,30.3254-.5119,7.7534-.1365,15.6589-.2621,24.5042-.27l-1.3335,1.3336c.0037-1.6319.0085-3.64.0132-5.6861.2708-4.5965.0491-12.4692.4807-15.9918-.6377-2.3517-.1895-5.9587-.24-9.5922-.063-2.2067-.1306-4.5851-.2166-7.6048l1.2964,1.2965c-2.6855.046-5.9138.0216-9.9792-.2166-14.0125.2383-27.1514.7051-38.3738.24-9.1025.9648-17.5881.5488-31.9758.72l-26.6777-.4024L29.6281,79.58c-.0759,2.7938-.1853,6.2039-.3425,9.8371.0981,4.5227.365,9.8367.3762,14.8135A92.0029,92.0029,0,0,1,28.9242,117.5214Z"/><text class="cls-3" transform="translate(36.0883 103.8958)">Feature A</text><path class="cls-2" d="M364.2655,57.4728c-.79,2.4343-.8137-6.9439-.822-13.5348-.0371-7.9962-.1875-13.2774-.0886-20.5363-.0442-1.7288-.0874-3.4149-.1323-5.1648l.0127.0126c-3.127.0769-6.4255.1349-10.4175.1075-3.0615-.0576-3.801.1709-5.835.24-1.7478.0152-2.0554-.147-3.8938-.12-3.0771.3813-12.2993.0029-14.5955.48-3.9272-.3613-7.3135-.0513-13.6179-.12-11.71-.1871-20.2229-.1172-31.1367.3593-4.6924-.0456-10.7-.1728-16.7034-.1169l.8423-.8425c.0178,1.9063.054,3.8107.1169,5.6727-.2031,3.3264-.2061,13.7811-.3594,20.4329.16,4.1823.33,8.6473.4878,12.7693l-1.0876-1.0878c2.3723-.1,4.603-.2125,6.6157-.35,4.1187.0892,6.9272.3441,9.6975.605,11.2292-.1821,20.9478-.1064,31.103.5,12.5049-.1,23.0137-.2611,34.4087-.5991,6.4954.05,11.9722-.2094,13.95.5079-.84-.0182-.8806.0308-.8862.0829,1.2266.3371-5.06.0525-5.5789.2523-3.438-.0752-3.6221.1332-6.7295.0892-3.8794.145-8.2461.2609-13.4285.3029q-4.8538.2-10.5623.336c-9.97-.0629-18.7534-.2877-27.5486-.5224-4.1931.1164-5.6746.5562-10.6177.5948-4.2861-.0712-6.89-.3528-10.7961-.4717-3.6274.0767-4.7666.5307-8.7715.24l-.8562.04-.49.023-.03-.5432c-.0852-1.536-.2295-2.5611-.32-4.0122.1655-7.8116-.0649-14.6289.36-21.4069-.2231-3.8259-.1753-8.5817-.0615-13.4557l.0129-.5551.5288.0134,11.8411.3013c6.0376-.3755,15.5544-.3213,23.3516-.48,14.5789.3682,26.5908.1026,44.7546,0,4.5208-.2267,10.9263-.2206,16.2524-.3427l1.04-.0238.0234,1.0869c.0337,1.5516.0757,2.9808.1335,4.2743-.1316,11.84.0068,16.2249-.2219,26.8741.0806,1.3756.04,3.7284.1091,5.1123C364.3011,55.49,364.2831,56.4842,364.2655,57.4728Z"/><text class="cls-3" transform="translate(300.2345 41.1538)">App</text><path class="cls-2" d="M580.0861,117.1843c3.55.91-6.623,1.5585-13.87,1.57-8.7271.0891-14.52.0094-22.5159-.4-5.3647-.1028-10.353-.2054-17.1641-.5886-3.37-.2245-4.1953-.0319-6.4385-.0719-1.9255-.08-2.2573-.2475-4.2837-.3072-3.4028.1938-13.5525-.4529-16.0884.0148-4.321-.4034-8.0532-.1079-14.9878.0194-2.6128.0721-5.0806.178-7.4485.282l-6.8342.532-.5645.044.0068-.56c.0823-6.6253-.0056-12.84-.387-19.9771-.0193-4.9016-.0632-11.1145-.2756-17.397l-.0283-.8382.8467-.02c2.4326-.0586,4.8811-.1424,7.2661-.2579,3.6731.1385,15.2075-.0087,22.5469.12,7.2266-.3145,15.2424-.4781,21.4714-.8237,4.592.1138,7.6963.4037,10.7329.6968,12.4944-.0387,23.3789.2377,34.33,1.1964l15.7542.331.5378.0113.0012.5562c.0166,7.7217-.5525,15.1016-.9075,22.9166-.6809,7.1587-.4521,13.52-1.4548,14.8986.0422-.9079-.0249-1.0073-.0967-1.0717-.2393.49-.2532-.9226-.176-2.5546a32.6114,32.6114,0,0,0,.0886-3.8774c.3359-3.7081.1077-4.1278.4431-7.4967.18-4.41.542-9.2915.8655-14.9964.0474-2.4272.0872-4.977.0566-7.834l.5972.6286-3.9458-.0434L548.151,80.44c-4.6562.0334-6.3882.4386-11.8088.3985-4.6814-.1469-7.5022-.4524-11.7922-.6115-4.0044.0486-5.2668.49-9.6575.1877-2.2351.061-3.4712.2422-5.365.3513-8.6125-.1655-16.126.1115-23.603-.2195-4.4795.2886-10.1189.312-15.8433.2943l.5085-.5337c.0093,4.1087.0188,8.2639.0276,12.0551.5352,6.5539.522,16.8595.5032,25.3774l-.781-.7221.3914-.0379c8.05-.5568,15.3928-.779,23.231-.8617,7.8379-.0706,16.1726.0777,26.1863.4969,6.3689.0009,16.0864.6229,22.5278.6135,6.3818.3354,10.7266.4387,14.9141.4916,2.0942.0464,4.1479.0343,6.3979.0388,2.2507.0254,4.6951-.0089,7.5713-.0392,1.4021-.1253,3.9338-.2139,5.33-.4036Z"/><text class="cls-3" transform="translate(478.972 105.2859)">Feature B</text><text class="cls-4" transform="translate(42.0604 231.911)">Service A</text><path class="cls-5" d="M132.9991,207.884c-.8032.5272-3.8037.5619-7.199.5706l-5.1655.0513c-1.67.0442-3.2126.1284-4.4.2634-6.0645-.0677-12.1335-.0108-18.2019.1053-3.2375.1694-2.8992-.2908-3.0488-.6656a20.8558,20.8558,0,0,1-7.5842.4055,94.4541,94.4541,0,0,1-10.6213-.0207c-4.08.6328-14.6243.274-21.2249.2595a207.3376,207.3376,0,0,1-23.3057-.8344l.2012-.1838c.1672,6.1224.2522,12.4868.209,18.8163-.0415,6.3294-.19,12.62-.32,18.602l-.366-.3839c9.7837.19,18.626.2477,25.749.1436,4.65.3083,7.4084-.0571,12.1353.507,4.4426.0438,4.6584-.5493,9.1-.5247,4.1194.13,12.0334-.4379,13.6553.0776,6.7844-.5433,21.1-1.4158,28.7964-1.2144,2.09-.9167,5.6125-.1743,9.0764-.8245l2.3679-.0951-1.2634,1.3338-.1345-11.2814c-.2058-7.9323-1.4023-17.6988-.7878-25.7892.4163-2.3674,1.4277,1.1315,1.2905,7.5728.4165,3.1631.2861,10.0715.6421,13.6475.4141,5.594.4978,10.8138.6023,15.8311l.0059.2824-.2871.0143c-3.9148.1952-7.7.3923-11.4622.7467-8.989.2746-18.8755.8836-28.823,1.2151-9.1.3044-18.468.5241-28.85.4464-4.365-.2816-11.8442-.1088-15.1846-.59-2.2412.614-5.6614.1165-9.1121.1058-2.1709-.0024-4.5168.0856-7.554.0711l-1.2839-.0062.012-1.3279c.0222-2.46.1294-5.4319.4385-9.1315.06-10.0343-.262-19.5667-.345-28.2188l-.0164-1.68,1.6865.1535c2.7915.2542,5.47.6269,8.0579.8847,8.63-.3777,16.5942.3,30.2156.0189,10.02.132,21.009-.3093,34.9033.089,4.4265-.1746,9.7788-.4947,14.7827-.5541,2.5022.0095,4.9155.0384,7.0737.2169A31.24,31.24,0,0,1,132.9991,207.884Z"/><path class="cls-5" d="M475.4069,240.7757c-1.1147-1.5288-.8044-11.9079-1.4045-16.6373q.0194-9.0672.0391-18.1413c-.0149-.4624-.0186-.8514-.0125-1.1623l.0027-.1344.13,0c1.9775-.0063,1.7478.3779,1.8755.6992a20.68,20.68,0,0,1,7.5569-.3873,97.34,97.34,0,0,1,10.5859.0342c4.064-.6329,14.5771-.37,21.1594-.6521,12.6208-.756,28.6274-1.1916,44.2441-1.55l11.5811-.258a7.2751,7.2751,0,0,1,2.939.3741,3.0405,3.0405,0,0,1,1.2532.9529,3.9624,3.9624,0,0,1,.6575,1.3786,18.6582,18.6582,0,0,1,.3989,2.7846q.1329,1.3608.2629,2.6968c.6472,7.1284.9038,13.7166.99,19.266-.26,3.8345-.126,6.3871-.5308,9.857l-.0413.3531-.3062-.031c-.6648-.0672-1.4241-.1568-2.2424-.2764-4.4236-.1769-4.657.4233-9.0806.2463-4.0994-.2575-12.0022.0057-13.5972-.5739-6.7781.28-21.0635.573-28.7156.1043-2.1123.8356-5.5928-.02-9.06.5241q-6.7877.0693-13.574.2813c-7.8921.3543-17.5078,1.9539-25.5366,1.98-2.377-.2325,1.0054-1.536,7.417-1.7912,3.1184-.6086,9.9966-.7934,13.5471-1.22,9.87-1.0094,18.5977-.7,27.2075-1.2141,8.9629.0445,18.832-.1576,28.7471-.104,7.8711.039,15.9363.1374,24.9294.37l-1.365,1.2655c.0483-1.0749.1086-2.4142.17-3.7709.4495-4.3136.1689-11.7171.439-15.0445-.717-2.1856-.4487-5.591-.7791-8.9991-.0906-.9892-.2271-2.0109-.37-3.1129a23.2075,23.2075,0,0,0-.5659-3.3133,1.6728,1.6728,0,0,0-.6794-.9387,3.4031,3.4031,0,0,0-1.5706-.38c-.6938-.0415-1.5947-.0237-2.49-.0485l-2.866-.09c-13.2444.4961-25.6584,1.2046-36.2786.9464-8.5876,1.1321-16.6191.8724-30.2195,1.308-7.6917-.0191-15.939.1322-26.0583.0843l1.5854-1.6133c-.0894,2.4721-.2,5.5187-.3154,8.72C475.6879,222.3693,476.8036,234.82,475.4069,240.7757Z"/><text class="cls-4" transform="translate(483.9415 226.9933)">Service B</text><polygon class="cls-6" points="524.725 117.166 524.725 192.437 518.941 192.437 525.518 203.829 532.095 192.437 526.312 192.437 526.312 117.166 524.725 117.166"/><text class="cls-3" transform="translate(535.9257 161.0833)">providers</text><polygon class="cls-6" points="81.735 119.618 81.735 195.526 75.951 195.526 82.528 206.918 89.105 195.526 83.322 195.526 83.322 119.618 81.735 119.618"/><text class="cls-3" transform="translate(92.2737 163.8157)">providers</text><path class="cls-7" d="M627.91,263.6246c7.2136,1.6237-13.812,1.7805-28.738,1.8-17.9917.1011-29.9158.3266-46.4128.18-11.052.18-21.3235.4241-35.3767.36-6.9563-.0864-8.636.2563-13.2573.36-3.9709.0227-4.67-.22-8.8469-.18-6.9917.5721-27.9438.0044-33.1609.72-8.9229-.5419-16.6165-.0769-30.94-.1794-26.606-.2806-45.9468-.1758-70.7432.539-14.0427-.09-33.2727-.3925-50.8394,0-7.5574-.3047-31.3108-.3091-46.4238-.539-14.8848.4079-31.39.6833-44.2075,1.26-9.4539-.13-15.85-.509-22.11-.9-25.7256.2835-48.1326.2359-70.7354-.72-28.613.1926-52.762.48-79.585,1.26-14.8145-.0358-28.0549.6109-30.9426-.9,1.88.0329,2.0833-.0711,2.2129-.181-2.042-.7053,11.6563-.13,13.2573-.539,7.6741.1443,8.5-.2681,15.4724-.18,9.0825-.2806,19.1594-.4805,30.9509-.54q11.28-.3417,24.312-.5405c22.4153.156,42.0679.5354,61.9019.9,9.5891-.1794,13.1428-.85,24.3142-.9,9.6514.1143,15.47.5405,24.3115.72,8.2483-.115,10.8462-.7954,19.896-.36,4.6052-.1055,7.1516-.3794,11.0549-.54,17.748.2483,33.2371-.0974,48.6367.54,15.8735-.6116,38.7932.1333,57.4753.36,13.7178-.5633,35.34-.482,53.0552-.72,33.1233.5523,60.415.1538,101.6833,0,13.0947-.4336,33.1506-.3,46.4238-.72,26.3621.1582,35.8862-.1451,59.6807,0,2.9036-.1831,8.1477-.1765,11.052-.36Z"/><text class="cls-3" transform="translate(49.4423 290.513)">ngModules</text><text class="cls-4" transform="translate(201.7137 290.5755)">Services</text><text class="cls-8" transform="translate(347.5485 290.0218)">Intention</text><text class="cls-3" transform="translate(139.1372 54.786)">imports</text><path class="cls-6" d="M266.3192,38.9474c-9.19,6.5258-19.9561,10.4215-30.7019,13.965-5.3982,1.7511-10.8,3.6288-16.1245,5.6359q-7.9783,3.0533-15.8452,6.3676c-10.4941,4.4032-20.8562,9.0818-31.2783,13.6-5.2122,2.2548-10.4319,4.4893-15.6934,6.6123-2.6248,1.0776-5.2659,2.1108-7.9143,3.1236l-1.9849.7639-.959.35-.3357.1226L143.47,84.0657c-1.3674,1.6587-2.7451,3.3546-4.1555,5.0023l-4.304,4.94,6.48,1.2662c2.1785.4063,4.3518.7542,6.5559,1.1234l-2.012-5.4222.3372-.1232.9639-.3522,1.9929-.767c2.66-1.0171,5.3113-2.0544,7.9441-3.1352,5.2791-2.13,10.5093-4.3693,15.7285-6.6272,10.4343-4.5236,20.7932-9.2005,31.2617-13.5928q7.8409-3.3213,15.7922-6.3464c5.3115-2.0016,10.6472-3.8569,16.0608-5.6134,10.7683-3.5547,21.6934-7.4865,31.1248-14.1794Z"/><path class="cls-6" d="M362.952,39.9449a321.3063,321.3063,0,0,1,53.1428,24.2682q12.7028,7.25,24.7336,15.6019c4.0139,2.7679,7.9473,5.6517,11.8328,8.5965,1.9226,1.4988,3.88,2.9534,5.7744,4.4884l2.3936,1.9355-3.6426,4.4933c4.3022.6068,8.54,1.4074,12.8838,2.195-1.47-4.0992-2.9446-8.3074-4.6-12.4133l-3.6418,4.4927-2.405-1.9445c-1.9031-1.5421-3.87-3.0038-5.8013-4.51-3.9038-2.9588-7.8557-5.8561-11.8889-8.6372q-12.0743-8.3776-24.8521-15.6765a322.8846,322.8846,0,0,0-53.406-24.388Z"/><text class="cls-3" transform="translate(414.9739 52.7238)">imports</text><path class="cls-5" d="M250.264,243.7765c-1.113-1.8611-.79-14.4943-1.3843-20.2509l.0437-15.6909,0-.1181.1182-.0018,6.3894-.0961c3.9282-.17,3.5132.29,3.6914.6653a30.5286,30.5286,0,0,1,9.2007-.3786c4.8865-.0716,10.5071-.2488,12.8843.0464,4.9517-.6282,17.7451-.3528,25.759-.6277,15.3674-.7414,34.853-1.1585,53.8633-1.4989l14.1-.2429a10.3594,10.3594,0,0,1,3.533.4223,3.7154,3.7154,0,0,1,1.5627,1.0319,4.0137,4.0137,0,0,1,.8342,1.65c.282,1.17.3459,2.2546.5139,3.3615q.19,1.6541.377,3.2781a182.2208,182.2208,0,0,1,.9258,23.4669c-.1406,1.51-.2444,2.8554-.3367,4.1176l-.0339.4641-.4568-.0136a105,105,0,0,1-10.5972-.5715c-5.3857-.1725-5.6628.4285-11.0486.2614-4.9917-.2493-14.6072.0384-16.5557-.5335-8.2449.3063-25.636.6471-34.9561.2028-2.5706.838-6.81.0091-11.0332.5484q-8.2679.0932-16.5361.3045c-9.6121.354-21.3733,1.9512-31.16,1.9377-2.8838-.2478,1.2861-1.5254,9.0925-1.7646,3.8127-.6,12.187-.7626,16.5149-1.2018,12.0242-1.0076,22.6406-.7216,33.1191-1.2636,10.9075.0156,22.9153-.2213,34.9817-.2026,11.0391.0143,22.3938.11,34.969.4168.9646.0684,2.0549.1228,3.2427.17l-1.2351,1.1344c.4763-5.1335.4314-11.749.6653-15.0517-.7051-2.6693-.4517-6.8011-.9-10.9406-.1287-1.2-.2939-2.4416-.4958-3.7769-.103-.6672-.2095-1.3588-.321-2.0815a12.67,12.67,0,0,0-.4045-2.0343,1.909,1.909,0,0,0-.9482-1.17,5.5611,5.5611,0,0,0-2.1672-.4813c-.8857-.06-1.9417-.0415-3.0437-.0668l-3.4873-.0933c-16.1245.4808-31.24,1.175-44.1633.9045-10.4622,1.1223-20.2349.8532-36.792,1.2731-11.438-.0342-23.8884.1851-39.5242-.0306l1.3938-1.4109c-.0278.76-.0649,1.778-.1025,2.8088C250.5675,221.3726,251.6678,236.5272,250.264,243.7765Z"/><text class="cls-4" transform="translate(258.7843 229.9933)">Core Service</text><polygon class="cls-6" points="313.838 135.075 313.838 195.526 308.054 195.526 314.631 206.918 321.208 195.526 315.425 195.526 315.425 135.075 313.838 135.075"/><text class="cls-3" transform="translate(321.2275 166.28)">providers</text><path class="cls-9" d="M132.0238,230.1186q27.7983-2.45,55.7368-2.5466,13.9526-.0484,27.8994.4913c4.6475.1773,9.2927.4154,13.9355.6868l6.9617.4537,2.9495.2232-.4343,5.7679c3.9148-1.9211,7.8611-3.7579,11.8469-5.6147-3.5808-2.5092-7.1975-5.0453-10.8589-7.5022l-.4346,5.7671-2.9565-.2237-6.9785-.4548c-4.6541-.272-9.31-.5107-13.9692-.6884q-13.9761-.541-27.9663-.4925-27.9727.097-55.8713,2.5528Z"/><text class="cls-8" transform="translate(151.5393 245.6429)">can use</text><polygon class="cls-10" points="474.432 222.611 392.776 222.611 392.776 216.827 381.383 223.404 392.776 229.981 392.776 224.198 474.432 224.198 474.432 222.611"/><text class="cls-11" transform="translate(396.3451 243.7732)">can use</text><path class="cls-12" d="M283.5694,133.72l63.9958,1.5379c-1.0928-10.2284-1.6779-20.59-1.7485-30.9608a446.3351,446.3351,0,0,0-61.7965-3.1351l-.1741,31.6634"/><text class="cls-3" transform="translate(295.2753 122.5153)">Core</text><text class="cls-3" transform="translate(176.4414 103.2578)">imports</text><path class="cls-6" d="M133.8151,104.9766c24.1453,3.0557,48.0723,7.7534,72.2163,11.2448,12.07,1.7449,24.2,3.1895,36.3918,3.9486l4.5713.2866,4.5793.1473,4.58.1431c1.5271.0246,3.0554-.0044,4.5833-.004l4.5833-.02c1.5278-.0079,3.0542-.1178,4.5811-.1718l3.7422-.1647.3281,5.7749c1.89-1.1442,3.75-2.4529,5.58-3.7048l5.4006-3.7754-5.948-2.7788c-1.9541-.9377-3.8708-1.8232-5.7791-2.8739l.3279,5.7741-3.7158.1635c-1.5168.0536-3.0315.1631-4.55.1708l-4.5544.02c-1.5183,0-3.0364.0287-4.5544.0042l-4.5542-.1425-4.5537-.1462-4.5488-.2854c-12.1318-.7554-24.2195-2.1942-36.2634-3.9353-24.0916-3.4829-48.0273-8.1831-72.2451-11.2487Z"/><text class="cls-11" transform="translate(478.6588 290.576)">No Intention</text></g></g></svg>