<svg xmlns="http://www.w3.org/2000/svg" viewBox="0 0 709.0581 408.4081"><defs><style>.cls-1,.cls-2,.cls-5{fill:#ec5e24;}.cls-1,.cls-12,.cls-4,.cls-6{fill-rule:evenodd;}.cls-10,.cls-11,.cls-14,.cls-2,.cls-3,.cls-7{font-size:22px;font-family:SwankyandMooMoo, Swanky and Moo Moo;}.cls-3,.cls-4{fill:#65bc46;}.cls-14,.cls-6{fill:#231f20;}.cls-7,.cls-8{fill:#3e479d;}.cls-9{fill:none;stroke:#ec5e24;stroke-miterlimit:10;}.cls-10{fill:#771214;}.cls-11,.cls-12,.cls-13{fill:#232532;}</style></defs><title>ngmodules-core-lazy-injector</title><g id="Layer_2" data-name="Layer 2"><path class="cls-1" d="M37.27,195.553c-.7633-.8065-.499-11.8812-1.0427-16.6054q-.0055-9.6106-.0109-19.2287a16.0741,16.0741,0,0,1,.0308-2.1071l.0106-.0974.0787.008c1.142.1161.9889.4221,1.0951.69a23.0952,23.0952,0,0,1,7.9972-.24,108.82,108.82,0,0,1,11.191.24c4.3094-.5537,15.4188-.0859,22.3835-.24,18.2441-.6969,43.153-.6733,64.34-.736l.3748-.0012.0011.377c.0291,10.1767.0768,19.37.2239,26.793-.2684,4.648.05,7.5022-.3986,12.0818l-.0217.2216-.1794-.0205-.7087-.0809c-4.68-.0645-4.9329.5419-9.6334.4781-4.3353-.1476-12.7924.2947-14.41-.2443-7.2253.4506-22.6693.9-30.644.4171-2.5945.7615-5.9473-.0386-9.8737.4l-14.51-.0732c-8.4591.0732-19.6008.7842-27.7146.1815-2.19-.3293,2.2133-.996,8.8625-.8308,3.5948-.278,10.7513-.1024,14.7145-.3509,10.8063-.5122,19.7938-.1749,29.0884-.65,9.4244.025,19.91-.3253,30.3252-.5119,7.7535-.1365,15.6589-.2621,24.5043-.27l-1.3336,1.3336c.0038-1.6318.0085-3.64.0134-5.686.2705-4.5966.0488-12.4692.48-15.9918-.6377-2.3517-.1895-5.9587-.24-9.5922-.0629-2.2067-.13-4.5851-.2166-7.6047l1.2965,1.2964c-2.6857.046-5.9139.0216-9.9792-.2166-14.0126.2383-27.1514.7051-38.3738.24-9.1025.9648-17.5881.5488-31.9758.72l-26.6777-.4024,1.6376-1.6376c-.0762,2.7938-.1855,6.2039-.3427,9.8372.0981,4.5228.3649,9.8367.3761,14.8135A91.9847,91.9847,0,0,1,37.27,195.553Z"/><text class="cls-2" transform="translate(44.4343 181.9265)">Feature A</text><path class="cls-1" d="M372.6115,135.5044c-.79,2.4343-.8136-6.944-.822-13.5349-.037-7.9962-.1873-13.2774-.0885-20.5363-.0443-1.7288-.0874-3.4149-.1322-5.1647l.0126.0126c-3.1271.0768-6.4255.1348-10.4174.1074-3.0618-.0576-3.8011.1709-5.8351.24-1.7478.0151-2.0554-.147-3.8938-.12-3.0773.3813-12.2992.0029-14.5955.48-3.9272-.3613-7.3135-.0513-13.618-.12-11.71-.187-20.2229-.1172-31.1367.3594-4.6923-.0456-10.7-.1728-16.7034-.1169l.8424-.8425c.0178,1.9063.054,3.8107.1169,5.6726-.2031,3.3264-.2061,13.7811-.3594,20.4329.16,4.1823.33,8.6473.4878,12.7692l-1.0878-1.0877c2.3723-.1,4.6033-.2125,6.6158-.35,4.1185.0892,6.9272.3441,9.6975.605,11.2291-.1821,20.9478-.1064,31.103.5,12.5049-.1,23.0137-.2611,34.4086-.5991,6.4954.05,11.9723-.2094,13.9506.5078-.84-.0182-.8806.0309-.8862.0829,1.2264.3372-5.06.0525-5.5789.2523-3.438-.0751-3.6222.1332-6.73.0892-3.8793.145-8.2461.2609-13.4282.3029q-4.8541.2-10.5625.3359c-9.97-.0629-18.7533-.2877-27.5485-.5223-4.1932.1164-5.6746.5562-10.6178.5947-4.2861-.0712-6.89-.3528-10.7961-.4717-3.6274.0768-4.7666.5307-8.7715.24l-.8562.04-.49.023-.03-.5433c-.0851-1.536-.2294-2.561-.32-4.0122.1655-7.8116-.0649-14.6289.36-21.4069-.2233-3.8259-.1753-8.5817-.0615-13.4556l.0129-.5551.5287.0135,11.8412.3013c6.0377-.3755,15.5543-.3213,23.3514-.48,14.5789.3682,26.5909.1025,44.7548,0,4.5208-.2267,10.9264-.2206,16.2524-.3427l1.0394-.0239.0236,1.0869c.0336,1.5516.0756,2.9808.1335,4.2742-.1316,11.84.0068,16.225-.2219,26.8741.0807,1.3757.04,3.7284.109,5.1123C372.6471,133.5213,372.6293,134.5159,372.6115,135.5044Z"/><text class="cls-2" transform="translate(308.5804 119.1852)">App</text><path class="cls-1" d="M588.4322,195.2159c3.5494.91-6.6232,1.5585-13.87,1.57-8.7271.0891-14.52.0094-22.5159-.4-5.3646-.1028-10.353-.2054-17.1638-.5886-3.37-.2245-4.1953-.0319-6.4386-.0719-1.9255-.08-2.2573-.2475-4.2837-.3072-3.403.1937-13.5525-.453-16.0884.0148-4.321-.4034-8.0532-.108-14.9878.0194-2.6128.0721-5.08.178-7.4485.282l-6.8341.532-.5647.0439.007-.56c.0823-6.6252-.0057-12.84-.387-19.9771-.0193-4.9016-.0632-11.1146-.2755-17.397l-.0283-.8382.8464-.02c2.4327-.0587,4.8812-.1424,7.2662-.2579,3.6731.1385,15.2074-.0087,22.5469.12,7.2264-.3145,15.2424-.478,21.4713-.8237,4.592.1138,7.6963.4037,10.733.6968,12.4943-.0387,23.3788.2377,34.33,1.1964l15.754.331.538.0113.0011.5562c.0166,7.7218-.5525,15.1016-.9073,22.9166-.681,7.1587-.4521,13.52-1.4548,14.8986.0422-.9079-.0249-1.0073-.0968-1.0717-.2391.49-.2532-.9226-.176-2.5546a32.5566,32.5566,0,0,0,.0886-3.8774c.3359-3.7081.1078-4.1278.4432-7.4966.18-4.41.542-9.2915.8654-14.9965.0475-2.4272.0873-4.9769.0566-7.834l.5972.6286-3.9457-.0433-30.0131-1.4456c-4.6562.0334-6.3882.4385-11.8087.3986-4.6815-.1469-7.5022-.4525-11.7924-.6115-4.0043.0486-5.2668.49-9.6575.1877-2.2351.061-3.4711.2421-5.365.3513-8.6124-.1655-16.1259.1115-23.603-.2194-4.4795.2886-10.1189.312-15.8433.2943l.5085-.5337c.0094,4.1088.0189,8.2639.0277,12.0551.535,6.5539.522,16.8595.5031,25.3774l-.7809-.7221.3914-.0379c8.05-.5568,15.3928-.779,23.231-.8617,7.8379-.0706,16.1725.0776,26.1863.4968,6.3688.0009,16.0864.6229,22.5277.6135,6.382.3354,10.7266.4387,14.9141.4916,2.0942.0464,4.1479.0344,6.3981.0388,2.2507.0253,4.6951-.009,7.5712-.0392,1.4022-.1253,3.934-.2139,5.33-.4036Z"/><text class="cls-2" transform="translate(487.3178 183.317)">Feature B</text><text class="cls-3" transform="translate(50.4062 309.9423)">Service A</text><path class="cls-4" d="M141.3452,285.9156c-.8033.5272-3.8037.5619-7.1991.5706l-5.1654.0513c-1.67.0441-3.2126.1284-4.4.2634-6.0643-.0677-12.1335-.0108-18.202.1053-3.2373.1694-2.8989-.2908-3.0488-.6656a20.8543,20.8543,0,0,1-7.5841.4055,94.4433,94.4433,0,0,1-10.6215-.0207c-4.08.6328-14.6243.274-21.2249.2595a207.3133,207.3133,0,0,1-23.3055-.8345l.2012-.1837c.1671,6.1224.2522,12.4868.209,18.8163-.0416,6.3294-.19,12.62-.32,18.6019l-.3661-.3839c9.7839.19,18.626.2477,25.7491.1436,4.6505.3083,7.4086-.0571,12.1353.507,4.4427.0438,4.6584-.5492,9.0995-.5246,4.1194.13,12.0334-.4379,13.6553.0776,6.7845-.5433,21.1-1.4158,28.7964-1.2144,2.09-.9167,5.6125-.1744,9.0767-.8245l2.3678-.0951-1.2635,1.3338L139.8,311.0229c-.2059-7.9323-1.4025-17.6988-.7878-25.7892.4163-2.3674,1.4276,1.1315,1.2905,7.5728.4166,3.1631.286,10.0716.6421,13.6475.4139,5.5941.4978,10.8138.6023,15.8311l.0059.2825-.287.0143c-3.915.1952-7.7006.3923-11.4624.7468-8.989.2746-18.8754.8836-28.823,1.2151-9.1.3044-18.4679.524-28.85.4464-4.365-.2816-11.8442-.1088-15.1844-.59-2.2412.614-5.6615.1165-9.1121.1058-2.171-.0024-4.5168.0856-7.5541.0711l-1.2839-.0062.0121-1.3279c.0222-2.46.1293-5.4319.4385-9.1315.06-10.0343-.262-19.5667-.3451-28.2189l-.0162-1.68,1.6864.1536c2.7915.2542,5.4706.6268,8.058.8846,8.63-.3776,16.5942.3,30.2157.0189,10.02.1319,21.0088-.3094,34.9031.089,4.4266-.1746,9.7789-.4947,14.7827-.5541,2.5024.01,4.9155.0384,7.0739.2169A31.2421,31.2421,0,0,1,141.3452,285.9156Z"/><path class="cls-4" d="M483.7531,318.8072c-1.115-1.5288-.8046-11.9079-1.4048-16.6372q.02-9.0672.0391-18.1414c-.0149-.4624-.0184-.8514-.0123-1.1623l.0026-.1345.13,0c1.9774-.0063,1.7478.3779,1.8755.6993a20.68,20.68,0,0,1,7.5568-.3873,97.35,97.35,0,0,1,10.5861.0342c4.064-.6329,14.5771-.37,21.1594-.652,12.6207-.756,28.6273-1.1916,44.2441-1.55l11.5811-.258a7.2751,7.2751,0,0,1,2.9388.3741,3.0389,3.0389,0,0,1,1.2532.9529,3.9582,3.9582,0,0,1,.6575,1.3786,18.6583,18.6583,0,0,1,.399,2.7846q.1328,1.3607.2629,2.6968c.6471,7.1284.9038,13.7166.99,19.2659-.26,3.8345-.1259,6.3871-.5306,9.857l-.0413.3531-.3063-.0309c-.6647-.0672-1.4241-.1568-2.2423-.2764-4.4236-.1769-4.657.4233-9.0807.2463-4.0992-.2575-12.0021.0057-13.5972-.574-6.7781.28-21.0634.5729-28.7155.1044-2.1124.8356-5.5928-.02-9.06.524q-6.7881.0692-13.5741.2813c-7.8921.3543-17.5078,1.9539-25.5367,1.98-2.377-.2325,1.0055-1.536,7.417-1.7912,3.1185-.6086,9.9967-.7935,13.5471-1.22,9.87-1.0094,18.5978-.7005,27.2076-1.2141,8.9629.0445,18.832-.1576,28.7471-.104,7.8711.039,15.9363.1374,24.9294.37l-1.3651,1.2656c.0485-1.075.1089-2.4142.17-3.7709.4493-4.3136.1688-11.7172.439-15.0445-.7172-2.1856-.4489-5.591-.7792-8.9991-.0906-.9892-.2268-2.011-.37-3.1129a23.2084,23.2084,0,0,0-.5658-3.3134,1.6736,1.6736,0,0,0-.6794-.9387,3.4031,3.4031,0,0,0-1.57-.38c-.6941-.0416-1.5948-.0237-2.49-.0485l-2.866-.09c-13.2445.4961-25.6583,1.2046-36.2784.9464-8.5879,1.1321-16.6191.8724-30.22,1.308-7.6915-.0191-15.939.1322-26.0583.0842l1.5856-1.6133c-.0895,2.472-.2,5.5187-.3156,8.72C484.0338,300.4009,485.15,312.8513,483.7531,318.8072Z"/><text class="cls-3" transform="translate(492.2874 305.0246)">Service B</text><polygon class="cls-5" points="533.071 195.197 533.071 270.468 527.287 270.468 533.864 281.861 540.441 270.468 534.658 270.468 534.658 195.197 533.071 195.197"/><text class="cls-2" transform="translate(544.2716 239.1147)">providers</text><polygon class="cls-5" points="90.081 197.649 90.081 273.558 84.297 273.558 90.874 284.95 97.451 273.558 91.668 273.558 91.668 197.649 90.081 197.649"/><text class="cls-2" transform="translate(100.6197 241.8471)">providers</text><path class="cls-6" d="M688.1712,360.6562c7.8252,1.6237-14.9832,1.7805-31.1746,1.8-19.517.1011-32.4521.3266-50.3479.18-11.989.18-23.1313.4241-38.3762.36-7.5459-.0864-9.3682.2563-14.3812.36-4.3076.0227-5.0659-.2205-9.5969-.18-7.5845.572-30.3132.0044-35.9727.72-9.6793-.5419-18.0251-.0768-33.5636-.1794-28.8617-.2806-49.8423-.1758-76.741.5391-15.2334-.09-36.0936-.3926-55.15,0-8.1984-.3047-33.9657-.3091-50.36-.5391-16.147.408-34.0511.6833-47.9558,1.26-10.2552-.13-17.1934-.509-23.9841-.9-27.9067.2835-52.2134.2359-76.7325-.72-31.0391.1926-57.2355.48-86.3325,1.26-16.0706-.0358-30.4337.6109-33.566-.9,2.0394.033,2.26-.0711,2.4005-.181-2.2152-.7053,12.6444-.13,14.3812-.539,8.3247.1443,9.2208-.2681,16.7843-.18,9.8527-.2806,20.7837-.4805,33.575-.54q12.2362-.3417,26.3734-.5405c24.3157.156,45.6345.5355,67.15.9,10.4021-.1794,14.2572-.85,26.3757-.9,10.4695.1143,16.7817.5405,26.3727.72,8.9475-.115,11.7657-.7955,21.583-.36,4.9955-.1055,7.7578-.3795,11.9921-.54,19.2528.2482,36.0551-.0974,52.76.54,17.2192-.6116,42.082.1332,62.3483.36,14.8807-.5633,38.3359-.482,57.5532-.72,35.9318.5523,65.5374.1539,110.3047,0,14.205-.4335,35.9612-.3,50.36-.72,28.597.1582,38.9287-.1451,64.7406,0,3.15-.1832,8.8386-.1766,11.989-.36Z"/><text class="cls-2" transform="translate(83.3791 387.5441)">ngModules</text><text class="cls-3" transform="translate(238.9981 387.6069)">Services</text><text class="cls-7" transform="translate(373.3503 387.5439)">Intention</text><text class="cls-2" transform="translate(147.4832 132.8174)">imports</text><path class="cls-5" d="M274.8789,112.2835A115.24,115.24,0,0,1,260.62,122.11c-4.9963,2.9195-10.1765,5.529-15.4388,7.9675-10.5447,4.837-21.3992,9.0663-32.1506,13.5212l-59.86,24.5222-2.1926-5.3525-8.049,10.4046,13.0354,1.7676-2.1924-5.3518,59.86-24.5222c10.75-4.4547,21.5974-8.68,32.2144-13.5489,5.2959-2.4541,10.5221-5.086,15.576-8.0392a116.8148,116.8148,0,0,0,14.4623-9.9675Z"/><path class="cls-5" d="M371.2982,117.9765a321.3,321.3,0,0,1,53.1427,24.2682q12.7026,7.25,24.7336,15.6018c4.014,2.7679,7.9474,5.6517,11.8328,8.5966,1.9227,1.4988,3.88,2.9534,5.7743,4.4884l2.3937,1.9354-3.6425,4.4932c4.3021.6068,8.54,1.4074,12.8835,2.195-1.47-4.0991-2.9445-8.3074-4.6-12.4133l-3.642,4.4927-2.4049-1.9445c-1.9031-1.5421-3.87-3.0038-5.8015-4.51-3.9037-2.9588-7.8557-5.8561-11.8887-8.6373q-12.0743-8.3776-24.8521-15.6765a322.8951,322.8951,0,0,0-53.406-24.3881Z"/><text class="cls-2" transform="translate(396.1588 121.7551)">loads lazy</text><path class="cls-4" d="M258.61,321.8081c-1.113-1.8611-.79-14.4943-1.3842-20.2509l.0438-15.6909,0-.1181.1182-.0018,6.39-.0961c3.9281-.17,3.5132.29,3.6913.6653a30.53,30.53,0,0,1,9.2009-.3786c4.8862-.0716,10.507-.2488,12.884.0464,4.9518-.6282,17.7452-.3528,25.759-.6277,15.3674-.7414,34.853-1.1585,53.8635-1.4989l14.1-.2429a10.3583,10.3583,0,0,1,3.5331.4224,3.7158,3.7158,0,0,1,1.5627,1.0319,4.0151,4.0151,0,0,1,.8342,1.65c.282,1.17.3459,2.2546.5139,3.3615q.19,1.6542.377,3.2781a182.22,182.22,0,0,1,.9258,23.4669c-.1406,1.51-.2444,2.8554-.3368,4.1176l-.0339.4642-.4565-.0136a105.0027,105.0027,0,0,1-10.5974-.5715c-5.3856-.1725-5.6627.4285-11.0485.2614-4.9917-.2493-14.6073.0384-16.5557-.5335-8.2449.3063-25.6361.6471-34.9562.2028-2.5706.838-6.81.0091-11.0332.5484q-8.2678.0932-16.536.3044c-9.6122.354-21.3733,1.9512-31.16,1.9377-2.8839-.2477,1.2861-1.5253,9.0925-1.7646,3.8127-.6,12.187-.7626,16.5148-1.2017,12.0243-1.0076,22.6409-.7216,33.1193-1.2636,10.9075.0156,22.9153-.2214,34.9817-.2026,11.0389.0143,22.3938.11,34.969.4169.9645.0684,2.0549.1228,3.2427.17l-1.2351,1.1343c.4763-5.1335.4314-11.749.6652-15.0517-.705-2.6693-.4517-6.8011-.9-10.9406-.1288-1.2-.2939-2.4417-.4958-3.7769l-.321-2.0814a12.6706,12.6706,0,0,0-.4047-2.0344,1.9088,1.9088,0,0,0-.9481-1.17,5.56,5.56,0,0,0-2.1674-.4813c-.8857-.06-1.9415-.0415-3.0436-.0668l-3.4874-.0933c-16.1244.4808-31.24,1.175-44.1632.9045-10.4622,1.1223-20.2349.8532-36.7921,1.2731-11.438-.0342-23.8884.1851-39.524-.0306l1.3937-1.4109c-.0277.76-.0649,1.778-.1025,2.8088C258.9136,299.4042,260.0139,314.5588,258.61,321.8081Z"/><text class="cls-3" transform="translate(267.1302 308.0246)">Core Service</text><polygon class="cls-5" points="322.184 213.107 322.184 273.558 316.4 273.558 322.977 284.95 329.554 273.558 323.771 273.558 323.771 213.107 322.184 213.107"/><text class="cls-2" transform="translate(329.5736 244.3115)">providers</text><path class="cls-8" d="M140.37,308.15q27.7982-2.45,55.7368-2.5466,13.9526-.0484,27.8993.4913c4.6477.1772,9.2927.4154,13.9357.6868l6.9617.4537,2.9495.2232-.4344,5.7678c3.9149-1.9211,7.8611-3.7579,11.847-5.6147-3.5808-2.5092-7.1976-5.0453-10.859-7.5022l-.4344,5.7672-2.9565-.2238-6.9785-.4548c-4.6542-.272-9.31-.5107-13.9692-.6884q-13.9761-.5411-27.9664-.4925-27.9727.097-55.8712,2.5527Z"/><text class="cls-7" transform="translate(159.8853 323.6743)">can use</text><polygon class="cls-8" points="482.778 300.643 401.122 300.643 401.122 294.859 389.729 301.435 401.122 308.013 401.122 302.229 482.778 302.229 482.778 300.643"/><text class="cls-7" transform="translate(404.6911 321.8046)">can use</text><path class="cls-9" d="M291.9155,211.7513l63.9958,1.5379c-1.0928-10.2284-1.6779-20.59-1.7485-30.9608a446.3351,446.3351,0,0,0-61.7965-3.1351l-.1741,31.6634"/><text class="cls-2" transform="translate(303.6214 200.5466)">Core</text><text class="cls-2" transform="translate(184.7874 181.2886)">imports</text><path class="cls-5" d="M142.1612,183.0082c24.1454,3.0557,48.0723,7.7535,72.2162,11.2448,12.07,1.7449,24.2006,3.19,36.3918,3.9487l4.5713.2866,4.5795.1473,4.58.1431c1.5271.0246,3.0554-.0044,4.5831-.004l4.5835-.02c1.5277-.0079,3.054-.1178,4.5809-.1718l3.7422-.1647.3281,5.7748c1.89-1.1442,3.75-2.4529,5.58-3.7048l5.4005-3.7755-5.948-2.7787c-1.9542-.9377-3.871-1.8232-5.7792-2.8739l.3281,5.7742-3.7161.1635c-1.5167.0536-3.0315.1631-4.55.1708l-4.5546.0195c-1.5182,0-3.0364.0287-4.5544.0042l-4.554-.1425-4.554-.1462-4.5488-.2854c-12.1316-.7554-24.2194-2.1942-36.2633-3.9353-24.0916-3.483-48.0275-8.1831-72.2451-11.2487Z"/><path class="cls-5" d="M477.8366,184.2021q-28.7324,5.043-57.7927,7.889-14.5161,1.4217-29.0793,2.2909-7.28.44-14.5671.73l-7.2882.2612-3.07.0833-.155-5.7821c-3.7042,2.311-7.4429,4.5424-11.2136,6.8046,3.8228,2.1222,7.679,4.2744,11.5662,6.3447l-.155-5.7814,3.0765-.0834,7.3033-.2617q7.3015-.3026,14.5974-.7318,14.59-.8707,29.14-2.2957,29.0927-2.8493,57.9128-7.9055Z"/><text class="cls-2" transform="translate(379.9859 185.289)">imports</text><text class="cls-10" transform="translate(523.901 387.6067)">No Intention</text><text class="cls-10" transform="translate(262.5318 343.5866)">two instances</text><text class="cls-11" transform="translate(262.1676 39.2417)">Root Injector</text><path class="cls-12" d="M387.4253,16.4447c-.98.5261-4.703.585-8.92.5859-4.2181.0483-8.9319.0163-11.8839.3151-7.5389-.0926-15.0835-.03-22.6276.0482-4.0258.1655-3.6-.2944-3.7817-.67a32.4953,32.4953,0,0,1-9.4312.3845c-5.0078.0779-10.7682.2739-13.2037-.0269-5.0753.6461-18.1835.3251-26.3943.4084-11.1514.2933-24.4347.1383-38.0944-.8362l.275-.2592c.1672,6.2823.2483,12.6581.1711,18.9539-.0736,6.2958-.2737,12.507-.4561,18.47l-.3682-.3871c12.1533.1753,23.1353.2356,31.9844.1307,5.7815.31,9.2107-.0451,15.0856.5191,5.5222.0693,5.7925-.5519,11.3137-.5,5.12.1309,14.9635-.4033,16.9747.1188,8.4379-.5206,26.25-1.3311,35.8141-1.0789,2.6176-.9044,6.98-.139,11.3005-.7664L387.3082,51.5l-1.2775,1.34-.0768-4.8357c-.2681-9.8592-1.5411-21.9971-.99-32.0537.3977-2.9429,1.4365,1.4049,1.35,9.4113.4414,3.9311.365,12.518.7491,16.9623.2385,3.6212.3866,7.1163.4937,10.4916l.0063.2-.2065.01c-8.2114.381-15.8622.498-23.44,1.0339-11.1749.2171-23.4692.7822-35.8328,1.0792-11.3105.2719-22.9506.4676-35.85.3732-5.4241-.2811-14.717-.1177-18.87-.596-2.7816.6165-7.0341.1147-11.3221.1115-2.6917-.0037-5.5988.09-9.359.08l-1.3057-.0037.0271-1.3411c.0619-3.0645.2207-6.7637.572-11.3709.1278-9.0578-.1019-17.7832-.3535-25.9614l-.05-1.6194,1.6543.1068,19.1469,1.2359c10.7317-.5908,20.6921-.0585,37.6466-.4092,12.4717.09,26.1431-.3094,43.394.125,2.751-.066,5.7867-.1829,8.91-.3016,3.1249-.0826,6.3372-.1953,9.44-.207C377.969,15.321,383.7331,15.6089,387.4253,16.4447Z"/><polygon class="cls-13" points="320.567 54.182 319.704 85.1 313.922 84.938 320.179 96.51 327.071 85.305 321.29 85.144 322.153 54.226 320.567 54.182"/><text class="cls-14" transform="translate(326.1533 75.1988)">uses providers</text><text class="cls-11" transform="translate(511.4821 112.5342)">Lazy Injector</text><path class="cls-12" d="M637.7818,89.8809c-.98.526-4.7031.5849-8.92.5859-4.218.0483-8.9319.0163-11.8838.3151-7.5389-.0926-15.0835-.03-22.6276.0481-4.0259.1655-3.6-.2944-3.7819-.67a32.4922,32.4922,0,0,1-9.431.3845c-5.0078.0779-10.7683.2739-13.2037-.0269-5.0753.646-18.1835.325-26.3943.4084-11.1515.2933-24.4348.1383-38.0944-.8362l.275-.2593c.1672,6.2823.2482,12.6582.1711,18.954-.0737,6.2958-.2737,12.507-.4562,18.47l-.368-.3871c12.1532.1754,23.1353.2357,31.9843.1308,5.7815.31,9.2107-.0452,15.0856.5191,5.5222.0692,5.7926-.5519,11.3137-.5005,5.12.131,14.9636-.4033,16.9747.1189,8.438-.5206,26.25-1.3311,35.8141-1.0789,2.6177-.9043,6.98-.1389,11.3007-.7664l12.1246-.3538-1.2773,1.34L636.31,121.44c-.2679-9.8592-1.5411-21.9971-.99-32.0536.3977-2.943,1.4366,1.4048,1.35,9.4112.4414,3.9312.365,12.5181.7491,16.9624.2384,3.6212.3865,7.1163.4937,10.4915l.0063.2-.2067.01c-8.2114.381-15.8621.498-23.44,1.0339-11.1749.2172-23.4692.7822-35.8326,1.0792-11.3107.272-22.9506.4677-35.85.3732-5.424-.2811-14.7169-.1176-18.87-.596-2.7816.6165-7.0341.1148-11.3221.1115-2.6917-.0037-5.5986.09-9.3589.08l-1.3057-.0037.0271-1.3411c.0618-3.0645.2206-6.7637.572-11.371.1278-9.0577-.1021-17.7831-.3536-25.9614l-.05-1.6194,1.6542.1068,19.147,1.236c10.7316-.5908,20.6921-.0585,37.6465-.4092,12.4718.09,26.1431-.3094,43.394.125,2.7511-.066,5.7869-.183,8.91-.3016,3.1249-.0826,6.3372-.1953,9.44-.207C628.3254,88.7572,634.09,89.045,637.7818,89.8809Z"/><path class="cls-13" d="M539.3374,129.4635q-.343,4.2967-1.0018,8.56c-.2235,1.4193-.4674,2.8355-.7445,4.2454l-.4323,2.1114-.4182,1.874-5.6344-1.3078a102.8266,102.8266,0,0,1,3.2858,12.4386,109.25,109.25,0,0,0,9.5277-9.4645l-5.6338-1.3076.4241-1.9.4384-2.1409c.2809-1.43.5282-2.8655.7549-4.3047q.6672-4.3194,1.0157-8.68Z"/><path class="cls-13" d="M568.327,88.535l-43.76-16.0695c-14.59-5.3444-29.1564-10.7576-43.808-15.9626-14.6549-5.1891-29.4017-10.1592-44.3538-14.477-7.4733-2.1638-14.99-4.1891-22.57-5.9644-3.7784-.9348-7.5936-1.7132-11.395-2.55l-4.5577-.8905,1.0978-5.679c-4.2023,1.3727-8.3788,2.9487-12.4624,4.454,3.3953,2.825,6.7284,5.5544,9.9658,8.4609l1.0977-5.6783,4.5381.8865c3.786.8342,7.5851,1.609,11.35,2.54,7.5505,1.7685,15.0428,3.7871,22.4945,5.9447,14.9087,4.3052,29.6267,9.2651,44.2648,14.4483,14.6337,5.1985,29.2,10.6119,43.7913,15.9566l43.76,16.0695Z"/><text class="cls-14" transform="translate(452.5172 43.0896)">inherits instances</text><text class="cls-14" transform="translate(548.9025 144.4557)">uses providers</text></g></svg>