<svg id="Layer_1" data-name="Layer 1" xmlns="http://www.w3.org/2000/svg" xmlns:xlink="http://www.w3.org/1999/xlink" viewBox="0 0 523.1626 242.0623"><defs><style>.cls-1{filter:url(#dropshadow);}.cls-2,.cls-8{fill:#3e479d;}.cls-3,.cls-4,.cls-5{fill:#ec5e24;}.cls-4,.cls-6,.cls-9{fill-rule:evenodd;}.cls-5,.cls-7,.cls-8{font-size:22px;font-family:SwankyandMooMoo, Swanky and Moo Moo;}.cls-6,.cls-7{fill:#65bc46;}.cls-9{fill:#231f20;}</style><filter id="dropshadow" name="dropshadow"><feGaussianBlur stdDeviation="1" in="SourceAlpha"/><feOffset result="offsetblur" dx="1" dy="1"/><feComponentTransfer><feFuncA type="linear" slope="0.2"/></feComponentTransfer><feMerge><feMergeNode/><feMergeNode in="SourceGraphic"/></feMerge></filter></defs><title>ngmodules-components</title><g class="cls-1"><path class="cls-2" d="M316.8883,160.5857c-23.5651.414-47.1166,1.1241-70.6676,1.3609-11.7753.1191-23.55.1174-35.3216-.0745-5.8855-.0978-11.7705-.2285-17.653-.4315-2.9419-.0839-5.8825-.2-8.8226-.3291l-3.6183-.1512.2622-5.7783c-3.8674,2.0225-7.7578,3.9949-11.6758,5.9928,3.6673,2.38,7.36,4.7878,11.0795,7.1477l.2622-5.7775,3.6242.1515c2.9449.13,5.89.2455,8.8367.33,5.8917.2034,11.7856.3343,17.6794.4322,11.788.1922,23.5775.1938,35.3632.0746,23.5724-.237,47.1274-.9474,70.68-1.3611Z"/><path class="cls-3" d="M336.7562,36.0143c-30.9215-2.4745-61.9539-1.901-92.8811-.9458-15.47.48-30.9326,1.0622-46.3955,1.432-7.7313.1824-15.4627.3222-23.1935.3557-3.8658.0516-7.73,0-11.5951-.0162l-4.6118-.0343.0808-5.7836-11.4815,6.3294,11.2978,6.8234.0808-5.7829,4.6209.0344c3.8722.0161,7.7449.0678,11.6161.0162,7.7437-.0335,15.4848-.1736,23.2234-.3561,15.4774-.37,30.9432-.9524,46.4066-1.4323,30.9131-.9553,61.888-1.5252,92.7048.9414Z"/><polygon class="cls-3" points="94.341 54.505 94.341 130.414 88.557 130.414 95.134 141.806 101.711 130.414 95.928 130.414 95.928 54.505 94.341 54.505"/><polygon class="cls-3" points="387.331 53.419 387.331 127.325 381.547 127.325 388.124 138.717 394.701 127.325 388.918 127.325 388.918 53.419 387.331 53.419"/><path class="cls-4" d="M50.7182,53.5718c-.7658-.6878-.5046-10.9592-1.0413-15.2994q-.006-8.8987-.012-17.8044c-.1118-3.1654.3422-2.8421.72-2.9924a11.7446,11.7446,0,0,1-.3357-1.845l-.2644.2644a20.6717,20.6717,0,0,1,5.5388.0959,93.3175,93.3175,0,0,1,10.362.24c3.99-.5537,14.2766-.0859,20.7255-.24,16.8926-.6969,39.9561-.6733,59.5735-.736l.3746-.0012.0012.377c.0291,9.4228.0768,17.9351.2239,24.8082-.2832,4.5394.0869,7.231-.4795,11.8427-.0138.9244.003,1.6614.0373,2.2239l.0091.1487-.1666.0088a60.5618,60.5618,0,0,1-6.6874.4414c-4.0168-.1476-11.8479.2966-13.35-.2439-6.6866.4521-21.0085.9052-28.391.42-2.42.7654-5.51-.0387-9.1606.4018l-13.4491-.0744c-7.8406.0733-18.2217.7828-25.7077.1771-2.0056-.33,2.1237-.9958,8.271-.83,3.3473-.2782,9.9657-.1019,13.6484-.3512,10.0278-.5143,18.335-.1759,26.9491-.6527,8.7222.0252,18.429-.3264,28.0625-.5123,6.2687-.1189,12.6443-.229,19.8146-.2587l-1.3257,1.3257c.0016-2.3668.0034-5.2142.0054-8.1447.2706-4.256.0489-11.5454.48-14.8071-.6377-2.1775-.1894-5.5173-.24-8.8816-.0628-2.0431-.1306-4.2456-.2165-7.0414l1.2965,1.2965c-2.4867.046-5.4758.0216-9.24-.2165-12.9745.2383-25.14.7051-35.5312.24-8.4282.9648-16.2852.5488-29.6071.72l-21.8216-.3382,1.7017-1.7017c-.0815,3.4505-.2116,7.5025-.4194,11.9124.0933,4.18.3535,9.0827.3686,13.6864A80.0942,80.0942,0,0,1,50.7182,53.5718Z"/><text class="cls-5" transform="translate(62.3832 39.9462)">Common</text><path class="cls-4" d="M435.9255,13.3682c3.1813,1.2563-6.28.7979-12.9915.8276-8.0947.0545-13.4449.4441-20.8564.6836-4.9567.3544-9.5548.7937-15.8643,1.0981-3.1254.1082-3.8671.3794-5.9387.5551-1.7831.0974-2.1047-.05-3.9794.0632-1.5608.2769-4.703.374-7.7437.4938a61.4653,61.4653,0,0,0-7.1591.4028c-2.0114-.1887-3.88-.1909-6.0558-.1907-2.1741-.06-4.6583.0194-7.88-.2167-3.7949-.2211-7.2474-.59-10.5137-.8827l.5574-.5092c.1023,7.1942.2765,13.6662.4955,21.2937-.1043,4.5556-.3577,10.3159-.468,16.141l-.8162-.8561c2.2457.0315,4.5063.0434,6.7094.0125,3.39.27,14.06.4242,20.8488.5992,6.6885-.2337,14.102-.4346,19.8545-.8689,4.2455.06,7.12.265,9.9358.4928,11.5524-.3617,21.6093-.5811,31.7811-.2959,4.1068-.1835,8.0074-.3847,11.774-.602l-.49.5167c-.2452-8.1048-1.19-15.6787-2.16-23.8434-.5115-6.6452-1.1006-12.6528-.0928-13.97-.0049.8486.0662.9391.1406.9962.4258-.928.2359,5.2458.5753,5.9515.1008,3.4515.4048,3.8037.5737,6.9327.4868,4.0569,1.025,8.5548,1.4127,13.8474.34,3.1016.6258,6.4382.76,10.0714l.0244.6613-.6938.0452-.8591.056c-10.0751.3114-18.9154.3376-27.8334.308-4.3058.2249-5.8943.6976-10.9164.822-4.34-.0024-6.96-.2592-10.9354-.3327-3.7065.101-4.8721.5781-8.9424.2982-2.07.0762-3.2145.2692-4.97.3728-7.98-.1582-14.9478.0222-21.866-.4959-4.1517.1863-9.3707.0223-14.6628-.22l-.5331-.0244.0251-.5084c.1882-3.804.4059-7.6482.5384-11.1608-.2314-6.17-.1183-15.8748-.4021-23.83.0076-.8235.015-1.6389.022-2.3923l.007-.7569.7278.0856c13.74,1.6167,25.6922,1.3894,43.1547.4142,5.8575-.5838,14.8573-1.0314,20.811-1.6049l7.6944-.3069c2.2371-.1,4.2225-.1579,6.1723-.213,1.9487-.0714,3.8635-.1063,5.9631-.11l3.3133-.0075,3.7543.093c.6569-.0467,1.5778-.066,2.499-.0686.9211.0127,1.8426.0254,2.5016-.0055Z"/><text class="cls-5" transform="translate(348.6713 39.6679)">Feature</text><path class="cls-6" d="M168.2164,181.6665c-.63,1.5485-.8836-.8045-1.0487-4.5529-.1573-3.7561-.1816-8.951-.175-13.2621-.0457-8.2307-.2048-14.2412-.1947-21.0919l0-.1315-.1328-.0011-5.6466-.0477c-6.3312.18-12.2153.4241-20.2658.36a74.9751,74.9751,0,0,0-7.5945.36c-2.2748.0227-2.6752-.2205-5.068-.18-4.0052.572-16.0079.0044-18.9965.72-5.1115-.542-9.5188-.0769-17.7244-.1794-15.2414-.2806-26.3209-.1758-40.5256.539-6.1072-.0684-13.9269-.2592-21.74-.1754l1.2637-1.2638c.0266,2.4812.0808,4.96.1754,7.3832-.3046,4.3294-.3091,17.9366-.539,26.5942.0626,1.3947.1262,2.8138.1914,4.2659l-1.0915-1.0915c7.2546-.3147,14.8-.5838,20.8153-1.0546,5.3643.1371,9.0444.5188,12.6776.9078,14.5871-.2648,27.2324-.1478,40.53.7466,16.2576-.1479,29.91-.3852,44.6663-.8956,8.4555.0707,15.5205-.3245,18.2364.7508-1.0966-.0269-1.1394.0466-1.1364.1247,1.662.5051-6.5734.08-7.2106.3787-4.4876-.1118-4.69.1989-8.7421.1331-5.0237.2159-10.69.3869-17.43.4484q-6.288.2949-13.7015.4951c-12.9921-.0941-24.4577-.4243-35.9347-.7711-5.4432.1723-7.3192.8241-13.7517.8834-5.5893-.104-9.0112-.5219-14.1082-.6986-4.7133.1146-6.151.7936-11.3946.3611-2.64.1059-4.0919.38-6.3371.5407-2.466-.0591-4.853-.0843-7.1784-.0972l-1.1683-.0065.0064-1.1553c.0408-7.3045-.0421-14.0321.4417-20.73-.3349-4.9795-.263-11.1694-.0923-17.5131l.0225-.8355.79.0232,15.4118.4519c7.8582-.5632,20.2445-.4819,30.3929-.72,18.9749.5523,34.6091.1538,58.25,0,7.5014-.4336,18.99-.3,26.5942-.72l6.9127.0467,1.7562.0119-.0025,1.7418c-.0158,10.9689.0864,16.97-.2355,28.2431.12,1.8175.0427,4.9168.1385,6.75C168.2867,179.0575,168.2514,180.3659,168.2164,181.6665Z"/><text class="cls-7" transform="translate(40.4553 166.7989)">Component A</text><path class="cls-6" d="M318.2226,175.6646c-1.1124-1.9631-.7845-15.2885-1.3768-21.3606l.0435-14.5815,0-.1182.1182-.0016,8.7088-.1224c4.1436-.17,3.7051.2907,3.8923.666a33.9411,33.9411,0,0,1,9.7055-.3767c5.1541-.0706,11.0831-.2466,13.59.0491,5.2242-.6272,18.718-.3491,27.1714-.6222,16.2106-.7382,36.7644-1.1512,56.8169-1.4876l14.8734-.2392a11.4587,11.4587,0,0,1,3.717.4344A3.9241,3.9241,0,0,1,457.14,138.96a4.08,4.08,0,0,1,.8872,1.7324c.4594,2.4151.7016,4.694.9705,6.9934a167.1169,167.1169,0,0,1,.8352,24.7572c-.0848.8594-.1647,1.6678-.233,2.3593l-.049.4968-.4721-.02c-4.6608-.1952-7.9951-.0546-13.1591-.6364-5.6812-.1712-5.9719.4316-11.653.2652-5.2656-.2465-15.4075.0468-17.464-.5245-8.6956.3128-27.0406.6626-36.8724.2243-2.7113.85-7.1835.0065-11.639.5573q-8.722.0931-17.4449.3089c-10.14.3524-22.5578,1.9466-32.8837,1.9254-3.04-.2512,1.37-1.5229,9.6041-1.7587,4.0252-.5977,12.8587-.7557,17.4251-1.1977,12.6855-1.0072,23.8823-.7263,34.9348-1.2745l36.8966-.2242c11.6434.0074,23.62.0974,36.8856.4024,1.5541.104,3.418.1755,5.4005.2357l-1.2022,1.1006c.4384-5.042.4531-10.83.6842-13.9021-.6888-2.8189-.44-7.1729-.9221-11.5367-.1353-1.2656-.3174-2.5733-.5345-3.98-.1122-.7028-.2284-1.4313-.35-2.1926a15.553,15.553,0,0,0-.4318-2.1717,1.996,1.996,0,0,0-1.033-1.2394,6.3,6.3,0,0,0-2.345-.5063c-.9449-.065-2.051-.0471-3.2148-.0721l-3.6782-.094c-17.0085.4774-32.9531,1.1685-46.5842.8953-11.0373,1.12-21.345.849-38.81,1.2654-12.5884-.0382-26.34.1993-43.6591-.0727l1.3344-1.3493-.0362.9937C318.5343,152.0332,319.6291,168.0182,318.2226,175.6646Z"/><text class="cls-7" transform="translate(330.6589 161.8812)">Component B</text><text class="cls-5" transform="translate(209.4984 24.468)">imports</text><text class="cls-5" transform="translate(398.5317 95.9712)">declarations</text><text class="cls-5" transform="translate(105.8798 76.7036)">declatations<tspan x="0" y="18" xml:space="preserve"> +</tspan><tspan x="0" y="36">exports</tspan></text><text class="cls-8" transform="translate(207.5329 177.0927)">can use</text><path class="cls-9" d="M505.9462,198.5125c5.83,1.6237-11.1631,1.7805-23.2266,1.8-14.5411.1011-24.1784.3266-37.5116.18-8.9325.18-17.2341.4241-28.5922.36-5.6221-.0864-6.98.2563-10.7147.36-3.2094.0227-3.7744-.22-7.15-.18-5.6509.572-22.585.0044-26.8014.72-7.2116-.5419-13.43-.0769-25.0066-.1794-21.5034-.2806-37.135-.1758-57.1759.539-11.35-.09-26.8915-.3925-41.0892,0-6.1082-.3047-25.3061-.3091-37.5206-.539-12.03.4079-25.37.6833-35.7293,1.26-7.6407-.13-12.81-.509-17.8694-.9-20.7919.2835-38.9016.2359-57.17-.72-23.1256.1926-42.6432.48-64.322,1.26-11.9733-.0359-22.6746.6109-25.0084-.9,1.52.0329,1.6836-.0711,1.7886-.181-1.65-.7053,9.4207-.13,10.7147-.539,6.2023.1443,6.87-.2681,12.5051-.18,7.3407-.2806,15.485-.4805,25.0151-.54q9.1165-.3417,19.6494-.5405c18.1164.156,34,.5354,50.03.9,7.75-.1794,10.6224-.85,19.6512-.9,7.8.1143,12.5033.5405,19.649.72,6.6664-.115,8.7661-.7954,16.08-.36,3.7219-.1055,5.78-.3794,8.9347-.54,14.3443.2483,26.8628-.0974,39.3092.54,12.8293-.6115,31.3532.1333,46.4526.36,11.0869-.5633,28.5621-.482,42.88-.72,26.7709.5523,48.8286.1538,82.1824,0,10.5834-.4336,26.7929-.3,37.5206-.72,21.3062.1582,29.0038-.145,48.2349,0,2.3468-.1832,6.5853-.1766,8.9324-.36Z"/><text class="cls-5" transform="translate(57.0483 225.4009)">ngModules</text><text class="cls-7" transform="translate(215.8303 225.4634)">Components</text><text class="cls-8" transform="translate(390.1545 224.9097)">Intention</text></g></svg>