<svg xmlns="http://www.w3.org/2000/svg" viewBox="0 0 709.0581 393.1044"><defs><style>.cls-1,.cls-2,.cls-5{fill:#ec5e24;}.cls-1,.cls-11,.cls-4,.cls-6{fill-rule:evenodd;}.cls-10,.cls-13,.cls-2,.cls-3,.cls-7{font-size:22px;font-family:SwankyandMooMoo, Swanky and Moo Moo;}.cls-3,.cls-4{fill:#65bc46;}.cls-13,.cls-6{fill:#231f20;}.cls-7,.cls-8{fill:#3e479d;}.cls-9{fill:none;stroke:#ec5e24;stroke-miterlimit:10;}.cls-10,.cls-11,.cls-12{fill:#232532;}.cls-14{fill:#fff;}</style></defs><title>x</title><g id="Layer_2" data-name="Layer 2"><path class="cls-1" d="M34.8279,198.772c-.7635-.8065-.4991-11.8813-1.0428-16.6055q-.0054-9.6105-.011-19.2286a16.1145,16.1145,0,0,1,.0308-2.1072l.0107-.0973.0788.0079c1.1418.1161.9889.422,1.0949.69a23.0961,23.0961,0,0,1,7.9972-.24,108.8137,108.8137,0,0,1,11.1911.24c4.31-.5538,15.4188-.086,22.3836-.24,18.2442-.6969,43.1529-.6733,64.34-.7359l.3746-.0013.0011.377c.0292,10.1767.0769,19.37.224,26.793-.2686,4.648.05,7.5022-.3987,12.0817l-.0216.2217-.1794-.02-.7088-.0809c-4.68-.0645-4.933.5419-9.6335.4781-4.3352-.1475-12.7924.2947-14.41-.2442-7.2254.4505-22.6694.9-30.6442.4171-2.5944.7615-5.9472-.0386-9.8735.4l-14.51-.0733c-8.459.0733-19.6007.7842-27.7146.1816-2.19-.3294,2.2134-.996,8.8626-.8308,3.5949-.278,10.7513-.1025,14.7144-.351,10.8064-.5122,19.7938-.1749,29.0884-.6495,9.4245.025,19.91-.3252,30.3253-.5119,7.7535-.1366,15.6588-.2622,24.5043-.27l-1.3336,1.3336c.0037-1.6318.0085-3.64.0133-5.686.2706-4.5965.0489-12.4691.4805-15.9918-.6378-2.3517-.1894-5.9586-.24-9.5922-.0629-2.2066-.1306-4.5851-.2165-7.6047l1.2965,1.2965c-2.6857.046-5.914.0216-9.9793-.2166-14.0126.2383-27.1513.7051-38.3739.24-9.1025.9647-17.588.5487-31.9758.72l-26.6776-.4023,1.6374-1.6376c-.0761,2.7938-.1855,6.2038-.3425,9.8371.0981,4.5228.3649,9.8367.3761,14.8135A91.99,91.99,0,0,1,34.8279,198.772Z"/><text class="cls-2" transform="translate(41.9919 185.1459)">Feature A</text><path class="cls-1" d="M370.1692,138.7234c-.79,2.4343-.8138-6.944-.8221-13.5348-.0371-7.9962-.1873-13.2775-.0886-20.5364-.0442-1.7287-.0874-3.4149-.1322-5.1648l.0126.0126c-3.127.0769-6.4256.1349-10.4174.1074-3.0616-.0576-3.801.1709-5.8349.24-1.7478.0151-2.0555-.147-3.8938-.12-3.0774.3813-12.2993.0029-14.5955.48-3.9274-.3613-7.3135-.0512-13.618-.12-11.71-.187-20.2229-.1172-31.1368.3594-4.6922-.0456-10.7-.1728-16.7034-.1168l.8425-.8426c.0177,1.9064.0538,3.8107.1169,5.6726-.2031,3.3265-.206,13.7813-.3593,20.433.16,4.1823.33,8.6474.4876,12.7692l-1.0877-1.0877c2.3724-.1,4.6032-.2125,6.6158-.35,4.1187.0892,6.9272.3441,9.6976.605,11.229-.182,20.9478-.1063,31.1031.5,12.5048-.1,23.0135-.2611,34.4085-.599,6.4954.05,11.9722-.21,13.9506.5078-.84-.0182-.8806.0309-.8862.0829,1.2264.3371-5.06.0525-5.579.2523-3.4379-.0752-3.6221.1332-6.73.0891-3.8794.145-8.2461.261-13.4284.303q-4.854.2-10.5623.3359c-9.97-.0628-18.7535-.2877-27.5486-.5223-4.1931.1163-5.6745.5561-10.6178.5947-4.286-.0712-6.89-.3528-10.7962-.4717-3.6273.0768-4.7664.5307-8.7713.24l-.8563.04-.49.0231-.03-.5433c-.0851-1.5359-.2294-2.5611-.32-4.0122.1655-7.8115-.0649-14.6289.36-21.4069-.2233-3.8258-.1754-8.5816-.0615-13.4557l.0129-.555.5286.0134,11.8413.3013c6.0376-.3755,15.5543-.3213,23.3514-.48,14.5789.3682,26.5909.1025,44.7548,0,4.5206-.2267,10.9262-.2206,16.2523-.3427l1.04-.0238.0236,1.0868c.0336,1.5517.0756,2.9809.1335,4.2743-.1317,11.84.0068,16.225-.2219,26.8742.0806,1.3756.04,3.7284.109,5.1123C370.2048,136.74,370.1869,137.7347,370.1692,138.7234Z"/><text class="cls-2" transform="translate(306.1379 122.403)">App</text><path class="cls-1" d="M585.99,198.4348c3.55.91-6.6231,1.5586-13.87,1.57-8.727.0892-14.52.0094-22.5159-.4-5.3646-.1028-10.353-.2053-17.1638-.5886-3.37-.2245-4.1953-.0319-6.4385-.0718-1.9255-.08-2.2573-.2476-4.2838-.3072-3.4028.1937-13.5524-.4531-16.0884.0147-4.321-.4034-8.0531-.1079-14.9877.0194-2.6128.0722-5.0805.1781-7.4484.282l-6.8343.5321-.5646.044.007-.56c.0823-6.6253-.0057-12.84-.387-19.9772-.0192-4.9016-.0633-11.1145-.2756-17.397l-.0283-.8382.8465-.02c2.4328-.0586,4.8811-.1424,7.2662-.258,3.6732.1386,15.2075-.0086,22.547.12,7.2264-.3145,15.2424-.478,21.4713-.8238,4.5919.1138,7.6963.4039,10.733.6968,12.4943-.0387,23.3788.2378,34.33,1.1964l15.7541.331.5379.0113.0012.5562c.0166,7.7218-.5525,15.1015-.9074,22.9166-.681,7.1587-.4521,13.52-1.4548,14.8986.0421-.908-.025-1.0074-.0968-1.0718-.2391.49-.2532-.9226-.176-2.5546a32.5965,32.5965,0,0,0,.0886-3.8774c.3358-3.708.1077-4.1278.4432-7.4966.18-4.41.5419-9.2915.8654-14.9965.0475-2.4272.0871-4.9769.0566-7.834l.5972.6286-3.9457-.0433-30.013-1.4456c-4.6563.0333-6.3882.4386-11.8088.3986-4.6815-.1469-7.5022-.4526-11.7924-.6116-4.0042.0487-5.2668.49-9.6574.1877-2.2351.0609-3.4711.2421-5.365.3513-8.6125-.1655-16.1258.1115-23.603-.2194-4.48.2885-10.119.312-15.8433.2943l.5085-.5337c.01,4.1087.019,8.2639.0278,12.0552.535,6.5538.522,16.8595.503,25.3774l-.7808-.7222.3913-.0378c8.05-.5569,15.3928-.7791,23.2308-.8617,7.8381-.0707,16.1727.0776,26.1864.4968,6.3688.0009,16.0865.6228,22.5278.6134,6.3819.3355,10.7265.4387,14.914.4917,2.0943.0464,4.148.0343,6.398.0388,2.2508.0253,4.6952-.009,7.5713-.0393,1.4021-.1252,3.9338-.2138,5.33-.4035Z"/><text class="cls-2" transform="translate(484.8752 186.536)">Feature B</text><text class="cls-3" transform="translate(47.9638 313.16)">Service A</text><path class="cls-4" d="M138.9029,289.1345c-.8034.5272-3.8037.5619-7.1991.5707l-5.1654.0513c-1.67.0442-3.2126.1284-4.4.2634-6.0645-.0678-12.1337-.0109-18.2021.1052-3.2374.17-2.899-.2907-3.0489-.6655a20.8519,20.8519,0,0,1-7.584.4055,94.4424,94.4424,0,0,1-10.6216-.0207c-4.08.6328-14.6241.274-21.2247.26a207.3489,207.3489,0,0,1-23.3055-.8345l.201-.1837c.1672,6.1223.2522,12.4868.209,18.8163-.0415,6.3293-.19,12.62-.32,18.6019l-.3661-.3839c9.7838.19,18.6259.2477,25.7491.1436,4.65.3082,7.4085-.0572,12.1353.5069,4.4426.0438,4.6584-.5492,9.1-.5246,4.1194.13,12.0333-.4379,13.6551.0776,6.7847-.5433,21.1-1.4158,28.7964-1.2144,2.0906-.9166,5.6127-.1743,9.0767-.8244l2.3678-.0951-1.2636,1.3337-.1344-11.2814c-.2058-7.9323-1.4023-17.6988-.7878-25.7893.4163-2.3673,1.4277,1.1316,1.2905,7.5729.4166,3.1631.286,10.0715.6422,13.6475.414,5.5941.4978,10.8138.6022,15.8312l.0059.2824-.287.0143c-3.9149.1952-7.7006.3922-11.4623.7467-8.989.2747-18.8754.8837-28.823,1.2151-9.1.3044-18.4679.524-28.85.4464-4.3649-.2816-11.8442-.1089-15.1844-.59-2.2413.614-5.6615.1166-9.1121.1058-2.1711-.0024-4.5169.0857-7.554.0712l-1.284-.0062.012-1.3279c.0223-2.46.1293-5.432.4385-9.1316.06-10.0342-.2619-19.5666-.3451-28.2187l-.0161-1.68,1.6864.1536c2.7915.2541,5.4705.6268,8.0579.8846,8.63-.3777,16.5943.3,30.2156.0189,10.02.132,21.0089-.3093,34.9032.089,4.4267-.1746,9.7788-.4947,14.7826-.5541,2.5025.0095,4.9155.0384,7.074.2169A31.2576,31.2576,0,0,1,138.9029,289.1345Z"/><path class="cls-4" d="M481.3106,322.0262c-1.1148-1.5289-.8044-11.9079-1.4046-16.6373q.0195-9.0672.039-18.1413c-.0149-.4623-.0184-.8515-.0124-1.1623l.0027-.1345.13,0c1.9774-.0063,1.7479.378,1.8756.6993a20.6812,20.6812,0,0,1,7.5567-.3874,97.3456,97.3456,0,0,1,10.5861.0343c4.064-.6329,14.5771-.37,21.1594-.6521,12.6207-.7559,28.6273-1.1916,44.244-1.55l11.5812-.258a7.2747,7.2747,0,0,1,2.9388.3741,3.04,3.04,0,0,1,1.2532.9529,3.9577,3.9577,0,0,1,.6575,1.3786,18.6851,18.6851,0,0,1,.399,2.7846q.1326,1.3608.263,2.6967c.6471,7.1285.9037,13.7166.99,19.266-.26,3.8345-.1258,6.3871-.5307,9.857l-.0412.3531-.3062-.031c-.6647-.0671-1.4241-.1567-2.2423-.2764-4.4238-.1768-4.657.4234-9.0809.2464-4.0991-.2576-12.0019.0057-13.5971-.574-6.778.28-21.0634.573-28.7154.1044-2.1124.8355-5.5927-.0205-9.06.524q-6.788.0693-13.5739.2813c-7.8921.3542-17.508,1.9538-25.5368,1.98-2.3771-.2325,1.0055-1.536,7.4169-1.7912,3.1185-.6085,9.9968-.7935,13.5472-1.22,9.87-1.0094,18.5978-.7,27.2076-1.2141,8.9628.0446,18.832-.1576,28.747-.104,7.8712.0391,15.9364.1375,24.93.37l-1.3652,1.2655c.0484-1.0749.1088-2.4142.17-3.7709.4495-4.3136.1689-11.7171.4391-15.0444-.7172-2.1857-.4489-5.5911-.7792-8.9992-.0907-.9892-.2269-2.0109-.37-3.1129a23.189,23.189,0,0,0-.566-3.3133,1.6733,1.6733,0,0,0-.6793-.9387,3.4025,3.4025,0,0,0-1.57-.38c-.694-.0415-1.5948-.0237-2.49-.0486l-2.8658-.09c-13.2446.4961-25.6585,1.2048-36.2786.9465-8.5878,1.1322-16.6192.8724-30.22,1.3081-7.6914-.0192-15.9389.1322-26.0583.0842l1.5856-1.6133c-.09,2.4721-.2,5.5187-.3157,8.72C481.5915,303.62,482.7072,316.07,481.3106,322.0262Z"/><text class="cls-3" transform="translate(489.8449 308.2422)">Service B</text><polygon class="cls-5" points="530.629 198.416 530.629 273.687 524.845 273.687 531.422 285.08 537.999 273.687 532.215 273.687 532.215 198.416 530.629 198.416"/><text class="cls-2" transform="translate(541.829 242.3323)">providers</text><polygon class="cls-5" points="87.639 200.868 87.639 276.776 81.855 276.776 88.432 288.169 95.009 276.776 89.225 276.776 89.225 200.868 87.639 200.868"/><text class="cls-2" transform="translate(98.1773 245.0648)">providers</text><path class="cls-6" d="M685.7289,343.8751c7.8251,1.6238-14.9832,1.7805-31.1746,1.8-19.517.1011-32.452.3266-50.3478.18-11.9891.18-23.1315.424-38.3763.36-7.5459-.0864-9.3682.2564-14.3813.36-4.3076.0227-5.0659-.22-9.5969-.18-7.5845.572-30.3132.0043-35.9725.72-9.68-.542-18.0252-.0769-33.5637-.1794-28.8617-.2805-49.8423-.1758-76.741.539-15.2334-.09-36.0936-.3925-55.15,0-8.1983-.3046-33.9657-.309-50.36-.539-16.147.4079-34.0512.6833-47.9557,1.26-10.2554-.13-17.1935-.509-23.9843-.9-27.9066.2834-52.2133.2358-76.7325-.72-31.0391.1927-57.2355.4805-86.3325,1.2605-16.0706-.0359-30.4337.6109-33.5661-.9,2.04.0329,2.26-.0711,2.4005-.1809-2.2152-.7053,12.6445-.13,14.3813-.5391,8.3247.1443,9.2208-.2681,16.7843-.18,9.8526-.2805,20.7838-.48,33.575-.54q12.2361-.3416,26.3733-.5405c24.3158.156,45.6346.5354,67.15.9,10.4021-.1795,14.2572-.85,26.3757-.9,10.4695.1143,16.7818.5405,26.3727.72,8.9476-.115,11.7657-.7954,21.583-.36,4.9955-.1055,7.7578-.3794,11.9921-.54,19.2528.2483,36.055-.0974,52.76.54,17.2192-.6116,42.0821.1333,62.3484.36,14.8807-.5632,38.3358-.4819,57.5532-.72,35.9316.5523,65.5372.1538,110.3045,0,14.205-.4336,35.9613-.3,50.36-.72,28.597.1582,38.9286-.145,64.7405,0,3.15-.1831,8.8386-.1765,11.989-.36Z"/><text class="cls-2" transform="translate(166.2719 370.7932)">ngModules</text><text class="cls-3" transform="translate(321.891 370.8561)">Services</text><text class="cls-7" transform="translate(456.2431 370.7931)">Intention</text><text class="cls-2" transform="translate(145.0408 136.0351)">imports</text><path class="cls-5" d="M272.4366,115.5024a115.2261,115.2261,0,0,1-14.2591,9.8262c-4.9964,2.9194-10.1766,5.5289-15.4389,7.9674-10.5448,4.8371-21.3992,9.0664-32.1507,13.5213l-59.86,24.5222-2.1926-5.3526-8.049,10.4047,13.0354,1.7676-2.1925-5.3518,59.8605-24.5221c10.75-4.4547,21.5974-8.68,32.2142-13.549,5.2961-2.4541,10.5221-5.0859,15.5762-8.0392A116.8131,116.8131,0,0,0,273.442,116.73Z"/><path class="cls-5" d="M368.8558,121.1954a321.307,321.307,0,0,1,53.1427,24.2682q12.7027,7.25,24.7338,15.6018c4.0139,2.768,7.9472,5.6518,11.8326,8.5966,1.9227,1.4988,3.88,2.9534,5.7743,4.4884l2.3937,1.9354-3.6425,4.4933c4.3021.6068,8.54,1.4074,12.8836,2.1949-1.47-4.0991-2.9445-8.3073-4.6-12.4132l-3.642,4.4927-2.4049-1.9444c-1.9031-1.5422-3.87-3.0038-5.8015-4.51-3.9037-2.9588-7.8556-5.8562-11.8887-8.6373q-12.0744-8.3777-24.852-15.6765a322.9005,322.9005,0,0,0-53.406-24.3881Z"/><text class="cls-2" transform="translate(393.7166 124.9729)">loads lazy</text><polygon class="cls-5" points="319.742 227.667 319.742 276.776 313.958 276.776 320.535 288.169 327.112 276.776 321.328 276.776 321.328 227.667 319.742 227.667"/><text class="cls-2" transform="translate(329.1312 248.5291)">providers<tspan x="0" y="18">just for root</tspan></text><path class="cls-8" d="M137.9276,311.3691q27.7981-2.45,55.7368-2.5466,13.9527-.0483,27.8992.4913c4.6477.1774,9.2927.4156,13.9358.6868l6.9616.4537,2.95.2232-.4345,5.7679c3.915-1.9211,7.8611-3.7579,11.8471-5.6147-3.5809-2.5092-7.1978-5.0453-10.859-7.5022l-.4345,5.7671-2.9565-.2238-6.9785-.4547c-4.6542-.272-9.3105-.5107-13.9693-.6885q-13.976-.541-27.9665-.4924-27.9725.0971-55.8711,2.5527Z"/><text class="cls-7" transform="translate(157.4429 326.8918)">can use</text><polygon class="cls-8" points="480.336 303.862 405.253 303.862 405.253 298.078 393.86 304.654 405.253 311.232 405.253 305.448 480.336 305.448 480.336 303.862"/><text class="cls-7" transform="translate(402.2485 325.0223)">can use</text><path class="cls-9" d="M289.4731,226.97l63.9958,1.538c-1.0928-10.2284-1.6779-20.59-1.7485-30.9608a446.3564,446.3564,0,0,0-61.7965-3.1351l-.1741,31.6635"/><text class="cls-2" transform="translate(301.1791 215.7644)">Core</text><text class="cls-10" transform="translate(259.7253 42.459)">Root Injector</text><path class="cls-11" d="M384.9829,19.6637c-.98.526-4.703.5848-8.92.5858-4.2181.0484-8.9318.0164-11.8838.3151-7.539-.0926-15.0836-.03-22.6276.0481-4.0258.1655-3.6-.2943-3.7818-.67a32.4957,32.4957,0,0,1-9.4311.3845c-5.0078.0779-10.7682.2739-13.2038-.0269-5.0753.646-18.1834.325-26.3943.4084-11.1513.2933-24.4346.1383-38.0942-.8362l.2749-.2593c.1674,6.2824.2483,12.6582.1712,18.954-.0737,6.2958-.2737,12.5069-.4561,18.47l-.3682-.3871c12.1534.1753,23.1354.2356,31.9844.1308,5.7815.3095,9.2107-.0452,15.0856.5191,5.5222.0692,5.7925-.552,11.3137-.5006,5.12.131,14.9635-.4032,16.9747.1189,8.4379-.52,26.25-1.331,35.8141-1.0788,2.6176-.9043,6.98-.139,11.3006-.7665l12.1247-.3537-1.2775,1.34-.0767-4.8357c-.2681-9.8591-1.5412-21.9972-.99-32.0537.3977-2.943,1.4366,1.4049,1.35,9.4113.4416,3.9311.365,12.518.7492,16.9624.2385,3.6212.3866,7.1163.4937,10.4914l.0064.2005-.2067.01c-8.2114.381-15.8622.4981-23.44,1.0338-11.1749.2172-23.4692.7822-35.8326,1.0792-11.3107.272-22.9507.4677-35.8505.3732-5.424-.2811-14.7169-.1177-18.87-.5961-2.7816.6165-7.034.1149-11.3221.1116-2.6916-.0036-5.5988.09-9.3589.08l-1.3056-.0037.0269-1.341c.0619-3.0646.2207-6.7637.5721-11.371.1278-9.0577-.102-17.7832-.3536-25.9614l-.05-1.6194,1.6542.1068c6.8.439,13.199.8519,19.1469,1.236,10.7316-.5908,20.6922-.0585,37.6466-.4093,12.4716.09,26.143-.3094,43.394.125,2.751-.0659,5.7869-.183,8.91-.3015,3.1249-.0827,6.3372-.1954,9.44-.2071C375.5266,18.54,381.2907,18.8279,384.9829,19.6637Z"/><polygon class="cls-12" points="318.124 57.401 317.262 88.319 311.48 88.157 317.736 99.729 324.629 88.524 318.848 88.363 319.71 57.445 318.124 57.401"/><text class="cls-13" transform="translate(323.7111 78.416)">uses providers</text><text class="cls-10" transform="translate(509.0399 115.7516)">Lazy Injector</text><path class="cls-11" d="M635.3394,93.1c-.98.526-4.7031.5848-8.92.5858-4.2181.0483-8.932.0163-11.8839.315-7.5389-.0925-15.0835-.03-22.6276.0481-4.0259.1656-3.6-.2943-3.7817-.67a32.5,32.5,0,0,1-9.4312.3846c-5.0078.0778-10.7683.2739-13.2037-.0269-5.0753.646-18.1835.3249-26.3943.4083-11.1514.2934-24.4347.1383-38.0943-.8362l.275-.2592c.1672,6.2823.2481,12.6582.1711,18.9539-.0737,6.2958-.2737,12.507-.4562,18.47l-.368-.3871c12.1532.1753,23.1353.2356,31.9843.1307,5.7816.31,9.2106-.0451,15.0856.5192,5.5221.0692,5.7925-.552,11.3136-.5006,5.12.131,14.9637-.4032,16.9748.1189,8.438-.52,26.25-1.3311,35.8141-1.0789,2.6176-.9043,6.98-.1389,11.3006-.7665l12.1247-.3537-1.2774,1.34-.0769-4.8357c-.2679-9.8593-1.5411-21.9972-.99-32.0537.3977-2.943,1.4367,1.4049,1.35,9.4112.4414,3.9312.365,12.5181.7491,16.9624.2384,3.6211.3866,7.1164.4937,10.4915l.0063.2-.2066.01c-8.2114.3809-15.8621.498-23.44,1.0338-11.1748.2171-23.4692.7822-35.8327,1.0792-11.3105.272-22.9505.4677-35.85.3732-5.424-.2812-14.7169-.1177-18.87-.5961-2.7816.6165-7.0339.1149-11.322.1116-2.6918-.0037-5.5988.09-9.359.08l-1.3057-.0037.0271-1.3411c.0618-3.0645.2206-6.7636.572-11.3709.1278-9.0578-.102-17.7832-.3536-25.9615l-.05-1.6193,1.6542.1068,19.1469,1.2359c10.7316-.5908,20.6922-.0584,37.6465-.4093,12.4718.09,26.1431-.3094,43.3941.125,2.751-.0659,5.7868-.183,8.91-.3015,3.1248-.0826,6.3372-.1953,9.44-.207C625.8831,91.9761,631.6472,92.2639,635.3394,93.1Z"/><path class="cls-12" d="M536.895,132.6825q-.3429,4.2966-1.0018,8.56c-.2236,1.4193-.4674,2.8356-.7445,4.2455l-.4323,2.1113-.4182,1.874-5.6344-1.3078a102.8317,102.8317,0,0,1,3.2858,12.4386,109.2714,109.2714,0,0,0,9.5277-9.4645l-5.6337-1.3076.4239-1.9.4384-2.1409c.2809-1.43.5283-2.8656.7549-4.3047q.6674-4.3194,1.0157-8.68Z"/><path class="cls-12" d="M565.8847,91.7539l-43.76-16.07c-14.59-5.3444-29.1563-10.7576-43.8079-15.9626-14.6549-5.1891-29.4018-10.1592-44.3538-14.4769-7.4731-2.1638-14.99-4.1891-22.57-5.9645-3.7784-.9347-7.5936-1.7131-11.3949-2.55l-4.5578-.89,1.0977-5.6791c-4.2022,1.3728-8.3787,2.9487-12.4624,4.4541,3.3954,2.825,6.7284,5.5543,9.966,8.4608l1.0976-5.6782,4.538.8865c3.786.8341,7.5851,1.609,11.35,2.54,7.5506,1.7685,15.0429,3.7871,22.4945,5.9447,14.9087,4.3052,29.6268,9.2651,44.2648,14.4483,14.6337,5.1985,29.2,10.6119,43.7914,15.9566l43.76,16.0694Z"/><text class="cls-13" transform="translate(450.0749 46.3068)">inherits instances</text><text class="cls-13" transform="translate(546.4603 147.6729)">uses providers</text><path class="cls-5" d="M317.9918,138.3993q.35,11.5893.5272,23.1829l.13,11.5938.039,10.1935-5.7841.0026,6.5394,11.3893,6.6146-11.3953-5.7834.0027-.0392-10.2044-.13-11.606q-.1712-11.6056-.5277-23.2076Z"/><text class="cls-2" transform="translate(325.9201 155.1732)">imports<tspan x="0" y="18">forRoot</tspan></text><path class="cls-5" d="M141.3385,183.99l35.2351,8.9413c11.7434,2.9836,23.4968,5.962,35.3181,8.6815,11.8208,2.7172,23.7255,5.12,35.7245,6.99,6.0083.8734,12.0256,1.7128,18.078,2.2548,3.02.3294,6.0541.5083,9.0836.7359.7571.0627,1.5157.1,2.275.13l1.0869.0495.3589.0162-.28,5.7775c3.9957-1.9673,7.9061-4.125,11.7053-6.2568-3.7948-2.2531-7.48-4.4792-11.0686-6.8819l-.28,5.7767-.3567-.0162-1.08-.049c-.7542-.0306-1.5084-.0673-2.2611-.13-3.0118-.2266-6.0276-.404-9.0316-.7318-6.0185-.5389-12.0079-1.3744-17.9892-2.2438-11.948-1.8622-23.8141-4.2567-35.61-6.9683-11.7971-2.7138-23.5379-5.6889-35.2824-8.6728l-35.2352-8.9414Z"/><path class="cls-5" d="M476.2451,189.552c-10.0255.8474-19.647,3.7252-29.19,6.3265-4.7757,1.3151-9.5829,2.4744-14.4091,3.575-4.8372,1.0471-9.686,2.0472-14.5649,2.8954-9.7476,1.75-19.5668,3.1056-29.41,4.2687-4.9213.5849-9.8507,1.11-14.7837,1.61l-10.5125,1.0238-.5421-5.7588-10.7275,7.5967,11.9606,5.4995-.5421-5.7581,10.5231-1.0248c4.94-.5,9.8777-1.0267,14.81-1.6129,9.8649-1.1658,19.7146-2.5253,29.5022-4.2825,4.8982-.8516,9.77-1.8562,14.6308-2.9085,4.8481-1.1054,9.69-2.2732,14.4815-3.5929,9.5694-2.6117,19.0993-5.45,28.9051-6.2763Z"/><text class="cls-2" transform="translate(386.9858 222.5408)">imports</text><text class="cls-2" transform="translate(184.7877 190.3415)">imports</text><path class="cls-4" d="M262.41,329.0865c-1.113-1.861-.7895-14.4943-1.384-20.2508l.0437-15.6909,0-.1181.1179-.0019,6.39-.096c3.9283-.17,3.5132.29,3.6914.6652a30.5311,30.5311,0,0,1,9.2007-.3786c4.8863-.0715,10.5071-.2488,12.8841.0465,4.9519-.6283,17.7453-.3529,25.7592-.6277,15.3672-.7414,34.8528-1.1585,53.8633-1.4989l14.1-.2429a10.3566,10.3566,0,0,1,3.5332.4224,3.7149,3.7149,0,0,1,1.5628,1.0319,4.0163,4.0163,0,0,1,.8342,1.65c.282,1.17.3459,2.2547.5139,3.3615q.19,1.6541.377,3.2781a182.2508,182.2508,0,0,1,.9257,23.4668c-.1406,1.51-.2443,2.8555-.3366,4.1176l-.0342.4641-.4565-.0135a105.0069,105.0069,0,0,1-10.5972-.5715c-5.3858-.1725-5.6629.4285-11.0486.2614-4.9917-.2493-14.6072.0384-16.5557-.5335-8.2448.3062-25.636.6471-34.956.2027-2.5708.838-6.81.0091-11.0335.5484q-8.2676.0931-16.5359.3045c-9.612.354-21.3732,1.9512-31.16,1.9377-2.884-.2477,1.2862-1.5253,9.0926-1.7646,3.8127-.6,12.187-.7626,16.5149-1.2018,12.0241-1.0076,22.6406-.7216,33.1191-1.2636,10.9075.0156,22.9153-.2213,34.9817-.2026,11.0388.0143,22.3938.11,34.969.4168.9646.0684,2.0549.1229,3.2427.17l-1.2351,1.1343c.4763-5.1334.4314-11.7489.665-15.0517-.7048-2.6693-.4517-6.801-.9-10.9405-.1287-1.2-.2939-2.4417-.4959-3.7769-.103-.6671-.21-1.3588-.321-2.0814a12.666,12.666,0,0,0-.4048-2.0344,1.9086,1.9086,0,0,0-.948-1.17,5.5589,5.5589,0,0,0-2.1672-.4814c-.8858-.06-1.9417-.0415-3.0437-.0668l-3.4873-.0933c-16.1245.4809-31.24,1.175-44.1634.9046-10.4621,1.1222-20.2348.8532-36.7919,1.2731-11.438-.0342-23.8887.1851-39.5242-.0306l1.3938-1.4109c-.0278.76-.065,1.778-.1028,2.8088C262.7139,306.6826,263.8143,321.8373,262.41,329.0865Z"/><path class="cls-14" d="M255.48,324.4087c42.6137-3.0375,90.1179-1.717,132.9156-.8941a164.4031,164.4031,0,0,0-1.1423-32.9113,4.1511,4.1511,0,0,0-1.59-3.2269c-1.2107-.7975-3.0032-.8169-4.6262-.7925l-125.4571,1.8869-.1,35.9379"/><path class="cls-4" d="M256.8006,324.4123c-1.1128-1.861-.79-14.4942-1.384-20.2508l.0437-15.6909.0005-.1181.1181-.0018,6.3894-.0961c3.9282-.17,3.5132.29,3.6914.6653a30.5243,30.5243,0,0,1,9.2007-.3786c4.8865-.0716,10.5071-.2489,12.8843.0464,4.9516-.6282,17.7451-.3528,25.759-.6277,15.3675-.7414,34.853-1.1585,53.8633-1.4989l14.1-.2429a10.3576,10.3576,0,0,1,3.533.4224,3.714,3.714,0,0,1,1.5627,1.0319,4.0135,4.0135,0,0,1,.8343,1.65c.282,1.17.3459,2.2547.5139,3.3615q.19,1.6542.3769,3.2781a182.2171,182.2171,0,0,1,.9258,23.4669c-.1406,1.51-.2444,2.8554-.3366,4.1176l-.034.4641-.4568-.0136a104.9772,104.9772,0,0,1-10.5971-.5715c-5.3858-.1724-5.6629.4286-11.0486.2614-4.9917-.2493-14.6072.0384-16.5557-.5335-8.2449.3062-25.636.6471-34.956.2028-2.5706.8379-6.81.009-11.0335.5483q-8.2676.0933-16.5359.3045c-9.612.354-21.3733,1.9512-31.16,1.9377-2.884-.2477,1.2862-1.5253,9.0926-1.7646,3.8127-.6,12.187-.7626,16.5148-1.2018,12.0242-1.0076,22.6407-.7216,33.1192-1.2636,10.9075.0156,22.9153-.2213,34.9817-.2025,11.039.0142,22.3938.11,34.969.4168.9646.0683,2.0549.1228,3.2426.17l-1.2351,1.1343c.4764-5.1334.4314-11.7489.6653-15.0517-.7051-2.6692-.4516-6.801-.9-10.94-.1287-1.2-.294-2.4417-.4959-3.7769-.103-.6671-.2094-1.3587-.321-2.0814a12.6441,12.6441,0,0,0-.4048-2.0344,1.9086,1.9086,0,0,0-.948-1.17,5.5607,5.5607,0,0,0-2.1672-.4814c-.8858-.06-1.9417-.0415-3.0437-.0668l-3.4873-.0933c-16.1246.4809-31.24,1.1751-44.1634.9046-10.4621,1.1222-20.2348.8532-36.792,1.2731-11.438-.0342-23.8884.1851-39.5241-.0306l1.3938-1.4109c-.0279.76-.065,1.778-.1026,2.8088C257.1043,302.0085,258.2046,317.1631,256.8006,324.4123Z"/><text class="cls-3" transform="translate(265.32 310.6293)">Core Service</text></g></svg>