<svg xmlns="http://www.w3.org/2000/svg" xmlns:xlink="http://www.w3.org/1999/xlink" viewBox="0 0 658.4196 317.1109"><defs><style>.cls-1{filter:url(#dropshadow);}.cls-2,.cls-3,.cls-6{fill:#ec5e24;}.cls-2,.cls-5,.cls-7{fill-rule:evenodd;}.cls-3,.cls-4,.cls-8{font-size:22px;font-family:SwankyandMooMoo, Swanky and Moo Moo;}.cls-4,.cls-5{fill:#65bc46;}.cls-7{fill:#231f20;}.cls-8,.cls-9{fill:#3e479d;}.cls-10{fill:none;stroke:#ec5e24;stroke-miterlimit:10;}</style><filter id="dropshadow" name="dropshadow"><feGaussianBlur stdDeviation="1" in="SourceAlpha"/><feOffset result="offsetblur" dx="1" dy="1"/><feComponentTransfer><feFuncA type="linear" slope="0.2"/></feComponentTransfer><feMerge><feMergeNode/><feMergeNode in="SourceGraphic"/></feMerge></filter></defs><title>ngmodules</title><g id="Layer_2" data-name="Layer 2"><g class="cls-1"><path class="cls-2" d="M34.9053,120.1853c-.7633-.8065-.4991-11.8812-1.0428-16.6053q-.0054-9.6107-.0108-19.2288a16.0818,16.0818,0,0,1,.0307-2.1071l.0107-.0973.0787.008c1.142.116.9889.422,1.0951.69a23.0955,23.0955,0,0,1,7.9972-.24,108.7844,108.7844,0,0,1,11.191.24c4.31-.5537,15.4188-.086,22.3836-.24,18.2441-.6968,43.1529-.6733,64.34-.736l.3747-.0011.0011.3769c.0291,10.1767.0768,19.37.2239,26.793-.2684,4.648.05,7.5021-.3985,12.0818l-.0218.2216-.1794-.0205-.7088-.0808c-4.68-.0646-4.9328.5418-9.6334.478-4.3353-.1476-12.7923.2947-14.41-.2443-7.2254.4507-22.6693.9-30.6441.4171-2.5945.7615-5.9472-.0385-9.8736.4l-14.51-.0731c-8.4591.0731-19.6008.7842-27.7146.1814-2.19-.3292,2.2133-.9959,8.8626-.8308,3.5948-.2779,10.7513-.1024,14.7144-.3508,10.8063-.5122,19.7939-.1751,29.0884-.65,9.4245.0251,19.91-.3252,30.3252-.5118,7.7536-.1365,15.6589-.2621,24.5043-.27l-1.3336,1.3336c.0038-1.6318.0085-3.64.0134-5.6861.27-4.5965.0488-12.4691.4805-15.9917-.6377-2.3518-.19-5.9588-.24-9.5923-.0628-2.2066-.1305-4.585-.2165-7.6047l1.2965,1.2965c-2.6857.046-5.914.0216-9.9793-.2165-14.0125.2382-27.1513.705-38.3737.24-9.1026.9647-17.5882.5487-31.9759.72l-26.6777-.4024,1.6376-1.6375c-.0762,2.7938-.1856,6.2039-.3427,9.8372.0982,4.5226.3649,9.8366.3761,14.8134A91.9889,91.9889,0,0,1,34.9053,120.1853Z"/><text class="cls-3" transform="translate(42.0695 106.5597)">Feature A</text><path class="cls-2" d="M370.2466,60.1368c-.79,2.4343-.8136-6.944-.822-13.5348-.037-7.9962-.1873-13.2775-.0885-20.5364-.0444-1.7287-.0875-3.4148-.1323-5.1648l.0126.0126c-3.1271.0769-6.4255.1349-10.4173.1074-3.0618-.0575-3.8012.1709-5.8351.24-1.7478.0152-2.0554-.147-3.8938-.12-3.0773.3813-12.2992.0029-14.5955.48-3.9272-.3613-7.3135-.0513-13.618-.12-11.71-.1871-20.2229-.1173-31.1367.3593-4.6923-.0456-10.7-.1728-16.7034-.1169l.8424-.8425c.0178,1.9064.054,3.8108.1169,5.6727-.2031,3.3264-.206,13.7811-.3593,20.4329.16,4.1823.33,8.6473.4878,12.7693l-1.0878-1.0878c2.3723-.1,4.6033-.2125,6.6158-.35,4.1186.0893,6.9273.3441,9.6975.605,11.2292-.1821,20.9478-.1064,31.1031.5,12.5049-.1,23.0136-.2611,34.4085-.5991,6.4954.05,11.9723-.2094,13.9506.5079-.84-.0182-.8806.0308-.8862.0829,1.2264.3371-5.06.0525-5.5789.2523-3.4378-.0752-3.6222.1332-6.73.0891-3.8793.145-8.2461.261-13.4282.3029q-4.8541.2-10.5625.336c-9.97-.0629-18.7533-.2877-27.5485-.5224-4.1932.1164-5.6745.5563-10.6178.5948-4.2861-.0712-6.89-.3528-10.7961-.4716-3.6275.0767-4.7666.5306-8.7715.24l-.8562.04-.49.023-.03-.5432c-.0851-1.536-.2293-2.5611-.32-4.0123.1656-7.8116-.0649-14.6289.36-21.4069-.2233-3.8258-.1753-8.5817-.0615-13.4557l.0129-.555.5287.0134,11.8412.3013c6.0377-.3755,15.5543-.3213,23.3514-.48,14.5789.3682,26.591.1026,44.7548,0,4.5207-.2267,10.9264-.2206,16.2524-.3427l1.0395-.0238.0235,1.0868c.0336,1.5516.0756,2.9809.1336,4.2743-.1316,11.84.0068,16.225-.222,26.8742.0807,1.3756.04,3.7283.109,5.1122C370.2822,58.1536,370.2644,59.1482,370.2466,60.1368Z"/><text class="cls-3" transform="translate(306.2156 43.8178)">App</text><path class="cls-2" d="M586.0673,119.8483c3.5494.91-6.6232,1.5585-13.87,1.57-8.727.0892-14.52.0094-22.5159-.4-5.3646-.1028-10.353-.2055-17.1638-.5886-3.37-.2245-4.1953-.032-6.4386-.0719-1.9255-.08-2.2573-.2476-4.2837-.3073-3.4029.1937-13.5525-.453-16.0884.0149-4.321-.4034-8.0532-.108-14.9877.0194-2.6128.072-5.0805.178-7.4485.282-2.3626.1838-4.6254.36-6.8341.532l-.5647.0439.0069-.56c.0823-6.6252-.0057-12.84-.3869-19.9771-.0193-4.9015-.0633-11.1145-.2756-17.397l-.0283-.8382.8465-.02c2.4327-.0586,4.8812-.1424,7.2662-.2579,3.6731.1385,15.2074-.0087,22.5469.12,7.2264-.3145,15.2424-.478,21.4713-.8237,4.592.1137,7.6963.4037,10.733.6968,12.4943-.0387,23.3788.2377,34.33,1.1963l15.754.331.538.0113.0011.5562c.0166,7.7217-.5525,15.1016-.9074,22.9166-.681,7.1587-.4521,13.52-1.4548,14.8985.0423-.9078-.0249-1.0073-.0968-1.0716-.2391.49-.2532-.9226-.176-2.5547a32.5725,32.5725,0,0,0,.0886-3.8773c.3359-3.7082.1078-4.1279.4432-7.4967.18-4.41.542-9.2916.8654-14.9965.0475-2.4272.0873-4.9769.0566-7.8339l.5972.6285-3.9457-.0433-30.013-1.4456c-4.6563.0333-6.3882.4386-11.8087.3985-4.6816-.1468-7.5022-.4524-11.7924-.6115-4.0043.0487-5.2668.49-9.6575.1877-2.2351.061-3.471.2421-5.365.3513-8.6124-.1655-16.1258.1115-23.603-.2194-4.48.2886-10.1189.312-15.8433.2943l.5086-.5336c.0094,4.1087.0189,8.2638.0277,12.0551.535,6.5539.522,16.8594.5031,25.3774l-.7809-.7221c.14-.0137.2661-.0257.3913-.0379,8.05-.5568,15.3929-.779,23.231-.8617,7.8379-.0706,16.1725.0776,26.1863.4968,6.3687.0008,16.0864.6229,22.5277.6135,6.3819.3355,10.7265.4386,14.914.4916,2.0943.0464,4.148.0343,6.3981.0388,2.2507.0254,4.6951-.0089,7.5712-.0392,1.4022-.1253,3.9339-.214,5.33-.4037Z"/><text class="cls-3" transform="translate(484.953 107.9498)">Feature B</text><text class="cls-4" transform="translate(48.0414 234.5749)">Service A</text><path class="cls-5" d="M138.98,210.548c-.8033.5272-3.8037.5618-7.1991.5706l-5.1654.0514c-1.67.044-3.2126.1284-4.4.2633-6.0643-.0678-12.1336-.0108-18.202.1053-3.2373.1693-2.899-.2909-3.0489-.6656a20.8566,20.8566,0,0,1-7.5841.4055,94.4385,94.4385,0,0,1-10.6214-.0207c-4.08.6327-14.6243.274-21.2249.2594a207.3015,207.3015,0,0,1-23.3055-.8344l.2011-.1837c.1672,6.1224.2522,12.4868.209,18.8162-.0416,6.3295-.19,12.62-.32,18.602l-.3661-.3839c9.784.19,18.626.2478,25.7492.1435,4.6505.3084,7.4085-.0571,12.1352.507,4.4428.0438,4.6585-.5492,9.0995-.5247,4.1194.13,12.0335-.4379,13.6553.0776,6.7845-.5433,21.1-1.4157,28.7964-1.2143,2.09-.9166,5.6125-.1743,9.0766-.8245l2.3678-.0951-1.2635,1.3339-.1344-11.2815c-.206-7.9324-1.4025-17.6988-.7879-25.7892.4163-2.3674,1.4276,1.1315,1.2906,7.5728.4166,3.1632.286,10.0715.642,13.6476.414,5.594.4979,10.8138.6023,15.831l.0059.2825-.287.0143c-3.915.1952-7.7005.3923-11.4624.7468-8.989.2745-18.8754.8835-28.823,1.215-9.1.3044-18.4679.5241-28.85.4464-4.365-.2815-11.8443-.1088-15.1845-.59-2.2412.614-5.6615.1164-9.112.1058-2.1711-.0024-4.5169.0856-7.5541.0711l-1.284-.0061.0121-1.328c.0222-2.46.1293-5.4319.4385-9.1315.06-10.0343-.262-19.5668-.3451-28.2189l-.0162-1.68,1.6864.1536c2.7915.2542,5.4706.6268,8.058.8847,8.63-.3777,16.5942.3,30.2157.0189,10.02.1319,21.0087-.3094,34.903.089,4.4267-.1746,9.779-.4947,14.7827-.5541,2.5025.01,4.9156.0384,7.0739.2169A31.2353,31.2353,0,0,1,138.98,210.548Z"/><path class="cls-5" d="M481.3882,243.44c-1.115-1.5288-.8046-11.908-1.4048-16.6373q.02-9.067.0391-18.1413c-.0149-.4624-.0185-.8514-.0124-1.1623l.0026-.1344.13,0c1.9774-.0063,1.7478.3779,1.8755.6993a20.6775,20.6775,0,0,1,7.5567-.3873,97.2986,97.2986,0,0,1,10.5861.0342c4.064-.6329,14.5772-.37,21.1594-.6521,12.6208-.756,28.6273-1.1915,44.2442-1.55l11.581-.2581a7.277,7.277,0,0,1,2.9389.374,3.04,3.04,0,0,1,1.2531.953,3.9576,3.9576,0,0,1,.6575,1.3786,18.66,18.66,0,0,1,.3991,2.7846q.1328,1.3606.2629,2.6967c.6471,7.1284.9038,13.7167.99,19.266-.26,3.8345-.1259,6.3872-.5307,9.857l-.0412.3531-.3063-.0309c-.6647-.0673-1.4241-.1569-2.2423-.2765-4.4236-.1769-4.657.4233-9.0807.2463-4.0993-.2574-12.0021.0058-13.5972-.5739-6.7781.28-21.0633.573-28.7154.1043-2.1125.8356-5.5928-.02-9.06.5241q-6.7881.0692-13.5741.2812c-7.8921.3544-17.5078,1.9539-25.5368,1.9805-2.3769-.2325,1.0055-1.536,7.417-1.7913,3.1186-.6085,9.9967-.7933,13.5472-1.22,9.87-1.0094,18.5977-.7005,27.2076-1.2142,8.9629.0445,18.832-.1575,28.7471-.1039,7.8711.0389,15.9362.1373,24.9294.37l-1.3651,1.2655c.0485-1.0749.1089-2.4141.17-3.7709.4494-4.3136.1689-11.7172.439-15.0444-.7172-2.1857-.4489-5.5911-.7792-8.9992-.0905-.9891-.2268-2.011-.37-3.1129a23.2163,23.2163,0,0,0-.5658-3.3132,1.6734,1.6734,0,0,0-.68-.9388,3.4037,3.4037,0,0,0-1.57-.38c-.6941-.0415-1.5949-.0237-2.49-.0486l-2.8659-.09c-13.2445.4961-25.6584,1.2046-36.2785.9464-8.5879,1.1321-16.6191.8724-30.22,1.308-7.6915-.0191-15.939.1322-26.0583.0843l1.5855-1.6133c-.0895,2.472-.2,5.5188-.3155,8.72C481.6689,225.0332,482.7847,237.4837,481.3882,243.44Z"/><text class="cls-4" transform="translate(489.9226 229.6573)">Service B</text><polygon class="cls-6" points="530.706 119.83 530.706 195.101 524.922 195.101 531.499 206.493 538.076 195.101 532.293 195.101 532.293 119.83 530.706 119.83"/><text class="cls-3" transform="translate(541.9067 163.7473)">providers</text><polygon class="cls-6" points="87.717 122.282 87.717 198.19 81.932 198.19 88.509 209.582 95.086 198.19 89.303 198.19 89.303 122.282 87.717 122.282"/><text class="cls-3" transform="translate(98.2549 166.4796)">providers</text><path class="cls-7" d="M633.8911,266.2886c7.2136,1.6237-13.812,1.78-28.7379,1.7994-17.9917.1012-29.9158.3267-46.4129.18-11.052.18-21.3234.4242-35.3768.36-6.9562-.0863-8.636.2563-13.2572.36-3.9711.0228-4.67-.2205-8.8468-.18-6.9917.572-27.9441.0044-33.1611.72-8.9229-.5419-16.6164-.0768-30.94-.1793-26.606-.2807-45.9468-.1758-70.7431.5389-14.0428-.09-33.2726-.3925-50.8392,0-7.5576-.3046-31.3111-.3091-46.424-.5389-14.8849.4078-31.39.6832-44.2075,1.26-9.4537-.13-15.85-.509-22.11-.9-25.7256.2835-48.1326.2358-70.7354-.72-28.6131.1926-52.762.4805-79.5849,1.26-14.8145-.0359-28.0551.6108-30.9427-.9,1.88.0328,2.0832-.0712,2.2131-.1811-2.0422-.7053,11.6561-.13,13.2572-.539,7.674.1444,8.5-.268,15.4724-.18,9.0826-.2806,19.1593-.4806,30.9509-.54q11.28-.3417,24.312-.54c22.4153.156,42.0679.5354,61.9019.9,9.5891-.1793,13.1429-.85,24.3142-.9,9.6512.1144,15.47.54,24.3115.72,8.2482-.1148,10.8462-.7954,19.896-.36,4.6051-.1053,7.1515-.3794,11.0548-.54,17.7481.2481,33.2372-.0976,48.6368.54,15.8736-.6114,38.7931.1333,57.4754.36,13.7178-.5632,35.34-.4819,53.055-.72,33.1233.5523,60.4151.1538,101.6835,0,13.0947-.4336,33.1505-.3,46.4238-.72,26.362.1581,35.8862-.1451,59.6806,0,2.9037-.1832,8.1478-.1766,11.0521-.36Z"/><text class="cls-3" transform="translate(136.4233 293.177)">ngModules</text><text class="cls-4" transform="translate(298.6947 293.2394)">Services</text><text class="cls-8" transform="translate(453.5295 292.6857)">Intention</text><text class="cls-3" transform="translate(145.1184 57.45)">imports</text><path class="cls-6" d="M272.514,36.9158a115.237,115.237,0,0,1-14.2591,9.8262c-4.9964,2.9194-10.1765,5.529-15.4389,7.9675-10.5446,4.837-21.3991,9.0663-32.1506,13.5211l-59.86,24.5222L148.6123,87.4l-8.049,10.4046,13.0354,1.7677-2.1923-5.3518,59.86-24.5223c10.75-4.4547,21.5974-8.6795,32.2144-13.5488,5.2959-2.4542,10.5221-5.086,15.576-8.0393a116.8131,116.8131,0,0,0,14.4623-9.9675Z"/><path class="cls-6" d="M368.9332,42.6089A321.3083,321.3083,0,0,1,422.076,66.877q12.7026,7.25,24.7337,15.6019c4.014,2.7679,7.9473,5.6517,11.8327,8.5965,1.9227,1.4989,3.88,2.9534,5.7743,4.4884l2.3936,1.9354-3.6425,4.4933c4.3022.6068,8.54,1.4073,12.8837,2.195-1.47-4.0992-2.9446-8.3075-4.6-12.4132l-3.6421,4.4926-2.4049-1.9445c-1.9031-1.5421-3.87-3.0038-5.8014-4.51-3.9038-2.9588-7.8557-5.8561-11.8888-8.6372q-12.0743-8.3778-24.852-15.6766a322.8881,322.8881,0,0,0-53.406-24.388Z"/><text class="cls-3" transform="translate(420.9551 55.3878)">imports</text><path class="cls-5" d="M256.2451,246.4405c-1.113-1.8611-.79-14.4944-1.3841-20.251l.0438-15.6908,0-.1182.1182-.0018,6.3895-.0961c3.9281-.17,3.5132.29,3.6913.6653a30.5351,30.5351,0,0,1,9.2009-.3787c4.8863-.0715,10.507-.2487,12.8841.0466,4.9517-.6283,17.7452-.3528,25.759-.6277,15.3674-.7415,34.853-1.1585,53.8635-1.4989,4.7537-.0819,9.4777-.1632,14.1-.243a10.3631,10.3631,0,0,1,3.5331.4224,3.7158,3.7158,0,0,1,1.5627,1.032,4.0133,4.0133,0,0,1,.8343,1.65c.2819,1.1695.3459,2.2546.5139,3.3614q.19,1.654.3769,3.2781a182.2156,182.2156,0,0,1,.9258,23.4668c-.1406,1.51-.2444,2.8554-.3368,4.1177l-.0339.4641-.4566-.0136a104.9828,104.9828,0,0,1-10.5974-.5715c-5.3856-.1725-5.6627.4286-11.0484.2613-4.9917-.2492-14.6073.0385-16.5557-.5335-8.2449.3064-25.6361.6472-34.9562.2028-2.57.8381-6.8095.0091-11.0332.5484q-8.2677.0932-16.536.3044c-9.6122.354-21.3733,1.9512-31.16,1.9378-2.8839-.2478,1.2862-1.5253,9.0925-1.7647,3.8128-.6,12.1871-.7626,16.5148-1.2016,12.0243-1.0077,22.6409-.7217,33.1193-1.2637,10.9075.0156,22.9153-.2213,34.9817-.2026,11.0389.0144,22.3938.11,34.969.4168.9644.0684,2.0549.1228,3.2426.17l-1.2351,1.1343c.4764-5.1334.4314-11.7489.6652-15.0516-.705-2.6693-.4517-6.8012-.9-10.9407-.1288-1.2-.294-2.4415-.4959-3.7769-.1029-.6671-.21-1.3587-.321-2.0814a12.6675,12.6675,0,0,0-.4047-2.0343,1.9089,1.9089,0,0,0-.9481-1.17,5.56,5.56,0,0,0-2.1674-.4813c-.8857-.06-1.9415-.0415-3.0435-.0668l-3.4875-.0932c-16.1244.4808-31.24,1.1749-44.1632.9045-10.4621,1.1222-20.2348.8531-36.7921,1.2731-11.438-.0342-23.8884.185-39.524-.0306l1.3936-1.4108c-.0277.76-.0649,1.7779-.1025,2.8087C256.5487,224.0365,257.649,239.1912,256.2451,246.4405Z"/><text class="cls-4" transform="translate(264.7654 232.6573)">Core Service</text><polygon class="cls-6" points="319.819 137.739 319.819 198.19 314.035 198.19 320.612 209.582 327.189 198.19 321.406 198.19 321.406 137.739 319.819 137.739"/><text class="cls-3" transform="translate(327.2087 168.944)">providers</text><path class="cls-9" d="M138.005,232.7825q27.7982-2.45,55.7368-2.5465,13.9527-.0486,27.8993.4912c4.6477.1774,9.2927.4155,13.9357.6869l6.9616.4536,2.95.2233-.4344,5.7678c3.9149-1.9211,7.861-3.7579,11.847-5.6148-3.5808-2.5091-7.1976-5.0452-10.859-7.5021l-.4345,5.767-2.9565-.2236-6.9785-.4548c-4.6542-.272-9.31-.5108-13.9692-.6885q-13.9761-.5409-27.9665-.4924-27.9726.0971-55.8712,2.5527Z"/><text class="cls-8" transform="translate(157.5205 248.3069)">can use</text><polygon class="cls-9" points="480.413 225.275 398.757 225.275 398.757 219.491 387.364 226.068 398.757 232.645 398.757 226.861 480.413 226.861 480.413 225.275"/><text class="cls-8" transform="translate(402.3263 246.4372)">can use</text><path class="cls-10" d="M289.5505,136.3836l63.9958,1.538c-1.0927-10.2284-1.6779-20.59-1.7484-30.9608a446.3579,446.3579,0,0,0-61.7965-3.1351l-.1741,31.6635"/><text class="cls-3" transform="translate(301.2565 125.1793)">Core</text><path class="cls-6" d="M317.1993,60.26q.3274,8.5481.5026,17.101l.1345,8.5532.0549,7.6407-5.7842.0178q3.306,5.6463,6.5433,11.3721,3.34-5.6664,6.6107-11.4125l-5.7834.0178-.055-7.6537-.1348-8.5677q-.1741-8.5669-.5034-17.13Z"/><text class="cls-3" transform="translate(325.128 83.0273)">imports</text></g></g></svg>