<svg xmlns="http://www.w3.org/2000/svg" viewBox="0 0 709.0581 393.1044"><defs><style>.cls-1,.cls-2,.cls-5{fill:#ec5e24;}.cls-1,.cls-11,.cls-4,.cls-6{fill-rule:evenodd;}.cls-10,.cls-13,.cls-2,.cls-3,.cls-7{font-size:22px;font-family:SwankyandMooMoo, Swanky and Moo Moo;}.cls-3,.cls-4{fill:#65bc46;}.cls-13,.cls-6{fill:#231f20;}.cls-7,.cls-8{fill:#3e479d;}.cls-9{fill:none;stroke:#ec5e24;stroke-miterlimit:10;}.cls-10,.cls-11,.cls-12{fill:#232532;}</style></defs><title>ngmodules-core-lazy-solution-2</title><g id="Layer_2" data-name="Layer 2"><path class="cls-1" d="M34.8279,198.772c-.7634-.8065-.499-11.8812-1.0427-16.6055q-.0055-9.61-.011-19.2286a16.0976,16.0976,0,0,1,.0308-2.1072l.0107-.0973.0787.0079c1.1418.1161.9889.422,1.095.69a23.0968,23.0968,0,0,1,7.9972-.24,108.8161,108.8161,0,0,1,11.191.24c4.31-.5537,15.4188-.0859,22.3837-.24,18.2441-.6969,43.1528-.6733,64.34-.736l.3746-.0012.0011.377c.0292,10.1768.0769,19.37.224,26.793-.2686,4.6481.05,7.5022-.3987,12.0818l-.0216.2217-.1794-.0205-.7087-.0809c-4.68-.0645-4.933.5419-9.6335.4781-4.3352-.1476-12.7924.2947-14.41-.2443-7.2253.4506-22.6693.9-30.6442.4171-2.5944.7615-5.9471-.0386-9.8735.4l-14.51-.0732c-8.459.0732-19.6007.7842-27.7146.1815-2.19-.3293,2.2134-.996,8.8627-.8308,3.5948-.278,10.7512-.1024,14.7144-.351,10.8064-.5122,19.7938-.1749,29.0884-.65,9.4246.025,19.91-.3252,30.3253-.5118,7.7535-.1366,15.6588-.2622,24.5043-.27l-1.3336,1.3336c.0038-1.6318.0085-3.64.0133-5.686.2706-4.5966.049-12.4691.4806-15.9918-.6378-2.3517-.1895-5.9586-.24-9.5922-.0629-2.2067-.1306-4.5851-.2166-7.6047l1.2965,1.2965c-2.6857.046-5.9139.0216-9.9792-.2166-14.0126.2383-27.1514.7051-38.3739.24-9.1025.9647-17.588.5487-31.9758.72l-26.6776-.4023,1.6375-1.6376c-.0762,2.7938-.1855,6.2039-.3425,9.8372.0981,4.5227.3649,9.8367.3761,14.8135A91.9861,91.9861,0,0,1,34.8279,198.772Z"/><text class="cls-2" transform="translate(41.9919 185.1456)">Feature A</text><path class="cls-1" d="M370.1692,138.7234c-.79,2.4343-.8137-6.944-.822-13.5348-.0371-7.9962-.1874-13.2775-.0886-20.5364-.0442-1.7288-.0874-3.4149-.1322-5.1648l.0126.0126c-3.127.0769-6.4255.1349-10.4174.1074-3.0616-.0576-3.801.1709-5.835.24-1.7478.0151-2.0554-.147-3.8938-.12-3.0774.3813-12.2993.0029-14.5955.48-3.9274-.3613-7.3135-.0513-13.618-.12-11.71-.187-20.2229-.1172-31.1367.3594-4.6923-.0455-10.7-.1727-16.7035-.1168l.8425-.8425c.0177,1.9064.0538,3.8107.1169,5.6726-.2031,3.3264-.2061,13.7813-.3594,20.433.16,4.1823.33,8.6473.4877,12.7692l-1.0878-1.0876c2.3724-.1,4.6033-.2125,6.6158-.35,4.1187.0892,6.9272.3441,9.6976.605,11.229-.182,20.9478-.1063,31.103.5,12.5049-.1,23.0135-.2611,34.4086-.599,6.4954.05,11.9722-.2095,13.9506.5078-.84-.0182-.8806.0309-.8862.0829,1.2264.3372-5.06.0525-5.579.2523-3.4379-.0752-3.6221.1332-6.7295.0891-3.8794.145-8.2461.261-13.4283.303q-4.8541.2-10.5624.3359c-9.97-.0629-18.7534-.2877-27.5486-.5223-4.1931.1163-5.6744.5562-10.6178.5947-4.286-.0712-6.89-.3528-10.7961-.4717-3.6273.0768-4.7665.5306-8.7714.24l-.8563.04-.49.0231-.03-.5433c-.0851-1.5359-.2294-2.561-.32-4.0122.1655-7.8115-.0649-14.6289.36-21.4069-.2233-3.8258-.1754-8.5817-.0615-13.4557l.0129-.5551.5286.0134,11.8413.3013c6.0376-.3755,15.5543-.3213,23.3514-.48,14.5789.3682,26.5909.1025,44.7548,0,4.5206-.2267,10.9263-.2206,16.2523-.3427l1.04-.0238.0236,1.0868c.0336,1.5516.0756,2.9808.1335,4.2743-.1317,11.84.0067,16.225-.2219,26.8741.0806,1.3756.04,3.7284.109,5.1123C370.2048,136.74,370.1869,137.7347,370.1692,138.7234Z"/><text class="cls-2" transform="translate(306.138 122.4028)">App</text><path class="cls-1" d="M585.99,198.4348c3.5494.91-6.6232,1.5586-13.87,1.57-8.7269.0892-14.52.0094-22.5159-.4-5.3646-.1028-10.353-.2053-17.1638-.5886-3.37-.2245-4.1953-.0319-6.4385-.0718-1.9255-.08-2.2573-.2476-4.2838-.3073-3.4028.1937-13.5524-.453-16.0884.0148-4.321-.4034-8.0531-.1079-14.9877.0194-2.6128.0721-5.0806.1781-7.4485.282l-6.8342.5321-.5646.0439.007-.56c.0823-6.6252-.0057-12.84-.387-19.9772-.0193-4.9016-.0634-11.1145-.2756-17.397l-.0283-.8383.8466-.02c2.4327-.0586,4.8811-.1423,7.2661-.2579,3.6732.1385,15.2075-.0087,22.547.12,7.2264-.3145,15.2424-.478,21.4713-.8237,4.5919.1138,7.6963.4038,10.733.6968,12.4943-.0387,23.3788.2378,34.3295,1.1964l15.7542.3309.5378.0114.0012.5562c.0166,7.7218-.5525,15.1016-.9073,22.9166-.681,7.1587-.4521,13.52-1.4548,14.8986.0421-.908-.025-1.0073-.0968-1.0718-.2391.49-.2532-.9226-.176-2.5546a32.585,32.585,0,0,0,.0886-3.8774c.3358-3.708.1077-4.1278.4432-7.4966.18-4.41.5419-9.2915.8654-14.9965.0475-2.4272.0872-4.9769.0566-7.834l.5972.6285-3.9457-.0433-30.0131-1.4456c-4.6562.0333-6.3882.4386-11.8087.3986-4.6815-.1469-7.5022-.4525-11.7925-.6116-4.0042.0487-5.2667.49-9.6573.1877-2.2351.0609-3.4711.2421-5.365.3513-8.6125-.1655-16.1259.1115-23.603-.2195-4.4795.2886-10.119.312-15.8433.2943l.5084-.5337c.01,4.1088.019,8.2639.0278,12.0552.535,6.5538.522,16.8595.5031,25.3774l-.7809-.7222.3914-.0378c8.05-.5569,15.3928-.7791,23.2308-.8617,7.838-.0707,16.1726.0776,26.1864.4968,6.3688.0009,16.0864.6228,22.5277.6134,6.382.3354,10.7266.4387,14.9141.4917,2.0942.0464,4.1479.0343,6.3979.0388,2.2509.0253,4.6952-.009,7.5713-.0393,1.4021-.1252,3.9338-.2139,5.33-.4036Z"/><text class="cls-2" transform="translate(484.8755 186.5357)">Feature B</text><text class="cls-3" transform="translate(47.9638 313.1598)">Service A</text><path class="cls-4" d="M138.9029,289.1345c-.8035.5272-3.8037.5619-7.1991.5707l-5.1654.0513c-1.67.0442-3.2126.1284-4.4.2634-6.0645-.0677-12.1337-.0109-18.202.1052-3.2374.1694-2.899-.2908-3.049-.6655a20.8539,20.8539,0,0,1-7.584.4055,94.443,94.443,0,0,1-10.6216-.0208c-4.08.6328-14.6241.274-21.2247.26a207.3413,207.3413,0,0,1-23.3055-.8345l.201-.1837c.1672,6.1223.2522,12.4868.209,18.8163-.0415,6.3293-.19,12.62-.32,18.6019l-.3661-.3839c9.7838.19,18.6259.2477,25.7491.1436,4.65.3082,7.4084-.0571,12.1353.507,4.4426.0438,4.6584-.5492,9.0995-.5247,4.1194.13,12.0333-.4379,13.6552.0776,6.7847-.5433,21.1-1.4158,28.7964-1.2144,2.0906-.9166,5.6127-.1743,9.0767-.8245l2.3678-.0951-1.2635,1.3337-.1344-11.2814c-.2058-7.9324-1.4023-17.6989-.7878-25.7893.4163-2.3673,1.4277,1.1316,1.2905,7.5729.4166,3.1631.286,10.0715.6422,13.6475.4139,5.5941.4978,10.8138.6022,15.8312l.0059.2825-.287.0143c-3.9149.1952-7.7006.3922-11.4623.7467-8.989.2747-18.8754.8837-28.823,1.2151-9.1.3044-18.4679.524-28.85.4464-4.365-.2816-11.8442-.1089-15.1844-.59-2.2413.614-5.6615.1166-9.1121.1058-2.1711-.0024-4.517.0857-7.5541.0712l-1.2839-.0062.012-1.3279c.0223-2.46.1293-5.432.4385-9.1316.06-10.0342-.2618-19.5667-.3451-28.2187l-.0161-1.68,1.6864.1536c2.7915.2542,5.4706.6268,8.058.8846,8.63-.3777,16.5942.3,30.2156.0189,10.02.132,21.0089-.3093,34.9032.089,4.4266-.1746,9.7788-.4948,14.7826-.5541,2.5024.01,4.9155.0383,7.074.2169A31.25,31.25,0,0,1,138.9029,289.1345Z"/><path class="cls-4" d="M481.3106,322.0262c-1.1149-1.5289-.8044-11.908-1.4047-16.6373q.02-9.0672.0391-18.1414c-.0149-.4623-.0184-.8514-.0125-1.1622l.0027-.1345.13,0c1.9774-.0063,1.7479.3779,1.8756.6992a20.68,20.68,0,0,1,7.5568-.3873,97.3286,97.3286,0,0,1,10.5861.0343c4.064-.6329,14.5771-.37,21.1594-.6521,12.6207-.756,28.6273-1.1917,44.244-1.55l11.5812-.2579a7.275,7.275,0,0,1,2.9388.374,3.04,3.04,0,0,1,1.2532.9529,3.9579,3.9579,0,0,1,.6575,1.3787,18.6894,18.6894,0,0,1,.399,2.7845q.1326,1.3608.2629,2.6968c.6471,7.1284.9037,13.7166.99,19.266-.26,3.8345-.1259,6.3871-.5308,9.8569l-.0411.3531-.3063-.031c-.6647-.0671-1.4241-.1567-2.2423-.2764-4.4237-.1769-4.657.4233-9.0808.2463-4.0991-.2576-12.002.0057-13.5972-.574-6.778.28-21.0634.573-28.7153.1044-2.1124.8356-5.5928-.0205-9.06.524q-6.7881.0692-13.574.2813c-7.8921.3542-17.5079,1.9539-25.5367,1.98-2.3771-.2325,1.0055-1.536,7.4169-1.7913,3.1185-.6085,9.9968-.7935,13.5472-1.22,9.87-1.0094,18.5978-.7,27.2075-1.2141,8.9629.0446,18.832-.1576,28.7471-.104,7.8712.0391,15.9364.1375,24.93.37l-1.3652,1.2655c.0485-1.075.1089-2.4142.17-3.7709.4495-4.3136.1689-11.7172.4391-15.0444-.7172-2.1857-.4489-5.5911-.7792-8.9991-.0907-.9893-.2269-2.011-.37-3.1129a23.1908,23.1908,0,0,0-.5659-3.3134,1.6737,1.6737,0,0,0-.6793-.9387,3.4026,3.4026,0,0,0-1.5706-.38c-.694-.0415-1.5947-.0237-2.49-.0486l-2.8658-.09c-13.2445.4961-25.6584,1.2047-36.2786.9464-8.5878,1.1322-16.6191.8724-30.22,1.3081-7.6914-.0192-15.9388.1322-26.0582.0842l1.5856-1.6133c-.0895,2.472-.2,5.5187-.3157,8.72C481.5915,303.62,482.7072,316.07,481.3106,322.0262Z"/><text class="cls-3" transform="translate(489.8451 308.2421)">Service B</text><polygon class="cls-5" points="530.629 198.416 530.629 273.687 524.845 273.687 531.422 285.08 537.999 273.687 532.215 273.687 532.215 198.416 530.629 198.416"/><text class="cls-2" transform="translate(541.8292 242.3321)">providers</text><polygon class="cls-5" points="87.639 200.868 87.639 276.776 81.855 276.776 88.432 288.169 95.009 276.776 89.225 276.776 89.225 200.868 87.639 200.868"/><text class="cls-2" transform="translate(98.1773 245.0645)">providers</text><path class="cls-6" d="M685.7289,343.8751c7.8252,1.6238-14.9832,1.7805-31.1746,1.8-19.517.1011-32.452.3267-50.3478.18-11.9891.18-23.1315.4241-38.3763.36-7.5459-.0864-9.3682.2563-14.3812.36-4.3076.0227-5.0659-.22-9.5969-.18-7.5845.572-30.3132.0044-35.9725.72-9.6794-.542-18.0251-.0769-33.5637-.1794-28.8617-.2805-49.8423-.1758-76.741.5391-15.2334-.09-36.0936-.3926-55.15,0-8.1984-.3047-33.9657-.3091-50.36-.5391-16.147.408-34.0511.6833-47.9557,1.26-10.2554-.13-17.1935-.509-23.9843-.9-27.9066.2834-52.2134.2358-76.7325-.72-31.0391.1926-57.2355.48-86.3325,1.26-16.0706-.0359-30.4337.6108-33.566-.9,2.0394.033,2.26-.071,2.4005-.1809-2.2152-.7053,12.6444-.13,14.3812-.5391,8.3247.1443,9.2208-.2681,16.7843-.18,9.8527-.2805,20.7838-.48,33.5751-.54q12.236-.3417,26.3733-.5405c24.3158.156,45.6345.5354,67.15.9,10.4021-.1794,14.2572-.85,26.3757-.9,10.4695.1143,16.7817.5405,26.3727.72,8.9476-.115,11.7657-.7954,21.583-.36,4.9955-.1055,7.7578-.3794,11.9921-.54,19.2528.2483,36.0551-.0974,52.76.54,17.2192-.6116,42.0822.1333,62.3484.36,14.8807-.5632,38.3358-.4819,57.5532-.72,35.9316.5522,65.5372.1538,110.3046,0,14.205-.4336,35.9613-.3,50.36-.72,28.5969.1582,38.9286-.145,64.74,0,3.15-.1831,8.8386-.1765,11.989-.36Z"/><text class="cls-2" transform="translate(166.2721 370.793)">ngModules</text><text class="cls-3" transform="translate(321.8911 370.8559)">Services</text><text class="cls-7" transform="translate(456.2433 370.7929)">Intention</text><text class="cls-2" transform="translate(145.0409 136.0348)">imports</text><path class="cls-5" d="M272.4366,115.5024a115.2406,115.2406,0,0,1-14.2592,9.8262c-4.9963,2.9194-10.1765,5.5289-15.4388,7.9674-10.5448,4.837-21.3992,9.0664-32.1508,13.5212l-59.86,24.5222-2.1926-5.3525-8.049,10.4047,13.0354,1.7676-2.1925-5.3518,59.86-24.5221c10.75-4.4547,21.5974-8.68,32.2142-13.549,5.296-2.4541,10.5221-5.0859,15.5762-8.0392A116.8148,116.8148,0,0,0,273.442,116.73Z"/><path class="cls-5" d="M368.8558,121.1954a321.305,321.305,0,0,1,53.1427,24.2682q12.7028,7.25,24.7338,15.6018c4.0139,2.7679,7.9473,5.6517,11.8326,8.5966,1.9227,1.4988,3.88,2.9534,5.7743,4.4884l2.3937,1.9354-3.6425,4.4933c4.3021.6068,8.54,1.4073,12.8835,2.1949-1.47-4.0991-2.9445-8.3074-4.6-12.4132l-3.642,4.4927-2.4049-1.9445c-1.9031-1.5421-3.87-3.0038-5.8015-4.51-3.9037-2.9589-7.8556-5.8562-11.8887-8.6373q-12.0743-8.3776-24.8521-15.6765a322.8955,322.8955,0,0,0-53.406-24.3881Z"/><text class="cls-2" transform="translate(393.7165 124.9727)">loads lazy</text><path class="cls-4" d="M256.1676,325.027c-1.1129-1.861-.79-14.4943-1.384-20.2509l.0437-15.6909,0-.118.118-.0018,6.39-.0961c3.9281-.17,3.5132.29,3.6913.6653a30.5288,30.5288,0,0,1,9.2008-.3787c4.8862-.0715,10.5071-.2488,12.8842.0465,4.9518-.6283,17.7451-.3529,25.759-.6277,15.3674-.7415,34.853-1.1586,53.8634-1.4989l14.1-.2429a10.3576,10.3576,0,0,1,3.533.4224,3.7153,3.7153,0,0,1,1.5629,1.0319,4.0155,4.0155,0,0,1,.8342,1.65c.2819,1.17.3459,2.2546.5139,3.3615q.19,1.6542.3768,3.2782a182.1974,182.1974,0,0,1,.9258,23.4668c-.1405,1.51-.2444,2.8555-.3367,4.1176l-.0341.4642-.4565-.0137a104.9831,104.9831,0,0,1-10.5973-.5714c-5.3857-.1725-5.6628.4285-11.0485.2614-4.9917-.2493-14.6073.0383-16.5558-.5336-8.2448.3063-25.636.6471-34.9561.2029-2.5706.8379-6.81.009-11.0333.5483q-8.2676.0932-16.536.3044c-9.6121.354-21.3732,1.9512-31.16,1.9377-2.8839-.2478,1.2863-1.5254,9.0925-1.7646,3.8127-.6,12.187-.7626,16.5149-1.2018,12.0243-1.0076,22.6407-.7216,33.1191-1.2635,10.9076.0155,22.9154-.2213,34.9818-.2026,11.0389.0143,22.3937.11,34.969.4169.9645.0684,2.0549.1228,3.2426.17l-1.235,1.1344c.4763-5.1335.4314-11.749.6652-15.0518-.705-2.6692-.4517-6.801-.9-10.9406-.1287-1.2-.2938-2.4417-.4958-3.7769-.1029-.6671-.2095-1.3588-.321-2.0814a12.6581,12.6581,0,0,0-.4047-2.0344,1.9085,1.9085,0,0,0-.948-1.17,5.5612,5.5612,0,0,0-2.1674-.4813c-.8857-.06-1.9415-.0415-3.0437-.0669l-3.4873-.0933c-16.1244.4808-31.24,1.175-44.1632.9045-10.4622,1.1223-20.235.8533-36.7921,1.2732-11.438-.0342-23.8885.1851-39.524-.0306l1.3937-1.4109c-.0278.76-.0649,1.778-.1025,2.8088C256.4713,302.6232,257.5715,317.7777,256.1676,325.027Z"/><text class="cls-3" transform="translate(264.6878 311.2421)">Core Service</text><polygon class="cls-5" points="319.742 227.667 319.742 276.776 313.958 276.776 320.535 288.169 327.112 276.776 321.328 276.776 321.328 227.667 319.742 227.667"/><text class="cls-2" transform="translate(327.1312 257.5289)">providers</text><path class="cls-8" d="M137.9276,311.3691q27.7982-2.45,55.7368-2.5466,13.9526-.0483,27.8992.4913c4.6477.1774,9.2927.4155,13.9358.6868l6.9617.4537,2.9495.2231-.4344,5.7679c3.9149-1.9211,7.8611-3.7579,11.847-5.6147-3.5809-2.5092-7.1978-5.0453-10.859-7.5022l-.4344,5.7671-2.9565-.2238-6.9785-.4547c-4.6542-.272-9.31-.5107-13.9692-.6885q-13.9761-.5411-27.9666-.4924-27.9725.097-55.8711,2.5527Z"/><text class="cls-7" transform="translate(157.443 326.8916)">can use</text><polygon class="cls-8" points="480.336 303.862 398.679 303.862 398.679 298.078 387.287 304.654 398.679 311.232 398.679 305.448 480.336 305.448 480.336 303.862"/><text class="cls-7" transform="translate(402.2487 325.0221)">can use</text><path class="cls-9" d="M289.4731,226.97l63.9958,1.5379c-1.0928-10.2284-1.6779-20.59-1.7485-30.9608a446.3351,446.3351,0,0,0-61.7965-3.1351l-.1741,31.6634"/><text class="cls-2" transform="translate(301.179 215.7642)">Core</text><text class="cls-10" transform="translate(259.7252 42.459)">Root Injector</text><path class="cls-11" d="M384.9829,19.6637c-.98.526-4.703.5848-8.92.5858-4.2181.0483-8.9319.0164-11.8838.3151-7.5391-.0925-15.0836-.03-22.6277.0481-4.0258.1655-3.6-.2943-3.7817-.67a32.4972,32.4972,0,0,1-9.4312.3845c-5.0078.0779-10.7682.2739-13.2037-.0269-5.0753.646-18.1835.325-26.3943.4083-11.1514.2933-24.4347.1383-38.0942-.8362l.2749-.2593c.1674,6.2823.2483,12.6582.1711,18.954-.0736,6.2958-.2737,12.507-.4561,18.47l-.3682-.3871c12.1533.1753,23.1354.2356,31.9844.1307,5.7815.31,9.2107-.0452,15.0856.5192,5.5222.0692,5.7925-.552,11.3137-.5006,5.12.131,14.9635-.4032,16.9747.1189,8.4379-.5205,26.25-1.3311,35.8141-1.0789,2.6176-.9043,6.98-.1389,11.3005-.7665l12.1248-.3536-1.2775,1.3395-.0768-4.8357c-.2681-9.8591-1.5411-21.9972-.99-32.0537.3977-2.943,1.4366,1.4049,1.35,9.4113.4415,3.9312.365,12.5181.7491,16.9624.2385,3.6212.3866,7.1163.4938,10.4915l.0063.2-.2067.01c-8.2114.381-15.8622.498-23.44,1.0338-11.1749.2172-23.4692.7822-35.8326,1.0792-11.3107.272-22.9507.4677-35.85.3732-5.4241-.2811-14.7169-.1177-18.87-.5961-2.7816.6165-7.0341.1149-11.3221.1116-2.6917-.0037-5.5988.09-9.3589.08l-1.3057-.0037.027-1.3411c.0619-3.0646.2207-6.7637.572-11.371.1278-9.0577-.1019-17.7832-.3535-25.9614l-.05-1.6194,1.6542.1068,19.1469,1.236c10.7317-.5908,20.6923-.0585,37.6466-.4093,12.4717.09,26.1431-.3093,43.394.125,2.751-.0659,5.7869-.183,8.91-.3015,3.1249-.0826,6.3372-.1953,9.44-.207C375.5266,18.54,381.2907,18.8279,384.9829,19.6637Z"/><polygon class="cls-12" points="318.124 57.401 317.262 88.319 311.48 88.157 317.736 99.729 324.629 88.524 318.848 88.363 319.71 57.445 318.124 57.401"/><text class="cls-13" transform="translate(323.711 78.4161)">uses providers</text><text class="cls-10" transform="translate(509.0397 115.7515)">Lazy Injector</text><path class="cls-11" d="M635.3394,93.1c-.98.526-4.7031.5848-8.92.5858-4.2181.0483-8.932.0164-11.8839.3151-7.5389-.0925-15.0835-.03-22.6276.0481-4.0259.1655-3.6-.2943-3.7817-.67a32.4977,32.4977,0,0,1-9.4312.3845c-5.0078.0779-10.7683.2739-13.2037-.0269-5.0753.646-18.1835.325-26.3943.4083-11.1514.2933-24.4347.1383-38.0944-.8362l.275-.2593c.1672,6.2823.2482,12.6582.1711,18.954-.0737,6.2958-.2737,12.507-.4562,18.47l-.368-.3871c12.1532.1753,23.1353.2356,31.9843.1307,5.7816.31,9.2107-.0452,15.0857.5192,5.5221.0692,5.7925-.552,11.3136-.5006,5.12.131,14.9636-.4032,16.9747.1189,8.438-.5205,26.25-1.3311,35.8141-1.0789,2.6177-.9043,6.98-.1389,11.3007-.7665l12.1246-.3538-1.2773,1.34-.0769-4.8357c-.2679-9.8593-1.5411-21.9972-.99-32.0537.3977-2.943,1.4366,1.4049,1.35,9.4113.4414,3.9312.365,12.5181.7491,16.9624.2384,3.6211.3866,7.1163.4937,10.4915l.0063.2-.2067.01c-8.2114.381-15.8621.498-23.44,1.0338-11.1748.2172-23.4692.7822-35.8326,1.0792-11.3105.272-22.9506.4677-35.85.3732-5.424-.2811-14.7169-.1177-18.87-.5961-2.7816.6165-7.0339.1149-11.322.1116-2.6918-.0037-5.5988.09-9.359.08l-1.3057-.0037.0271-1.3411c.0618-3.0646.2206-6.7637.572-11.371.1278-9.0577-.1021-17.7832-.3536-25.9614l-.05-1.6194,1.6542.1068,19.147,1.236c10.7316-.5908,20.6921-.0585,37.6465-.4093,12.4718.09,26.1431-.3094,43.394.125,2.7511-.0659,5.7869-.183,8.91-.3015,3.1249-.0826,6.3373-.1953,9.44-.207C625.8831,91.9761,631.6472,92.2639,635.3394,93.1Z"/><path class="cls-12" d="M536.895,132.6825q-.343,4.2966-1.0018,8.56c-.2235,1.4193-.4674,2.8356-.7445,4.2455l-.4323,2.1113-.4182,1.874-5.6344-1.3079a102.8266,102.8266,0,0,1,3.2858,12.4386,109.25,109.25,0,0,0,9.5277-9.4645l-5.6337-1.3076.424-1.9.4384-2.1409c.2809-1.43.5283-2.8656.7549-4.3047q.6674-4.3195,1.0157-8.68Z"/><path class="cls-12" d="M565.8847,91.7539l-43.76-16.0695c-14.59-5.3445-29.1564-10.7577-43.808-15.9626-14.6549-5.1891-29.4017-10.1592-44.3538-14.4769-7.4731-2.1638-14.99-4.1891-22.57-5.9645-3.7784-.9347-7.5936-1.7131-11.3949-2.55l-4.5579-.8905,1.0978-5.6791c-4.2023,1.3728-8.3788,2.9487-12.4624,4.4541,3.3954,2.825,6.7284,5.5543,9.9659,8.4608l1.0977-5.6782,4.538.8865c3.786.8341,7.5851,1.609,11.35,2.54,7.5505,1.7686,15.0428,3.7871,22.4945,5.9447,14.9087,4.3052,29.6267,9.2651,44.2648,14.4484,14.6337,5.1985,29.2,10.6118,43.7914,15.9565l43.76,16.0695Z"/><text class="cls-13" transform="translate(450.0748 46.3068)">inherits instances</text><text class="cls-13" transform="translate(546.4601 147.6729)">uses providers</text><path class="cls-5" d="M317.9918,138.3993q.35,11.5893.5272,23.1829l.13,11.5939.0391,10.1935-5.7842.0026,6.5394,11.3893,6.6146-11.3953-5.7834.0027-.0392-10.2043-.13-11.6061q-.1712-11.6056-.5277-23.2075Z"/><text class="cls-2" transform="translate(325.9201 155.1729)">imports<tspan x="0" y="18">forRoot</tspan></text><path class="cls-5" d="M141.3385,183.99l35.2351,8.9413c11.7434,2.9836,23.4968,5.962,35.3181,8.6815,11.8208,2.7172,23.7255,5.12,35.7245,6.99,6.0083.8734,12.0256,1.7128,18.078,2.2548,3.02.3295,6.0541.5083,9.0836.736.7571.0626,1.5157.1,2.275.13l1.0869.0494.3589.0162-.28,5.7775c3.9957-1.9673,7.9061-4.125,11.7053-6.2567-3.7948-2.2532-7.48-4.4792-11.0686-6.882l-.28,5.7767-.3567-.0162-1.08-.049c-.7543-.0306-1.5084-.0674-2.2611-.13-3.0118-.2266-6.0276-.4039-9.0316-.7318-6.0186-.5388-12.0079-1.3744-17.9893-2.2438-11.948-1.8622-23.8141-4.2567-35.61-6.9683-11.7971-2.7139-23.5378-5.689-35.2823-8.6729l-35.2352-8.9414Z"/><path class="cls-5" d="M476.2451,189.552c-10.0255.8474-19.647,3.7252-29.19,6.3265-4.7756,1.3151-9.5829,2.4744-14.4091,3.575-4.8372,1.0471-9.686,2.0472-14.5649,2.8954-9.7476,1.75-19.5668,3.1056-29.41,4.2687-4.9213.585-9.8507,1.11-14.7837,1.61l-10.5125,1.0238-.5421-5.7588-10.7275,7.5967,11.9606,5.5-.5421-5.7581,10.5232-1.0248c4.94-.5,9.8777-1.0267,14.81-1.6129,9.8649-1.1658,19.7146-2.5253,29.5022-4.2825,4.8982-.8517,9.77-1.8562,14.6307-2.9086,4.8481-1.1053,9.69-2.2732,14.4816-3.5929,9.5693-2.6117,19.0992-5.45,28.905-6.2762Z"/><text class="cls-2" transform="translate(386.9862 222.5405)">imports</text><text class="cls-2" transform="translate(184.7877 190.3412)">imports</text></g></svg>