<svg xmlns="http://www.w3.org/2000/svg" viewBox="0 0 709.0581 406.4775"><defs><style>.cls-1,.cls-2,.cls-5{fill:#ec5e24;}.cls-1,.cls-11,.cls-4,.cls-6{fill-rule:evenodd;}.cls-10,.cls-13,.cls-2,.cls-3,.cls-7{font-size:22px;font-family:SwankyandMooMoo, Swanky and Moo Moo;}.cls-3,.cls-4{fill:#65bc46;}.cls-13,.cls-6{fill:#231f20;}.cls-7,.cls-8{fill:#3e479d;}.cls-9{fill:none;stroke:#ec5e24;stroke-miterlimit:10;}.cls-10,.cls-11,.cls-12{fill:#232532;}</style></defs><title>ngmodules-core-lazy-solution-1</title><g id="Layer_2" data-name="Layer 2"><path class="cls-1" d="M36.1172,202.2731c-.7634-.8065-.499-11.8812-1.0427-16.6053q-.0055-9.6107-.011-19.2288a16.0976,16.0976,0,0,1,.0308-2.1072l.0107-.0973.0786.0079c1.142.1161.989.4221,1.0951.69a23.0968,23.0968,0,0,1,7.9972-.24,108.8514,108.8514,0,0,1,11.191.24c4.31-.5537,15.4188-.0858,22.3837-.24,18.2441-.6968,43.1528-.6732,64.34-.736l.3746-.0011.0011.3768c.0292,10.1768.0769,19.37.224,26.793-.2686,4.6481.05,7.5022-.3987,12.0819l-.0217.2216-.1793-.0205-.7087-.0808c-4.68-.0646-4.933.5417-9.6335.478-4.3352-.1476-12.7924.2947-14.41-.2443-7.2252.4507-22.6692.9-30.644.4171-2.5944.7615-5.9471-.0386-9.8737.4l-14.51-.0731c-8.459.0731-19.6007.7841-27.7146.1814-2.19-.3292,2.2133-.996,8.8627-.8308,3.5948-.278,10.7512-.1024,14.7144-.3508,10.8064-.5122,19.7938-.175,29.0884-.65,9.4246.025,19.91-.3252,30.3253-.5118,7.7535-.1365,15.6588-.2621,24.5043-.27l-1.3337,1.3337c.0039-1.6318.0087-3.64.0134-5.6862.2706-4.5964.049-12.4691.48-15.9917-.6377-2.3518-.1893-5.9587-.24-9.5922-.0629-2.2068-.1306-4.5852-.2166-7.6049l1.2965,1.2965c-2.6857.046-5.9139.0216-9.9792-.2166-14.0126.2383-27.1514.7051-38.3739.24-9.1025.9647-17.588.5488-31.9758.72l-26.6777-.4025,1.6376-1.6376c-.0762,2.7938-.1855,6.204-.3425,9.8372.098,4.5227.3649,9.8367.3761,14.8135A92.0036,92.0036,0,0,1,36.1172,202.2731Z"/><text class="cls-2" transform="translate(43.2811 188.6458)">Feature A</text><path class="cls-1" d="M371.4585,142.2245c-.79,2.4343-.8137-6.944-.822-13.5348-.0371-7.9962-.1874-13.2775-.0886-20.5364-.0442-1.7288-.0874-3.4148-.1322-5.1648l.0126.0126c-3.127.0769-6.4255.1349-10.4174.1075-3.0616-.0576-3.801.1709-5.835.24-1.7478.0151-2.0555-.1471-3.8939-.12-3.0773.3813-12.2992.0031-14.5953.48-3.9274-.3613-7.3135-.0513-13.618-.12-11.71-.1871-20.2229-.1172-31.1367.3594-4.6923-.0457-10.7-.1729-16.7035-.1169l.8425-.8425c.0177,1.9064.0538,3.8108.1169,5.6727-.2031,3.3263-.2061,13.7811-.3594,20.4329.16,4.1823.33,8.6473.4877,12.7693l-1.0878-1.0878c2.3723-.1,4.6033-.2125,6.6158-.35,4.1187.0892,6.9272.3441,9.6976.6051,11.229-.1821,20.9478-.1064,31.1029.5,12.505-.1,23.0137-.2611,34.4087-.5991,6.4952.05,11.9722-.2095,13.9506.5078-.84-.0182-.8807.0309-.8864.0829,1.2266.3372-5.06.0525-5.5789.2523-3.4379-.0752-3.6221.1332-6.7295.0891-3.8794.145-8.2462.261-13.4283.303q-4.8541.2-10.5624.3359c-9.97-.0629-18.7534-.2877-27.5486-.5223-4.1931.1163-5.6744.5562-10.6178.5947-4.286-.0712-6.89-.3528-10.7961-.4717-3.6273.0768-4.7665.5308-8.7714.24l-.8563.04-.49.0229-.03-.5432c-.085-1.536-.2294-2.561-.32-4.0122.1654-7.8116-.0649-14.6289.36-21.407-.2233-3.8258-.1754-8.5817-.0616-13.4557l.0131-.5551.5286.0134,11.8412.3014c6.0377-.3755,15.5543-.3213,23.3516-.48,14.5789.3683,26.5909.1027,44.7548,0,4.5206-.2267,10.9263-.2206,16.2523-.3427l1.04-.0238.0236,1.0868c.0334,1.5516.0756,2.9808.1335,4.2743-.1317,11.84.0067,16.225-.2219,26.8741.0806,1.3756.04,3.7284.109,5.1123C371.4941,140.2414,371.4762,141.2359,371.4585,142.2245Z"/><text class="cls-2" transform="translate(307.4272 125.904)">App</text><path class="cls-1" d="M587.2792,201.9361c3.5494.91-6.6232,1.5585-13.87,1.57-8.7271.0891-14.52.0094-22.5159-.4-5.3646-.1028-10.353-.2054-17.1638-.5886-3.37-.2245-4.1953-.032-6.4385-.0719-1.9255-.08-2.2573-.2476-4.2838-.3073-3.4028.1937-13.5524-.453-16.0884.0148-4.321-.4033-8.0531-.1079-14.9877.02-2.6129.072-5.0806.178-7.4485.282l-6.8342.532-.5646.0439.007-.56c.0823-6.6252-.0057-12.84-.387-19.9772-.0194-4.9015-.0634-11.1145-.2756-17.397l-.0283-.8381.8464-.0205c2.4327-.0586,4.8812-.1423,7.2662-.2579,3.6732.1387,15.2075-.0087,22.5469.12,7.2266-.3146,15.2424-.4781,21.4714-.8237,4.5919.1138,7.6962.4037,10.733.6968,12.4943-.0387,23.3788.2377,34.3295,1.1963l15.754.3311.538.0112.0012.5562c.0166,7.7218-.5525,15.1016-.9073,22.9166-.681,7.1587-.4521,13.52-1.4548,14.8986.0421-.9078-.025-1.0073-.0968-1.0717-.2391.49-.2532-.9226-.176-2.5547a32.5832,32.5832,0,0,0,.0886-3.8773c.3358-3.7081.1077-4.1279.4432-7.4967.18-4.41.5419-9.2915.8654-14.9965.0475-2.4271.0872-4.9769.0566-7.834l.5972.6287-3.9457-.0435-30.0131-1.4456c-4.6562.0334-6.3882.4386-11.8088.3986-4.6814-.1469-7.5022-.4524-11.7924-.6115-4.0042.0486-5.2667.49-9.6573.1876-2.2351.0609-3.4711.2422-5.365.3513-8.6125-.1655-16.1259.1115-23.603-.2194-4.4795.2886-10.119.312-15.8434.2943l.5085-.5337c.01,4.1086.019,8.2638.0277,12.0551.5352,6.554.5221,16.8595.5032,25.3774l-.7809-.7222.3914-.0378c8.05-.5568,15.3928-.7791,23.2308-.8617,7.838-.0706,16.1726.0776,26.1864.4968,6.3688.0009,16.0864.6229,22.5276.6135,6.3821.3353,10.7267.4386,14.9142.4916,2.0942.0464,4.1479.0343,6.3979.0388,2.2509.0254,4.6952-.0089,7.5713-.0393,1.4021-.1252,3.9338-.2139,5.33-.4036Z"/><text class="cls-2" transform="translate(486.1646 190.036)">Feature B</text><text class="cls-3" transform="translate(49.253 316.6612)">Service A</text><path class="cls-4" d="M140.1921,292.6358c-.8033.5271-3.8036.5618-7.199.5706l-5.1654.0514c-1.67.0441-3.2128.1284-4.4.2633-6.0645-.0677-12.1337-.0109-18.202.1053-3.2374.1693-2.899-.2909-3.049-.6656a20.8539,20.8539,0,0,1-7.584.4055,94.4484,94.4484,0,0,1-10.6216-.0206c-4.08.6327-14.6241.2739-21.2247.2594a207.3444,207.3444,0,0,1-23.3057-.8345l.2012-.1837c.1672,6.1224.2522,12.4868.209,18.8163-.0415,6.3295-.19,12.62-.32,18.6019l-.366-.3839c9.7838.19,18.6259.2477,25.7491.1436,4.65.3083,7.4084-.0571,12.1353.507,4.4426.0438,4.6584-.5492,9.0995-.5247,4.1194.13,12.0333-.4379,13.6552.0776,6.7847-.5433,21.1-1.4158,28.7964-1.2144,2.0906-.9166,5.6127-.1743,9.0767-.8245l2.3678-.0951-1.2635,1.3337-.1344-11.2814c-.2058-7.9324-1.4023-17.6989-.7878-25.7892.4163-2.3674,1.4277,1.1315,1.2905,7.5728.4166,3.1632.286,10.0715.6422,13.6476.4139,5.594.4977,10.8138.6022,15.8311l.0059.2825-.287.0143c-3.9149.1952-7.7006.3923-11.4624.7467-8.9889.2747-18.8752.8837-28.8229,1.2151-9.1.3044-18.4679.5242-28.85.4464-4.365-.2816-11.8444-.1089-15.1844-.59-2.2413.614-5.6615.1165-9.1122.1058-2.171-.0024-4.5168.0856-7.5541.071l-1.2838-.0061.012-1.328c.0223-2.46.1293-5.4319.4385-9.1315.06-10.0343-.2618-19.5668-.3451-28.2189l-.0161-1.68,1.6864.1536c2.7915.2542,5.4706.6268,8.058.8846,8.63-.3777,16.5942.3,30.2156.0189,10.02.132,21.0089-.3093,34.9032.089,4.4265-.1746,9.7788-.4946,14.7826-.5541,2.5024.01,4.9155.0383,7.074.2169A31.2344,31.2344,0,0,1,140.1921,292.6358Z"/><path class="cls-4" d="M482.6,325.5274c-1.1149-1.5288-.8044-11.908-1.4047-16.6373q.02-9.067.0391-18.1412c-.0149-.4624-.0184-.8514-.0125-1.1624l.0027-.1344.13,0c1.9774-.0063,1.7479.3779,1.8756.6993a20.6778,20.6778,0,0,1,7.5568-.3873,97.3032,97.3032,0,0,1,10.5861.0342c4.064-.6329,14.577-.37,21.1594-.6521,12.6207-.756,28.6273-1.1915,44.244-1.55l11.5812-.2579a7.2753,7.2753,0,0,1,2.9388.374,3.0408,3.0408,0,0,1,1.2532.953,3.9559,3.9559,0,0,1,.6573,1.3785,18.6764,18.6764,0,0,1,.3992,2.7845q.1326,1.3608.2629,2.6968c.6471,7.1284.9037,13.7166.99,19.266-.26,3.8345-.1257,6.3872-.5306,9.8571l-.0411.353-.3063-.031c-.6647-.0671-1.4242-.1567-2.2424-.2764-4.4236-.1769-4.657.4233-9.0807.2463-4.0991-.2574-12.002.0057-13.5972-.574-6.778.28-21.0634.573-28.7155.1044-2.1123.8356-5.5928-.0205-9.06.524q-6.7881.0692-13.574.2813c-7.8921.3544-17.5079,1.9539-25.5369,1.98-2.377-.2325,1.0056-1.536,7.417-1.7913,3.1185-.6085,9.9968-.7933,13.5471-1.22,9.87-1.0093,18.5979-.7,27.2076-1.2141,8.9629.0446,18.832-.1575,28.7471-.1039,7.8712.0389,15.9364.1373,24.9294.37l-1.3651,1.2655c.0485-1.0748.1089-2.4141.17-3.7709.4495-4.3136.1689-11.7172.4391-15.0444-.7172-2.1857-.4489-5.5911-.7792-8.9991-.0907-.9891-.2269-2.011-.37-3.1129a23.2062,23.2062,0,0,0-.5659-3.3132,1.673,1.673,0,0,0-.6794-.9387,3.4029,3.4029,0,0,0-1.57-.38c-.694-.0415-1.5947-.0237-2.49-.0486l-2.8658-.09c-13.2446.4962-25.6584,1.2047-36.2786.9465-8.5878,1.1321-16.6191.8723-30.22,1.308-7.6914-.0192-15.9388.1322-26.0583.0842l1.5857-1.6133c-.0895,2.472-.2,5.5187-.3157,8.72C482.8809,307.121,483.9965,319.5714,482.6,325.5274Z"/><text class="cls-3" transform="translate(491.1342 311.7435)">Service B</text><polygon class="cls-5" points="531.918 201.918 531.918 277.189 526.134 277.189 532.711 288.581 539.288 277.189 533.505 277.189 533.505 201.918 531.918 201.918"/><text class="cls-2" transform="translate(543.1184 245.8333)">providers</text><polygon class="cls-5" points="88.928 204.369 88.928 280.278 83.144 280.278 89.721 291.67 96.298 280.278 90.515 280.278 90.515 204.369 88.928 204.369"/><text class="cls-2" transform="translate(99.4665 248.5658)">providers</text><path class="cls-6" d="M687.0181,356.3763c7.8253,1.6238-14.983,1.7805-31.1744,1.8-19.517.1012-32.4521.3267-50.3479.18-11.989.18-23.1313.4242-38.3762.36-7.5459-.0863-9.3682.2563-14.3812.36-4.3076.0228-5.0659-.22-9.5969-.18-7.5845.572-30.3132.0044-35.9727.72-9.6793-.5419-18.0251-.0769-33.5636-.1793-28.8617-.2806-49.8423-.1759-76.741.5389-15.2334-.09-36.0936-.3925-55.15,0-8.1984-.3046-33.9657-.3091-50.36-.5389-16.147.4078-34.0511.6832-47.9558,1.26-10.2552-.13-17.1934-.509-23.9841-.9-27.9067.2834-52.2134.2358-76.7325-.72-31.0391.1926-57.2355.48-86.3325,1.26-16.0706-.0359-30.4337.6108-33.566-.9,2.0394.0328,2.26-.0712,2.4005-.181-2.2152-.7053,12.6444-.13,14.3812-.5391,8.3247.1443,9.2208-.2681,16.7843-.18,9.8527-.2806,20.7837-.4806,33.575-.54q12.2362-.3417,26.3734-.5405c24.3157.156,45.6345.5354,67.15.9,10.4021-.1793,14.2572-.85,26.3757-.9,10.4695.1143,16.7817.5405,26.3727.72,8.9475-.1149,11.7657-.7954,21.583-.36,4.9955-.1055,7.7578-.3794,11.9921-.54,19.2528.2483,36.0551-.0974,52.76.54,17.2192-.6115,42.082.1333,62.3483.36,14.8807-.5632,38.3359-.4819,57.5532-.72,35.9318.5524,65.5374.1538,110.3047,0,14.205-.4336,35.9612-.3,50.36-.72,28.597.1581,38.9287-.1451,64.7406,0,3.15-.1832,8.8386-.1766,11.989-.36Z"/><text class="cls-2" transform="translate(178.2259 383.2628)">ngModules</text><text class="cls-3" transform="translate(333.8449 383.3257)">Services</text><text class="cls-7" transform="translate(468.1971 383.2627)">Intention</text><text class="cls-2" transform="translate(146.33 139.5361)">imports</text><path class="cls-5" d="M273.7258,119.0036a115.23,115.23,0,0,1-14.259,9.8262c-4.9963,2.9194-10.1766,5.5289-15.439,7.9675-10.5447,4.837-21.399,9.0663-32.1506,13.5211l-59.86,24.5222-2.1927-5.3525-8.0488,10.4047,13.0353,1.7677-2.1924-5.3518,59.86-24.5222c10.75-4.4547,21.5974-8.6794,32.2144-13.549,5.2959-2.454,10.5221-5.0859,15.5762-8.0392a116.8135,116.8135,0,0,0,14.4622-9.9675Z"/><path class="cls-5" d="M370.1452,124.6966a321.305,321.305,0,0,1,53.1427,24.2682q12.7026,7.25,24.7336,15.6019c4.014,2.7678,7.9474,5.6516,11.8328,8.5964,1.9227,1.4989,3.88,2.9535,5.7743,4.4884l2.3937,1.9354L464.38,184.08c4.3021.6068,8.54,1.4073,12.8835,2.1951-1.47-4.0992-2.9445-8.3075-4.6-12.4133l-3.642,4.4927-2.4049-1.9445c-1.9031-1.5421-3.87-3.0038-5.8015-4.51-3.9037-2.9587-7.8557-5.8561-11.8887-8.6372q-12.0743-8.3776-24.8521-15.6765a322.89,322.89,0,0,0-53.406-24.3881Z"/><text class="cls-2" transform="translate(395.0058 128.474)">loads lazy</text><path class="cls-4" d="M257.4569,328.5282c-1.113-1.8611-.79-14.4944-1.384-20.251l.0437-15.6908,0-.1182.118-.0018,6.39-.0961c3.9281-.17,3.5132.29,3.6913.6653a30.5288,30.5288,0,0,1,9.2008-.3787c4.8862-.0715,10.5071-.2488,12.884.0465,4.9518-.6283,17.7452-.3528,25.7592-.6277,15.3673-.7415,34.8529-1.1586,53.8634-1.4989l14.1-.2429a10.3613,10.3613,0,0,1,3.5331.4224,3.7153,3.7153,0,0,1,1.5627,1.0319,4.0154,4.0154,0,0,1,.8344,1.65c.2819,1.17.3459,2.2546.5139,3.3615q.19,1.654.3768,3.2781a182.22,182.22,0,0,1,.9258,23.4668c-.1405,1.51-.2444,2.8555-.3367,4.1177l-.0341.4641-.4565-.0135a104.9856,104.9856,0,0,1-10.5973-.5715c-5.3857-.1725-5.6628.4286-11.0485.2614-4.9917-.2493-14.6073.0385-16.5558-.5336-8.2449.3063-25.636.6472-34.9561.2029-2.5707.838-6.81.009-11.0333.5483q-8.2676.0932-16.536.3044c-9.6121.354-21.3733,1.9512-31.16,1.9377-2.8839-.2478,1.2863-1.5253,9.0925-1.7646,3.8127-.6,12.187-.7626,16.5149-1.2018,12.0242-1.0076,22.6407-.7216,33.1191-1.2635,10.9076.0156,22.9154-.2213,34.9818-.2026,11.0388.0143,22.3937.11,34.969.4169.9645.0684,2.0548.1228,3.2426.17l-1.235,1.1343c.4763-5.1334.4314-11.7489.665-15.0518-.7048-2.6692-.4517-6.801-.9-10.9406-.1287-1.2-.2938-2.4415-.4958-3.7769l-.321-2.0814a12.667,12.667,0,0,0-.4047-2.0343,1.9087,1.9087,0,0,0-.948-1.17,5.5612,5.5612,0,0,0-2.1674-.4813c-.8857-.06-1.9417-.0415-3.0437-.0668l-3.4873-.0933c-16.1244.4808-31.24,1.1749-44.1632.9045-10.4622,1.1222-20.235.8531-36.7921,1.2731-11.438-.0342-23.8885.1851-39.5242-.0305l1.3938-1.4109c-.0278.76-.0649,1.778-.1027,2.8087C257.7606,306.1243,258.8608,321.279,257.4569,328.5282Z"/><text class="cls-3" transform="translate(265.977 314.7435)">Core Service</text><polygon class="cls-5" points="321.031 219.827 321.031 280.278 315.247 280.278 321.824 291.67 328.401 280.278 322.618 280.278 322.618 219.827 321.031 219.827"/><text class="cls-2" transform="translate(328.4204 251.0301)">providers</text><path class="cls-8" d="M139.2169,314.87q27.7982-2.45,55.7367-2.5465,13.9528-.0485,27.8993.4912c4.6477.1774,9.2927.4155,13.9358.6868l6.9617.4537,2.9495.2231-.4344,5.7679c3.9149-1.9211,7.8611-3.7579,11.847-5.6147-3.5809-2.5092-7.1978-5.0453-10.859-7.5022l-.4344,5.7671-2.9565-.2236-6.9785-.4548c-4.6542-.272-9.31-.5107-13.9694-.6885q-13.9759-.5409-27.9664-.4924-27.9727.097-55.8711,2.5527Z"/><text class="cls-7" transform="translate(158.7321 330.3929)">can use</text><polygon class="cls-8" points="481.625 307.363 399.969 307.363 399.969 301.579 388.576 308.156 399.969 314.733 399.969 308.949 481.625 308.949 481.625 307.363"/><text class="cls-7" transform="translate(403.5379 328.5234)">can use</text><path class="cls-9" d="M290.7624,218.4714l63.9958,1.5379c-1.0928-10.2284-1.6779-20.59-1.7485-30.9608a446.3351,446.3351,0,0,0-61.7965-3.1351l-.1741,31.6634"/><text class="cls-2" transform="translate(302.4683 207.2655)">Core</text><text class="cls-10" transform="translate(261.0145 45.9612)">Root Injector</text><path class="cls-11" d="M386.2722,23.1648c-.98.526-4.703.585-8.92.5858-4.2181.0483-8.9319.0164-11.8839.3151-7.5389-.0925-15.0835-.03-22.6276.0482-4.0258.1654-3.6-.2944-3.7817-.67a32.4931,32.4931,0,0,1-9.4312.3845c-5.0078.078-10.7682.2739-13.2037-.0269-5.0753.646-18.1835.3251-26.3943.4083-11.1514.2933-24.4347.1383-38.0944-.8362l.275-.2593c.1672,6.2823.2483,12.6582.1711,18.954-.0736,6.2958-.2737,12.5071-.4561,18.47l-.3682-.3872c12.1533.1753,23.1353.2356,31.9844.1307,5.7815.31,9.2107-.045,15.0856.5192,5.5222.0692,5.7925-.5519,11.3137-.5,5.12.1309,14.9635-.4033,16.9747.1188,8.4379-.5205,26.25-1.3311,35.8141-1.0789,2.6176-.9043,6.98-.1389,11.3005-.7664l12.1248-.3538L384.8777,59.56l-.0768-4.8357c-.2681-9.8591-1.5411-21.9971-.99-32.0537.3977-2.9429,1.4365,1.4049,1.35,9.4113.4414,3.9312.365,12.5181.7491,16.9624.2385,3.6212.3866,7.1163.4937,10.4916l.0063.2-.2065.01c-8.2114.381-15.8622.498-23.44,1.0339-11.1749.217-23.4692.7821-35.8328,1.0791-11.3105.272-22.9506.4677-35.85.3732-5.4241-.281-14.717-.1177-18.87-.5959-2.7816.6165-7.0341.1147-11.3221.1115-2.6917-.0037-5.5988.09-9.359.08l-1.3057-.0037.0271-1.3411c.0619-3.0646.2207-6.7637.572-11.371.1278-9.0577-.1019-17.7831-.3535-25.9614l-.05-1.6194,1.6543.1068,19.1469,1.236c10.7317-.5908,20.6921-.0585,37.6466-.4093,12.4717.09,26.1431-.3093,43.394.125,2.751-.0659,5.7867-.1829,8.91-.3015,3.1249-.0826,6.3372-.1953,9.44-.207C376.8159,22.0412,382.58,22.329,386.2722,23.1648Z"/><polygon class="cls-12" points="319.414 60.902 318.551 91.82 312.769 91.658 319.026 103.23 325.918 92.025 320.137 91.864 321 60.946 319.414 60.902"/><text class="cls-13" transform="translate(325.0003 81.9183)">uses providers</text><text class="cls-10" transform="translate(510.3291 119.2529)">Lazy Injector</text><path class="cls-11" d="M636.6288,96.601c-.98.526-4.7031.585-8.92.5858-4.218.0483-8.9319.0164-11.8838.3151-7.5389-.0925-15.0835-.03-22.6276.0482-4.0259.1654-3.6-.2944-3.7819-.67a32.4922,32.4922,0,0,1-9.431.3845c-5.0078.078-10.7683.2739-13.2037-.0269-5.0753.646-18.1835.3251-26.3943.4083-11.1515.2933-24.4348.1383-38.0944-.8362l.275-.2593c.1672,6.2823.2482,12.6582.1711,18.954-.0737,6.2958-.2737,12.5071-.4562,18.47l-.368-.3872c12.1532.1753,23.1353.2356,31.9843.1307,5.7815.31,9.2107-.045,15.0856.5192,5.5222.0692,5.7926-.5519,11.3137-.5,5.12.1309,14.9636-.4033,16.9747.1188,8.438-.5205,26.25-1.3311,35.8141-1.0789,2.6177-.9043,6.98-.1389,11.3007-.7664l12.1246-.3538-1.2773,1.3395-.0769-4.8357c-.2679-9.8591-1.5411-21.9971-.99-32.0537.3977-2.9429,1.4366,1.4049,1.35,9.4113.4414,3.9312.365,12.5181.7491,16.9624.2384,3.6212.3865,7.1163.4937,10.4916l.0063.2-.2067.01c-8.2114.381-15.8621.498-23.44,1.0339-11.1749.217-23.4692.7821-35.8326,1.0791-11.3107.272-22.9506.4677-35.85.3732-5.424-.2811-14.7169-.1177-18.87-.5959-2.7816.6165-7.0341.1147-11.3221.1115-2.6917-.0037-5.5986.09-9.3589.08l-1.3057-.0037.0271-1.3411c.0618-3.0646.2206-6.7637.572-11.371.1278-9.0577-.1021-17.7832-.3536-25.9614l-.05-1.6194,1.6542.1068,19.147,1.236c10.7316-.5908,20.6921-.0585,37.6465-.4093,12.4718.09,26.1431-.3093,43.394.125,2.7511-.0659,5.7869-.1829,8.91-.3015,3.1249-.0826,6.3372-.1953,9.44-.207C627.1724,95.4773,632.9365,95.7652,636.6288,96.601Z"/><path class="cls-12" d="M538.1843,136.1836q-.343,4.2968-1.0018,8.56c-.2235,1.4193-.4674,2.8354-.7445,4.2454l-.4323,2.1115-.4182,1.8739-5.6344-1.3077a102.8147,102.8147,0,0,1,3.2858,12.4386,109.2668,109.2668,0,0,0,9.5277-9.4645l-5.6338-1.3076.4241-1.9.4384-2.1409c.2809-1.43.5282-2.8655.7549-4.3047q.6672-4.3195,1.0157-8.68Z"/><path class="cls-12" d="M567.174,95.255l-43.76-16.0695c-14.59-5.3444-29.1564-10.7576-43.808-15.9625-14.6549-5.1892-29.4017-10.1593-44.3538-14.4771-7.4733-2.1638-14.99-4.1891-22.57-5.9645-3.7784-.9347-7.5936-1.7131-11.395-2.55l-4.5577-.8905,1.0978-5.6791c-4.2023,1.3728-8.3788,2.9487-12.4624,4.4541,3.3953,2.8251,6.7284,5.5543,9.9658,8.4609l1.0977-5.6783,4.5381.8865c3.786.8341,7.5851,1.609,11.35,2.54,7.5505,1.7686,15.0428,3.7871,22.4945,5.9447,14.9087,4.3052,29.6267,9.2651,44.2648,14.4484,14.6337,5.1986,29.2,10.6119,43.7913,15.9567l43.76,16.0693Z"/><text class="cls-13" transform="translate(451.3641 49.8091)">inherits instances</text><text class="cls-13" transform="translate(547.7495 151.1751)">uses providers</text><path class="cls-5" d="M319.2813,141.9068q.3272,8.5481.5024,17.101l.1346,8.5532.0549,7.6407-5.7842.0178q3.306,5.6462,6.5432,11.3721,3.34-5.6664,6.6107-11.4125l-5.7834.0177-.0549-7.6536-.1349-8.5677q-.174-8.567-.5033-17.13Z"/><text class="cls-2" transform="translate(327.2093 164.6739)">imports</text></g></svg>