<svg xmlns="http://www.w3.org/2000/svg" viewBox="0 0 709.0581 408.4081"><defs><style>.cls-1,.cls-2,.cls-5{fill:#ec5e24;}.cls-1,.cls-13,.cls-4,.cls-6{fill-rule:evenodd;}.cls-11,.cls-12,.cls-15,.cls-2,.cls-3,.cls-7{font-size:22px;font-family:SwankyandMooMoo, Swanky and Moo Moo;}.cls-3,.cls-4{fill:#65bc46;}.cls-15,.cls-6{fill:#231f20;}.cls-7,.cls-9{fill:#3e479d;}.cls-8{fill:#fff;}.cls-10{fill:none;stroke:#ec5e24;stroke-miterlimit:10;}.cls-11{fill:#771214;}.cls-12,.cls-13,.cls-14{fill:#232532;}</style></defs><title>x</title><g id="Layer_2" data-name="Layer 2"><path class="cls-1" d="M37.27,195.553c-.7633-.8064-.4991-11.8812-1.0428-16.6054q-.0054-9.61-.0108-19.2287a16.0808,16.0808,0,0,1,.0307-2.1071l.0107-.0974.0787.008c1.142.1161.9889.422,1.0951.69a23.0959,23.0959,0,0,1,7.9972-.24,108.8189,108.8189,0,0,1,11.191.24c4.31-.5537,15.4188-.0859,22.3836-.24,18.2441-.6969,43.1529-.6733,64.34-.736l.3747-.0012.0011.377c.0291,10.1767.0768,19.37.2239,26.793-.2684,4.648.05,7.5022-.3985,12.0818l-.0218.2216-.1794-.02-.7088-.0809c-4.68-.0645-4.9328.5419-9.6334.4781-4.3353-.1476-12.7923.2947-14.41-.2443-7.2254.4506-22.6693.9-30.6441.4171-2.5945.7616-5.9472-.0385-9.8736.4l-14.51-.0731c-8.4591.0731-19.6008.7841-27.7146.1814-2.19-.3293,2.2133-.996,8.8626-.8308,3.5948-.278,10.7513-.1024,14.7144-.3509,10.8063-.5122,19.7939-.1749,29.0884-.65,9.4245.0249,19.91-.3253,30.3252-.5119,7.7536-.1366,15.659-.2622,24.5043-.27l-1.3336,1.3337c.0038-1.6319.0085-3.64.0134-5.6861.27-4.5965.0488-12.4692.4805-15.9918-.6377-2.3517-.19-5.9587-.24-9.5922-.0628-2.2066-.13-4.585-.2165-7.6047l1.2965,1.2964c-2.6857.0461-5.914.0217-9.9793-.2165-14.0125.2383-27.1513.7051-38.3737.24-9.1026.9648-17.5882.5488-31.9759.72l-26.6777-.4024,1.6376-1.6376c-.0762,2.7939-.1856,6.204-.3427,9.8372.0982,4.5228.3649,9.8367.3761,14.8135A91.988,91.988,0,0,1,37.27,195.553Z"/><text class="cls-2" transform="translate(44.4343 181.9264)">Feature A</text><path class="cls-1" d="M372.6115,135.5044c-.79,2.4343-.8136-6.9439-.822-13.5348-.037-7.9962-.1873-13.2774-.0885-20.5363-.0444-1.7288-.0874-3.4149-.1322-5.1648l.0125.0126c-3.127.0769-6.4255.1348-10.4173.1074-3.0618-.0576-3.8012.1709-5.8351.24-1.7478.0151-2.0554-.147-3.8938-.12-3.0773.3813-12.2992.0029-14.5955.48-3.9272-.3613-7.3134-.0512-13.618-.12-11.71-.187-20.2229-.1172-31.1367.3594-4.6923-.0456-10.7-.1728-16.7034-.1169l.8424-.8425c.0178,1.9063.054,3.8107.1169,5.6726-.2031,3.3265-.206,13.7812-.3593,20.433.16,4.1823.33,8.6473.4878,12.7692l-1.0878-1.0877c2.3723-.1,4.6033-.2125,6.6158-.35,4.1186.0892,6.9273.3441,9.6976.605,11.2291-.1821,20.9477-.1064,31.103.5,12.5049-.1,23.0137-.2611,34.4085-.5991,6.4954.05,11.9723-.2094,13.9506.5078-.84-.0182-.8806.0309-.8862.0829,1.2264.3372-5.06.0525-5.5789.2523-3.438-.0751-3.6222.1333-6.73.0892-3.8793.145-8.2461.2609-13.4282.3029q-4.8542.2-10.5625.336c-9.97-.0629-18.7533-.2877-27.5485-.5224-4.1932.1164-5.6745.5562-10.6178.5948-4.2861-.0712-6.89-.3528-10.7961-.4717-3.6275.0768-4.7666.5307-8.7715.24l-.8562.04-.49.023-.03-.5433c-.085-1.536-.2293-2.561-.32-4.0122.1656-7.8116-.0649-14.6289.36-21.4069-.2233-3.8259-.1753-8.5817-.0615-13.4557l.0129-.5551.5287.0135,11.8412.3013c6.0377-.3755,15.5543-.3213,23.3514-.48,14.5789.3682,26.591.1025,44.7548,0,4.5207-.2267,10.9264-.2206,16.2524-.3427l1.0395-.0239.0235,1.0869c.0336,1.5516.0756,2.9808.1336,4.2743-.1316,11.84.0068,16.2249-.222,26.8741.0807,1.3757.04,3.7284.109,5.1123C372.6471,133.5213,372.6293,134.5159,372.6115,135.5044Z"/><text class="cls-2" transform="translate(308.5805 119.1852)">App</text><path class="cls-1" d="M588.4322,195.2159c3.5494.91-6.6232,1.5586-13.87,1.57-8.727.0891-14.52.0094-22.5159-.4-5.3646-.1028-10.353-.2054-17.1638-.5886-3.37-.2245-4.1953-.0319-6.4386-.0719-1.9255-.08-2.2573-.2475-4.2837-.3072-3.4029.1937-13.5525-.453-16.0884.0148-4.321-.4034-8.0532-.1079-14.9877.0194-2.6128.0721-5.08.1781-7.4485.282l-6.8341.5321-.5647.0439.0069-.56c.0823-6.6252-.0057-12.84-.3869-19.9771-.0193-4.9016-.0633-11.1146-.2756-17.397l-.0283-.8382.8465-.02c2.4327-.0587,4.8812-.1424,7.2662-.2579,3.6731.1385,15.2074-.0087,22.5469.12,7.2264-.3145,15.2424-.478,21.4713-.8237,4.592.1137,7.6963.4037,10.733.6967,12.4943-.0387,23.3788.2377,34.33,1.1964l15.754.331.538.0113.0011.5561c.0166,7.7218-.5525,15.1016-.9073,22.9166-.6811,7.1587-.4522,13.52-1.4549,14.8986.0423-.9079-.0249-1.0073-.0968-1.0717-.2391.49-.2532-.9226-.176-2.5546a32.5518,32.5518,0,0,0,.0886-3.8774c.336-3.7081.1078-4.1278.4433-7.4967.18-4.41.5419-9.2915.8653-14.9964.0475-2.4272.0873-4.9769.0566-7.834l.5972.6286-3.9457-.0433-30.013-1.4457c-4.6563.0334-6.3882.4386-11.8087.3986-4.6816-.1468-7.5022-.4524-11.7924-.6115-4.0043.0486-5.2668.49-9.6575.1877-2.2351.061-3.471.2421-5.365.3513-8.6124-.1655-16.1258.1114-23.603-.2194-4.4795.2885-10.1189.312-15.8432.2943l.5085-.5337c.0094,4.1088.0189,8.2638.0277,12.0551.535,6.5539.522,16.8595.5031,25.3774l-.7809-.7221.3913-.0379c8.05-.5568,15.3929-.779,23.231-.8617,7.8379-.0706,16.1725.0777,26.1863.4969,6.3687.0009,16.0864.6228,22.5277.6134,6.3819.3355,10.7265.4387,14.914.4917,2.0943.0464,4.148.0343,6.3981.0388,2.2507.0253,4.6951-.009,7.5712-.0393,1.4022-.1253,3.9339-.2139,5.33-.4036Z"/><text class="cls-2" transform="translate(487.3178 183.3169)">Feature B</text><text class="cls-3" transform="translate(50.4062 309.9422)">Service A</text><path class="cls-4" d="M141.3452,285.9156c-.8033.5273-3.8037.5619-7.1991.5706l-5.1654.0514c-1.67.0441-3.2126.1284-4.4.2633-6.0643-.0677-12.1336-.0108-18.202.1053-3.2373.1694-2.899-.2908-3.0489-.6656a20.854,20.854,0,0,1-7.5841.4056,94.4627,94.4627,0,0,1-10.6214-.0207c-4.08.6327-14.6243.274-21.2249.2594a207.3252,207.3252,0,0,1-23.3055-.8344l.2011-.1838c.1672,6.1224.2522,12.4869.209,18.8163-.0416,6.3294-.19,12.62-.32,18.602l-.3661-.384c9.784.19,18.626.2478,25.7492.1436,4.65.3083,7.4085-.0571,12.1352.507,4.4428.0438,4.6585-.5492,9.1-.5246,4.1194.13,12.0335-.438,13.6553.0776,6.7845-.5433,21.1-1.4158,28.7964-1.2144,2.09-.9167,5.6125-.1744,9.0766-.8245l2.3678-.0951-1.2635,1.3338L139.8,311.0229c-.206-7.9322-1.4025-17.6988-.7879-25.7892.4163-2.3673,1.4276,1.1316,1.2906,7.5729.4166,3.1631.286,10.0716.6421,13.6475.4139,5.594.4978,10.8138.6022,15.8311l.0059.2825-.287.0143c-3.915.1951-7.7005.3922-11.4624.7467-8.989.2746-18.8753.8836-28.823,1.2151-9.1.3044-18.4679.5241-28.85.4464-4.365-.2816-11.8443-.1089-15.1845-.59-2.2412.614-5.6615.1165-9.112.1058-2.1711-.0024-4.5169.0857-7.5541.0711l-1.284-.0061.0121-1.328c.0222-2.46.1293-5.4319.4385-9.1315.06-10.0343-.262-19.5667-.3451-28.2189l-.0162-1.68,1.6864.1536c2.7915.2541,5.4706.6268,8.058.8846,8.63-.3776,16.5942.3,30.2157.019,10.02.1319,21.0087-.3094,34.903.089,4.4267-.1746,9.779-.4947,14.7828-.5541,2.5024.01,4.9155.0384,7.0738.2169A31.2454,31.2454,0,0,1,141.3452,285.9156Z"/><path class="cls-4" d="M483.7531,318.8072c-1.115-1.5288-.8046-11.9079-1.4048-16.6372q.02-9.0672.0391-18.1413c-.0149-.4624-.0185-.8515-.0124-1.1623l.0026-.1345.13,0c1.9774-.0064,1.7478.3779,1.8755.6993a20.6793,20.6793,0,0,1,7.5567-.3874,97.3762,97.3762,0,0,1,10.5861.0342c4.064-.6329,14.5772-.37,21.1594-.652,12.6208-.756,28.6273-1.1916,44.2442-1.55l11.581-.258a7.2754,7.2754,0,0,1,2.9389.3741,3.0382,3.0382,0,0,1,1.2531.9529,3.9559,3.9559,0,0,1,.6575,1.3786,18.6577,18.6577,0,0,1,.3991,2.7846q.1328,1.3607.2629,2.6967c.6471,7.1285.9038,13.7166.99,19.266-.26,3.8345-.1259,6.3871-.5307,9.857l-.0412.3531-.3063-.031c-.6647-.0672-1.4241-.1568-2.2423-.2764-4.4236-.1769-4.657.4233-9.0807.2463-4.0993-.2575-12.0021.0058-13.5972-.5739-6.7781.28-21.0633.5729-28.7154.1043-2.1125.8356-5.5928-.02-9.06.5241q-6.7881.0692-13.5741.2812c-7.8921.3543-17.5078,1.9539-25.5368,1.9805-2.3769-.2326,1.0055-1.536,7.417-1.7912,3.1186-.6086,9.9967-.7935,13.5472-1.22,9.87-1.0094,18.5977-.7005,27.2076-1.2141,8.9629.0445,18.832-.1576,28.7471-.104,7.8711.039,15.9362.1374,24.9294.37l-1.3651,1.2656c.0485-1.0749.1089-2.4142.17-3.7709.4494-4.3136.1689-11.7172.439-15.0445-.7172-2.1856-.4488-5.591-.7792-8.9991-.0905-.9892-.2268-2.011-.37-3.1129a23.2177,23.2177,0,0,0-.5658-3.3133,1.6735,1.6735,0,0,0-.6795-.9387,3.4035,3.4035,0,0,0-1.57-.38c-.6941-.0415-1.5949-.0236-2.49-.0485l-2.8659-.09c-13.2445.4961-25.6584,1.2045-36.2785.9464-8.5879,1.1321-16.6191.8723-30.22,1.308-7.6915-.0191-15.939.1322-26.0583.0842l1.5855-1.6132c-.09,2.472-.2,5.5187-.3155,8.72C484.0338,300.4009,485.15,312.8513,483.7531,318.8072Z"/><text class="cls-3" transform="translate(492.2875 305.0246)">Service B</text><polygon class="cls-5" points="533.071 195.197 533.071 270.468 527.287 270.468 533.864 281.861 540.441 270.468 534.658 270.468 534.658 195.197 533.071 195.197"/><text class="cls-2" transform="translate(544.2714 239.1146)">providers</text><polygon class="cls-5" points="90.081 197.649 90.081 273.558 84.297 273.558 90.874 284.95 97.451 273.558 91.668 273.558 91.668 197.649 90.081 197.649"/><text class="cls-2" transform="translate(100.6194 241.847)">providers</text><path class="cls-6" d="M688.1712,360.6562c7.8252,1.6237-14.9831,1.78-31.1745,1.8-19.517.1011-32.4522.3266-50.3479.18-11.989.18-23.1314.4241-38.3762.36-7.5459-.0864-9.3682.2564-14.3813.36-4.3076.0227-5.0659-.2205-9.5969-.18-7.5845.572-30.3132.0044-35.9727.72-9.6793-.542-18.0251-.0769-33.5636-.1794-28.8616-.2806-49.8422-.1758-76.7409.539-15.2334-.09-36.0936-.3925-55.15,0-8.1983-.3046-33.9657-.309-50.36-.539-16.147.4079-34.0512.6833-47.9559,1.26-10.2552-.13-17.1933-.509-23.9841-.9-27.9067.2836-52.2134.2359-76.7325-.72-31.0391.1926-57.2355.48-86.3325,1.26-16.0706-.0359-30.4338.6109-33.5661-.9,2.0394.0329,2.26-.0711,2.4005-.181-2.2152-.7053,12.6444-.13,14.3813-.539,8.3247.1443,9.2208-.2681,16.7843-.18,9.8526-.2805,20.7836-.4805,33.5749-.54q12.2362-.3417,26.3734-.5405c24.3157.156,45.6345.5354,67.15.9,10.4021-.1794,14.2572-.85,26.3757-.9,10.47.1143,16.7817.5405,26.3727.72,8.9475-.115,11.7657-.7955,21.583-.36,4.9955-.1055,7.7578-.38,11.9921-.54,19.2528.2482,36.055-.0974,52.76.54,17.2193-.6116,42.0821.1332,62.3483.36,14.8808-.5633,38.336-.482,57.5532-.72,35.9318.5523,65.5374.1538,110.3047,0,14.205-.4336,35.9612-.3,50.36-.72,28.597.1582,38.9287-.145,64.7406,0,3.15-.1831,8.8386-.1765,11.989-.36Z"/><text class="cls-2" transform="translate(83.3788 387.5441)">ngModules</text><text class="cls-3" transform="translate(238.9979 387.6069)">Services</text><text class="cls-7" transform="translate(373.35 387.5439)">Intention</text><text class="cls-2" transform="translate(147.483 132.8174)">imports</text><path class="cls-5" d="M274.8789,112.2835A115.2363,115.2363,0,0,1,260.62,122.11c-4.9964,2.9195-10.1765,5.529-15.4389,7.9675-10.5446,4.8371-21.3991,9.0664-32.1506,13.5212l-59.86,24.5222-2.1926-5.3525-8.0489,10.4047,13.0354,1.7676-2.1924-5.3518,59.86-24.5222c10.75-4.4547,21.5974-8.68,32.2144-13.5489,5.2959-2.4541,10.5221-5.086,15.576-8.0392a116.8131,116.8131,0,0,0,14.4623-9.9675Z"/><path class="cls-5" d="M371.2982,117.9765a321.307,321.307,0,0,1,53.1427,24.2682q12.7026,7.25,24.7336,15.6018c4.0141,2.768,7.9474,5.6517,11.8328,8.5966,1.9227,1.4988,3.88,2.9534,5.7743,4.4884l2.3937,1.9354-3.6425,4.4932c4.3021.6069,8.54,1.4075,12.8836,2.1951-1.47-4.0992-2.9445-8.3075-4.6-12.4133l-3.642,4.4927-2.4049-1.9445c-1.9031-1.5421-3.87-3.0038-5.8015-4.51-3.9037-2.9588-7.8557-5.8562-11.8887-8.6373q-12.0744-8.3776-24.8521-15.6765a322.8968,322.8968,0,0,0-53.406-24.3881Z"/><text class="cls-2" transform="translate(396.1587 121.7551)">loads lazy</text><path class="cls-4" d="M265.1576,326.2806c-1.113-1.8611-.7895-14.4943-1.384-20.2509l.0437-15.6909,0-.1181.1179-.0018,6.39-.0961c3.9282-.17,3.5131.29,3.6914.6653a30.5241,30.5241,0,0,1,9.2007-.3786c4.8862-.0716,10.507-.2489,12.884.0464,4.9519-.6282,17.7453-.3528,25.7593-.6277,15.3672-.7414,34.8527-1.1585,53.8632-1.4989l14.1-.2429a10.3576,10.3576,0,0,1,3.5329.4224,3.7153,3.7153,0,0,1,1.5628,1.0319,4.0169,4.0169,0,0,1,.8342,1.65c.282,1.17.346,2.2547.5139,3.3615q.19,1.6542.377,3.2781a182.2177,182.2177,0,0,1,.9258,23.4669c-.1407,1.51-.2444,2.8554-.3367,4.1176l-.0342.4641-.4565-.0136a104.9776,104.9776,0,0,1-10.5972-.5715c-5.3857-.1724-5.6628.4286-11.0486.2614-4.9917-.2493-14.6072.0384-16.5556-.5335-8.2449.3063-25.636.6471-34.9561.2028-2.5706.838-6.81.009-11.0334.5483q-8.2677.0933-16.5359.3045c-9.6121.354-21.3733,1.9512-31.16,1.9378-2.8841-.2478,1.2861-1.5254,9.0925-1.7647,3.8127-.6,12.187-.7626,16.5149-1.2017,12.0242-1.0076,22.6406-.7217,33.1191-1.2636,10.9075.0155,22.9153-.2214,34.9817-.2026,11.0388.0143,22.3938.11,34.969.4168.9646.0683,2.0549.1228,3.2427.17l-1.2351,1.1344c.4763-5.1335.4314-11.7489.6653-15.0517-.7051-2.6693-.4517-6.8011-.9-10.9406-.1286-1.2-.2939-2.4416-.4958-3.7768-.1031-.6672-.21-1.3588-.3211-2.0815a12.655,12.655,0,0,0-.4048-2.0344,1.9082,1.9082,0,0,0-.948-1.17,5.5625,5.5625,0,0,0-2.1672-.4814c-.8857-.06-1.9416-.0415-3.0437-.0668l-3.4873-.0932c-16.1245.4808-31.24,1.175-44.1633.9045-10.4622,1.1222-20.2349.8532-36.792,1.2731-11.438-.0342-23.8887.1851-39.5242-.03l1.3938-1.4109c-.0278.76-.0649,1.7779-.1025,2.8087C265.4613,303.8767,266.5617,319.0313,265.1576,326.2806Z"/><path class="cls-8" d="M258.2278,321.6027c42.6137-3.0374,90.1179-1.7169,132.9156-.8941a164.4036,164.4036,0,0,0-1.1422-32.9113,4.1517,4.1517,0,0,0-1.59-3.2269c-1.2106-.7975-3.0032-.8168-4.6261-.7924l-125.4572,1.8869-.1,35.9378"/><path class="cls-4" d="M259.5483,321.6064c-1.1131-1.8611-.79-14.4943-1.3843-20.2509l.0437-15.6909,0-.1181.1181-.0018,6.3894-.0961c3.9283-.17,3.5132.29,3.6915.6653a30.5236,30.5236,0,0,1,9.2006-.3786c4.8865-.0716,10.5071-.2489,12.8843.0464,4.9517-.6282,17.7451-.3528,25.759-.6276,15.3675-.7415,34.8531-1.1586,53.8633-1.499l14.1-.2428a10.3572,10.3572,0,0,1,3.5329.4223,3.7153,3.7153,0,0,1,1.5628,1.0319,4.0143,4.0143,0,0,1,.8342,1.65c.282,1.17.3459,2.2547.5139,3.3615q.1905,1.654.377,3.278a182.2162,182.2162,0,0,1,.9257,23.4669c-.1406,1.51-.2443,2.8554-.3366,4.1176l-.034.4641-.4567-.0136a104.9754,104.9754,0,0,1-10.5972-.5714c-5.3858-.1725-5.6629.4285-11.0486.2614-4.9917-.2493-14.6072.0383-16.5557-.5336-8.2448.3063-25.6359.6471-34.956.2028-2.5706.838-6.81.0091-11.0332.5483q-8.268.0933-16.5361.3045c-9.6121.3541-21.3733,1.9512-31.1605,1.9378-2.8837-.2478,1.2862-1.5254,9.0926-1.7647,3.8127-.6,12.187-.7626,16.5149-1.2017,12.0241-1.0076,22.6406-.7217,33.1191-1.2636,10.9075.0156,22.9153-.2214,34.9817-.2026,11.0391.0143,22.3938.11,34.969.4168.9646.0683,2.0549.1228,3.2427.17l-1.2351,1.1344c.4763-5.1335.4314-11.7489.6652-15.0517-.705-2.6693-.4516-6.8011-.9-10.9406-.1287-1.2-.2939-2.4416-.4958-3.7768-.1031-.6672-.2095-1.3588-.3211-2.0815a12.6752,12.6752,0,0,0-.4045-2.0343,1.9089,1.9089,0,0,0-.9483-1.17,5.5608,5.5608,0,0,0-2.1672-.4813c-.8858-.06-1.9417-.0416-3.0437-.0668l-3.4873-.0933c-16.1245.4808-31.24,1.175-44.1633.9045-10.4622,1.1223-20.2349.8532-36.792,1.2732-11.438-.0342-23.8885.185-39.5242-.0306l1.3938-1.4109c-.0278.76-.065,1.7779-.1026,2.8087C259.8517,299.2025,260.9521,314.3572,259.5483,321.6064Z"/><text class="cls-3" transform="translate(268.0676 307.8233)">Core Service</text><polygon class="cls-5" points="322.184 213.107 322.184 273.558 316.4 273.558 322.977 284.95 329.554 273.558 323.771 273.558 323.771 213.107 322.184 213.107"/><text class="cls-2" transform="translate(329.5733 244.3114)">providers</text><path class="cls-9" d="M140.37,308.15q27.7981-2.45,55.7368-2.5466,13.9527-.0484,27.8993.4914c4.6477.1772,9.2927.4154,13.9357.6867l6.9616.4537,2.95.2232-.4344,5.7678c3.9149-1.9211,7.861-3.7579,11.847-5.6147-3.5808-2.5091-7.1976-5.0453-10.859-7.5022l-.4344,5.7672-2.9566-.2238-6.9785-.4547c-4.6542-.272-9.31-.5107-13.9692-.6885q-13.9761-.541-27.9665-.4924-27.9726.0971-55.8712,2.5527Z"/><text class="cls-7" transform="translate(159.8851 323.6742)">can use</text><polygon class="cls-9" points="482.778 301.837 407.835 301.837 407.835 296.053 396.443 302.63 407.835 309.207 407.835 303.424 482.778 303.424 482.778 301.837"/><text class="cls-7" transform="translate(404.6911 321.8046)">can use</text><path class="cls-10" d="M291.9155,211.7513l63.9957,1.538c-1.0927-10.2285-1.6779-20.59-1.7484-30.9608a446.3269,446.3269,0,0,0-61.7965-3.1351l-.1741,31.6634"/><text class="cls-2" transform="translate(303.6213 200.5466)">Core</text><text class="cls-2" transform="translate(184.7872 181.2886)">imports</text><path class="cls-5" d="M142.1612,183.0082c24.1453,3.0557,48.0722,7.7535,72.2161,11.2448,12.07,1.7449,24.2006,3.19,36.3919,3.9486l4.5713.2866,4.5794.1473,4.58.1431c1.5271.0246,3.0555-.0044,4.5832-.004l4.5835-.02c1.5277-.0079,3.0539-.1178,4.5809-.1717l3.7422-.1647.3281,5.7748c1.89-1.1442,3.75-2.4529,5.58-3.7048l5.4005-3.7754-5.948-2.7788c-1.9543-.9377-3.871-1.8232-5.7792-2.8739l.3281,5.7742-3.716.1634c-1.5168.0536-3.0315.1631-4.55.1709l-4.5546.0195c-1.5182,0-3.0364.0286-4.5544.0042l-4.554-.1425-4.5539-.1462-4.5489-.2854c-12.1316-.7554-24.2193-2.1942-36.2633-3.9353-24.0915-3.483-48.0274-8.1831-72.2451-11.2487Z"/><path class="cls-5" d="M477.8366,184.2021q-28.7323,5.043-57.7927,7.8891-14.5161,1.4217-29.0794,2.2909-7.28.44-14.5671.73l-7.2882.2612-3.07.0832-.155-5.7821c-3.7043,2.311-7.4429,4.5424-11.2137,6.8047,3.8228,2.1221,7.679,4.2743,11.5662,6.3446l-.155-5.7814,3.0765-.0834,7.3034-.2617q7.3014-.3025,14.5974-.7318,14.59-.8708,29.14-2.2957,29.0928-2.8492,57.9129-7.9054Z"/><text class="cls-2" transform="translate(379.9858 185.2889)">imports</text><text class="cls-11" transform="translate(523.9009 387.6068)">No Intention</text><text class="cls-11" transform="translate(272.6938 343.5866)">2 instances</text><text class="cls-12" transform="translate(262.1675 39.2417)">Root Injector</text><path class="cls-13" d="M387.4253,16.4447c-.98.5261-4.703.585-8.92.5859-4.2181.0483-8.9319.0163-11.8839.3151-7.5389-.0926-15.0835-.03-22.6276.0481-4.0257.1655-3.6-.2944-3.7817-.67a32.4953,32.4953,0,0,1-9.4311.3846c-5.0079.0779-10.7682.2738-13.2038-.0269-5.0753.646-18.1835.325-26.3943.4083-11.1513.2934-24.4347.1383-38.0943-.8362l.275-.2592c.1672,6.2823.2483,12.6581.1711,18.9539-.0736,6.2958-.2736,12.507-.456,18.47l-.3682-.3871c12.1533.1753,23.1353.2356,31.9844.1307,5.7815.31,9.2107-.0451,15.0856.5191,5.5222.0693,5.7924-.5518,11.3137-.5,5.12.1309,14.9635-.4033,16.9747.1188,8.4379-.5206,26.25-1.3311,35.8141-1.0789,2.6176-.9043,6.98-.1389,11.3005-.7664L387.3082,51.5,386.0307,52.84l-.0768-4.8357c-.268-9.8592-1.5411-21.9971-.99-32.0537.3977-2.9429,1.4365,1.4049,1.35,9.4112.4414,3.9311.365,12.518.7492,16.9624.2385,3.6212.3866,7.1163.4936,10.4916l.0064.2-.2066.01c-8.2114.381-15.8622.498-23.44,1.0339-11.1749.2171-23.4692.7821-35.8327,1.0791-11.3106.2719-22.9506.4676-35.85.3732-5.424-.2811-14.717-.1177-18.87-.596-2.7816.6164-7.034.1147-11.3221.1114-2.6917-.0036-5.5988.09-9.359.08l-1.3057-.0037.0271-1.3411c.0619-3.0645.2207-6.7637.572-11.3709.1278-9.0578-.1019-17.7832-.3535-25.9614l-.05-1.6194,1.6543.1068,19.1468,1.2359c10.7317-.5908,20.6922-.0585,37.6466-.4093,12.4717.09,26.1431-.3093,43.3941.125,2.751-.0659,5.7867-.1829,8.91-.3015,3.1249-.0827,6.3371-.1953,9.44-.207C377.969,15.321,383.7331,15.6089,387.4253,16.4447Z"/><polygon class="cls-14" points="320.567 54.182 319.704 85.1 313.922 84.938 320.179 96.51 327.071 85.305 321.29 85.144 322.153 54.226 320.567 54.182"/><text class="cls-15" transform="translate(326.1533 75.1989)">uses providers</text><text class="cls-12" transform="translate(511.482 112.5342)">Lazy Injector</text><path class="cls-13" d="M637.7818,89.8809c-.98.526-4.7031.5849-8.92.5859-4.2181.0483-8.9319.0163-11.8838.315-7.539-.0926-15.0835-.03-22.6276.0481-4.0259.1656-3.6-.2943-3.7818-.67a32.4959,32.4959,0,0,1-9.4311.3845c-5.0078.0779-10.7683.2739-13.2037-.0269-5.0753.646-18.1835.3251-26.3943.4084-11.1515.2934-24.4348.1383-38.0944-.8362l.2751-.2593c.1672,6.2824.2481,12.6582.1711,18.954-.0737,6.2958-.2737,12.507-.4562,18.47l-.368-.3872c12.1532.1754,23.1352.2357,31.9842.1308,5.7815.31,9.2107-.0451,15.0856.5191,5.5222.0692,5.7926-.5519,11.3137-.5005,5.12.131,14.9637-.4033,16.9748.1189,8.438-.5206,26.25-1.3311,35.814-1.0789,2.6177-.9043,6.98-.139,11.3007-.7665l12.1246-.3537-1.2773,1.34L636.31,121.44c-.268-9.8592-1.5411-21.9971-.99-32.0536.3977-2.943,1.4366,1.4048,1.35,9.4112.4414,3.9311.365,12.518.7491,16.9624.2384,3.6211.3865,7.1162.4937,10.4915l.0063.2-.2066.01c-8.2115.381-15.8621.4981-23.44,1.0339-11.175.2171-23.4693.7822-35.8327,1.0791-11.3106.272-22.9505.4677-35.85.3732-5.424-.2811-14.717-.1176-18.87-.596-2.7816.6165-7.0341.1148-11.3222.1115-2.6916-.0036-5.5986.09-9.3589.08l-1.3056-.0038.0271-1.341c.0617-3.0645.2206-6.7637.572-11.371.1278-9.0577-.1021-17.7831-.3536-25.9614l-.05-1.6193,1.6541.1067,19.147,1.236c10.7316-.5908,20.6921-.0585,37.6465-.4093,12.4718.09,26.1431-.3094,43.394.125,2.7511-.0659,5.7869-.183,8.91-.3015,3.1249-.0827,6.3372-.1954,9.44-.2071C628.3254,88.7572,634.09,89.045,637.7818,89.8809Z"/><path class="cls-14" d="M539.3374,129.4635q-.3431,4.2967-1.0019,8.56c-.2235,1.4193-.4674,2.8355-.7445,4.2454l-.4322,2.1114-.4182,1.874-5.6344-1.3078a102.8131,102.8131,0,0,1,3.2857,12.4386,109.2435,109.2435,0,0,0,9.5277-9.4645l-5.6337-1.3076.424-1.9.4384-2.1409c.2809-1.4295.5282-2.8655.7549-4.3047q.6672-4.3192,1.0157-8.68Z"/><path class="cls-14" d="M568.327,88.535l-43.76-16.0695c-14.59-5.3444-29.1563-10.7576-43.808-15.9626-14.6549-5.1891-29.4017-10.1592-44.3537-14.477-7.4733-2.1637-14.99-4.1891-22.57-5.9644-3.7784-.9348-7.5936-1.7132-11.395-2.55l-4.5578-.8905,1.0978-5.679c-4.2022,1.3727-8.3788,2.9487-12.4624,4.454,3.3953,2.8251,6.7284,5.5544,9.9658,8.4609l1.0977-5.6783,4.5381.8865c3.786.8342,7.5851,1.609,11.35,2.5405,7.5506,1.7685,15.0429,3.7871,22.4945,5.9447,14.9087,4.3052,29.6267,9.2651,44.2648,14.4483,14.6337,5.1985,29.2,10.6119,43.7913,15.9566l43.76,16.0694Z"/><text class="cls-15" transform="translate(452.5171 43.0896)">inherits instances</text><text class="cls-15" transform="translate(548.9024 144.4557)">uses providers</text><path class="cls-5" d="M322.7912,135.0584q.3273,8.548.5026,17.101l.1346,8.5532.0549,7.6408-5.7842.0178q3.3059,5.6462,6.5432,11.372,3.3394-5.6662,6.6106-11.4125l-5.7834.0178-.055-7.6537-.1347-8.5676q-.174-8.5669-.5034-17.13Z"/><text class="cls-2" transform="translate(330.7199 157.8255)">imports</text></g></svg>