<svg id="Layer_1" data-name="Layer 1" xmlns="http://www.w3.org/2000/svg" viewBox="0 0 386.8773 85.8892"><defs><style>.cls-1,.cls-2,.cls-4{fill:#232532;}.cls-1{fill-rule:evenodd;}.cls-2,.cls-3{font-size:22px;}.cls-2,.cls-3,.cls-6{font-family:SwankyandMooMoo, Swanky and Moo Moo;}.cls-3,.cls-6{fill:#231f20;}.cls-5{fill:#ec5e24;}.cls-6{font-size:16px;}</style></defs><title>flux</title><path class="cls-1" d="M73.1507,41.436c.5079.4429-2.1572.1289-3.2872.1811a30.0582,30.0582,0,0,1-3.2865.18,32.5358,32.5358,0,0,1-4.3714-.199c-1.9137.2207-4.2016.0566-6.5657.1211-1.1042.03-2.0393.1354-3.2843.18-1.257.0455-2.4438.0113-3.8308.05-5.4686.1562-14.1486.342-20.78-.1364-1.5528-.0082-2.2852.1783-3.8343.17l-8.6283-.3483-1.9586-.0707a.8808.8808,0,0,0-.5479.09.8441.8441,0,0,0-.2492.4926,9.5793,9.5793,0,0,0-.1006,1.7665L12.41,45.7915c-.0363,5.0078-.0121,10.0546.086,16.5231-.0876,1.5571-.03,2.7093-.0308,3.7287l-.5443-.5459a10.5786,10.5786,0,0,1,2.2877.2147c4.8868-.0994,9.8064-.04,14.2187.1827,1.7809-.1981,3.484-.3717,5.4693-.4557,4.8415-.2006,8.8237.1557,14.775.1138-.176.0009.282.1963.5437.129,1.2173-.3148,5.2707-.0968,7.6759-.0371,1.7092.0459,4.1089.0663,6.8434.2182a29.8974,29.8974,0,0,1,8.65,1.62c.6366.2764,1.2737.6013,1.9767.9819l-1.6391.9094c.2248-2.3283.3974-4.9364.5056-7.72.6407-6.7177.6279-14.6049,1.0746-21.2677.3792-.4837.2645,1.4155.4989,1.6355.2272.515.0369-3.1339.2265-1.0978.44-.51.2487,2.8893.146,3.285a39.6316,39.6316,0,0,1-.1351,4.38c.0771,5.3223-.37,11.7217-.8455,17.492-.11,1.4157-.1459,2.4618-.1772,3.3834l-.0091.2681-.2537-.1223c-1.1021-.5313-2.057-.9078-3.3931-1.4467-4.0431-1.0584-10.8676-1.0014-16.8032-.9459-6.0889-.3719-8.686.0056-13.1042-.4275-6.8158.4894-13.3066.4335-22.97.3761L11.9137,67.04l-1.0026-.0228.0113-.9715c.0909-7.803-.0144-15.2377.1208-23.4668a5.2471,5.2471,0,0,1,.2288-1.029,1.9394,1.9394,0,0,1,1.05-1.1889,3.1584,3.1584,0,0,1,1.3421-.1489l1.0474.0291a13.8463,13.8463,0,0,1,3.21.3131,81.9241,81.9241,0,0,1,9.8412.2988,19.1589,19.1589,0,0,1,2.7357-.1911c5.7894.26,10.3646.2672,16.4085.0585,5.871.0113,7.6109.2187,11.4887-.0322a39.634,39.634,0,0,0,4.9213.0893c.9324.0428,1.418-.1784,1.6385.03,2.3781.1491,3.0277-.0491,3.8258.31C70.4306,41.1844,73.0343,41.0612,73.1507,41.436Z"/><text class="cls-2" transform="translate(17.0195 59.6964)">Action</text><path class="cls-1" d="M99.69,41.0519c1.4593-1.0963,11.208-.661,15.6634-1.2042l17.048.2573c3.0362-.0655,2.7028.3836,2.8295.7635a18.2989,18.2989,0,0,1,7.1117-.1329,86.0114,86.0114,0,0,1,9.9426.39c3.8383-.4958,13.705.1209,19.8972.06,8.3454-.2326,18.2546-.2509,28.4785-.1836l.221.0015.0281.2208,3.3737,26.4909.0547.43-.4355-.0153c-9.8232-.3456-18.7213-.6174-25.8069-.6406-4.3479-.3843-6.9355-.0785-11.3519-.7023-4.1593-.1253-4.3685.5056-8.5244.41-1.9266-.0619-4.7438.0135-7.2666.0689a24.9512,24.9512,0,0,1-5.514-.1794c-3.1725.3017-8.1033.6989-13.1326,1.0741-2.5125.22-5.0534.388-7.4128.5485-2.3577.1793-4.5411.272-6.34.3187-1.8907,1.0484-5.2294.4482-8.4027,1.3691-3.3869.3732-6.7543.8806-10.1259,1.36l-1.5121.2149-.009-1.5109-.015-2.5222c-.1555-7.4295-1.29-16.5818-.6244-24.155.4312-2.2148,1.42,1.0671,1.2425,7.0985.3966,2.9643.2222,9.4332.5556,12.7839.168,2.3261.2714,4.5829.3409,6.7859l-.2077-.177c6.515-1.1428,12.6125-1.7428,18.6276-2.68,8.4-.7227,17.6537-1.5754,26.9837-1.9468,8.533-.3468,17.3227-.4642,27.0478-.2068,4.0843.3519,11.0922.3208,14.209.8624,2.1114-.57,5.303-.0153,8.5326.0534,2.4179.0466,5.0688-.047,8.77.09l-1.3554,1.4752c-.2309-1.8721-.451-4.1438-.6035-6.841-.9758-6.8531-1.9924-13.46-2.8275-19.6428l1.4665,1.308c-5.0673-.0169-9.8357-.1115-14.2657-.3849-8.1013.8426-15.6406.3128-28.4327.2907-9.4057-.3617-19.7067-.4665-32.676-1.213C116.9871,41.5542,105.2608,42.52,99.69,41.0519Z"/><text class="cls-2" transform="translate(103.0591 57.0225)">Dispatcher</text><path class="cls-1" d="M231.2057,42.6216c.4146-.5832,2.2764-.9918,4.4177-1.2621l3.272-.3147a25.35,25.35,0,0,0,2.8057-.2979c3.8764.0825,7.75.3578,11.6038.7851,2.0724.0966,1.7979.5459,1.8463.9246a8.4837,8.4837,0,0,1,4.8355.3353,42.3634,42.3634,0,0,1,6.7077,1.0533c2.652-.2243,9.3231.9123,13.5784.8081a111.3278,111.3278,0,0,0,12.7854-1.158l.1635-.0259-.0047.1728c-.2338,8.6183,1.3109,18.0858.9186,26.669l-.0176.3865-.3934-.033c-5.94-.4981-11.3085-.9256-15.6756-1.17-2.9341-.5449-4.7214-.3321-7.6777-1.1633-2.82-.3152-3.0122.2766-5.8322-.0366-2.6065-.38-7.6861-.3786-8.6637-1.0079-2.1781.041-5.5527-.0029-8.9651.0246-3.4164.0156-6.8578.1721-9.2808.2236-1.1779.9559-3.3819.463-5.3519,1.3886l-1.1427.5369-.4442-1.73-.0424-.1649-.37-8.71c-.3265-5.0564-1.671-11.2492-1.18-16.4352.38-1.5257,1.444.6725,1.405,4.7891.4645,2.0046.4392,6.4192.85,8.69.5864,4.18.709,8.0467.9418,11.7631l-.3965-.2981c1.87-.4881,3.7162-.87,5.5669-1.2591a109.57,109.57,0,0,1,18.534-.2524c5.8066.3522,11.7667.7425,18.36,1.3865,2.7505.516,7.522.7172,9.61,1.3359,1.4759-.5091,3.6134.1308,5.811.275,1.2054.0788,2.5019.0808,4.0918.163l-1.39,1.1957c.0331-1.6792.0535-3.7331.2136-6.4445-.4669-7.169-1.6053-13.9771-1.0832-20.2215l1.6707,1.5454c-1.1239.0935-2.1756.1616-3.2007.2059-5.53,1.4691-10.9028,1.0833-19.6664.3985-6.436-.8138-13.3615-1.9157-22.0469-3.17-2.8013-.1268-6.1705.11-9.2755.2437-1.549.1277-3.0416.1693-4.3813.1755A12.6172,12.6172,0,0,1,231.2057,42.6216Z"/><text class="cls-3" transform="translate(236.582 59.8809)">Store</text><path class="cls-1" d="M318.52,46.4308c-.4616.4323-.047-1.93-.0564-2.94a2.4861,2.4861,0,0,1-.0741-.6538l-.26.2454c.685-.06,1.6691-.0476,2.2808-.1259a24.4487,24.4487,0,0,1,3.9023.1372c1.7061-.2374,3.749-.0929,5.8589-.1494.9857-.0283,1.8216-.1351,2.9339-.1672,1.1231-.0342,2.1828.0037,3.4222-.011a131.53,131.53,0,0,1,18.5495.7906c1.3855.08,2.05-.0579,3.4326.033,5.7393.6364,10.2179,1.2056,14.7921,1.7741l.4673.0581-.0085.4617c-.08,4.34-.1031,8.77-.0687,14.4136-.1826,2.4674.105,3.7988-.29,5.3688.0234,1.2662.0335,2.5347.03,3.79l-.0011.4107-.42-.0071c-3.082-.0518-6.1024-.183-8.8931-.3928-1.5944.1688-3.1184.3144-4.8918.3657-4.3246.1251-7.8689-.3154-13.1747-.308.1569,0-.25-.1973-.4835-.1309-1.0876.3062-4.696.0929-6.8377.0794-3.0358-.0178-8.6.0021-13.665.0409-1.9752-.1326-4.1367-.2239-6.5052-.2816l-1.03-.0251-.0082-1.0242c-.0057-.7082-.0119-1.4843-.0182-2.2762.2894-6.0317.1229-13.088.6508-19.041.3832-.4285.2527,1.2663.4853,1.4636.2229.46.063-2.7949.2357-.9778.44-.4507.2282,2.5756.1309,2.929a35.7713,35.7713,0,0,1-.1058,3.9057c.1238,4.2543-.0359,9.2881-.1464,13.9923L318.5764,68l1.6277.08c2.8886.1242,4.0484-.1061,6.3448.1483,3.7389-.2354,9.8388-.2286,15.1458-.3653,5.4462.3466,7.7711.0215,11.71.5131,5.8771-.3673,11.4728-.227,19.6544-.022l-1.1348,1.0883.0095-.8624c.2834-7.6682.2655-14.8911.4107-22.71l.7939.8995-3.1287-.3908c-1.7877-.39-5.3-.5183-6.2686-.999a76.119,76.119,0,0,1-8.7373-.8663,15.2912,15.2912,0,0,1-2.4467.06,113.8972,113.8972,0,0,0-14.6123-.5554,99.17,99.17,0,0,0-10.2335-.0409,29.031,29.031,0,0,0-4.3828-.05c-.8308-.0315-1.26.1956-1.4592-.01-2.12-.1088-2.6945.1048-3.4122-.24l-.3256-.0048.8463-.7983C318.8754,44.3358,318.8714,46.35,318.52,46.4308Z"/><text class="cls-3" transform="translate(325.0234 60.441)">View</text><path class="cls-4" d="M74.0506,54.7174a109.5328,109.5328,0,0,1,12.5822.2552l-.45,5.7666q2.7972-1.4306,5.7509-2.7054,1.4766-.64,2.99-1.231l1.5224-.5837.7682-.285a.6289.6289,0,0,0,.2907-.1484.1694.1694,0,0,1,.06-.0579l-.0079.0014c.1139-.0131.0456-.0048.0737-.0058.0069.0021-.0069-.0019-.0149-.0177-.0009-.0253-.0642.0947-.0764.016-.0479.0068-.0245.1.022.1125a.1777.1777,0,0,0,.1523.0224.2583.2583,0,0,0,.0353-.4,4.8,4.8,0,0,0-.3913-.3324l-.6353-.5263-1.2882-1.0441q-1.3-1.0385-2.6484-2.042-2.6959-2.01-5.5786-3.8871l-.45,5.7659a111.1212,111.1212,0,0,0-12.7657-.2589Z"/><path class="cls-4" d="M202.5047,55.3869l15.7812.2319-.085,5.7836,5.7439-3.2044L226.9,56.5663a9.5008,9.5008,0,0,0,2.7318-2.1382,8.043,8.043,0,0,1-2.8506-1.1481l-2.74-1.6583L218.3942,48.25l-.085,5.7828-15.7812-.2319Z"/><path class="cls-4" d="M293.3413,57.9085q3.4172-.45,6.8564-.705,1.7184-.1307,3.4405-.2057l1.7221-.0661,1.6265-.04.101,5.7833a109.0917,109.0917,0,0,1,11.2683-6.24,115.508,115.508,0,0,0-11.498-6.9125l.101,5.7826-1.648.04-1.7449.067q-1.7444.0775-3.486.2084-3.4828.258-6.9472.7144Z"/><path class="cls-5" d="M345.8128,44.0793a71.5755,71.5755,0,0,0-.137-10.5123q-.2271-2.6207-.6458-5.22c-.3064-1.9078-.7075-3.8093-1.151-5.6947l-.0408-.1771c-.04-.0279-.1151-.0146-.1709-.0239l-.362-.0239-.724-.0479-1.448-.0957-2.9091-.1761-5.2-.3137-10.3967-.554q-20.7968-1.0369-41.6115-1.57c-27.75-.7452-55.5067-.9575-83.2575-1.0541l-83.2483-.2-41.6237-.0949L62.48,18.2975l-5.4636-.0125-2.9151-.0066-1.4575-.0033-.3644-.0008a1.1463,1.1463,0,0,0-.1766.0053l-.0013.1822-.005.7288-.059,8.6043-5.7841-.04,6.1612,10.8434.3374.5937.3455-.5891,6.31-10.7579-5.7833-.04.05-7.2224.0039-.5719.001-.143a.8993.8993,0,0,1,.1385-.0041l.2859.0007,1.1438.0026,2.2876.0052,4.9421.0113,10.4059.0237,41.6237.0949,83.2464.2c27.7463.0966,55.4908.3089,83.22,1.0536q20.7967.5585,41.5751,1.5683l10.3857.5534,5.1869.3129,2.2836.1378,1.1417.0689.5709.0344.2854.0172c.044.0071.1031-.0037.1347.0181l.0321.1393c.3533,1.4867.65,2.9735.8945,4.4929q.4092,2.54.6315,5.1047a69.9834,69.9834,0,0,1,.134,10.2792Z"/><text class="cls-6" transform="translate(191.7109 15.0513)">2</text><text class="cls-6" transform="translate(80.5713 41.6944)">3</text><text class="cls-6" transform="translate(211.1507 45.7307)">4</text><text class="cls-6" transform="translate(301.5178 45.7302)">1</text></svg>