<svg id="Layer_1" data-name="Layer 1" xmlns="http://www.w3.org/2000/svg" viewBox="0 0 252.1403 139.9883"><defs><style>.cls-1,.cls-2,.cls-4{fill:#232532;}.cls-1{fill-rule:evenodd;}.cls-2,.cls-3{font-size:22px;}.cls-2,.cls-3,.cls-6,.cls-7{font-family:SwankyandMooMoo, Swanky and Moo Moo;}.cls-3,.cls-6,.cls-7{fill:#231f20;}.cls-5{fill:#ec5e24;}.cls-6{font-size:16px;}.cls-7{font-size:17px;}</style></defs><title>redux</title><path class="cls-1" d="M72.5358,42.6147c.5078.4429-2.1573.1289-3.2873.1811a30.06,30.06,0,0,1-3.2864.18,32.5365,32.5365,0,0,1-4.3714-.199c-1.9138.2207-4.2017.0566-6.5657.1211-1.1042.03-2.0393.1354-3.2843.18-1.257.0455-2.4438.0113-3.8308.05-5.4686.1562-14.1486.342-20.78-.1364-1.5528-.0082-2.2852.1783-3.8343.17l-8.6283-.3483-1.9586-.0707a.8809.8809,0,0,0-.5479.09.844.844,0,0,0-.2492.4926,9.5787,9.5787,0,0,0-.1006,1.7666L11.7947,46.97c-.0363,5.0078-.0121,10.0546.086,16.5231-.0876,1.5571-.03,2.7093-.0308,3.7287l-.5443-.5459a10.5774,10.5774,0,0,1,2.2877.2147c4.8868-.0994,9.8064-.04,14.2187.1827,1.7809-.1982,3.484-.3717,5.4693-.4557,4.8415-.2006,8.8237.1557,14.775.1138-.176.0009.282.1963.5437.129,1.2173-.3148,5.2707-.0968,7.6759-.0371,1.7092.0459,4.1089.0663,6.8434.2182a29.8968,29.8968,0,0,1,8.65,1.62c.6366.2764,1.2736.6013,1.9767.9819l-1.6391.9094c.2248-2.3283.3975-4.9364.5056-7.72.6407-6.7177.6279-14.6049,1.0746-21.2677.3792-.4837.2645,1.4155.4989,1.6355.2272.515.0369-3.1339.2265-1.0977.44-.51.2487,2.8893.146,3.285a39.6266,39.6266,0,0,1-.1351,4.38c.0771,5.3224-.37,11.7217-.8455,17.492-.11,1.4157-.1459,2.4618-.1772,3.3834l-.0091.2681-.2537-.1223c-1.1021-.5313-2.057-.9078-3.3931-1.4467-4.0431-1.0584-10.8676-1.0014-16.8032-.9459-6.0889-.3719-8.686.0056-13.1042-.4275-6.8158.4894-13.3066.4335-22.97.3761l-5.5678-.1267-1.0026-.0228.0113-.9715c.0909-7.803-.0144-15.2377.1208-23.4668a5.2469,5.2469,0,0,1,.2288-1.029,1.94,1.94,0,0,1,1.05-1.1889,3.1584,3.1584,0,0,1,1.3421-.1489l1.0475.0291a13.8465,13.8465,0,0,1,3.21.3131,81.924,81.924,0,0,1,9.8412.2988,19.16,19.16,0,0,1,2.7357-.1911c5.7894.26,10.3646.2672,16.4085.0585,5.871.0113,7.6109.2187,11.4887-.0322a39.6335,39.6335,0,0,0,4.9213.0893c.9324.0428,1.418-.1784,1.6384.03,2.3781.1491,3.0277-.0491,3.8258.31C69.8157,42.3631,72.4193,42.24,72.5358,42.6147Z"/><text class="cls-2" transform="translate(16.4046 60.8751)">Action</text><path class="cls-1" d="M98.4992,43.0572c.4146-.5832,2.2764-.9918,4.4177-1.2621l3.272-.3147a25.348,25.348,0,0,0,2.8057-.2979c3.8764.0825,7.75.3578,11.6038.7851,2.0724.0966,1.7979.5459,1.8463.9246a8.4837,8.4837,0,0,1,4.8355.3353,42.3631,42.3631,0,0,1,6.7077,1.0533c2.652-.2243,9.3231.9123,13.5784.8081a111.3287,111.3287,0,0,0,12.7854-1.158l.1635-.0259-.0047.1728c-.2338,8.6183,1.3109,18.0858.9186,26.669l-.0176.3865-.3934-.033c-5.94-.4981-11.3085-.9256-15.6756-1.17-2.9341-.5449-4.7214-.3321-7.6777-1.1633-2.82-.3152-3.0122.2766-5.8322-.0366-2.6065-.38-7.6861-.3786-8.6637-1.0079-2.1781.041-5.5527-.0029-8.9651.0246-3.4164.0156-6.8578.1721-9.2808.2236-1.1779.9559-3.3819.463-5.3519,1.3886l-1.1427.5369-.4442-1.73-.0424-.1649-.37-8.71c-.3265-5.0564-1.671-11.2492-1.18-16.4352.38-1.5257,1.444.6725,1.405,4.7891.4645,2.0047.4392,6.4192.85,8.69.5864,4.18.709,8.0468.9418,11.7631L99.1912,67.8c1.87-.4881,3.7162-.87,5.5669-1.2592a109.5705,109.5705,0,0,1,18.534-.2524c5.8066.3522,11.7667.7425,18.36,1.3866,2.7505.5159,7.522.7171,9.61,1.3359,1.4759-.5091,3.6134.1308,5.811.275,1.2054.0788,2.5019.0808,4.0918.163l-1.39,1.1957c.0331-1.6792.0535-3.7331.2136-6.4445-.4669-7.169-1.6053-13.9771-1.0832-20.2215l1.6707,1.5454c-1.1239.0935-2.1756.1616-3.2007.2058-5.53,1.4691-10.9028,1.0833-19.6664.3985-6.436-.8138-13.3615-1.9157-22.0469-3.17-2.8013-.1268-6.1705.11-9.2755.2437-1.549.1277-3.0416.1693-4.3813.1755A12.6171,12.6171,0,0,1,98.4992,43.0572Z"/><text class="cls-3" transform="translate(103.8755 60.3165)">Store</text><path class="cls-1" d="M186.4207,48.3541c-.4616.4323-.047-1.93-.0563-2.94a2.4856,2.4856,0,0,1-.0742-.6538l-.26.2454c.6851-.06,1.6691-.0476,2.2808-.1259a24.45,24.45,0,0,1,3.9023.1373c1.7061-.2374,3.749-.0929,5.8588-.1494.9857-.0284,1.8216-.1351,2.934-.1672,1.123-.0342,2.1828.0037,3.4222-.011a131.529,131.529,0,0,1,18.5494.7905c1.3855.08,2.05-.0579,3.4326.0331,5.7393.6364,10.2179,1.2056,14.7921,1.774l.4673.0581-.0085.4617c-.08,4.34-.1031,8.77-.0687,14.4135-.1826,2.4674.105,3.7988-.29,5.3688.0234,1.2662.0335,2.5347.03,3.79l-.0011.4107-.42-.007c-3.082-.0518-6.1024-.183-8.893-.3928-1.5945.1688-3.1184.3144-4.8918.3657-4.3246.125-7.8689-.3154-13.1747-.308.1569,0-.25-.1973-.4835-.1309-1.0875.3062-4.6959.0929-6.8377.0794-3.0358-.0178-8.6.0021-13.665.0409-1.9752-.1326-4.1366-.2239-6.5052-.2816l-1.03-.0251-.0082-1.0242c-.0056-.7082-.0118-1.4843-.0182-2.2762.2894-6.0317.1229-13.088.6508-19.041.3832-.4285.2527,1.2663.4854,1.4636.2229.46.063-2.795.2357-.9778.44-.4507.2282,2.5756.1309,2.929A35.7636,35.7636,0,0,1,186.8,56.11c.1238,4.2543-.0359,9.2881-.1464,13.9923l-.1765-.1784,1.6277.08c2.8886.1242,4.0483-.1061,6.3448.1483,3.739-.2354,9.8389-.2286,15.1458-.3653,5.4462.3466,7.7711.0215,11.71.5131,5.8771-.3673,11.4728-.2269,19.6544-.022l-1.1349,1.0883.01-.8624c.2834-7.6682.2655-14.8911.4107-22.71l.7939.8994-3.1287-.3907c-1.7876-.39-5.3-.5183-6.2686-.999a76.1192,76.1192,0,0,1-8.7373-.8663,15.2912,15.2912,0,0,1-2.4467.06,113.8966,113.8966,0,0,0-14.6124-.5554,99.1668,99.1668,0,0,0-10.2335-.041,29.0315,29.0315,0,0,0-4.3828-.05c-.8309-.0315-1.26.1956-1.4592-.01-2.12-.1088-2.6945.1048-3.4122-.24l-.3256-.0048.8463-.7983C186.7765,46.2592,186.7726,48.2738,186.4207,48.3541Z"/><text class="cls-3" transform="translate(192.9245 62.3643)">View</text><path class="cls-4" d="M73.4357,55.8961a109.5327,109.5327,0,0,1,12.5822.2552l-.45,5.7666q2.7972-1.4306,5.7509-2.7054,1.4765-.64,2.99-1.231l1.5223-.5837.7682-.285a.6286.6286,0,0,0,.2907-.1484.17.17,0,0,1,.06-.0579l-.0079.0014c.1139-.0131.0456-.0048.0737-.0058.0069.0021-.0069-.0019-.0149-.0177-.0009-.0253-.0642.0947-.0764.016-.0479.0068-.0245.1.022.1125a.1777.1777,0,0,0,.1523.0224.2583.2583,0,0,0,.0353-.4,4.8086,4.8086,0,0,0-.3913-.3324l-.6353-.5263L94.8186,54.733q-1.3-1.0385-2.6483-2.042-2.6959-2.01-5.5786-3.8871l-.45,5.7659a111.1205,111.1205,0,0,0-12.7657-.2589Z"/><path class="cls-4" d="M161.2424,57.8318q3.4172-.45,6.8564-.705,1.7184-.1307,3.4405-.2057l1.7221-.0661,1.6265-.04.101,5.7833a109.0917,109.0917,0,0,1,11.2683-6.24,115.5072,115.5072,0,0,0-11.498-6.9124l.101,5.7826-1.648.04-1.7449.067q-1.7444.0775-3.486.2084-3.4828.2581-6.9472.7144Z"/><path class="cls-5" d="M214.1925,45.2365q.2007-6.2031-.1842-12.4063c-.0621-1.0326-.144-2.0639-.2325-3.0946-.1-1.1395-.2187-2.29-.3511-3.43l-.2076-1.7118-.1089-.8558c.0191-.1-.0932-.0654-.1541-.0835l-.2123-.0236-.4247-.0471-3.3974-.377c-2.3606-.2755-4.2891-.442-6.364-.6455-2.0491-.2092-4.103-.3587-6.1545-.5374-4.1049-.3337-8.2137-.61-12.3239-.8554-16.4433-.964-32.9088-1.2338-49.36-1.3562l-49.3459-.221L60.7,19.4894l-6.682-.0276L52.29,19.4547l-.8639-.0036-.0049.8622-.0131,3.4557-.02,5.2066-5.7841-.0219,5.9615,10.4173.5722,1,.58-.9955,6.04-10.3718-5.7834-.0219.0172-4.5491.01-2.7119.0039-.6766.678.0028,1.3559.0056,5.6534.0234,24.6718.1019,49.3409.221c16.4409.1222,32.88.3921,49.2794,1.3535,4.0992.2444,8.1962.52,12.2883.8529,2.0449.1781,4.0926.3271,6.1345.5356,2.0172.1968,4.1869.3919,5.9064.5919l2.7288.2984.3411.0373.1706.0186c.0489.0142.1392-.0131.1236.0657l.0856.6725.161,1.3463c.1011.9.1912,1.7936.27,2.7025.0874,1.0177.1683,2.0361.23,3.0559q.3905,6.1171.182,12.2533Z"/><path class="cls-1" d="M81.5985,101.2619c1.4593-1.0963,11.2079-.661,15.6634-1.2042l17.048.2573c3.0362-.0655,2.7028.3836,2.8295.7635a18.2989,18.2989,0,0,1,7.1117-.1329,86.0126,86.0126,0,0,1,9.9426.39c3.8383-.4958,13.705.1209,19.8972.06,8.3454-.2326,18.2546-.2509,28.4785-.1836l.221.0015.0281.2207c1.13,8.8728,2.2909,17.9886,3.3737,26.4909l.0547.43-.4355-.0153c-9.8232-.3456-18.7213-.6174-25.8069-.6406-4.3479-.3843-6.9355-.0785-11.3519-.7023-4.1593-.1253-4.3685.5056-8.5244.41-1.9266-.0619-4.7438.0135-7.2666.0689a24.9513,24.9513,0,0,1-5.514-.1795c-3.1725.3017-8.1033.699-13.1326,1.0741-2.5125.22-5.0534.388-7.4128.5485-2.3577.1793-4.5411.272-6.34.3187-1.8907,1.0484-5.2293.4482-8.4026,1.3691-3.3869.3732-6.7543.8806-10.1259,1.36l-1.5121.2149-.009-1.5109-.015-2.5222c-.1556-7.4295-1.29-16.5818-.6244-24.155.4312-2.2148,1.4205,1.0671,1.2425,7.0985.3965,2.9643.2222,9.4332.5557,12.7838.168,2.3261.2714,4.5829.3409,6.7859l-.2078-.177c6.515-1.1428,12.6125-1.7428,18.6276-2.68,8.4005-.7227,17.6537-1.5754,26.9837-1.9468,8.533-.3468,17.3227-.4642,27.0478-.2068,4.0843.3519,11.0922.3208,14.209.8624,2.1114-.57,5.303-.0153,8.5326.0534,2.4179.0466,5.0688-.047,8.77.09l-1.3554,1.4752c-.2309-1.8721-.451-4.1438-.6035-6.841-.9758-6.8531-1.9924-13.46-2.8275-19.6428l1.4665,1.308c-5.0673-.0169-9.8357-.1115-14.2657-.3849-8.1013.8426-15.6406.3128-28.4327.2907-9.4057-.3617-19.7067-.4665-32.6761-1.213C98.8959,101.7642,87.17,102.73,81.5985,101.2619Z"/><text class="cls-2" transform="translate(89.9679 117.2325)">Reducer</text><polygon class="cls-5" points="111.579 67.792 111.579 88.549 105.795 88.549 112.372 99.942 118.949 88.549 113.165 88.549 113.165 67.792 111.579 67.792"/><polygon class="cls-5" points="141.607 101.071 143.618 80.841 149.372 81.437 143.957 69.423 136.288 80.081 142.04 80.678 140.026 100.937 141.607 101.071"/><text class="cls-6" transform="translate(9.2831 84.7023)">current state</text><text class="cls-7" transform="translate(148.1249 94.8956)">new state</text><text class="cls-6" transform="translate(127.2508 15.1198)">2</text><text class="cls-6" transform="translate(79.6467 45.2099)">3</text><text class="cls-6" transform="translate(115.148 82.2814)">4</text><text class="cls-6" transform="translate(129.805 95.8956)">5</text><text class="cls-6" transform="translate(167.6028 47.2099)">1</text></svg>