<svg id="Layer_1" data-name="Layer 1" xmlns="http://www.w3.org/2000/svg" viewBox="0 0 259.9593 121.8244"><defs><style>.cls-1{fill:#ec5e24;}.cls-2,.cls-4,.cls-6{fill:#232532;}.cls-2{fill-rule:evenodd;}.cls-3,.cls-4{font-size:22px;}.cls-3,.cls-7,.cls-8{fill:#231f20;}.cls-3,.cls-4,.cls-7{font-family:SwankyandMooMoo, Swanky and Moo Moo;}.cls-5{fill:none;stroke:#232532;stroke-miterlimit:10;}.cls-7{font-size:17px;}</style></defs><title>tydux</title><path class="cls-1" d="M223.7325,29.32l-.0211-5.3971L223.7,21.0214l-.0057-1.4511-.0028-.7255-.0007-.1814c.0016-.0623.0146-.1362-.07-.1107l-.3628.003-11.1093.0912-40.0646.3289-20.0323.1644c-3.34.024-6.677.0686-10.003.041-3.3324-.002-6.6246-.1958-9.9845-.3436-3.3436-.1356-6.6758-.22-9.9857-.44-1.7791-.1147-3.7081-.3-5.5641-.5339-.9357-.119-1.8694-.2438-2.798-.382l-.1744-.0251a.5471.5471,0,0,0-.0842-.0094.3885.3885,0,0,0,.0028.0835l.027.3512.0541.7024.0973,1.4079c.1186,1.88.2078,3.7648.22,5.6279.0155,1.7-.0066,3.3292-.05,5-.0873,3.3231-.2658,6.6546-.4085,9.9948l-1.3383,33.241-5.78-.2323,2.2229,4.2345,3.8913,7.4128,4.4737-7.0766,2.5556-4.0424-5.7788-.2322,1.3381-33.2364c.1422-3.3312.3212-6.6686.4094-10.0211.0443-1.6666.0655-3.3761.0515-5.0152-.0116-1.4725-.0628-2.937-.15-4.4033l-.0734-1.0985-.0423-.5489-.0211-.2744a.2263.2263,0,0,1-.0013-.0643l.0681.01.1362.02c.7259.109,1.4537.2042,2.1823.2934,1.4772.1736,2.8777.2966,4.4287.4,3.3537.2231,6.6989.3069,10.0271.4421,3.3107.1457,6.6874.3434,10.0348.3449,3.3517.0277,6.6918-.0171,10.03-.041l20.0323-.1644,40.0646-.3288,9.6093-.0789.2847-.0023c.0668-.02.0566.038.0553.0869l.0005.1423.0022.5694.0045,1.1387.0089,2.2785.0195,4.9626Z"/><path class="cls-2" d="M58.0126,27.3911c.4146-.5832,2.2764-.9918,4.4176-1.2621l3.272-.3147a25.3473,25.3473,0,0,0,2.8057-.2979c3.8764.0825,7.75.3578,11.6038.7851,2.0724.0966,1.7979.5459,1.8464.9246a8.4839,8.4839,0,0,1,4.8355.3353,42.3635,42.3635,0,0,1,6.7077,1.0533c2.652-.2242,9.3231.9123,13.5784.8081a111.3283,111.3283,0,0,0,12.7854-1.158l.1635-.0259-.0047.1728c-.2338,8.6183,1.3109,18.0858.9186,26.669l-.0177.3865-.3934-.033c-5.94-.4981-11.3084-.9256-15.6756-1.17-2.9341-.5449-4.7214-.3321-7.6777-1.1633-2.82-.3152-3.0123.2766-5.8322-.0366-2.6065-.38-7.6861-.3786-8.6637-1.0079-2.1781.041-5.5527-.003-8.9651.0246-3.4164.0156-6.8578.1721-9.2808.2236-1.1779.9559-3.3819.463-5.3519,1.3886l-1.1427.5369-.4443-1.73-.0424-.1649-.37-8.71c-.3265-5.0564-1.671-11.2492-1.18-16.4352.38-1.5258,1.444.6725,1.405,4.7891.4645,2.0046.4392,6.4192.85,8.69.5864,4.18.709,8.0468.9418,11.7631l-.3965-.2981c1.87-.4881,3.7162-.87,5.5669-1.2592a109.5718,109.5718,0,0,1,18.534-.2524c5.8066.3522,11.7668.7425,18.36,1.3866,2.75.5159,7.522.7171,9.61,1.3359,1.476-.5091,3.6134.1308,5.8111.275,1.2054.0788,2.5018.0808,4.0917.163l-1.39,1.1957c.0331-1.6792.0535-3.7331.2136-6.4445-.4669-7.169-1.6053-13.9771-1.0832-20.2215l1.6707,1.5453c-1.124.0935-2.1756.1616-3.2007.2058-5.53,1.4691-10.9028,1.0833-19.6664.3985-6.436-.8138-13.3615-1.9156-22.0468-3.17-2.8013-.1268-6.1705.11-9.2755.2437-1.549.1277-3.0416.1693-4.3813.1755A12.6176,12.6176,0,0,1,58.0126,27.3911Z"/><text class="cls-3" transform="translate(60.3889 44.6503)">Store</text><path class="cls-2" d="M69.6109,84.8032c.5079.4429-2.1573.1289-3.2873.1811a30.0555,30.0555,0,0,1-3.2864.18,32.5361,32.5361,0,0,1-4.3714-.199c-1.9138.2207-4.2017.0566-6.5657.1211-1.1042.03-2.0393.1354-3.2843.18-1.257.0455-2.4438.0113-3.8308.05-5.4687.1562-14.1486.3419-20.78-.1364-1.5528-.0082-2.2852.1783-3.8343.17l-8.6283-.3483-1.9586-.0706a.8809.8809,0,0,0-.5479.09.8441.8441,0,0,0-.2492.4926A9.58,9.58,0,0,0,8.8862,87.28L8.87,89.1587c-.0363,5.0078-.0121,10.0547.086,16.5231-.0876,1.5571-.03,2.7093-.0308,3.7287l-.5443-.5459a10.5774,10.5774,0,0,1,2.2877.2147c4.8868-.0994,9.8064-.04,14.2187.1827,1.7809-.1982,3.484-.3717,5.4693-.4557,4.8415-.2006,8.8237.1557,14.7751.1138-.176.0009.282.1963.5437.129,1.2173-.3148,5.2707-.0968,7.6759-.037,1.7092.0459,4.1089.0663,6.8434.2182a29.8983,29.8983,0,0,1,8.65,1.62c.6366.2764,1.2737.6013,1.9767.9819l-1.639.9094c.2248-2.3283.3974-4.9364.5056-7.72.6407-6.7177.6279-14.6049,1.0746-21.2677.3792-.4837.2645,1.4155.4989,1.6354.2272.515.0369-3.1339.2265-1.0977.44-.51.2487,2.8893.146,3.285a39.6348,39.6348,0,0,1-.1351,4.38c.0771,5.3224-.37,11.7217-.8455,17.492-.11,1.4157-.1459,2.4618-.1772,3.3834l-.0091.2681-.2537-.1223c-1.1021-.5312-2.057-.9078-3.3931-1.4467-4.0431-1.0584-10.8676-1.0014-16.8032-.9459-6.0889-.3719-8.686.0056-13.1042-.4275-6.8158.4894-13.3066.4335-22.97.3761l-5.5678-.1267-1.0026-.0228.0113-.9715c.0909-7.803-.0144-15.2377.1208-23.4668a5.2479,5.2479,0,0,1,.2288-1.029,1.94,1.94,0,0,1,1.05-1.1889,3.1582,3.1582,0,0,1,1.342-.1489l1.0475.0291a13.8455,13.8455,0,0,1,3.21.3131,81.9272,81.9272,0,0,1,9.8412.2988,19.1623,19.1623,0,0,1,2.7357-.1911c5.7894.26,10.3646.2672,16.4085.0585,5.8709.0113,7.6109.2187,11.4887-.0322a39.6368,39.6368,0,0,0,4.9214.0893c.9324.0428,1.418-.1784,1.6385.03,2.3781.1491,3.0277-.0491,3.8258.31C66.8908,84.5517,69.4944,84.4285,69.6109,84.8032Z"/><text class="cls-4" transform="translate(13.4797 103.0635)">State</text><path class="cls-2" d="M97.6278,85.9921c1.4133-1.0985,10.8626-.6784,15.1806-1.2285l16.524.2309c2.9428-.07,2.62.3795,2.743.7591a17.2047,17.2047,0,0,1,6.8929-.1439,80.8139,80.8139,0,0,1,9.6371.3749c3.72-.5018,13.2837.1,19.2855.0293,8.929-.271,19.7054-.2838,30.7057-.209l.24.0016.0328.24c1.1334,8.2847,2.2851,16.7034,3.3553,24.5267l.06.4393-.4459-.0142c-8.7527-.279-16.6573-.5658-23.0453-.6736-4.2088-.4539-6.7247-.1827-10.99-.9122-4.0273-.2118-4.2473.3795-8.2738.1844-3.7312-.2833-10.9293-.03-12.38-.6-6.1762.2731-19.1766.653-26.1474.2787-1.9119.8578-5.0918.0417-8.2389.64-4.1172.1122-8.2364.2695-12.3463.5052l-2.5976.2146-1.4108.1165-.07-1.5c-.3087-6.6565-1.1246-14.3222-.5391-20.7978.4306-2.147,1.4208,1.0333,1.2445,6.8794.3974,2.8729.2248,9.143.5592,12.39l.1067,1.5192.0018.0258.0229-.0027c8.3752-.9852,15.8649-.8562,23.25-1.43,8.1672-.0568,17.16-.3232,26.1985-.2784,8.2679.0391,16.7721.197,26.1808.6281,3.9477.4251,10.7327.4814,13.7472,1.0336,2.05-.5538,5.1354.0125,8.2645.0848l6.5213.0228-1.33,1.4657c-.352-2.2955-.6956-5.0635-.9213-8.58-.8578-5.51-1.691-10.862-2.4816-15.94l1.4185,1.2522c-6.0475.0242-11.73-.0356-16.93-.3584-7.8521.8552-15.16.337-27.5581.3347-9.1165-.3471-19.1007-.4359-31.6716-1.1624C114.3934,86.4676,103.0288,87.4514,97.6278,85.9921Z"/><text class="cls-4" transform="translate(105.995 101.9626)">Mutators</text><path class="cls-2" d="M198.9219,32.3958c-.4616.4323-.047-1.93-.0564-2.94a2.4875,2.4875,0,0,1-.0741-.6538l-.26.2454c.685-.06,1.6691-.0476,2.2808-.1259a24.4476,24.4476,0,0,1,3.9023.1373c1.7061-.2374,3.749-.0929,5.8589-.1494.9857-.0284,1.8216-.1351,2.9339-.1672,1.1231-.0342,2.1828.0037,3.4222-.011a131.5338,131.5338,0,0,1,18.5495.7906c1.3855.08,2.05-.0579,3.4326.0331,5.7393.6364,10.2179,1.2056,14.7921,1.774l.4673.0581-.0085.4617c-.08,4.34-.1031,8.77-.0687,14.4135-.1826,2.4674.105,3.7988-.29,5.3688.0234,1.2662.0335,2.5347.03,3.79l-.0011.4107-.42-.0071c-3.082-.0518-6.1024-.183-8.8931-.3928-1.5944.1688-3.1184.3144-4.8918.3657-4.3246.125-7.8689-.3154-13.1748-.308.1569,0-.25-.1973-.4835-.1309-1.0875.3062-4.696.0929-6.8377.0794-3.0358-.0178-8.6.0021-13.665.0409-1.9752-.1327-4.1367-.2239-6.5052-.2816l-1.03-.0251-.0082-1.0242c-.0057-.7082-.0119-1.4843-.0182-2.2762.2894-6.0317.1229-13.088.6508-19.041.3832-.4285.2527,1.2662.4853,1.4636.2229.46.063-2.795.2357-.9778.44-.4507.2282,2.5756.1309,2.929a35.7561,35.7561,0,0,1-.1058,3.9057c.1238,4.2543-.0359,9.2881-.1464,13.9922l-.1765-.1784,1.6277.08c2.8886.1242,4.0483-.1061,6.3448.1483,3.7389-.2354,9.8388-.2286,15.1458-.3653,5.4462.3466,7.7711.0215,11.71.5131,5.8771-.3673,11.4728-.2269,19.6544-.022l-1.1348,1.0883.0095-.8624c.2834-7.6682.2655-14.8911.4107-22.71l.7939.8994-3.1287-.3907c-1.7877-.39-5.3-.5182-6.2686-.999a76.1231,76.1231,0,0,1-8.7373-.8663,15.2911,15.2911,0,0,1-2.4467.06,113.8993,113.8993,0,0,0-14.6123-.5554,99.1761,99.1761,0,0,0-10.2335-.041,29.0338,29.0338,0,0,0-4.3828-.05c-.8308-.0315-1.26.1956-1.4592-.01-2.12-.1088-2.6945.1048-3.4122-.24l-.3256-.0048.8463-.7983C199.2776,30.3009,199.2737,32.3155,198.9219,32.3958Z"/><text class="cls-3" transform="translate(205.4257 46.4059)">View</text><path class="cls-5" d="M68.0406,51.2507c.0784,11.3562-.3834,22.7168-1.3831,34.02"/><path class="cls-5" d="M105.35,53.6147l-2.06,32.5294"/><path class="cls-6" d="M119.8148,46.7763q17.1179.5028,34.2458.4638,8.5626-.0206,17.1241-.1834l8.56-.1939,6.272-.186.1885,5.7811q5.6214-3.4688,11.17-7.0033-5.8336-3.047-11.5985-6.1438l.1885,5.78-6.2626.1857-8.5476.1936q-8.5483.1589-17.0985.1831-17.1.0389-34.1947-.4631Z"/><text class="cls-7" transform="translate(159.0426 44.1567)">1</text><text class="cls-7" transform="translate(157.3102 16.6303)">2</text><path class="cls-8" d="M96.3842,98.418q-3.5091-.2934-7.0255-.4791l-3.517-.16-3.4153-.1055.1363-5.7826q-5.93,3.1512-11.5462,6.579,5.7747,3.1507,11.2363,6.5714l.1362-5.7818,3.3924.1047,3.4932.1591q3.4919.1851,6.9767.4757Z"/><text class="cls-7" transform="translate(85.8942 93.1547)">3</text></svg>